%TF.GenerationSoftware,KiCad,Pcbnew,9.0.3-9.0.3-0~ubuntu24.04.1*%
%TF.CreationDate,2025-09-29T22:24:15+02:00*%
%TF.ProjectId,ColorMemo,436f6c6f-724d-4656-9d6f-2e6b69636164,rev?*%
%TF.SameCoordinates,Original*%
%TF.FileFunction,Soldermask,Top*%
%TF.FilePolarity,Negative*%
%FSLAX46Y46*%
G04 Gerber Fmt 4.6, Leading zero omitted, Abs format (unit mm)*
G04 Created by KiCad (PCBNEW 9.0.3-9.0.3-0~ubuntu24.04.1) date 2025-09-29 22:24:15*
%MOMM*%
%LPD*%
G01*
G04 APERTURE LIST*
G04 Aperture macros list*
%AMRoundRect*
0 Rectangle with rounded corners*
0 $1 Rounding radius*
0 $2 $3 $4 $5 $6 $7 $8 $9 X,Y pos of 4 corners*
0 Add a 4 corners polygon primitive as box body*
4,1,4,$2,$3,$4,$5,$6,$7,$8,$9,$2,$3,0*
0 Add four circle primitives for the rounded corners*
1,1,$1+$1,$2,$3*
1,1,$1+$1,$4,$5*
1,1,$1+$1,$6,$7*
1,1,$1+$1,$8,$9*
0 Add four rect primitives between the rounded corners*
20,1,$1+$1,$2,$3,$4,$5,0*
20,1,$1+$1,$4,$5,$6,$7,0*
20,1,$1+$1,$6,$7,$8,$9,0*
20,1,$1+$1,$8,$9,$2,$3,0*%
G04 Aperture macros list end*
%ADD10RoundRect,0.250000X0.625000X-0.350000X0.625000X0.350000X-0.625000X0.350000X-0.625000X-0.350000X0*%
%ADD11O,1.750000X1.200000*%
%ADD12RoundRect,0.090000X0.660000X0.360000X-0.660000X0.360000X-0.660000X-0.360000X0.660000X-0.360000X0*%
%ADD13C,2.000000*%
%ADD14RoundRect,0.225000X0.250000X-0.225000X0.250000X0.225000X-0.250000X0.225000X-0.250000X-0.225000X0*%
%ADD15C,3.200000*%
%ADD16RoundRect,0.250000X-0.350000X-0.450000X0.350000X-0.450000X0.350000X0.450000X-0.350000X0.450000X0*%
%ADD17RoundRect,0.150000X0.587500X0.150000X-0.587500X0.150000X-0.587500X-0.150000X0.587500X-0.150000X0*%
%ADD18RoundRect,0.150000X0.150000X0.200000X-0.150000X0.200000X-0.150000X-0.200000X0.150000X-0.200000X0*%
%ADD19RoundRect,0.250000X0.350000X0.450000X-0.350000X0.450000X-0.350000X-0.450000X0.350000X-0.450000X0*%
%ADD20R,2.000000X2.000000*%
%ADD21O,2.000000X1.600000*%
%ADD22RoundRect,0.250000X0.550000X-0.550000X0.550000X0.550000X-0.550000X0.550000X-0.550000X-0.550000X0*%
%ADD23C,1.600000*%
G04 APERTURE END LIST*
D10*
%TO.C,J1*%
X52000000Y-90000000D03*
D11*
X52000000Y-88000000D03*
%TD*%
D12*
%TO.C,D10*%
X108250000Y-138600000D03*
X108250000Y-135300000D03*
X103350000Y-135300000D03*
X103350000Y-138600000D03*
%TD*%
%TO.C,D7*%
X108250000Y-102850000D03*
X108250000Y-99550000D03*
X103350000Y-99550000D03*
X103350000Y-102850000D03*
%TD*%
D13*
%TO.C,SW16*%
X189350000Y-108300000D03*
X195850000Y-108300000D03*
X189350000Y-112800000D03*
X195850000Y-112800000D03*
%TD*%
D14*
%TO.C,C6*%
X141100000Y-100075000D03*
X141100000Y-98525000D03*
%TD*%
D12*
%TO.C,D1*%
X64300000Y-67450000D03*
X64300000Y-64150000D03*
X59400000Y-64150000D03*
X59400000Y-67450000D03*
%TD*%
D14*
%TO.C,C5*%
X188100000Y-101350000D03*
X188100000Y-99800000D03*
%TD*%
D15*
%TO.C,H4*%
X204000000Y-148000000D03*
%TD*%
D13*
%TO.C,SW17*%
X58350000Y-125800000D03*
X64850000Y-125800000D03*
X58350000Y-130300000D03*
X64850000Y-130300000D03*
%TD*%
D15*
%TO.C,H7*%
X3475000Y-3475000D03*
%TD*%
D14*
%TO.C,C4*%
X199100000Y-62350000D03*
X199100000Y-60800000D03*
%TD*%
D12*
%TO.C,D9*%
X64250000Y-139600000D03*
X64250000Y-136300000D03*
X59350000Y-136300000D03*
X59350000Y-139600000D03*
%TD*%
D13*
%TO.C,SW11*%
X102350000Y-89550000D03*
X108850000Y-89550000D03*
X102350000Y-94050000D03*
X108850000Y-94050000D03*
%TD*%
D16*
%TO.C,R2*%
X166150000Y-76400000D03*
X168150000Y-76400000D03*
%TD*%
D17*
%TO.C,Q1*%
X180087500Y-54350000D03*
X180087500Y-52450000D03*
X178212500Y-53400000D03*
%TD*%
D13*
%TO.C,SW12*%
X102350000Y-108300000D03*
X108850000Y-108300000D03*
X102350000Y-112800000D03*
X108850000Y-112800000D03*
%TD*%
D12*
%TO.C,D12*%
X195000000Y-138100000D03*
X195000000Y-134800000D03*
X190100000Y-134800000D03*
X190100000Y-138100000D03*
%TD*%
D13*
%TO.C,SW10*%
X58600000Y-108300000D03*
X65100000Y-108300000D03*
X58600000Y-112800000D03*
X65100000Y-112800000D03*
%TD*%
D12*
%TO.C,D5*%
X195000000Y-103100000D03*
X195000000Y-99800000D03*
X190100000Y-99800000D03*
X190100000Y-103100000D03*
%TD*%
D13*
%TO.C,SW3*%
X145600000Y-53550000D03*
X152100000Y-53550000D03*
X145600000Y-58050000D03*
X152100000Y-58050000D03*
%TD*%
%TO.C,SW15*%
X189350000Y-88300000D03*
X195850000Y-88300000D03*
X189350000Y-92800000D03*
X195850000Y-92800000D03*
%TD*%
%TO.C,SW19*%
X102350000Y-125300000D03*
X108850000Y-125300000D03*
X102350000Y-129800000D03*
X108850000Y-129800000D03*
%TD*%
%TO.C,SW13*%
X145850000Y-89800000D03*
X152350000Y-89800000D03*
X145850000Y-94300000D03*
X152350000Y-94300000D03*
%TD*%
D15*
%TO.C,H2*%
X50000000Y-50000000D03*
%TD*%
%TO.C,H5*%
X127000000Y-99000000D03*
%TD*%
D14*
%TO.C,C8*%
X52100000Y-102300000D03*
X52100000Y-100750000D03*
%TD*%
%TO.C,C3*%
X142850000Y-67350000D03*
X142850000Y-65800000D03*
%TD*%
%TO.C,C1*%
X55350000Y-67075000D03*
X55350000Y-65525000D03*
%TD*%
D15*
%TO.C,H6*%
X127000000Y-148200000D03*
%TD*%
%TO.C,H8*%
X127000000Y-50000000D03*
%TD*%
D13*
%TO.C,SW23*%
X189350000Y-124800000D03*
X195850000Y-124800000D03*
X189350000Y-129300000D03*
X195850000Y-129300000D03*
%TD*%
%TO.C,SW20*%
X102350000Y-143800000D03*
X108850000Y-143800000D03*
X102350000Y-148300000D03*
X108850000Y-148300000D03*
%TD*%
%TO.C,SW22*%
X145850000Y-143800000D03*
X152350000Y-143800000D03*
X145850000Y-148300000D03*
X152350000Y-148300000D03*
%TD*%
D14*
%TO.C,C7*%
X98350000Y-101200000D03*
X98350000Y-99650000D03*
%TD*%
D13*
%TO.C,SW14*%
X145350000Y-107800000D03*
X151850000Y-107800000D03*
X145350000Y-112300000D03*
X151850000Y-112300000D03*
%TD*%
D18*
%TO.C,D13*%
X178950000Y-49800000D03*
X180350000Y-49800000D03*
%TD*%
D13*
%TO.C,SW4*%
X189100000Y-53050000D03*
X195600000Y-53050000D03*
X189100000Y-57550000D03*
X195600000Y-57550000D03*
%TD*%
D14*
%TO.C,C12*%
X184100000Y-136300000D03*
X184100000Y-134750000D03*
%TD*%
D13*
%TO.C,SW9*%
X58600000Y-89550000D03*
X65100000Y-89550000D03*
X58600000Y-94050000D03*
X65100000Y-94050000D03*
%TD*%
%TO.C,SW5*%
X64600000Y-78050000D03*
X58100000Y-78050000D03*
X64600000Y-73550000D03*
X58100000Y-73550000D03*
%TD*%
D14*
%TO.C,C10*%
X96850000Y-137850000D03*
X96850000Y-136300000D03*
%TD*%
D12*
%TO.C,D4*%
X194600000Y-67450000D03*
X194600000Y-64150000D03*
X189700000Y-64150000D03*
X189700000Y-67450000D03*
%TD*%
%TO.C,D11*%
X151850000Y-138550000D03*
X151850000Y-135250000D03*
X146950000Y-135250000D03*
X146950000Y-138550000D03*
%TD*%
D13*
%TO.C,SW2*%
X102350000Y-53800000D03*
X108850000Y-53800000D03*
X102350000Y-58300000D03*
X108850000Y-58300000D03*
%TD*%
D14*
%TO.C,C9*%
X53600000Y-139350000D03*
X53600000Y-137800000D03*
%TD*%
D13*
%TO.C,SW24*%
X189350000Y-143800000D03*
X195850000Y-143800000D03*
X189350000Y-148300000D03*
X195850000Y-148300000D03*
%TD*%
%TO.C,SW8*%
X195850000Y-77300000D03*
X189350000Y-77300000D03*
X195850000Y-72800000D03*
X189350000Y-72800000D03*
%TD*%
D16*
%TO.C,R1*%
X166200000Y-80600000D03*
X168200000Y-80600000D03*
%TD*%
D14*
%TO.C,C11*%
X141850000Y-137050000D03*
X141850000Y-135500000D03*
%TD*%
D12*
%TO.C,D8*%
X64250000Y-102850000D03*
X64250000Y-99550000D03*
X59350000Y-99550000D03*
X59350000Y-102850000D03*
%TD*%
D13*
%TO.C,SW6*%
X108850000Y-78300000D03*
X102350000Y-78300000D03*
X108850000Y-73800000D03*
X102350000Y-73800000D03*
%TD*%
D15*
%TO.C,H3*%
X204000000Y-50000000D03*
%TD*%
D13*
%TO.C,SW21*%
X145850000Y-125050000D03*
X152350000Y-125050000D03*
X145850000Y-129550000D03*
X152350000Y-129550000D03*
%TD*%
D14*
%TO.C,C2*%
X97850000Y-67300000D03*
X97850000Y-65750000D03*
%TD*%
D12*
%TO.C,D3*%
X150550000Y-67450000D03*
X150550000Y-64150000D03*
X145650000Y-64150000D03*
X145650000Y-67450000D03*
%TD*%
D15*
%TO.C,H1*%
X50000000Y-148000000D03*
%TD*%
D13*
%TO.C,SW7*%
X152350000Y-77800000D03*
X145850000Y-77800000D03*
X152350000Y-73300000D03*
X145850000Y-73300000D03*
%TD*%
D12*
%TO.C,D6*%
X151250000Y-102700000D03*
X151250000Y-99400000D03*
X146350000Y-99400000D03*
X146350000Y-102700000D03*
%TD*%
D13*
%TO.C,SW18*%
X58350000Y-144300000D03*
X64850000Y-144300000D03*
X58350000Y-148800000D03*
X64850000Y-148800000D03*
%TD*%
%TO.C,SW1*%
X58850000Y-53800000D03*
X65350000Y-53800000D03*
X58850000Y-58300000D03*
X65350000Y-58300000D03*
%TD*%
D19*
%TO.C,R3*%
X168200000Y-85600000D03*
X166200000Y-85600000D03*
%TD*%
D12*
%TO.C,D2*%
X107350000Y-67450000D03*
X107350000Y-64150000D03*
X102450000Y-64150000D03*
X102450000Y-67450000D03*
%TD*%
D20*
%TO.C,U1*%
X160155000Y-92190000D03*
D21*
X160155000Y-89650000D03*
X160155000Y-87110000D03*
X160155000Y-84570000D03*
X160155000Y-82030000D03*
X160155000Y-79490000D03*
X160155000Y-76950000D03*
X160155000Y-74410000D03*
X183015000Y-74410000D03*
X183015000Y-76950000D03*
X183015000Y-79490000D03*
X183015000Y-82030000D03*
X183015000Y-84570000D03*
X183015000Y-87110000D03*
X183015000Y-89650000D03*
X183015000Y-92190000D03*
%TD*%
D20*
%TO.C,BZ1*%
X128000000Y-64000000D03*
D13*
X128000000Y-56400000D03*
%TD*%
D22*
%TO.C,C13*%
X115600000Y-64600000D03*
D23*
X115600000Y-59600000D03*
%TD*%
M02*
