M48
; DRILL file {KiCad 9.0.3-9.0.3-0~ubuntu24.04.1} date 2025-09-29T22:24:25+0200
; FORMAT={-:-/ absolute / metric / decimal}
; #@! TF.CreationDate,2025-09-29T22:24:25+02:00
; #@! TF.GenerationSoftware,Kicad,Pcbnew,9.0.3-9.0.3-0~ubuntu24.04.1
; #@! TF.FileFunction,Plated,1,2,PTH
FMAT,2
METRIC
; #@! TA.AperFunction,Plated,PTH,ViaDrill
T1C0.300
; #@! TA.AperFunction,Plated,PTH,ComponentDrill
T2C0.750
; #@! TA.AperFunction,Plated,PTH,ComponentDrill
T3C0.800
; #@! TA.AperFunction,Plated,PTH,ComponentDrill
T4C0.900
; #@! TA.AperFunction,Plated,PTH,ComponentDrill
T5C1.000
; #@! TA.AperFunction,Plated,PTH,ComponentDrill
T6C1.100
%
G90
G05
T1
X55.1Y-101.3
X55.1Y-137.8
X57.6Y-67.05
X78.6Y-69.151
X78.6Y-139.6
X79.35Y-102.85
X80.6Y-136.3
X81.85Y-64.8
X82.1Y-97.8
X155.75Y-66.6
X172.35Y-74.2
X174.35Y-56.0
X175.8Y-81.6
X180.1Y-62.999
X183.6Y-70.55
X197.1Y-104.55
X197.35Y-62.55
T2
X52.0Y-88.0
X52.0Y-90.0
T3
X115.6Y-59.6
X115.6Y-64.6
T4
X160.155Y-74.41
X160.155Y-76.95
X160.155Y-79.49
X160.155Y-82.03
X160.155Y-84.57
X160.155Y-87.11
X160.155Y-89.65
X160.155Y-92.19
X183.015Y-74.41
X183.015Y-76.95
X183.015Y-79.49
X183.015Y-82.03
X183.015Y-84.57
X183.015Y-87.11
X183.015Y-89.65
X183.015Y-92.19
T5
X128.0Y-56.4
X128.0Y-64.0
T6
X58.1Y-73.55
X58.1Y-78.05
X58.35Y-125.8
X58.35Y-130.3
X58.35Y-144.3
X58.35Y-148.8
X58.6Y-89.55
X58.6Y-94.05
X58.6Y-108.3
X58.6Y-112.8
X58.85Y-53.8
X58.85Y-58.3
X64.6Y-73.55
X64.6Y-78.05
X64.85Y-125.8
X64.85Y-130.3
X64.85Y-144.3
X64.85Y-148.8
X65.1Y-89.55
X65.1Y-94.05
X65.1Y-108.3
X65.1Y-112.8
X65.35Y-53.8
X65.35Y-58.3
X102.35Y-53.8
X102.35Y-58.3
X102.35Y-73.8
X102.35Y-78.3
X102.35Y-89.55
X102.35Y-94.05
X102.35Y-108.3
X102.35Y-112.8
X102.35Y-125.3
X102.35Y-129.8
X102.35Y-143.8
X102.35Y-148.3
X108.85Y-53.8
X108.85Y-58.3
X108.85Y-73.8
X108.85Y-78.3
X108.85Y-89.55
X108.85Y-94.05
X108.85Y-108.3
X108.85Y-112.8
X108.85Y-125.3
X108.85Y-129.8
X108.85Y-143.8
X108.85Y-148.3
X145.35Y-107.8
X145.35Y-112.3
X145.6Y-53.55
X145.6Y-58.05
X145.85Y-73.3
X145.85Y-77.8
X145.85Y-89.8
X145.85Y-94.3
X145.85Y-125.05
X145.85Y-129.55
X145.85Y-143.8
X145.85Y-148.3
X151.85Y-107.8
X151.85Y-112.3
X152.1Y-53.55
X152.1Y-58.05
X152.35Y-73.3
X152.35Y-77.8
X152.35Y-89.8
X152.35Y-94.3
X152.35Y-125.05
X152.35Y-129.55
X152.35Y-143.8
X152.35Y-148.3
X189.1Y-53.05
X189.1Y-57.55
X189.35Y-72.8
X189.35Y-77.3
X189.35Y-88.3
X189.35Y-92.8
X189.35Y-108.3
X189.35Y-112.8
X189.35Y-124.8
X189.35Y-129.3
X189.35Y-143.8
X189.35Y-148.3
X195.6Y-53.05
X195.6Y-57.55
X195.85Y-72.8
X195.85Y-77.3
X195.85Y-88.3
X195.85Y-92.8
X195.85Y-108.3
X195.85Y-112.8
X195.85Y-124.8
X195.85Y-129.3
X195.85Y-143.8
X195.85Y-148.3
M30
