%TF.GenerationSoftware,KiCad,Pcbnew,9.0.3-9.0.3-0~ubuntu24.04.1*%
%TF.CreationDate,2025-09-29T22:24:14+02:00*%
%TF.ProjectId,ColorMemo,436f6c6f-724d-4656-9d6f-2e6b69636164,rev?*%
%TF.SameCoordinates,Original*%
%TF.FileFunction,Copper,L1,Top*%
%TF.FilePolarity,Positive*%
%FSLAX46Y46*%
G04 Gerber Fmt 4.6, Leading zero omitted, Abs format (unit mm)*
G04 Created by KiCad (PCBNEW 9.0.3-9.0.3-0~ubuntu24.04.1) date 2025-09-29 22:24:14*
%MOMM*%
%LPD*%
G01*
G04 APERTURE LIST*
G04 Aperture macros list*
%AMRoundRect*
0 Rectangle with rounded corners*
0 $1 Rounding radius*
0 $2 $3 $4 $5 $6 $7 $8 $9 X,Y pos of 4 corners*
0 Add a 4 corners polygon primitive as box body*
4,1,4,$2,$3,$4,$5,$6,$7,$8,$9,$2,$3,0*
0 Add four circle primitives for the rounded corners*
1,1,$1+$1,$2,$3*
1,1,$1+$1,$4,$5*
1,1,$1+$1,$6,$7*
1,1,$1+$1,$8,$9*
0 Add four rect primitives between the rounded corners*
20,1,$1+$1,$2,$3,$4,$5,0*
20,1,$1+$1,$4,$5,$6,$7,0*
20,1,$1+$1,$6,$7,$8,$9,0*
20,1,$1+$1,$8,$9,$2,$3,0*%
G04 Aperture macros list end*
%TA.AperFunction,ComponentPad*%
%ADD10RoundRect,0.250000X0.625000X-0.350000X0.625000X0.350000X-0.625000X0.350000X-0.625000X-0.350000X0*%
%TD*%
%TA.AperFunction,ComponentPad*%
%ADD11O,1.750000X1.200000*%
%TD*%
%TA.AperFunction,SMDPad,CuDef*%
%ADD12RoundRect,0.090000X0.660000X0.360000X-0.660000X0.360000X-0.660000X-0.360000X0.660000X-0.360000X0*%
%TD*%
%TA.AperFunction,ComponentPad*%
%ADD13C,2.000000*%
%TD*%
%TA.AperFunction,SMDPad,CuDef*%
%ADD14RoundRect,0.225000X0.250000X-0.225000X0.250000X0.225000X-0.250000X0.225000X-0.250000X-0.225000X0*%
%TD*%
%TA.AperFunction,SMDPad,CuDef*%
%ADD15RoundRect,0.250000X-0.350000X-0.450000X0.350000X-0.450000X0.350000X0.450000X-0.350000X0.450000X0*%
%TD*%
%TA.AperFunction,SMDPad,CuDef*%
%ADD16RoundRect,0.150000X0.587500X0.150000X-0.587500X0.150000X-0.587500X-0.150000X0.587500X-0.150000X0*%
%TD*%
%TA.AperFunction,SMDPad,CuDef*%
%ADD17RoundRect,0.150000X0.150000X0.200000X-0.150000X0.200000X-0.150000X-0.200000X0.150000X-0.200000X0*%
%TD*%
%TA.AperFunction,SMDPad,CuDef*%
%ADD18RoundRect,0.250000X0.350000X0.450000X-0.350000X0.450000X-0.350000X-0.450000X0.350000X-0.450000X0*%
%TD*%
%TA.AperFunction,ComponentPad*%
%ADD19R,2.000000X2.000000*%
%TD*%
%TA.AperFunction,ComponentPad*%
%ADD20O,2.000000X1.600000*%
%TD*%
%TA.AperFunction,ComponentPad*%
%ADD21RoundRect,0.250000X0.550000X-0.550000X0.550000X0.550000X-0.550000X0.550000X-0.550000X-0.550000X0*%
%TD*%
%TA.AperFunction,ComponentPad*%
%ADD22C,1.600000*%
%TD*%
%TA.AperFunction,ViaPad*%
%ADD23C,0.600000*%
%TD*%
%TA.AperFunction,Conductor*%
%ADD24C,0.200000*%
%TD*%
%TA.AperFunction,Conductor*%
%ADD25C,0.500000*%
%TD*%
G04 APERTURE END LIST*
D10*
%TO.P,J1,1,Pin_1*%
%TO.N,VCC*%
X52000000Y-90000000D03*
D11*
%TO.P,J1,2,Pin_2*%
%TO.N,GND*%
X52000000Y-88000000D03*
%TD*%
D12*
%TO.P,D10,1,VDD*%
%TO.N,VCC*%
X108250000Y-138600000D03*
%TO.P,D10,2,DOUT*%
%TO.N,Net-(D10-DOUT)*%
X108250000Y-135300000D03*
%TO.P,D10,3,VSS*%
%TO.N,GND*%
X103350000Y-135300000D03*
%TO.P,D10,4,DIN*%
%TO.N,Net-(D10-DIN)*%
X103350000Y-138600000D03*
%TD*%
%TO.P,D7,1,VDD*%
%TO.N,VCC*%
X108250000Y-102850000D03*
%TO.P,D7,2,DOUT*%
%TO.N,Net-(D7-DOUT)*%
X108250000Y-99550000D03*
%TO.P,D7,3,VSS*%
%TO.N,GND*%
X103350000Y-99550000D03*
%TO.P,D7,4,DIN*%
%TO.N,Net-(D6-DOUT)*%
X103350000Y-102850000D03*
%TD*%
D13*
%TO.P,SW16,1,1*%
%TO.N,/MUL_COL_3*%
X189350000Y-108300000D03*
X195850000Y-108300000D03*
%TO.P,SW16,2,2*%
%TO.N,/MUL_ROW_1*%
X189350000Y-112800000D03*
X195850000Y-112800000D03*
%TD*%
D14*
%TO.P,C6,1*%
%TO.N,VCC*%
X141100000Y-100075000D03*
%TO.P,C6,2*%
%TO.N,GND*%
X141100000Y-98525000D03*
%TD*%
D12*
%TO.P,D1,1,VDD*%
%TO.N,VCC*%
X64300000Y-67450000D03*
%TO.P,D1,2,DOUT*%
%TO.N,Net-(D1-DOUT)*%
X64300000Y-64150000D03*
%TO.P,D1,3,VSS*%
%TO.N,GND*%
X59400000Y-64150000D03*
%TO.P,D1,4,DIN*%
%TO.N,Net-(D1-DIN)*%
X59400000Y-67450000D03*
%TD*%
D14*
%TO.P,C5,1*%
%TO.N,VCC*%
X188100000Y-101350000D03*
%TO.P,C5,2*%
%TO.N,GND*%
X188100000Y-99800000D03*
%TD*%
D13*
%TO.P,SW17,1,1*%
%TO.N,/MUL_COL_0*%
X58350000Y-125800000D03*
X64850000Y-125800000D03*
%TO.P,SW17,2,2*%
%TO.N,/MUL_ROW_2*%
X58350000Y-130300000D03*
X64850000Y-130300000D03*
%TD*%
D14*
%TO.P,C4,1*%
%TO.N,VCC*%
X199100000Y-62350000D03*
%TO.P,C4,2*%
%TO.N,GND*%
X199100000Y-60800000D03*
%TD*%
D12*
%TO.P,D9,1,VDD*%
%TO.N,VCC*%
X64250000Y-139600000D03*
%TO.P,D9,2,DOUT*%
%TO.N,Net-(D10-DIN)*%
X64250000Y-136300000D03*
%TO.P,D9,3,VSS*%
%TO.N,GND*%
X59350000Y-136300000D03*
%TO.P,D9,4,DIN*%
%TO.N,Net-(D8-DOUT)*%
X59350000Y-139600000D03*
%TD*%
D13*
%TO.P,SW11,1,1*%
%TO.N,/MUL_COL_1*%
X102350000Y-89550000D03*
X108850000Y-89550000D03*
%TO.P,SW11,2,2*%
%TO.N,/MUL_ROW_1*%
X102350000Y-94050000D03*
X108850000Y-94050000D03*
%TD*%
D15*
%TO.P,R2,1*%
%TO.N,Net-(Q1-G)*%
X166150000Y-76400000D03*
%TO.P,R2,2*%
%TO.N,GND*%
X168150000Y-76400000D03*
%TD*%
D16*
%TO.P,Q1,1,G*%
%TO.N,Net-(Q1-G)*%
X180087500Y-54350000D03*
%TO.P,Q1,2,S*%
%TO.N,GND*%
X180087500Y-52450000D03*
%TO.P,Q1,3,D*%
%TO.N,Net-(BZ1--)*%
X178212500Y-53400000D03*
%TD*%
D13*
%TO.P,SW12,1,1*%
%TO.N,/MUL_COL_1*%
X102350000Y-108300000D03*
X108850000Y-108300000D03*
%TO.P,SW12,2,2*%
%TO.N,/MUL_ROW_1*%
X102350000Y-112800000D03*
X108850000Y-112800000D03*
%TD*%
D12*
%TO.P,D12,1,VDD*%
%TO.N,VCC*%
X195000000Y-138100000D03*
%TO.P,D12,2,DOUT*%
%TO.N,unconnected-(D12-DOUT-Pad2)*%
X195000000Y-134800000D03*
%TO.P,D12,3,VSS*%
%TO.N,GND*%
X190100000Y-134800000D03*
%TO.P,D12,4,DIN*%
%TO.N,Net-(D11-DOUT)*%
X190100000Y-138100000D03*
%TD*%
D13*
%TO.P,SW10,1,1*%
%TO.N,/MUL_COL_0*%
X58600000Y-108300000D03*
X65100000Y-108300000D03*
%TO.P,SW10,2,2*%
%TO.N,/MUL_ROW_1*%
X58600000Y-112800000D03*
X65100000Y-112800000D03*
%TD*%
D12*
%TO.P,D5,1,VDD*%
%TO.N,VCC*%
X195000000Y-103100000D03*
%TO.P,D5,2,DOUT*%
%TO.N,Net-(D5-DOUT)*%
X195000000Y-99800000D03*
%TO.P,D5,3,VSS*%
%TO.N,GND*%
X190100000Y-99800000D03*
%TO.P,D5,4,DIN*%
%TO.N,Net-(D4-DOUT)*%
X190100000Y-103100000D03*
%TD*%
D13*
%TO.P,SW3,1,1*%
%TO.N,/MUL_COL_2*%
X145600000Y-53550000D03*
X152100000Y-53550000D03*
%TO.P,SW3,2,2*%
%TO.N,/MUL_ROW_0*%
X145600000Y-58050000D03*
X152100000Y-58050000D03*
%TD*%
%TO.P,SW15,1,1*%
%TO.N,/MUL_COL_3*%
X189350000Y-88300000D03*
X195850000Y-88300000D03*
%TO.P,SW15,2,2*%
%TO.N,/MUL_ROW_1*%
X189350000Y-92800000D03*
X195850000Y-92800000D03*
%TD*%
%TO.P,SW19,1,1*%
%TO.N,/MUL_COL_1*%
X102350000Y-125300000D03*
X108850000Y-125300000D03*
%TO.P,SW19,2,2*%
%TO.N,/MUL_ROW_2*%
X102350000Y-129800000D03*
X108850000Y-129800000D03*
%TD*%
%TO.P,SW13,1,1*%
%TO.N,/MUL_COL_2*%
X145850000Y-89800000D03*
X152350000Y-89800000D03*
%TO.P,SW13,2,2*%
%TO.N,/MUL_ROW_1*%
X145850000Y-94300000D03*
X152350000Y-94300000D03*
%TD*%
D14*
%TO.P,C8,1*%
%TO.N,VCC*%
X52100000Y-102300000D03*
%TO.P,C8,2*%
%TO.N,GND*%
X52100000Y-100750000D03*
%TD*%
%TO.P,C3,1*%
%TO.N,VCC*%
X142850000Y-67350000D03*
%TO.P,C3,2*%
%TO.N,GND*%
X142850000Y-65800000D03*
%TD*%
%TO.P,C1,1*%
%TO.N,VCC*%
X55350000Y-67075000D03*
%TO.P,C1,2*%
%TO.N,GND*%
X55350000Y-65525000D03*
%TD*%
D13*
%TO.P,SW23,1,1*%
%TO.N,/MUL_COL_3*%
X189350000Y-124800000D03*
X195850000Y-124800000D03*
%TO.P,SW23,2,2*%
%TO.N,/MUL_ROW_2*%
X189350000Y-129300000D03*
X195850000Y-129300000D03*
%TD*%
%TO.P,SW20,1,1*%
%TO.N,/MUL_COL_1*%
X102350000Y-143800000D03*
X108850000Y-143800000D03*
%TO.P,SW20,2,2*%
%TO.N,/MUL_ROW_2*%
X102350000Y-148300000D03*
X108850000Y-148300000D03*
%TD*%
%TO.P,SW22,1,1*%
%TO.N,/MUL_COL_2*%
X145850000Y-143800000D03*
X152350000Y-143800000D03*
%TO.P,SW22,2,2*%
%TO.N,/MUL_ROW_2*%
X145850000Y-148300000D03*
X152350000Y-148300000D03*
%TD*%
D14*
%TO.P,C7,1*%
%TO.N,VCC*%
X98350000Y-101200000D03*
%TO.P,C7,2*%
%TO.N,GND*%
X98350000Y-99650000D03*
%TD*%
D13*
%TO.P,SW14,1,1*%
%TO.N,/MUL_COL_2*%
X145350000Y-107800000D03*
X151850000Y-107800000D03*
%TO.P,SW14,2,2*%
%TO.N,/MUL_ROW_1*%
X145350000Y-112300000D03*
X151850000Y-112300000D03*
%TD*%
D17*
%TO.P,D13,1,K*%
%TO.N,VCC*%
X178950000Y-49800000D03*
%TO.P,D13,2,A*%
%TO.N,GND*%
X180350000Y-49800000D03*
%TD*%
D13*
%TO.P,SW4,1,1*%
%TO.N,/MUL_COL_3*%
X189100000Y-53050000D03*
X195600000Y-53050000D03*
%TO.P,SW4,2,2*%
%TO.N,/MUL_ROW_0*%
X189100000Y-57550000D03*
X195600000Y-57550000D03*
%TD*%
D14*
%TO.P,C12,1*%
%TO.N,VCC*%
X184100000Y-136300000D03*
%TO.P,C12,2*%
%TO.N,GND*%
X184100000Y-134750000D03*
%TD*%
D13*
%TO.P,SW9,1,1*%
%TO.N,/MUL_COL_0*%
X58600000Y-89550000D03*
X65100000Y-89550000D03*
%TO.P,SW9,2,2*%
%TO.N,/MUL_ROW_1*%
X58600000Y-94050000D03*
X65100000Y-94050000D03*
%TD*%
%TO.P,SW5,1,1*%
%TO.N,/MUL_COL_0*%
X64600000Y-78050000D03*
X58100000Y-78050000D03*
%TO.P,SW5,2,2*%
%TO.N,/MUL_ROW_0*%
X64600000Y-73550000D03*
X58100000Y-73550000D03*
%TD*%
D14*
%TO.P,C10,1*%
%TO.N,VCC*%
X96850000Y-137850000D03*
%TO.P,C10,2*%
%TO.N,GND*%
X96850000Y-136300000D03*
%TD*%
D12*
%TO.P,D4,1,VDD*%
%TO.N,VCC*%
X194600000Y-67450000D03*
%TO.P,D4,2,DOUT*%
%TO.N,Net-(D4-DOUT)*%
X194600000Y-64150000D03*
%TO.P,D4,3,VSS*%
%TO.N,GND*%
X189700000Y-64150000D03*
%TO.P,D4,4,DIN*%
%TO.N,Net-(D3-DOUT)*%
X189700000Y-67450000D03*
%TD*%
%TO.P,D11,1,VDD*%
%TO.N,VCC*%
X151850000Y-138550000D03*
%TO.P,D11,2,DOUT*%
%TO.N,Net-(D11-DOUT)*%
X151850000Y-135250000D03*
%TO.P,D11,3,VSS*%
%TO.N,GND*%
X146950000Y-135250000D03*
%TO.P,D11,4,DIN*%
%TO.N,Net-(D10-DOUT)*%
X146950000Y-138550000D03*
%TD*%
D13*
%TO.P,SW2,1,1*%
%TO.N,/MUL_COL_1*%
X102350000Y-53800000D03*
X108850000Y-53800000D03*
%TO.P,SW2,2,2*%
%TO.N,/MUL_ROW_0*%
X102350000Y-58300000D03*
X108850000Y-58300000D03*
%TD*%
D14*
%TO.P,C9,1*%
%TO.N,VCC*%
X53600000Y-139350000D03*
%TO.P,C9,2*%
%TO.N,GND*%
X53600000Y-137800000D03*
%TD*%
D13*
%TO.P,SW24,1,1*%
%TO.N,/MUL_COL_3*%
X189350000Y-143800000D03*
X195850000Y-143800000D03*
%TO.P,SW24,2,2*%
%TO.N,/MUL_ROW_2*%
X189350000Y-148300000D03*
X195850000Y-148300000D03*
%TD*%
%TO.P,SW8,1,1*%
%TO.N,/MUL_COL_3*%
X195850000Y-77300000D03*
X189350000Y-77300000D03*
%TO.P,SW8,2,2*%
%TO.N,/MUL_ROW_0*%
X195850000Y-72800000D03*
X189350000Y-72800000D03*
%TD*%
D15*
%TO.P,R1,1*%
%TO.N,Net-(Q1-G)*%
X166200000Y-80600000D03*
%TO.P,R1,2*%
%TO.N,Net-(U1-SDA{slash}D2)*%
X168200000Y-80600000D03*
%TD*%
D14*
%TO.P,C11,1*%
%TO.N,VCC*%
X141850000Y-137050000D03*
%TO.P,C11,2*%
%TO.N,GND*%
X141850000Y-135500000D03*
%TD*%
D12*
%TO.P,D8,1,VDD*%
%TO.N,VCC*%
X64250000Y-102850000D03*
%TO.P,D8,2,DOUT*%
%TO.N,Net-(D8-DOUT)*%
X64250000Y-99550000D03*
%TO.P,D8,3,VSS*%
%TO.N,GND*%
X59350000Y-99550000D03*
%TO.P,D8,4,DIN*%
%TO.N,Net-(D7-DOUT)*%
X59350000Y-102850000D03*
%TD*%
D13*
%TO.P,SW6,1,1*%
%TO.N,/MUL_COL_1*%
X108850000Y-78300000D03*
X102350000Y-78300000D03*
%TO.P,SW6,2,2*%
%TO.N,/MUL_ROW_0*%
X108850000Y-73800000D03*
X102350000Y-73800000D03*
%TD*%
%TO.P,SW21,1,1*%
%TO.N,/MUL_COL_2*%
X145850000Y-125050000D03*
X152350000Y-125050000D03*
%TO.P,SW21,2,2*%
%TO.N,/MUL_ROW_2*%
X145850000Y-129550000D03*
X152350000Y-129550000D03*
%TD*%
D14*
%TO.P,C2,1*%
%TO.N,VCC*%
X97850000Y-67300000D03*
%TO.P,C2,2*%
%TO.N,GND*%
X97850000Y-65750000D03*
%TD*%
D12*
%TO.P,D3,1,VDD*%
%TO.N,VCC*%
X150550000Y-67450000D03*
%TO.P,D3,2,DOUT*%
%TO.N,Net-(D3-DOUT)*%
X150550000Y-64150000D03*
%TO.P,D3,3,VSS*%
%TO.N,GND*%
X145650000Y-64150000D03*
%TO.P,D3,4,DIN*%
%TO.N,Net-(D2-DOUT)*%
X145650000Y-67450000D03*
%TD*%
D13*
%TO.P,SW7,1,1*%
%TO.N,/MUL_COL_2*%
X152350000Y-77800000D03*
X145850000Y-77800000D03*
%TO.P,SW7,2,2*%
%TO.N,/MUL_ROW_0*%
X152350000Y-73300000D03*
X145850000Y-73300000D03*
%TD*%
D12*
%TO.P,D6,1,VDD*%
%TO.N,VCC*%
X151250000Y-102700000D03*
%TO.P,D6,2,DOUT*%
%TO.N,Net-(D6-DOUT)*%
X151250000Y-99400000D03*
%TO.P,D6,3,VSS*%
%TO.N,GND*%
X146350000Y-99400000D03*
%TO.P,D6,4,DIN*%
%TO.N,Net-(D5-DOUT)*%
X146350000Y-102700000D03*
%TD*%
D13*
%TO.P,SW18,1,1*%
%TO.N,/MUL_COL_0*%
X58350000Y-144300000D03*
X64850000Y-144300000D03*
%TO.P,SW18,2,2*%
%TO.N,/MUL_ROW_2*%
X58350000Y-148800000D03*
X64850000Y-148800000D03*
%TD*%
%TO.P,SW1,1,1*%
%TO.N,/MUL_COL_0*%
X58850000Y-53800000D03*
X65350000Y-53800000D03*
%TO.P,SW1,2,2*%
%TO.N,/MUL_ROW_0*%
X58850000Y-58300000D03*
X65350000Y-58300000D03*
%TD*%
D18*
%TO.P,R3,1*%
%TO.N,Net-(U1-SCL{slash}D1)*%
X168200000Y-85600000D03*
%TO.P,R3,2*%
%TO.N,Net-(D1-DIN)*%
X166200000Y-85600000D03*
%TD*%
D12*
%TO.P,D2,1,VDD*%
%TO.N,VCC*%
X107350000Y-67450000D03*
%TO.P,D2,2,DOUT*%
%TO.N,Net-(D2-DOUT)*%
X107350000Y-64150000D03*
%TO.P,D2,3,VSS*%
%TO.N,GND*%
X102450000Y-64150000D03*
%TO.P,D2,4,DIN*%
%TO.N,Net-(D1-DOUT)*%
X102450000Y-67450000D03*
%TD*%
D19*
%TO.P,U1,1,~{RST}*%
%TO.N,unconnected-(U1-~{RST}-Pad1)*%
X160155000Y-92190000D03*
D20*
%TO.P,U1,2,A0*%
%TO.N,unconnected-(U1-A0-Pad2)*%
X160155000Y-89650000D03*
%TO.P,U1,3,D0*%
%TO.N,/MUL_COL_0*%
X160155000Y-87110000D03*
%TO.P,U1,4,SCK/D5*%
%TO.N,/MUL_COL_3*%
X160155000Y-84570000D03*
%TO.P,U1,5,MISO/D6*%
%TO.N,/MUL_COL_2*%
X160155000Y-82030000D03*
%TO.P,U1,6,MOSI/D7*%
%TO.N,/MUL_COL_1*%
X160155000Y-79490000D03*
%TO.P,U1,7,CS/D8*%
%TO.N,/MUL_ROW_0*%
X160155000Y-76950000D03*
%TO.P,U1,8,3V3*%
%TO.N,VDD*%
X160155000Y-74410000D03*
%TO.P,U1,9,5V*%
%TO.N,VCC*%
X183015000Y-74410000D03*
%TO.P,U1,10,GND*%
%TO.N,GND*%
X183015000Y-76950000D03*
%TO.P,U1,11,D4*%
%TO.N,/MUL_ROW_2*%
X183015000Y-79490000D03*
%TO.P,U1,12,D3*%
%TO.N,/MUL_ROW_1*%
X183015000Y-82030000D03*
%TO.P,U1,13,SDA/D2*%
%TO.N,Net-(U1-SDA{slash}D2)*%
X183015000Y-84570000D03*
%TO.P,U1,14,SCL/D1*%
%TO.N,Net-(U1-SCL{slash}D1)*%
X183015000Y-87110000D03*
%TO.P,U1,15,RX*%
%TO.N,unconnected-(U1-RX-Pad15)*%
X183015000Y-89650000D03*
%TO.P,U1,16,TX*%
%TO.N,unconnected-(U1-TX-Pad16)*%
X183015000Y-92190000D03*
%TD*%
D19*
%TO.P,BZ1,1,+*%
%TO.N,VCC*%
X128000000Y-64000000D03*
D13*
%TO.P,BZ1,2,-*%
%TO.N,Net-(BZ1--)*%
X128000000Y-56400000D03*
%TD*%
D21*
%TO.P,C13,1*%
%TO.N,VCC*%
X115600000Y-64600000D03*
D22*
%TO.P,C13,2*%
%TO.N,GND*%
X115600000Y-59600000D03*
%TD*%
D23*
%TO.N,VCC*%
X78600000Y-69151000D03*
X155750000Y-66600000D03*
X78600000Y-139600000D03*
X79350000Y-102850000D03*
X183600000Y-70550000D03*
%TO.N,Net-(D1-DIN)*%
X175800000Y-81600000D03*
X57600000Y-67050000D03*
%TO.N,GND*%
X81850000Y-64800000D03*
X180100000Y-62999000D03*
X80600000Y-136300000D03*
X82100000Y-97800000D03*
%TO.N,Net-(D4-DOUT)*%
X197350000Y-62550000D03*
X197100000Y-104550000D03*
%TO.N,Net-(D8-DOUT)*%
X55100000Y-137800000D03*
X55100000Y-101300000D03*
%TO.N,Net-(Q1-G)*%
X172350000Y-74200000D03*
X174350000Y-56000000D03*
%TD*%
D24*
%TO.N,/MUL_COL_0*%
X58600000Y-89550000D02*
X53450000Y-84400000D01*
X53450000Y-84400000D02*
X50000000Y-84400000D01*
X48200000Y-105000000D02*
X51400000Y-108200000D01*
X50000000Y-84400000D02*
X50000000Y-92000000D01*
X50000000Y-92000000D02*
X48200000Y-93800000D01*
X51467894Y-108132106D02*
X56267894Y-108132106D01*
X48200000Y-93800000D02*
X48200000Y-105000000D01*
X51400000Y-108200000D02*
X51467894Y-108132106D01*
D25*
%TO.N,VCC*%
X53801000Y-104001000D02*
X53402000Y-104400000D01*
X53402000Y-104400000D02*
X50800000Y-104400000D01*
X50800000Y-104400000D02*
X50200000Y-103800000D01*
X50200000Y-103800000D02*
X50200000Y-94800000D01*
X50200000Y-94800000D02*
X52000000Y-93000000D01*
X52000000Y-93000000D02*
X52000000Y-90000000D01*
%TO.N,GND*%
X59350000Y-99550000D02*
X54600000Y-99550000D01*
X52000000Y-88000000D02*
X53375000Y-88000000D01*
X53375000Y-88000000D02*
X54600000Y-89225000D01*
X54600000Y-89225000D02*
X54600000Y-99550000D01*
%TO.N,VCC*%
X65952000Y-69102000D02*
X105698000Y-69102000D01*
X193250000Y-101350000D02*
X195000000Y-103100000D01*
X150225000Y-67125000D02*
X149399000Y-66299000D01*
X107350000Y-67450000D02*
X105899000Y-65999000D01*
X186750001Y-103149999D02*
X151699999Y-103149999D01*
X155550000Y-66600000D02*
X155750000Y-66600000D01*
X138024000Y-62999000D02*
X142375000Y-67350000D01*
X142375000Y-67350000D02*
X142850000Y-67350000D01*
X116400000Y-62999000D02*
X128600000Y-62999000D01*
X108250000Y-103400000D02*
X108250000Y-102850000D01*
X149748000Y-140652000D02*
X145452000Y-140652000D01*
X107100000Y-104550000D02*
X108250000Y-103400000D01*
X186750001Y-103149999D02*
X188100000Y-101800000D01*
X105004082Y-66299000D02*
X106155082Y-67450000D01*
X64250000Y-102850000D02*
X63099000Y-104001000D01*
X96700000Y-102850000D02*
X98350000Y-101200000D01*
X64250000Y-102850000D02*
X79350000Y-102850000D01*
X55001000Y-140751000D02*
X63099000Y-140751000D01*
X108250000Y-138600000D02*
X140300000Y-138600000D01*
X183600000Y-70550000D02*
X153650000Y-70550000D01*
X142574000Y-101549000D02*
X141100000Y-100075000D01*
X99702000Y-140702000D02*
X96850000Y-137850000D01*
X151850000Y-138550000D02*
X149748000Y-140652000D01*
X96850000Y-137850000D02*
X95100000Y-139600000D01*
X191500000Y-70550000D02*
X183600000Y-70550000D01*
X63149000Y-68601000D02*
X56876000Y-68601000D01*
X145452000Y-140652000D02*
X141850000Y-137050000D01*
X79350000Y-102850000D02*
X96700000Y-102850000D01*
D24*
X169350000Y-49800000D02*
X165550000Y-53600000D01*
D25*
X188100000Y-101800000D02*
X188100000Y-101350000D01*
X150099000Y-101549000D02*
X142574000Y-101549000D01*
X187850000Y-140050000D02*
X184100000Y-136300000D01*
X151850000Y-138550000D02*
X181850000Y-138550000D01*
X128600000Y-63400000D02*
X128000000Y-64000000D01*
X153650000Y-70550000D02*
X150550000Y-67450000D01*
X95100000Y-139600000D02*
X78600000Y-139600000D01*
X193050000Y-140050000D02*
X187850000Y-140050000D01*
X188100000Y-101350000D02*
X193250000Y-101350000D01*
D24*
X178950000Y-49800000D02*
X169350000Y-49800000D01*
D25*
X140300000Y-138600000D02*
X141850000Y-137050000D01*
X64250000Y-139600000D02*
X78600000Y-139600000D01*
X143608864Y-67350000D02*
X142850000Y-67350000D01*
X108250000Y-138600000D02*
X106148000Y-140702000D01*
X150225000Y-67125000D02*
X155025000Y-67125000D01*
X195000000Y-138100000D02*
X193050000Y-140050000D01*
X151699999Y-103149999D02*
X151250000Y-102700000D01*
X106148000Y-140702000D02*
X99702000Y-140702000D01*
X64300000Y-67450000D02*
X65952000Y-69102000D01*
X181850000Y-138550000D02*
X184100000Y-136300000D01*
X115600000Y-64600000D02*
X115600000Y-63799000D01*
X64300000Y-67450000D02*
X63149000Y-68601000D01*
X106155082Y-67450000D02*
X107350000Y-67450000D01*
X106359864Y-62999000D02*
X116400000Y-62999000D01*
X105899000Y-63459864D02*
X106359864Y-62999000D01*
X151250000Y-102700000D02*
X150099000Y-101549000D01*
X199100000Y-62950000D02*
X194600000Y-67450000D01*
X144659864Y-66299000D02*
X143608864Y-67350000D01*
X53600000Y-139350000D02*
X55001000Y-140751000D01*
X63099000Y-104001000D02*
X53801000Y-104001000D01*
X99350000Y-67300000D02*
X100351000Y-66299000D01*
X128600000Y-62999000D02*
X138024000Y-62999000D01*
X130400000Y-104200000D02*
X122200000Y-104200000D01*
X141100000Y-100075000D02*
X138487500Y-102687500D01*
X105698000Y-69102000D02*
X107350000Y-67450000D01*
X101700000Y-104550000D02*
X107100000Y-104550000D01*
X63099000Y-140751000D02*
X64250000Y-139600000D01*
X194600000Y-67450000D02*
X191500000Y-70550000D01*
X120850000Y-102850000D02*
X108250000Y-102850000D01*
X155025000Y-67125000D02*
X155550000Y-66600000D01*
X199100000Y-62350000D02*
X199100000Y-62950000D01*
X138487500Y-102687500D02*
X131912500Y-102687500D01*
X100351000Y-66299000D02*
X105004082Y-66299000D01*
X131912500Y-102687500D02*
X130400000Y-104200000D01*
X53801000Y-104001000D02*
X52100000Y-102300000D01*
X105899000Y-65999000D02*
X105899000Y-63459864D01*
X97850000Y-67300000D02*
X99350000Y-67300000D01*
X56876000Y-68601000D02*
X55350000Y-67075000D01*
X128600000Y-62999000D02*
X128600000Y-63400000D01*
X122200000Y-104200000D02*
X120850000Y-102850000D01*
X149399000Y-66299000D02*
X144659864Y-66299000D01*
X150550000Y-67450000D02*
X150225000Y-67125000D01*
X115600000Y-63799000D02*
X116400000Y-62999000D01*
X98350000Y-101200000D02*
X101700000Y-104550000D01*
D24*
%TO.N,Net-(D1-DIN)*%
X59400000Y-67450000D02*
X58000000Y-67450000D01*
X169200000Y-82600000D02*
X175800000Y-82600000D01*
X166200000Y-85600000D02*
X169200000Y-82600000D01*
X58000000Y-67450000D02*
X57600000Y-67050000D01*
X175800000Y-82600000D02*
X175800000Y-81600000D01*
D25*
%TO.N,GND*%
X55100000Y-136300000D02*
X53600000Y-137800000D01*
X118600000Y-61800000D02*
X104800000Y-61800000D01*
X185209000Y-101941000D02*
X153630136Y-101941000D01*
X152701000Y-100090136D02*
X152240136Y-100551000D01*
X145959864Y-139701000D02*
X145499000Y-139240136D01*
X193050000Y-60800000D02*
X199100000Y-60800000D01*
X187350000Y-99800000D02*
X185209000Y-101941000D01*
X180087500Y-52450000D02*
X180087500Y-50062500D01*
X190100000Y-99800000D02*
X188100000Y-99800000D01*
X102450000Y-64150000D02*
X99450000Y-64150000D01*
X96850000Y-136300000D02*
X97350000Y-136300000D01*
X138850000Y-61800000D02*
X118600000Y-61800000D01*
X141600000Y-94800000D02*
X143523000Y-96723000D01*
X189700000Y-64150000D02*
X188549000Y-62999000D01*
X147940136Y-139701000D02*
X145959864Y-139701000D01*
X194755578Y-60800000D02*
X188706578Y-54751000D01*
X104340136Y-139751000D02*
X102359864Y-139751000D01*
X188706578Y-54751000D02*
X183125999Y-54751000D01*
X180824999Y-52450000D02*
X180087500Y-52450000D01*
X199100000Y-60800000D02*
X194755578Y-60800000D01*
X188549000Y-62999000D02*
X180100000Y-62999000D01*
X152701000Y-98709864D02*
X152701000Y-100090136D01*
X146350000Y-99400000D02*
X147501000Y-100551000D01*
X168150000Y-76400000D02*
X182465000Y-76400000D01*
X142850000Y-65800000D02*
X138850000Y-61800000D01*
X124800000Y-95400000D02*
X125400000Y-94800000D01*
X141850000Y-135500000D02*
X110191136Y-135500000D01*
X145475000Y-98525000D02*
X141100000Y-98525000D01*
X109701000Y-98859864D02*
X113160864Y-95400000D01*
X61152000Y-97748000D02*
X108589136Y-97748000D01*
X146950000Y-135250000D02*
X145850000Y-135250000D01*
X190100000Y-134800000D02*
X184150000Y-134800000D01*
X60551000Y-62999000D02*
X79600000Y-62999000D01*
X184150000Y-134800000D02*
X184100000Y-134750000D01*
X97350000Y-136300000D02*
X80600000Y-136300000D01*
X101299000Y-62999000D02*
X102450000Y-64150000D01*
X117800000Y-61800000D02*
X115600000Y-59600000D01*
X68540136Y-137451000D02*
X60501000Y-137451000D01*
X102359864Y-139751000D02*
X101350000Y-138741136D01*
X145499000Y-135601000D02*
X145850000Y-135250000D01*
X56725000Y-64150000D02*
X55350000Y-65525000D01*
X59400000Y-64150000D02*
X60551000Y-62999000D01*
X146350000Y-99400000D02*
X145475000Y-98525000D01*
X188100000Y-99800000D02*
X187350000Y-99800000D01*
X189700000Y-64150000D02*
X193050000Y-60800000D01*
X108641136Y-137050000D02*
X107041136Y-137050000D01*
X147501000Y-100551000D02*
X152240136Y-100551000D01*
X79600000Y-62999000D02*
X101299000Y-62999000D01*
X69691136Y-136300000D02*
X68540136Y-137451000D01*
X80049000Y-62999000D02*
X81850000Y-64800000D01*
X125400000Y-94800000D02*
X141600000Y-94800000D01*
X146801000Y-62999000D02*
X145650000Y-64150000D01*
X59400000Y-64150000D02*
X56725000Y-64150000D01*
X97350000Y-136300000D02*
X102350000Y-136300000D01*
X109701000Y-100240136D02*
X109240136Y-100701000D01*
X79600000Y-62999000D02*
X80049000Y-62999000D01*
X101350000Y-138741136D02*
X101350000Y-137300000D01*
X103350000Y-99550000D02*
X98450000Y-99550000D01*
X104501000Y-100701000D02*
X103350000Y-99550000D01*
X144500000Y-64150000D02*
X142850000Y-65800000D01*
X145650000Y-64150000D02*
X144500000Y-64150000D01*
X150714136Y-96723000D02*
X152701000Y-98709864D01*
X99450000Y-64150000D02*
X97850000Y-65750000D01*
X153630136Y-101941000D02*
X152240136Y-100551000D01*
X145850000Y-135250000D02*
X142100000Y-135250000D01*
X80600000Y-136300000D02*
X69691136Y-136300000D01*
X142100000Y-135250000D02*
X141850000Y-135500000D01*
X181999000Y-136401000D02*
X151240136Y-136401000D01*
X180100000Y-62999000D02*
X146801000Y-62999000D01*
X53300000Y-99550000D02*
X52100000Y-100750000D01*
X59350000Y-136300000D02*
X55100000Y-136300000D01*
X145499000Y-139240136D02*
X145499000Y-135601000D01*
X54600000Y-99550000D02*
X53300000Y-99550000D01*
X98450000Y-99550000D02*
X98350000Y-99650000D01*
X183650000Y-134750000D02*
X181999000Y-136401000D01*
X118600000Y-61800000D02*
X117800000Y-61800000D01*
X184100000Y-134750000D02*
X183650000Y-134750000D01*
X113160864Y-95400000D02*
X124800000Y-95400000D01*
X143523000Y-96723000D02*
X150714136Y-96723000D01*
X101350000Y-137300000D02*
X103350000Y-135300000D01*
X107041136Y-137050000D02*
X104340136Y-139751000D01*
X180087500Y-50062500D02*
X180350000Y-49800000D01*
X109240136Y-100701000D02*
X104501000Y-100701000D01*
X108589136Y-97748000D02*
X109701000Y-98859864D01*
X182465000Y-76400000D02*
X183015000Y-76950000D01*
X60501000Y-137451000D02*
X59350000Y-136300000D01*
X109701000Y-98859864D02*
X109701000Y-100240136D01*
X104800000Y-61800000D02*
X102450000Y-64150000D01*
X151240136Y-136401000D02*
X147940136Y-139701000D01*
X102350000Y-136300000D02*
X103350000Y-135300000D01*
X59350000Y-99550000D02*
X61152000Y-97748000D01*
X183125999Y-54751000D02*
X180824999Y-52450000D01*
X110191136Y-135500000D02*
X108641136Y-137050000D01*
D24*
%TO.N,Net-(D3-DOUT)*%
X186400000Y-64150000D02*
X189700000Y-67450000D01*
X150550000Y-64150000D02*
X186400000Y-64150000D01*
%TO.N,Net-(D4-DOUT)*%
X190100000Y-103100000D02*
X191550000Y-104550000D01*
X195750000Y-64150000D02*
X197350000Y-62550000D01*
X194600000Y-64150000D02*
X195750000Y-64150000D01*
X191550000Y-104550000D02*
X197100000Y-104550000D01*
%TO.N,Net-(D5-DOUT)*%
X196673918Y-105326000D02*
X149627000Y-105326000D01*
X149627000Y-105326000D02*
X147001000Y-102700000D01*
X195000000Y-99800000D02*
X197950000Y-102750000D01*
X197452082Y-105400000D02*
X196747918Y-105400000D01*
X197950000Y-102750000D02*
X197950000Y-104902082D01*
X196747918Y-105400000D02*
X196673918Y-105326000D01*
X197950000Y-104902082D02*
X197452082Y-105400000D01*
%TO.N,Net-(D7-DOUT)*%
X94572336Y-101849000D02*
X97872336Y-98549000D01*
X107249000Y-98549000D02*
X108250000Y-99550000D01*
X60351000Y-101849000D02*
X94572336Y-101849000D01*
X59350000Y-102850000D02*
X60351000Y-101849000D01*
X97872336Y-98549000D02*
X107249000Y-98549000D01*
%TO.N,Net-(D10-DOUT)*%
X148251000Y-137249000D02*
X146950000Y-138550000D01*
X148251000Y-134621996D02*
X148251000Y-137249000D01*
X108250000Y-135300000D02*
X109301000Y-134249000D01*
X109301000Y-134249000D02*
X147878004Y-134249000D01*
X147878004Y-134249000D02*
X148251000Y-134621996D01*
%TO.N,Net-(D10-DIN)*%
X104278004Y-134299000D02*
X104651000Y-134671996D01*
X66251000Y-134299000D02*
X104278004Y-134299000D01*
X104651000Y-137299000D02*
X103350000Y-138600000D01*
X64250000Y-136300000D02*
X66251000Y-134299000D01*
X104651000Y-134671996D02*
X104651000Y-137299000D01*
%TO.N,Net-(D11-DOUT)*%
X153351000Y-133749000D02*
X190978004Y-133749000D01*
X191401000Y-136799000D02*
X190100000Y-138100000D01*
X190978004Y-133749000D02*
X191401000Y-134171996D01*
X151850000Y-135250000D02*
X153351000Y-133749000D01*
X191401000Y-134171996D02*
X191401000Y-136799000D01*
%TO.N,Net-(BZ1--)*%
X134800000Y-55200000D02*
X139000000Y-51000000D01*
X128000000Y-56400000D02*
X129200000Y-55200000D01*
X139000000Y-51000000D02*
X159600000Y-51000000D01*
X175746504Y-53400000D02*
X178212500Y-53400000D01*
X129200000Y-55200000D02*
X134800000Y-55200000D01*
X159600000Y-51000000D02*
X163800000Y-55200000D01*
X173946504Y-55200000D02*
X175746504Y-53400000D01*
X163800000Y-55200000D02*
X173946504Y-55200000D01*
%TO.N,/MUL_ROW_2*%
X58350000Y-130300000D02*
X57100000Y-131550000D01*
X52574000Y-143024000D02*
X52574000Y-133326000D01*
X189350000Y-148300000D02*
X195850000Y-148300000D01*
X64850000Y-130300000D02*
X101850000Y-130300000D01*
X102350000Y-148300000D02*
X108850000Y-148300000D01*
X145350000Y-129800000D02*
X145850000Y-129300000D01*
X189350000Y-129300000D02*
X195850000Y-129300000D01*
X52574000Y-133326000D02*
X54350000Y-131550000D01*
X189350000Y-128800000D02*
X152850000Y-128800000D01*
X189350000Y-148300000D02*
X152350000Y-148300000D01*
X57100000Y-131550000D02*
X54350000Y-131550000D01*
X183015000Y-79490000D02*
X187705000Y-74800000D01*
X145850000Y-148300000D02*
X152350000Y-148300000D01*
X145850000Y-129300000D02*
X152350000Y-129300000D01*
X64850000Y-148800000D02*
X59001000Y-148800000D01*
X58350000Y-130300000D02*
X64850000Y-130300000D01*
X65350000Y-148300000D02*
X64850000Y-148800000D01*
X58350000Y-148800000D02*
X52574000Y-143024000D01*
X102350000Y-129800000D02*
X108850000Y-129800000D01*
X152850000Y-128800000D02*
X152350000Y-129300000D01*
X122400000Y-144200000D02*
X141750000Y-144200000D01*
X141750000Y-144200000D02*
X145850000Y-148300000D01*
X118300000Y-148300000D02*
X122400000Y-144200000D01*
X108850000Y-148300000D02*
X118300000Y-148300000D01*
X101850000Y-130300000D02*
X102350000Y-129800000D01*
X108850000Y-129800000D02*
X145350000Y-129800000D01*
X200350000Y-124800000D02*
X195850000Y-129300000D01*
X102350000Y-148300000D02*
X65350000Y-148300000D01*
X200350000Y-74800000D02*
X200350000Y-124800000D01*
X187705000Y-74800000D02*
X200350000Y-74800000D01*
%TO.N,/MUL_ROW_1*%
X145850000Y-94300000D02*
X152350000Y-94300000D01*
X152350000Y-94300000D02*
X152350000Y-95714213D01*
X102350000Y-112800000D02*
X65850000Y-112800000D01*
X65100000Y-94050000D02*
X102350000Y-94050000D01*
X195850000Y-112800000D02*
X189350000Y-112800000D01*
X152350000Y-95714213D02*
X157776787Y-101141000D01*
X102350000Y-112800000D02*
X108850000Y-112800000D01*
X58600000Y-113550000D02*
X65100000Y-113550000D01*
X152350000Y-112800000D02*
X151850000Y-112300000D01*
X144600000Y-93050000D02*
X145850000Y-94300000D01*
X189350000Y-112800000D02*
X152350000Y-112800000D01*
X189350000Y-96668630D02*
X189350000Y-92800000D01*
X109850000Y-93050000D02*
X144600000Y-93050000D01*
X108850000Y-94050000D02*
X109850000Y-93050000D01*
X151850000Y-112300000D02*
X145350000Y-112300000D01*
X184877630Y-101141000D02*
X189350000Y-96668630D01*
X157776787Y-101141000D02*
X184877630Y-101141000D01*
X195850000Y-92800000D02*
X189350000Y-92800000D01*
X65850000Y-112800000D02*
X65100000Y-113550000D01*
X65100000Y-94050000D02*
X58600000Y-94050000D01*
%TO.N,/MUL_COL_1*%
X108850000Y-89550000D02*
X108850000Y-78300000D01*
X108850000Y-108300000D02*
X102350000Y-108300000D01*
X108850000Y-143800000D02*
X102350000Y-143800000D01*
X108850000Y-125300000D02*
X102350000Y-125300000D01*
X108850000Y-125300000D02*
X112850000Y-121300000D01*
X102350000Y-53800000D02*
X108850000Y-53800000D01*
X112850000Y-121300000D02*
X112850000Y-112300000D01*
X112850000Y-112300000D02*
X108850000Y-108300000D01*
X108850000Y-78300000D02*
X102350000Y-78300000D01*
%TO.N,/MUL_COL_2*%
X156580000Y-82030000D02*
X152350000Y-77800000D01*
X145350000Y-107800000D02*
X143799000Y-109351000D01*
X152350000Y-89800000D02*
X152350000Y-77800000D01*
X152350000Y-89800000D02*
X145850000Y-89800000D01*
X160155000Y-82030000D02*
X156580000Y-82030000D01*
X145600000Y-53550000D02*
X152100000Y-53550000D01*
X152350000Y-124800000D02*
X145850000Y-124800000D01*
X152350000Y-143800000D02*
X145850000Y-143800000D01*
X143799000Y-122749000D02*
X145850000Y-124800000D01*
X145350000Y-107800000D02*
X151850000Y-107800000D01*
X143799000Y-109351000D02*
X143799000Y-122749000D01*
%TO.N,/MUL_COL_0*%
X56267894Y-111382106D02*
X56267894Y-108132106D01*
X64850000Y-125800000D02*
X58350000Y-125800000D01*
X51126000Y-118576000D02*
X51126000Y-116524000D01*
X58600000Y-89550000D02*
X65100000Y-89550000D01*
X58100000Y-89050000D02*
X58600000Y-89550000D01*
X58600000Y-108300000D02*
X56435787Y-108300000D01*
X58350000Y-125800000D02*
X51126000Y-118576000D01*
X51126000Y-116524000D02*
X56267894Y-111382106D01*
X54324000Y-58326000D02*
X58850000Y-53800000D01*
X58850000Y-53800000D02*
X65350000Y-53800000D01*
X58600000Y-108300000D02*
X65100000Y-108300000D01*
X58100000Y-78050000D02*
X58100000Y-89050000D01*
X54324000Y-74274000D02*
X54324000Y-58326000D01*
X58100000Y-78050000D02*
X54324000Y-74274000D01*
X58350000Y-144300000D02*
X64850000Y-144300000D01*
X58100000Y-78050000D02*
X64600000Y-78050000D01*
X56435787Y-108300000D02*
X56267894Y-108132106D01*
%TO.N,/MUL_COL_3*%
X189350000Y-88300000D02*
X184506000Y-93144000D01*
X184506000Y-100431836D02*
X184446836Y-100491000D01*
X158604000Y-100331836D02*
X158604000Y-86121000D01*
X195850000Y-108300000D02*
X189350000Y-108300000D01*
X195850000Y-88300000D02*
X195850000Y-77300000D01*
X189350000Y-77300000D02*
X195850000Y-77300000D01*
X158763164Y-100491000D02*
X158604000Y-100331836D01*
X184506000Y-93144000D02*
X184506000Y-100431836D01*
X189100000Y-53050000D02*
X195600000Y-53050000D01*
X184446836Y-100491000D02*
X158763164Y-100491000D01*
X158604000Y-86121000D02*
X160155000Y-84570000D01*
X189350000Y-88300000D02*
X189350000Y-77300000D01*
X195850000Y-143800000D02*
X189350000Y-143800000D01*
X189350000Y-124300000D02*
X195850000Y-124300000D01*
%TO.N,/MUL_ROW_0*%
X102350000Y-58300000D02*
X65350000Y-58300000D01*
X189350000Y-72800000D02*
X195850000Y-72800000D01*
X200126000Y-68524000D02*
X200126000Y-60249336D01*
X152100000Y-58050000D02*
X145600000Y-58050000D01*
X108850000Y-73800000D02*
X145350000Y-73800000D01*
X109100000Y-58050000D02*
X108850000Y-58300000D01*
X58850000Y-58300000D02*
X65350000Y-58300000D01*
X197426664Y-57550000D02*
X195600000Y-57550000D01*
X188600000Y-58050000D02*
X189100000Y-57550000D01*
X108850000Y-58300000D02*
X102350000Y-58300000D01*
X145600000Y-58050000D02*
X109100000Y-58050000D01*
X200126000Y-60249336D02*
X197426664Y-57550000D01*
X102350000Y-73800000D02*
X64850000Y-73800000D01*
X152350000Y-73300000D02*
X152850000Y-72800000D01*
X195850000Y-72800000D02*
X200126000Y-68524000D01*
X145350000Y-73800000D02*
X145850000Y-73300000D01*
X58100000Y-73550000D02*
X64600000Y-73550000D01*
X108850000Y-73800000D02*
X102350000Y-73800000D01*
X64850000Y-73800000D02*
X64600000Y-73550000D01*
X152850000Y-72800000D02*
X189350000Y-72800000D01*
X152100000Y-58050000D02*
X188600000Y-58050000D01*
%TO.N,Net-(D8-DOUT)*%
X59350000Y-139600000D02*
X56900000Y-139600000D01*
X59529004Y-101300000D02*
X55100000Y-101300000D01*
X64250000Y-99550000D02*
X61279004Y-99550000D01*
X61279004Y-99550000D02*
X59529004Y-101300000D01*
X56900000Y-139600000D02*
X55100000Y-137800000D01*
%TO.N,Net-(D6-DOUT)*%
X136197336Y-101849000D02*
X131351000Y-101849000D01*
X151250000Y-99400000D02*
X149374000Y-97524000D01*
X131351000Y-101849000D02*
X130400000Y-102800000D01*
X149374000Y-97524000D02*
X140522336Y-97524000D01*
X140522336Y-97524000D02*
X136197336Y-101849000D01*
X122501000Y-101501000D02*
X104699000Y-101501000D01*
X130400000Y-102800000D02*
X123800000Y-102800000D01*
X123800000Y-102800000D02*
X122501000Y-101501000D01*
X104699000Y-101501000D02*
X103350000Y-102850000D01*
%TO.N,Net-(D1-DOUT)*%
X101599000Y-68301000D02*
X102450000Y-67450000D01*
X68451000Y-68301000D02*
X101599000Y-68301000D01*
X64300000Y-64150000D02*
X68451000Y-68301000D01*
%TO.N,Net-(D2-DOUT)*%
X111551000Y-68351000D02*
X144749000Y-68351000D01*
X144749000Y-68351000D02*
X145650000Y-67450000D01*
X107350000Y-64150000D02*
X111551000Y-68351000D01*
%TO.N,Net-(Q1-G)*%
X168350000Y-74200000D02*
X172350000Y-74200000D01*
X166150000Y-76400000D02*
X166150000Y-80000000D01*
X174350000Y-56000000D02*
X177550000Y-56000000D01*
X179200000Y-54350000D02*
X180087500Y-54350000D01*
X166150000Y-76400000D02*
X168350000Y-74200000D01*
X177550000Y-56000000D02*
X179200000Y-54350000D01*
%TO.N,Net-(U1-SDA{slash}D2)*%
X168150000Y-80000000D02*
X178445000Y-80000000D01*
X178445000Y-80000000D02*
X183015000Y-84570000D01*
%TO.N,Net-(U1-SCL{slash}D1)*%
X168200000Y-85600000D02*
X178800000Y-85600000D01*
X178800000Y-85600000D02*
X180310000Y-87110000D01*
X180310000Y-87110000D02*
X183015000Y-87110000D01*
%TD*%
M02*
