%TF.GenerationSoftware,KiCad,Pcbnew,9.0.3-9.0.3-0~ubuntu24.04.1*%
%TF.CreationDate,2025-09-29T22:24:15+02:00*%
%TF.ProjectId,ColorMemo,436f6c6f-724d-4656-9d6f-2e6b69636164,rev?*%
%TF.SameCoordinates,Original*%
%TF.FileFunction,Legend,Bot*%
%TF.FilePolarity,Positive*%
%FSLAX46Y46*%
G04 Gerber Fmt 4.6, Leading zero omitted, Abs format (unit mm)*
G04 Created by KiCad (PCBNEW 9.0.3-9.0.3-0~ubuntu24.04.1) date 2025-09-29 22:24:15*
%MOMM*%
%LPD*%
G01*
G04 APERTURE LIST*
%ADD10C,0.150000*%
%ADD11C,0.120000*%
G04 APERTURE END LIST*
D10*
X54354819Y-88666666D02*
X55069104Y-88666666D01*
X55069104Y-88666666D02*
X55211961Y-88619047D01*
X55211961Y-88619047D02*
X55307200Y-88523809D01*
X55307200Y-88523809D02*
X55354819Y-88380952D01*
X55354819Y-88380952D02*
X55354819Y-88285714D01*
X55354819Y-89666666D02*
X55354819Y-89095238D01*
X55354819Y-89380952D02*
X54354819Y-89380952D01*
X54354819Y-89380952D02*
X54497676Y-89285714D01*
X54497676Y-89285714D02*
X54592914Y-89190476D01*
X54592914Y-89190476D02*
X54640533Y-89095238D01*
X182916904Y-64644819D02*
X182916904Y-65454342D01*
X182916904Y-65454342D02*
X182869285Y-65549580D01*
X182869285Y-65549580D02*
X182821666Y-65597200D01*
X182821666Y-65597200D02*
X182726428Y-65644819D01*
X182726428Y-65644819D02*
X182535952Y-65644819D01*
X182535952Y-65644819D02*
X182440714Y-65597200D01*
X182440714Y-65597200D02*
X182393095Y-65549580D01*
X182393095Y-65549580D02*
X182345476Y-65454342D01*
X182345476Y-65454342D02*
X182345476Y-64644819D01*
X181345476Y-65644819D02*
X181916904Y-65644819D01*
X181631190Y-65644819D02*
X181631190Y-64644819D01*
X181631190Y-64644819D02*
X181726428Y-64787676D01*
X181726428Y-64787676D02*
X181821666Y-64882914D01*
X181821666Y-64882914D02*
X181916904Y-64930533D01*
X128531009Y-67519047D02*
X128578628Y-67661904D01*
X128578628Y-67661904D02*
X128626247Y-67709523D01*
X128626247Y-67709523D02*
X128721485Y-67757142D01*
X128721485Y-67757142D02*
X128864342Y-67757142D01*
X128864342Y-67757142D02*
X128959580Y-67709523D01*
X128959580Y-67709523D02*
X129007200Y-67661904D01*
X129007200Y-67661904D02*
X129054819Y-67566666D01*
X129054819Y-67566666D02*
X129054819Y-67185714D01*
X129054819Y-67185714D02*
X128054819Y-67185714D01*
X128054819Y-67185714D02*
X128054819Y-67519047D01*
X128054819Y-67519047D02*
X128102438Y-67614285D01*
X128102438Y-67614285D02*
X128150057Y-67661904D01*
X128150057Y-67661904D02*
X128245295Y-67709523D01*
X128245295Y-67709523D02*
X128340533Y-67709523D01*
X128340533Y-67709523D02*
X128435771Y-67661904D01*
X128435771Y-67661904D02*
X128483390Y-67614285D01*
X128483390Y-67614285D02*
X128531009Y-67519047D01*
X128531009Y-67519047D02*
X128531009Y-67185714D01*
X128054819Y-68090476D02*
X128054819Y-68757142D01*
X128054819Y-68757142D02*
X129054819Y-68090476D01*
X129054819Y-68090476D02*
X129054819Y-68757142D01*
X129054819Y-69661904D02*
X129054819Y-69090476D01*
X129054819Y-69376190D02*
X128054819Y-69376190D01*
X128054819Y-69376190D02*
X128197676Y-69280952D01*
X128197676Y-69280952D02*
X128292914Y-69185714D01*
X128292914Y-69185714D02*
X128340533Y-69090476D01*
X130613866Y-63629048D02*
X130613866Y-64390953D01*
X130994819Y-64010000D02*
X130232914Y-64010000D01*
X121209580Y-61457142D02*
X121257200Y-61409523D01*
X121257200Y-61409523D02*
X121304819Y-61266666D01*
X121304819Y-61266666D02*
X121304819Y-61171428D01*
X121304819Y-61171428D02*
X121257200Y-61028571D01*
X121257200Y-61028571D02*
X121161961Y-60933333D01*
X121161961Y-60933333D02*
X121066723Y-60885714D01*
X121066723Y-60885714D02*
X120876247Y-60838095D01*
X120876247Y-60838095D02*
X120733390Y-60838095D01*
X120733390Y-60838095D02*
X120542914Y-60885714D01*
X120542914Y-60885714D02*
X120447676Y-60933333D01*
X120447676Y-60933333D02*
X120352438Y-61028571D01*
X120352438Y-61028571D02*
X120304819Y-61171428D01*
X120304819Y-61171428D02*
X120304819Y-61266666D01*
X120304819Y-61266666D02*
X120352438Y-61409523D01*
X120352438Y-61409523D02*
X120400057Y-61457142D01*
X121304819Y-62409523D02*
X121304819Y-61838095D01*
X121304819Y-62123809D02*
X120304819Y-62123809D01*
X120304819Y-62123809D02*
X120447676Y-62028571D01*
X120447676Y-62028571D02*
X120542914Y-61933333D01*
X120542914Y-61933333D02*
X120590533Y-61838095D01*
X120304819Y-62742857D02*
X120304819Y-63361904D01*
X120304819Y-63361904D02*
X120685771Y-63028571D01*
X120685771Y-63028571D02*
X120685771Y-63171428D01*
X120685771Y-63171428D02*
X120733390Y-63266666D01*
X120733390Y-63266666D02*
X120781009Y-63314285D01*
X120781009Y-63314285D02*
X120876247Y-63361904D01*
X120876247Y-63361904D02*
X121114342Y-63361904D01*
X121114342Y-63361904D02*
X121209580Y-63314285D01*
X121209580Y-63314285D02*
X121257200Y-63266666D01*
X121257200Y-63266666D02*
X121304819Y-63171428D01*
X121304819Y-63171428D02*
X121304819Y-62885714D01*
X121304819Y-62885714D02*
X121257200Y-62790476D01*
X121257200Y-62790476D02*
X121209580Y-62742857D01*
D11*
%TO.C,J1*%
X54110000Y-92360000D02*
X52860000Y-92360000D01*
X53810000Y-92060000D02*
X49090000Y-92060000D01*
X52500000Y-92060000D02*
X52500000Y-91450000D01*
X51200000Y-92060000D02*
X51200000Y-91450000D01*
X49090000Y-92060000D02*
X49090000Y-85940000D01*
X53200000Y-91450000D02*
X49700000Y-91450000D01*
X49700000Y-91450000D02*
X49700000Y-86550000D01*
X54110000Y-91110000D02*
X54110000Y-92360000D01*
X54010000Y-90600000D02*
X53810000Y-90600000D01*
X54010000Y-90300000D02*
X54010000Y-90600000D01*
X53910000Y-90300000D02*
X53910000Y-90600000D01*
X53810000Y-90300000D02*
X54010000Y-90300000D01*
X53810000Y-89500000D02*
X53200000Y-89500000D01*
X53200000Y-89500000D02*
X53200000Y-91450000D01*
X50200000Y-89100000D02*
X50200000Y-88900000D01*
X49700000Y-89100000D02*
X50200000Y-89100000D01*
X49700000Y-89000000D02*
X50200000Y-89000000D01*
X50200000Y-88900000D02*
X49700000Y-88900000D01*
X53200000Y-88500000D02*
X53810000Y-88500000D01*
X53200000Y-86550000D02*
X53200000Y-88500000D01*
X49700000Y-86550000D02*
X53200000Y-86550000D01*
X53810000Y-85940000D02*
X53810000Y-92060000D01*
X52500000Y-85940000D02*
X52500000Y-86550000D01*
X51200000Y-85940000D02*
X51200000Y-86550000D01*
X49090000Y-85940000D02*
X53810000Y-85940000D01*
%TO.C,U1*%
X158655000Y-72970000D02*
X158655000Y-98400000D01*
X158655000Y-72970000D02*
X161195000Y-72970000D01*
X161195000Y-66070000D02*
X184515000Y-66070000D01*
X161195000Y-72970000D02*
X161195000Y-66070000D01*
X182395000Y-100530000D02*
X160785000Y-100530000D01*
X184515000Y-66070000D02*
X184515000Y-98400000D01*
X160785000Y-100530000D02*
G75*
G02*
X158655000Y-98400000I2J2130002D01*
G01*
X184515000Y-98400000D02*
G75*
G02*
X182385000Y-100530000I-2130000J0D01*
G01*
D10*
X158250000Y-92190000D02*
X157615000Y-92825000D01*
X157615000Y-91555000D01*
X158250000Y-92190000D01*
G36*
X158250000Y-92190000D02*
G01*
X157615000Y-92825000D01*
X157615000Y-91555000D01*
X158250000Y-92190000D01*
G37*
D11*
%TO.C,BZ1*%
X134100000Y-60200000D02*
G75*
G02*
X121900000Y-60200000I-6100000J0D01*
G01*
X121900000Y-60200000D02*
G75*
G02*
X134100000Y-60200000I6100000J0D01*
G01*
%TO.C,C13*%
X114560000Y-58580000D02*
X113499000Y-58580000D01*
X114560000Y-58620000D02*
X113435000Y-58620000D01*
X114560000Y-58660000D02*
X113373000Y-58660000D01*
X114560000Y-58700000D02*
X113313000Y-58700000D01*
X114560000Y-58740000D02*
X113256000Y-58740000D01*
X114560000Y-58780000D02*
X113200000Y-58780000D01*
X114560000Y-58820000D02*
X113147000Y-58820000D01*
X114560000Y-58860000D02*
X113095000Y-58860000D01*
X114560000Y-58900000D02*
X113045000Y-58900000D01*
X114560000Y-58940000D02*
X112996000Y-58940000D01*
X114560000Y-58980000D02*
X112949000Y-58980000D01*
X114560000Y-59020000D02*
X112904000Y-59020000D01*
X114560000Y-59060000D02*
X112859000Y-59060000D01*
X114560000Y-59100000D02*
X112816000Y-59100000D01*
X114560000Y-59140000D02*
X112774000Y-59140000D01*
X114560000Y-59180000D02*
X112733000Y-59180000D01*
X114560000Y-59220000D02*
X112694000Y-59220000D01*
X114560000Y-59260000D02*
X112655000Y-59260000D01*
X114560000Y-59300000D02*
X112618000Y-59300000D01*
X114560000Y-59340000D02*
X112581000Y-59340000D01*
X114560000Y-59380000D02*
X112545000Y-59380000D01*
X114560000Y-59420000D02*
X112511000Y-59420000D01*
X114560000Y-59460000D02*
X112477000Y-59460000D01*
X114560000Y-59500000D02*
X112444000Y-59500000D01*
X114560000Y-59540000D02*
X112412000Y-59540000D01*
X114560000Y-59580000D02*
X112381000Y-59580000D01*
X114560000Y-59620000D02*
X112350000Y-59620000D01*
X114560000Y-59660000D02*
X112320000Y-59660000D01*
X114560000Y-59700000D02*
X112291000Y-59700000D01*
X114560000Y-59740000D02*
X112263000Y-59740000D01*
X114560000Y-59780000D02*
X112235000Y-59780000D01*
X114560000Y-59820000D02*
X112208000Y-59820000D01*
X114560000Y-59860000D02*
X112182000Y-59860000D01*
X114560000Y-59900000D02*
X112157000Y-59900000D01*
X114560000Y-59940000D02*
X112132000Y-59940000D01*
X114560000Y-59980000D02*
X112107000Y-59980000D01*
X114560000Y-60020000D02*
X112084000Y-60020000D01*
X114560000Y-60060000D02*
X112061000Y-60060000D01*
X114560000Y-60100000D02*
X112038000Y-60100000D01*
X114560000Y-60140000D02*
X112016000Y-60140000D01*
X114560000Y-60180000D02*
X111995000Y-60180000D01*
X114560000Y-60220000D02*
X111974000Y-60220000D01*
X114560000Y-60260000D02*
X111954000Y-60260000D01*
X114560000Y-60300000D02*
X111934000Y-60300000D01*
X114560000Y-60340000D02*
X111915000Y-60340000D01*
X114560000Y-60380000D02*
X111896000Y-60380000D01*
X114560000Y-60420000D02*
X111878000Y-60420000D01*
X114560000Y-60460000D02*
X111860000Y-60460000D01*
X114560000Y-60500000D02*
X111843000Y-60500000D01*
X114560000Y-60540000D02*
X111827000Y-60540000D01*
X114560000Y-60580000D02*
X111811000Y-60580000D01*
X114560000Y-60620000D02*
X111795000Y-60620000D01*
X116133000Y-58020000D02*
X115067000Y-58020000D01*
X116368000Y-58060000D02*
X114832000Y-58060000D01*
X116547000Y-58100000D02*
X114653000Y-58100000D01*
X116697000Y-58140000D02*
X114503000Y-58140000D01*
X116828000Y-58180000D02*
X114372000Y-58180000D01*
X116946000Y-58220000D02*
X114254000Y-58220000D01*
X117053000Y-58260000D02*
X114147000Y-58260000D01*
X117152000Y-58300000D02*
X114048000Y-58300000D01*
X117244000Y-58340000D02*
X113956000Y-58340000D01*
X117331000Y-58380000D02*
X113869000Y-58380000D01*
X117413000Y-58420000D02*
X113787000Y-58420000D01*
X117490000Y-58460000D02*
X113710000Y-58460000D01*
X117564000Y-58500000D02*
X113636000Y-58500000D01*
X117634000Y-58540000D02*
X113566000Y-58540000D01*
X117701000Y-58580000D02*
X116640000Y-58580000D01*
X117765000Y-58620000D02*
X116640000Y-58620000D01*
X117827000Y-58660000D02*
X116640000Y-58660000D01*
X117887000Y-58700000D02*
X116640000Y-58700000D01*
X117915000Y-66509698D02*
X117915000Y-65709698D01*
X117944000Y-58740000D02*
X116640000Y-58740000D01*
X118000000Y-58780000D02*
X116640000Y-58780000D01*
X118053000Y-58820000D02*
X116640000Y-58820000D01*
X118105000Y-58860000D02*
X116640000Y-58860000D01*
X118155000Y-58900000D02*
X116640000Y-58900000D01*
X118204000Y-58940000D02*
X116640000Y-58940000D01*
X118251000Y-58980000D02*
X116640000Y-58980000D01*
X118296000Y-59020000D02*
X116640000Y-59020000D01*
X118315000Y-66109698D02*
X117515000Y-66109698D01*
X118341000Y-59060000D02*
X116640000Y-59060000D01*
X118384000Y-59100000D02*
X116640000Y-59100000D01*
X118426000Y-59140000D02*
X116640000Y-59140000D01*
X118467000Y-59180000D02*
X116640000Y-59180000D01*
X118506000Y-59220000D02*
X116640000Y-59220000D01*
X118545000Y-59260000D02*
X116640000Y-59260000D01*
X118582000Y-59300000D02*
X116640000Y-59300000D01*
X118619000Y-59340000D02*
X116640000Y-59340000D01*
X118655000Y-59380000D02*
X116640000Y-59380000D01*
X118689000Y-59420000D02*
X116640000Y-59420000D01*
X118723000Y-59460000D02*
X116640000Y-59460000D01*
X118756000Y-59500000D02*
X116640000Y-59500000D01*
X118788000Y-59540000D02*
X116640000Y-59540000D01*
X118819000Y-59580000D02*
X116640000Y-59580000D01*
X118850000Y-59620000D02*
X116640000Y-59620000D01*
X118880000Y-59660000D02*
X116640000Y-59660000D01*
X118909000Y-59700000D02*
X116640000Y-59700000D01*
X118937000Y-59740000D02*
X116640000Y-59740000D01*
X118965000Y-59780000D02*
X116640000Y-59780000D01*
X118992000Y-59820000D02*
X116640000Y-59820000D01*
X119018000Y-59860000D02*
X116640000Y-59860000D01*
X119043000Y-59900000D02*
X116640000Y-59900000D01*
X119068000Y-59940000D02*
X116640000Y-59940000D01*
X119093000Y-59980000D02*
X116640000Y-59980000D01*
X119116000Y-60020000D02*
X116640000Y-60020000D01*
X119139000Y-60060000D02*
X116640000Y-60060000D01*
X119162000Y-60100000D02*
X116640000Y-60100000D01*
X119184000Y-60140000D02*
X116640000Y-60140000D01*
X119205000Y-60180000D02*
X116640000Y-60180000D01*
X119226000Y-60220000D02*
X116640000Y-60220000D01*
X119246000Y-60260000D02*
X116640000Y-60260000D01*
X119266000Y-60300000D02*
X116640000Y-60300000D01*
X119285000Y-60340000D02*
X116640000Y-60340000D01*
X119304000Y-60380000D02*
X116640000Y-60380000D01*
X119322000Y-60420000D02*
X116640000Y-60420000D01*
X119340000Y-60460000D02*
X116640000Y-60460000D01*
X119357000Y-60500000D02*
X116640000Y-60500000D01*
X119373000Y-60540000D02*
X116640000Y-60540000D01*
X119389000Y-60580000D02*
X116640000Y-60580000D01*
X119405000Y-60620000D02*
X116640000Y-60620000D01*
X119420000Y-60660000D02*
X111780000Y-60660000D01*
X119435000Y-60700000D02*
X111765000Y-60700000D01*
X119449000Y-60740000D02*
X111751000Y-60740000D01*
X119463000Y-60780000D02*
X111737000Y-60780000D01*
X119476000Y-60820000D02*
X111724000Y-60820000D01*
X119489000Y-60860000D02*
X111711000Y-60860000D01*
X119501000Y-60900000D02*
X111699000Y-60900000D01*
X119513000Y-60940000D02*
X111687000Y-60940000D01*
X119525000Y-60980000D02*
X111675000Y-60980000D01*
X119536000Y-61020000D02*
X111664000Y-61020000D01*
X119547000Y-61060000D02*
X111653000Y-61060000D01*
X119557000Y-61100000D02*
X111643000Y-61100000D01*
X119567000Y-61140000D02*
X111633000Y-61140000D01*
X119576000Y-61180000D02*
X111624000Y-61180000D01*
X119585000Y-61220000D02*
X111615000Y-61220000D01*
X119593000Y-61260000D02*
X111607000Y-61260000D01*
X119602000Y-61300000D02*
X111598000Y-61300000D01*
X119609000Y-61340000D02*
X111591000Y-61340000D01*
X119617000Y-61380000D02*
X111583000Y-61380000D01*
X119623000Y-61420000D02*
X111577000Y-61420000D01*
X119630000Y-61460000D02*
X111570000Y-61460000D01*
X119636000Y-61500000D02*
X111564000Y-61500000D01*
X119642000Y-61540000D02*
X111558000Y-61540000D01*
X119647000Y-61580000D02*
X111553000Y-61580000D01*
X119652000Y-61620000D02*
X111548000Y-61620000D01*
X119656000Y-61660000D02*
X111544000Y-61660000D01*
X119661000Y-61700000D02*
X111539000Y-61700000D01*
X119664000Y-61740000D02*
X111536000Y-61740000D01*
X119668000Y-61780000D02*
X111532000Y-61780000D01*
X119670000Y-61820000D02*
X111530000Y-61820000D01*
X119673000Y-61860000D02*
X111527000Y-61860000D01*
X119675000Y-61900000D02*
X111525000Y-61900000D01*
X119677000Y-61940000D02*
X111523000Y-61940000D01*
X119678000Y-61980000D02*
X111522000Y-61980000D01*
X119679000Y-62020000D02*
X111521000Y-62020000D01*
X119680000Y-62060000D02*
X111520000Y-62060000D01*
X119680000Y-62100000D02*
X111520000Y-62100000D01*
X119720000Y-62100000D02*
G75*
G02*
X111480000Y-62100000I-4120000J0D01*
G01*
X111480000Y-62100000D02*
G75*
G02*
X119720000Y-62100000I4120000J0D01*
G01*
%TD*%
M02*
