%TF.GenerationSoftware,KiCad,Pcbnew,9.0.3-9.0.3-0~ubuntu24.04.1*%
%TF.CreationDate,2025-09-29T22:24:14+02:00*%
%TF.ProjectId,ColorMemo,436f6c6f-724d-4656-9d6f-2e6b69636164,rev?*%
%TF.SameCoordinates,Original*%
%TF.FileFunction,Copper,L2,Bot*%
%TF.FilePolarity,Positive*%
%FSLAX46Y46*%
G04 Gerber Fmt 4.6, Leading zero omitted, Abs format (unit mm)*
G04 Created by KiCad (PCBNEW 9.0.3-9.0.3-0~ubuntu24.04.1) date 2025-09-29 22:24:14*
%MOMM*%
%LPD*%
G01*
G04 APERTURE LIST*
G04 Aperture macros list*
%AMRoundRect*
0 Rectangle with rounded corners*
0 $1 Rounding radius*
0 $2 $3 $4 $5 $6 $7 $8 $9 X,Y pos of 4 corners*
0 Add a 4 corners polygon primitive as box body*
4,1,4,$2,$3,$4,$5,$6,$7,$8,$9,$2,$3,0*
0 Add four circle primitives for the rounded corners*
1,1,$1+$1,$2,$3*
1,1,$1+$1,$4,$5*
1,1,$1+$1,$6,$7*
1,1,$1+$1,$8,$9*
0 Add four rect primitives between the rounded corners*
20,1,$1+$1,$2,$3,$4,$5,0*
20,1,$1+$1,$4,$5,$6,$7,0*
20,1,$1+$1,$6,$7,$8,$9,0*
20,1,$1+$1,$8,$9,$2,$3,0*%
G04 Aperture macros list end*
%TA.AperFunction,ComponentPad*%
%ADD10RoundRect,0.250000X0.625000X-0.350000X0.625000X0.350000X-0.625000X0.350000X-0.625000X-0.350000X0*%
%TD*%
%TA.AperFunction,ComponentPad*%
%ADD11O,1.750000X1.200000*%
%TD*%
%TA.AperFunction,ComponentPad*%
%ADD12C,2.000000*%
%TD*%
%TA.AperFunction,ComponentPad*%
%ADD13R,2.000000X2.000000*%
%TD*%
%TA.AperFunction,ComponentPad*%
%ADD14O,2.000000X1.600000*%
%TD*%
%TA.AperFunction,ComponentPad*%
%ADD15RoundRect,0.250000X0.550000X-0.550000X0.550000X0.550000X-0.550000X0.550000X-0.550000X-0.550000X0*%
%TD*%
%TA.AperFunction,ComponentPad*%
%ADD16C,1.600000*%
%TD*%
%TA.AperFunction,ViaPad*%
%ADD17C,0.600000*%
%TD*%
%TA.AperFunction,Conductor*%
%ADD18C,0.500000*%
%TD*%
%TA.AperFunction,Conductor*%
%ADD19C,0.200000*%
%TD*%
G04 APERTURE END LIST*
D10*
%TO.P,J1,1,Pin_1*%
%TO.N,VCC*%
X52000000Y-90000000D03*
D11*
%TO.P,J1,2,Pin_2*%
%TO.N,GND*%
X52000000Y-88000000D03*
%TD*%
D12*
%TO.P,SW16,1,1*%
%TO.N,/MUL_COL_3*%
X189350000Y-108300000D03*
X195850000Y-108300000D03*
%TO.P,SW16,2,2*%
%TO.N,/MUL_ROW_1*%
X189350000Y-112800000D03*
X195850000Y-112800000D03*
%TD*%
%TO.P,SW17,1,1*%
%TO.N,/MUL_COL_0*%
X58350000Y-125800000D03*
X64850000Y-125800000D03*
%TO.P,SW17,2,2*%
%TO.N,/MUL_ROW_2*%
X58350000Y-130300000D03*
X64850000Y-130300000D03*
%TD*%
%TO.P,SW11,1,1*%
%TO.N,/MUL_COL_1*%
X102350000Y-89550000D03*
X108850000Y-89550000D03*
%TO.P,SW11,2,2*%
%TO.N,/MUL_ROW_1*%
X102350000Y-94050000D03*
X108850000Y-94050000D03*
%TD*%
%TO.P,SW12,1,1*%
%TO.N,/MUL_COL_1*%
X102350000Y-108300000D03*
X108850000Y-108300000D03*
%TO.P,SW12,2,2*%
%TO.N,/MUL_ROW_1*%
X102350000Y-112800000D03*
X108850000Y-112800000D03*
%TD*%
%TO.P,SW10,1,1*%
%TO.N,/MUL_COL_0*%
X58600000Y-108300000D03*
X65100000Y-108300000D03*
%TO.P,SW10,2,2*%
%TO.N,/MUL_ROW_1*%
X58600000Y-112800000D03*
X65100000Y-112800000D03*
%TD*%
%TO.P,SW3,1,1*%
%TO.N,/MUL_COL_2*%
X145600000Y-53550000D03*
X152100000Y-53550000D03*
%TO.P,SW3,2,2*%
%TO.N,/MUL_ROW_0*%
X145600000Y-58050000D03*
X152100000Y-58050000D03*
%TD*%
%TO.P,SW15,1,1*%
%TO.N,/MUL_COL_3*%
X189350000Y-88300000D03*
X195850000Y-88300000D03*
%TO.P,SW15,2,2*%
%TO.N,/MUL_ROW_1*%
X189350000Y-92800000D03*
X195850000Y-92800000D03*
%TD*%
%TO.P,SW19,1,1*%
%TO.N,/MUL_COL_1*%
X102350000Y-125300000D03*
X108850000Y-125300000D03*
%TO.P,SW19,2,2*%
%TO.N,/MUL_ROW_2*%
X102350000Y-129800000D03*
X108850000Y-129800000D03*
%TD*%
%TO.P,SW13,1,1*%
%TO.N,/MUL_COL_2*%
X145850000Y-89800000D03*
X152350000Y-89800000D03*
%TO.P,SW13,2,2*%
%TO.N,/MUL_ROW_1*%
X145850000Y-94300000D03*
X152350000Y-94300000D03*
%TD*%
%TO.P,SW23,1,1*%
%TO.N,/MUL_COL_3*%
X189350000Y-124800000D03*
X195850000Y-124800000D03*
%TO.P,SW23,2,2*%
%TO.N,/MUL_ROW_2*%
X189350000Y-129300000D03*
X195850000Y-129300000D03*
%TD*%
%TO.P,SW20,1,1*%
%TO.N,/MUL_COL_1*%
X102350000Y-143800000D03*
X108850000Y-143800000D03*
%TO.P,SW20,2,2*%
%TO.N,/MUL_ROW_2*%
X102350000Y-148300000D03*
X108850000Y-148300000D03*
%TD*%
%TO.P,SW22,1,1*%
%TO.N,/MUL_COL_2*%
X145850000Y-143800000D03*
X152350000Y-143800000D03*
%TO.P,SW22,2,2*%
%TO.N,/MUL_ROW_2*%
X145850000Y-148300000D03*
X152350000Y-148300000D03*
%TD*%
%TO.P,SW14,1,1*%
%TO.N,/MUL_COL_2*%
X145350000Y-107800000D03*
X151850000Y-107800000D03*
%TO.P,SW14,2,2*%
%TO.N,/MUL_ROW_1*%
X145350000Y-112300000D03*
X151850000Y-112300000D03*
%TD*%
%TO.P,SW4,1,1*%
%TO.N,/MUL_COL_3*%
X189100000Y-53050000D03*
X195600000Y-53050000D03*
%TO.P,SW4,2,2*%
%TO.N,/MUL_ROW_0*%
X189100000Y-57550000D03*
X195600000Y-57550000D03*
%TD*%
%TO.P,SW9,1,1*%
%TO.N,/MUL_COL_0*%
X58600000Y-89550000D03*
X65100000Y-89550000D03*
%TO.P,SW9,2,2*%
%TO.N,/MUL_ROW_1*%
X58600000Y-94050000D03*
X65100000Y-94050000D03*
%TD*%
%TO.P,SW5,1,1*%
%TO.N,/MUL_COL_0*%
X64600000Y-78050000D03*
X58100000Y-78050000D03*
%TO.P,SW5,2,2*%
%TO.N,/MUL_ROW_0*%
X64600000Y-73550000D03*
X58100000Y-73550000D03*
%TD*%
%TO.P,SW2,1,1*%
%TO.N,/MUL_COL_1*%
X102350000Y-53800000D03*
X108850000Y-53800000D03*
%TO.P,SW2,2,2*%
%TO.N,/MUL_ROW_0*%
X102350000Y-58300000D03*
X108850000Y-58300000D03*
%TD*%
%TO.P,SW24,1,1*%
%TO.N,/MUL_COL_3*%
X189350000Y-143800000D03*
X195850000Y-143800000D03*
%TO.P,SW24,2,2*%
%TO.N,/MUL_ROW_2*%
X189350000Y-148300000D03*
X195850000Y-148300000D03*
%TD*%
%TO.P,SW8,1,1*%
%TO.N,/MUL_COL_3*%
X195850000Y-77300000D03*
X189350000Y-77300000D03*
%TO.P,SW8,2,2*%
%TO.N,/MUL_ROW_0*%
X195850000Y-72800000D03*
X189350000Y-72800000D03*
%TD*%
%TO.P,SW6,1,1*%
%TO.N,/MUL_COL_1*%
X108850000Y-78300000D03*
X102350000Y-78300000D03*
%TO.P,SW6,2,2*%
%TO.N,/MUL_ROW_0*%
X108850000Y-73800000D03*
X102350000Y-73800000D03*
%TD*%
%TO.P,SW21,1,1*%
%TO.N,/MUL_COL_2*%
X145850000Y-125050000D03*
X152350000Y-125050000D03*
%TO.P,SW21,2,2*%
%TO.N,/MUL_ROW_2*%
X145850000Y-129550000D03*
X152350000Y-129550000D03*
%TD*%
%TO.P,SW7,1,1*%
%TO.N,/MUL_COL_2*%
X152350000Y-77800000D03*
X145850000Y-77800000D03*
%TO.P,SW7,2,2*%
%TO.N,/MUL_ROW_0*%
X152350000Y-73300000D03*
X145850000Y-73300000D03*
%TD*%
%TO.P,SW18,1,1*%
%TO.N,/MUL_COL_0*%
X58350000Y-144300000D03*
X64850000Y-144300000D03*
%TO.P,SW18,2,2*%
%TO.N,/MUL_ROW_2*%
X58350000Y-148800000D03*
X64850000Y-148800000D03*
%TD*%
%TO.P,SW1,1,1*%
%TO.N,/MUL_COL_0*%
X58850000Y-53800000D03*
X65350000Y-53800000D03*
%TO.P,SW1,2,2*%
%TO.N,/MUL_ROW_0*%
X58850000Y-58300000D03*
X65350000Y-58300000D03*
%TD*%
D13*
%TO.P,U1,1,~{RST}*%
%TO.N,unconnected-(U1-~{RST}-Pad1)*%
X160155000Y-92190000D03*
D14*
%TO.P,U1,2,A0*%
%TO.N,unconnected-(U1-A0-Pad2)*%
X160155000Y-89650000D03*
%TO.P,U1,3,D0*%
%TO.N,/MUL_COL_0*%
X160155000Y-87110000D03*
%TO.P,U1,4,SCK/D5*%
%TO.N,/MUL_COL_3*%
X160155000Y-84570000D03*
%TO.P,U1,5,MISO/D6*%
%TO.N,/MUL_COL_2*%
X160155000Y-82030000D03*
%TO.P,U1,6,MOSI/D7*%
%TO.N,/MUL_COL_1*%
X160155000Y-79490000D03*
%TO.P,U1,7,CS/D8*%
%TO.N,/MUL_ROW_0*%
X160155000Y-76950000D03*
%TO.P,U1,8,3V3*%
%TO.N,VDD*%
X160155000Y-74410000D03*
%TO.P,U1,9,5V*%
%TO.N,VCC*%
X183015000Y-74410000D03*
%TO.P,U1,10,GND*%
%TO.N,GND*%
X183015000Y-76950000D03*
%TO.P,U1,11,D4*%
%TO.N,/MUL_ROW_2*%
X183015000Y-79490000D03*
%TO.P,U1,12,D3*%
%TO.N,/MUL_ROW_1*%
X183015000Y-82030000D03*
%TO.P,U1,13,SDA/D2*%
%TO.N,Net-(U1-SDA{slash}D2)*%
X183015000Y-84570000D03*
%TO.P,U1,14,SCL/D1*%
%TO.N,Net-(U1-SCL{slash}D1)*%
X183015000Y-87110000D03*
%TO.P,U1,15,RX*%
%TO.N,unconnected-(U1-RX-Pad15)*%
X183015000Y-89650000D03*
%TO.P,U1,16,TX*%
%TO.N,unconnected-(U1-TX-Pad16)*%
X183015000Y-92190000D03*
%TD*%
D13*
%TO.P,BZ1,1,+*%
%TO.N,VCC*%
X128000000Y-64000000D03*
D12*
%TO.P,BZ1,2,-*%
%TO.N,Net-(BZ1--)*%
X128000000Y-56400000D03*
%TD*%
D15*
%TO.P,C13,1*%
%TO.N,VCC*%
X115600000Y-64600000D03*
D16*
%TO.P,C13,2*%
%TO.N,GND*%
X115600000Y-59600000D03*
%TD*%
D17*
%TO.N,VCC*%
X78600000Y-69151000D03*
X155750000Y-66600000D03*
X78600000Y-139600000D03*
X79350000Y-102850000D03*
X183600000Y-70550000D03*
%TO.N,Net-(D1-DIN)*%
X175800000Y-81600000D03*
X57600000Y-67050000D03*
%TO.N,GND*%
X81850000Y-64800000D03*
X180100000Y-62999000D03*
X80600000Y-136300000D03*
X82100000Y-97800000D03*
%TO.N,Net-(D4-DOUT)*%
X197350000Y-62550000D03*
X197100000Y-104550000D03*
%TO.N,Net-(D8-DOUT)*%
X55100000Y-137800000D03*
X55100000Y-101300000D03*
%TO.N,Net-(Q1-G)*%
X172350000Y-74200000D03*
X174350000Y-56000000D03*
%TD*%
D18*
%TO.N,VCC*%
X78600000Y-103300000D02*
X79050000Y-102850000D01*
X78600000Y-139600000D02*
X78600000Y-103300000D01*
X79350000Y-102850000D02*
X79350000Y-69800000D01*
X183015000Y-71135000D02*
X183600000Y-70550000D01*
X155750000Y-66600000D02*
X165550000Y-56800000D01*
X183015000Y-74410000D02*
X183015000Y-71135000D01*
X78600000Y-69050000D02*
X78600000Y-69151000D01*
X79350000Y-69800000D02*
X78600000Y-69050000D01*
X79050000Y-102850000D02*
X79350000Y-102850000D01*
X165550000Y-56800000D02*
X165550000Y-53600000D01*
D19*
%TO.N,Net-(D1-DIN)*%
X56600000Y-49550000D02*
X52100000Y-54050000D01*
X175800000Y-50350000D02*
X175850000Y-50300000D01*
X175100000Y-49550000D02*
X135050000Y-49550000D01*
X118000000Y-54600000D02*
X113200000Y-49800000D01*
X52100000Y-54050000D02*
X52100000Y-67300000D01*
X56950000Y-49550000D02*
X56600000Y-49550000D01*
X135050000Y-49550000D02*
X130000000Y-54600000D01*
X130000000Y-54600000D02*
X118000000Y-54600000D01*
X113200000Y-49800000D02*
X57200000Y-49800000D01*
X56850000Y-67800000D02*
X57600000Y-67050000D01*
X52600000Y-67800000D02*
X56850000Y-67800000D01*
X175850000Y-50300000D02*
X175100000Y-49550000D01*
X175850000Y-79945000D02*
X175850000Y-50300000D01*
X52100000Y-67300000D02*
X52600000Y-67800000D01*
X175800000Y-81600000D02*
X175800000Y-50350000D01*
X57200000Y-49800000D02*
X56950000Y-49550000D01*
D18*
%TO.N,GND*%
X82100000Y-134800000D02*
X82100000Y-97800000D01*
X81850000Y-64800000D02*
X81850000Y-97550000D01*
X182850000Y-76950000D02*
X180100000Y-74200000D01*
X183015000Y-76950000D02*
X182850000Y-76950000D01*
X180100000Y-74200000D02*
X180100000Y-63050000D01*
X81850000Y-97550000D02*
X82100000Y-97800000D01*
X80600000Y-136300000D02*
X82100000Y-134800000D01*
D19*
%TO.N,Net-(D4-DOUT)*%
X197350000Y-62550000D02*
X199350000Y-64550000D01*
X197100000Y-104550000D02*
X199350000Y-102300000D01*
X199350000Y-102300000D02*
X199350000Y-64550000D01*
%TO.N,/MUL_ROW_1*%
X183015000Y-82030000D02*
X187799000Y-86814000D01*
X187799000Y-94351000D02*
X185725000Y-96425000D01*
X102350000Y-94050000D02*
X108850000Y-94050000D01*
X189350000Y-112800000D02*
X185100000Y-108550000D01*
X58100000Y-112800000D02*
X56100000Y-110800000D01*
X58600000Y-112800000D02*
X58100000Y-112800000D01*
X185100000Y-108550000D02*
X185100000Y-97050000D01*
X185725000Y-96425000D02*
X189350000Y-92800000D01*
X56100000Y-110800000D02*
X56100000Y-95050000D01*
X187799000Y-86814000D02*
X187799000Y-94351000D01*
X185100000Y-97050000D02*
X185725000Y-96425000D01*
X56100000Y-95050000D02*
X57100000Y-94050000D01*
X57100000Y-94050000D02*
X58600000Y-94050000D01*
%TO.N,/MUL_COL_1*%
X111850000Y-90050000D02*
X111850000Y-107550000D01*
X110401000Y-76749000D02*
X108850000Y-78300000D01*
X160155000Y-79490000D02*
X110040000Y-79490000D01*
X110040000Y-79490000D02*
X108850000Y-78300000D01*
X110401000Y-55351000D02*
X110401000Y-76749000D01*
X102350000Y-89550000D02*
X108850000Y-89550000D01*
X111350000Y-89550000D02*
X111850000Y-90050000D01*
X111100000Y-108300000D02*
X108850000Y-108300000D01*
X102350000Y-143800000D02*
X100600000Y-142050000D01*
X100600000Y-142050000D02*
X100600000Y-127050000D01*
X108850000Y-53800000D02*
X110401000Y-55351000D01*
X111850000Y-107550000D02*
X111100000Y-108300000D01*
X108850000Y-89550000D02*
X111350000Y-89550000D01*
X100600000Y-127050000D02*
X102350000Y-125300000D01*
%TO.N,/MUL_COL_2*%
X145850000Y-77800000D02*
X152350000Y-77800000D01*
X145850000Y-77800000D02*
X138100000Y-70050000D01*
X144299000Y-126351000D02*
X145850000Y-124800000D01*
X153901000Y-91351000D02*
X153901000Y-105749000D01*
X144299000Y-142249000D02*
X144299000Y-126351000D01*
X138100000Y-70050000D02*
X138100000Y-54800000D01*
X152350000Y-89800000D02*
X153901000Y-91351000D01*
X139350000Y-53550000D02*
X145600000Y-53550000D01*
X138100000Y-54800000D02*
X139350000Y-53550000D01*
X153901000Y-105749000D02*
X151850000Y-107800000D01*
X145850000Y-143800000D02*
X144299000Y-142249000D01*
%TO.N,/MUL_COL_0*%
X84100000Y-53800000D02*
X87600000Y-57300000D01*
X160095000Y-87050000D02*
X160155000Y-87110000D01*
X65350000Y-53800000D02*
X84100000Y-53800000D01*
X58350000Y-144300000D02*
X56850000Y-144300000D01*
X56350000Y-143800000D02*
X56350000Y-126400000D01*
X56350000Y-126400000D02*
X56950000Y-125800000D01*
X56850000Y-144300000D02*
X56350000Y-143800000D01*
X87600000Y-87050000D02*
X160095000Y-87050000D01*
X87600000Y-57300000D02*
X87600000Y-87050000D01*
X56950000Y-125800000D02*
X58350000Y-125800000D01*
%TO.N,/MUL_COL_3*%
X195850000Y-124300000D02*
X195850000Y-118550000D01*
X191850000Y-105800000D02*
X191850000Y-90800000D01*
X187799000Y-125851000D02*
X189350000Y-124300000D01*
X192600000Y-111550000D02*
X195850000Y-108300000D01*
X195850000Y-118550000D02*
X192600000Y-115300000D01*
X187799000Y-142249000D02*
X187799000Y-125851000D01*
X195850000Y-77300000D02*
X194049000Y-75499000D01*
X194049000Y-75499000D02*
X194049000Y-54601000D01*
X191850000Y-90800000D02*
X189350000Y-88300000D01*
X189350000Y-108300000D02*
X191850000Y-105800000D01*
X192600000Y-115300000D02*
X192600000Y-111550000D01*
X189350000Y-143800000D02*
X187799000Y-142249000D01*
X194049000Y-54601000D02*
X195600000Y-53050000D01*
%TO.N,/MUL_ROW_0*%
X156000000Y-76950000D02*
X152350000Y-73300000D01*
X152350000Y-73300000D02*
X145850000Y-73300000D01*
X189100000Y-72550000D02*
X189100000Y-57550000D01*
X160155000Y-76950000D02*
X156000000Y-76950000D01*
X189350000Y-72800000D02*
X189100000Y-72550000D01*
%TO.N,Net-(D8-DOUT)*%
X55100000Y-101300000D02*
X55100000Y-137800000D01*
%TO.N,Net-(Q1-G)*%
X172350000Y-58000000D02*
X174350000Y-56000000D01*
X172350000Y-74200000D02*
X172350000Y-58000000D01*
%TD*%
M02*
