  0
SECTION
  2
HEADER
  9
$ANGBASE
  50
0.0
  9
$ANGDIR
  70
1
  9
$MEASUREMENT
  70
0
  0
ENDSEC
  0
SECTION
  2
TABLES
  0
TABLE
  2
LTYPE
  70
4
  0
LTYPE
  5
40F
  2
CONTINUOUS
  70
0
  3
Solid line
  72
65
  73
0
  40
0.0
  0
LTYPE
  5
410
  2
DASHDOT
 70
0
  3
Dash Dot ____ _ ____ _
 72
65
 73
4
 40
2.0
 49
1.25
 49
-0.25
 49
0.25
 49
-0.25
  0
LTYPE
  5
411
  2
DASHED
 70
0
  3
Dashed __ __ __ __ __
 72
65
 73
2
 40
0.75
 49
0.5
 49
-0.25
  0
LTYPE
  5
43B
  2
DOTTED
 70
0
  3
Dotted .  .  .  .
 72
65
 73
2
 40
0.2
 49
0.0
 49
-0.2
  0
ENDTAB
  0
TABLE
  2
STYLE
  70
4
  0
STYLE
  2
KICAD
  70
0
  40
0
  41
1
  42
1
  50
0
  71
0
  3
isocp.shx
  0
STYLE
  2
KICADB
  70
0
  40
0
  41
1
  42
1
  50
0
  71
0
  3
isocp.shx
  0
STYLE
  2
KICADI
  70
0
  40
0
  41
1
  42
1
  50
15
  71
0
  3
isocp.shx
  0
STYLE
  2
KICADBI
  70
0
  40
0
  41
1
  42
1
  50
15
  71
0
  3
isocp.shx
  0
ENDTAB
  0
TABLE
  2
LAYER
  70
1
  0
LAYER
  2
BLACK
  70
0
  62
7
  6
CONTINUOUS
  0
ENDTAB
  0
ENDSEC
  0
SECTION
  2
ENTITIES
0
LINE
8
BLACK
6
CONTINUOUS
10
7.269471141732283
20
-2.5955473622047243
11
7.2700038188976377
21
-2.5960800393700785
0
LINE
8
BLACK
6
CONTINUOUS
10
7.2700038188976377
20
-2.5960800393700785
11
7.27007874015748
21
-2.5964566929133857
0
LINE
8
BLACK
6
CONTINUOUS
10
7.27007874015748
20
-2.5964566929133857
11
7.27007874015748
21
-3.9625984251968505
0
LINE
8
BLACK
6
CONTINUOUS
10
7.27007874015748
20
-3.9625984251968505
11
7.2700038188976377
21
-3.9629750787401572
0
LINE
8
BLACK
6
CONTINUOUS
10
7.2700038188976377
20
-3.9629750787401572
11
7.269471141732283
21
-3.9635077559055119
0
LINE
8
BLACK
6
CONTINUOUS
10
7.269471141732283
20
-3.9635077559055119
11
7.2690944881889763
21
-3.9635826771653542
0
LINE
8
BLACK
6
CONTINUOUS
10
7.2690944881889763
20
-3.9635826771653542
11
6.2415354330708661
21
-3.9635826771653542
0
LINE
8
BLACK
6
CONTINUOUS
10
6.2415354330708661
20
-3.9635826771653542
11
6.2411587795275585
21
-3.9635077559055119
0
LINE
8
BLACK
6
CONTINUOUS
10
6.2411587795275585
20
-3.9635077559055119
11
6.2406261023622047
21
-3.9629750787401572
0
LINE
8
BLACK
6
CONTINUOUS
10
6.2406261023622047
20
-3.9629750787401572
11
6.2405511811023624
21
-3.9625984251968505
0
LINE
8
BLACK
6
CONTINUOUS
10
6.2405511811023624
20
-3.9625984251968505
11
6.2405511811023624
21
-2.5964566929133857
0
LINE
8
BLACK
6
CONTINUOUS
10
6.2405511811023624
20
-2.5964566929133857
11
6.2406261023622047
21
-2.5960800393700785
0
LINE
8
BLACK
6
CONTINUOUS
10
6.2406261023622047
20
-2.5960800393700785
11
6.2411587795275585
21
-2.5955473622047243
0
LINE
8
BLACK
6
CONTINUOUS
10
6.2411587795275585
20
-2.5955473622047243
11
6.2415354330708661
21
-2.5954724409448819
0
LINE
8
BLACK
6
CONTINUOUS
10
6.2415354330708661
20
-2.5954724409448819
11
7.2690944881889763
21
-2.5954724409448819
0
LINE
8
BLACK
6
CONTINUOUS
10
7.2690944881889763
20
-2.5954724409448819
11
7.269471141732283
21
-2.5955473622047243
0
LINE
8
BLACK
6
CONTINUOUS
10
6.2425196850393698
20
-2.5974409448818898
11
6.2425196850393698
21
-3.9616141732283463
0
LINE
8
BLACK
6
CONTINUOUS
10
6.2425196850393698
20
-3.9616141732283463
11
7.2681102362204726
21
-3.9616141732283463
0
LINE
8
BLACK
6
CONTINUOUS
10
7.2681102362204726
20
-3.9616141732283463
11
7.2681102362204726
21
-2.5974409448818898
0
LINE
8
BLACK
6
CONTINUOUS
10
7.2681102362204726
20
-2.5974409448818898
11
6.2425196850393698
21
-2.5974409448818898
0
LINE
8
BLACK
6
CONTINUOUS
10
2.1342349212598424
20
-3.3672009055118108
11
2.1347675984251966
21
-3.3677335826771655
0
LINE
8
BLACK
6
CONTINUOUS
10
2.1347675984251966
20
-3.3677335826771655
11
2.1348425196850394
21
-3.3681102362204722
0
LINE
8
BLACK
6
CONTINUOUS
10
2.1348425196850394
20
-3.3681102362204722
11
2.1348425196850394
21
-3.6397637795275588
0
LINE
8
BLACK
6
CONTINUOUS
10
2.1348425196850394
20
-3.6397637795275588
11
2.1347675984251966
21
-3.640140433070866
0
LINE
8
BLACK
6
CONTINUOUS
10
2.1347675984251966
20
-3.640140433070866
11
2.1342349212598424
21
-3.6406731102362202
0
LINE
8
BLACK
6
CONTINUOUS
10
2.1342349212598424
20
-3.6406731102362202
11
2.1338582677165352
21
-3.640748031496063
0
LINE
8
BLACK
6
CONTINUOUS
10
2.1338582677165352
20
-3.640748031496063
11
1.9173228346456692
21
-3.640748031496063
0
LINE
8
BLACK
6
CONTINUOUS
10
1.9173228346456692
20
-3.640748031496063
11
1.9169461811023623
21
-3.6406731102362202
0
LINE
8
BLACK
6
CONTINUOUS
10
1.9169461811023623
20
-3.6406731102362202
11
1.9164135039370078
21
-3.640140433070866
0
LINE
8
BLACK
6
CONTINUOUS
10
1.9164135039370078
20
-3.640140433070866
11
1.9163385826771653
21
-3.6397637795275588
0
LINE
8
BLACK
6
CONTINUOUS
10
1.9163385826771653
20
-3.6397637795275588
11
1.9163385826771653
21
-3.3681102362204722
0
LINE
8
BLACK
6
CONTINUOUS
10
1.9163385826771653
20
-3.3681102362204722
11
1.9164135039370078
21
-3.3677335826771655
0
LINE
8
BLACK
6
CONTINUOUS
10
1.9164135039370078
20
-3.3677335826771655
11
1.9169461811023623
21
-3.3672009055118108
0
LINE
8
BLACK
6
CONTINUOUS
10
1.9169461811023623
20
-3.3672009055118108
11
1.9173228346456692
21
-3.3671259842519685
0
LINE
8
BLACK
6
CONTINUOUS
10
1.9173228346456692
20
-3.3671259842519685
11
2.1338582677165352
21
-3.3671259842519685
0
LINE
8
BLACK
6
CONTINUOUS
10
2.1338582677165352
20
-3.3671259842519685
11
2.1342349212598424
21
-3.3672009055118108
0
LINE
8
BLACK
6
CONTINUOUS
10
1.9183070866141732
20
-3.3690944881889764
11
1.9183070866141732
21
-3.6387795275590551
0
LINE
8
BLACK
6
CONTINUOUS
10
1.9183070866141732
20
-3.6387795275590551
11
2.1328740157480315
21
-3.6387795275590551
0
LINE
8
BLACK
6
CONTINUOUS
10
2.1328740157480315
20
-3.6387795275590551
11
2.1328740157480315
21
-3.3690944881889764
0
LINE
8
BLACK
6
CONTINUOUS
10
2.1328740157480315
20
-3.3690944881889764
11
1.9183070866141732
21
-3.3690944881889764
0
LINE
8
BLACK
6
CONTINUOUS
10
5.0684073622047245
20
-2.1247438976377953
11
5.0875666141732285
21
-2.1277784251968503
0
LINE
8
BLACK
6
CONTINUOUS
10
5.0875666141732285
20
-2.1277784251968503
11
5.1064287007874016
21
-2.1323068110236219
0
LINE
8
BLACK
6
CONTINUOUS
10
5.1064287007874016
20
-2.1323068110236219
11
5.1248773622047246
21
-2.1383011417322835
0
LINE
8
BLACK
6
CONTINUOUS
10
5.1248773622047246
20
-2.1383011417322835
11
5.1427988188976377
21
-2.1457244881889763
0
LINE
8
BLACK
6
CONTINUOUS
10
5.1427988188976377
20
-2.1457244881889763
11
5.1600825984251966
21
-2.1545310236220474
0
LINE
8
BLACK
6
CONTINUOUS
10
5.1600825984251966
20
-2.1545310236220474
11
5.1766221653543303
21
-2.1646664566929132
0
LINE
8
BLACK
6
CONTINUOUS
10
5.1766221653543303
20
-2.1646664566929132
11
5.1923155511811023
21
-2.176068346456693
0
LINE
8
BLACK
6
CONTINUOUS
10
5.1923155511811023
20
-2.176068346456693
11
5.2070659448818892
21
-2.1886663779527558
0
LINE
8
BLACK
6
CONTINUOUS
10
5.2070659448818892
20
-2.1886663779527558
11
5.2207824409448822
21
-2.2023828740157478
0
LINE
8
BLACK
6
CONTINUOUS
10
5.2207824409448822
20
-2.2023828740157478
11
5.2333804724409445
21
-2.2171332677165352
0
LINE
8
BLACK
6
CONTINUOUS
10
5.2333804724409445
20
-2.2171332677165352
11
5.2447823622047247
21
-2.2328266535433072
0
LINE
8
BLACK
6
CONTINUOUS
10
5.2447823622047247
20
-2.2328266535433072
11
5.2549177952755901
21
-2.2493662204724409
0
LINE
8
BLACK
6
CONTINUOUS
10
5.2549177952755901
20
-2.2493662204724409
11
5.2637243307086612
21
-2.2666499999999998
0
LINE
8
BLACK
6
CONTINUOUS
10
5.2637243307086612
20
-2.2666499999999998
11
5.271147677165354
21
-2.2845714566929134
0
LINE
8
BLACK
6
CONTINUOUS
10
5.271147677165354
20
-2.2845714566929134
11
5.2771420078740157
21
-2.3030201181102363
0
LINE
8
BLACK
6
CONTINUOUS
10
5.2771420078740157
20
-2.3030201181102363
11
5.2816703937007876
21
-2.3218822047244094
0
LINE
8
BLACK
6
CONTINUOUS
10
5.2816703937007876
20
-2.3218822047244094
11
5.2847049212598423
21
-2.3410414566929134
0
LINE
8
BLACK
6
CONTINUOUS
10
5.2847049212598423
20
-2.3410414566929134
11
5.2862268503937004
21
-2.3603797244094489
0
LINE
8
BLACK
6
CONTINUOUS
10
5.2862268503937004
20
-2.3603797244094489
11
5.2862268503937004
21
-2.3797777559055118
0
LINE
8
BLACK
6
CONTINUOUS
10
5.2862268503937004
20
-2.3797777559055118
11
5.2847049212598423
21
-2.3991160236220472
0
LINE
8
BLACK
6
CONTINUOUS
10
5.2847049212598423
20
-2.3991160236220472
11
5.2816703937007876
21
-2.4182752755905512
0
LINE
8
BLACK
6
CONTINUOUS
10
5.2816703937007876
20
-2.4182752755905512
11
5.2771420078740157
21
-2.4371373622047243
0
LINE
8
BLACK
6
CONTINUOUS
10
5.2771420078740157
20
-2.4371373622047243
11
5.271147677165354
21
-2.4555860236220473
0
LINE
8
BLACK
6
CONTINUOUS
10
5.271147677165354
20
-2.4555860236220473
11
5.2637243307086612
21
-2.4735074803149604
0
LINE
8
BLACK
6
CONTINUOUS
10
5.2637243307086612
20
-2.4735074803149604
11
5.2549177952755901
21
-2.4907912598425197
0
LINE
8
BLACK
6
CONTINUOUS
10
5.2549177952755901
20
-2.4907912598425197
11
5.2447823622047247
21
-2.5073308267716534
0
LINE
8
BLACK
6
CONTINUOUS
10
5.2447823622047247
20
-2.5073308267716534
11
5.2333804724409445
21
-2.523024212598425
0
LINE
8
BLACK
6
CONTINUOUS
10
5.2333804724409445
20
-2.523024212598425
11
5.2207824409448822
21
-2.5377746062992124
0
LINE
8
BLACK
6
CONTINUOUS
10
5.2207824409448822
20
-2.5377746062992124
11
5.2070659448818892
21
-2.5514911023622049
0
LINE
8
BLACK
6
CONTINUOUS
10
5.2070659448818892
20
-2.5514911023622049
11
5.1923155511811023
21
-2.5640891338582676
0
LINE
8
BLACK
6
CONTINUOUS
10
5.1923155511811023
20
-2.5640891338582676
11
5.1766221653543303
21
-2.5754910236220474
0
LINE
8
BLACK
6
CONTINUOUS
10
5.1766221653543303
20
-2.5754910236220474
11
5.1600825984251966
21
-2.5856264566929132
0
LINE
8
BLACK
6
CONTINUOUS
10
5.1600825984251966
20
-2.5856264566929132
11
5.1427988188976377
21
-2.5944329921259843
0
LINE
8
BLACK
6
CONTINUOUS
10
5.1427988188976377
20
-2.5944329921259843
11
5.1248773622047246
21
-2.6018563385826772
0
LINE
8
BLACK
6
CONTINUOUS
10
5.1248773622047246
20
-2.6018563385826772
11
5.1064287007874016
21
-2.6078506692913384
0
LINE
8
BLACK
6
CONTINUOUS
10
5.1064287007874016
20
-2.6078506692913384
11
5.0875666141732285
21
-2.6123790551181103
0
LINE
8
BLACK
6
CONTINUOUS
10
5.0875666141732285
20
-2.6123790551181103
11
5.0684073622047245
21
-2.6154135826771654
0
LINE
8
BLACK
6
CONTINUOUS
10
5.0684073622047245
20
-2.6154135826771654
11
5.0490690944881891
21
-2.6169355118110236
0
LINE
8
BLACK
6
CONTINUOUS
10
5.0490690944881891
20
-2.6169355118110236
11
5.0296710629921257
21
-2.6169355118110236
0
LINE
8
BLACK
6
CONTINUOUS
10
5.0296710629921257
20
-2.6169355118110236
11
5.0103327952755903
21
-2.6154135826771654
0
LINE
8
BLACK
6
CONTINUOUS
10
5.0103327952755903
20
-2.6154135826771654
11
4.9911735433070863
21
-2.6123790551181103
0
LINE
8
BLACK
6
CONTINUOUS
10
4.9911735433070863
20
-2.6123790551181103
11
4.9723114566929132
21
-2.6078506692913384
0
LINE
8
BLACK
6
CONTINUOUS
10
4.9723114566929132
20
-2.6078506692913384
11
4.9538627952755903
21
-2.6018563385826772
0
LINE
8
BLACK
6
CONTINUOUS
10
4.9538627952755903
20
-2.6018563385826772
11
4.9359413385826771
21
-2.5944329921259843
0
LINE
8
BLACK
6
CONTINUOUS
10
4.9359413385826771
20
-2.5944329921259843
11
4.9186575590551183
21
-2.5856264566929132
0
LINE
8
BLACK
6
CONTINUOUS
10
4.9186575590551183
20
-2.5856264566929132
11
4.9021179921259845
21
-2.5754910236220474
0
LINE
8
BLACK
6
CONTINUOUS
10
4.9021179921259845
20
-2.5754910236220474
11
4.8864246062992125
21
-2.5640891338582676
0
LINE
8
BLACK
6
CONTINUOUS
10
4.8864246062992125
20
-2.5640891338582676
11
4.8716742125984247
21
-2.5514911023622049
0
LINE
8
BLACK
6
CONTINUOUS
10
4.8716742125984247
20
-2.5514911023622049
11
4.8579577165354326
21
-2.5377746062992124
0
LINE
8
BLACK
6
CONTINUOUS
10
4.8579577165354326
20
-2.5377746062992124
11
4.8453596850393703
21
-2.523024212598425
0
LINE
8
BLACK
6
CONTINUOUS
10
4.8453596850393703
20
-2.523024212598425
11
4.8339577952755901
21
-2.5073308267716534
0
LINE
8
BLACK
6
CONTINUOUS
10
4.8339577952755901
20
-2.5073308267716534
11
4.8238223622047247
21
-2.4907912598425197
0
LINE
8
BLACK
6
CONTINUOUS
10
4.8238223622047247
20
-2.4907912598425197
11
4.8150158267716536
21
-2.4735074803149604
0
LINE
8
BLACK
6
CONTINUOUS
10
4.8150158267716536
20
-2.4735074803149604
11
4.8075924803149608
21
-2.4555860236220473
0
LINE
8
BLACK
6
CONTINUOUS
10
4.8075924803149608
20
-2.4555860236220473
11
4.8015981496062992
21
-2.4371373622047243
0
LINE
8
BLACK
6
CONTINUOUS
10
4.8015981496062992
20
-2.4371373622047243
11
4.7970697637795272
21
-2.4182752755905512
0
LINE
8
BLACK
6
CONTINUOUS
10
4.7970697637795272
20
-2.4182752755905512
11
4.7940352362204726
21
-2.3991160236220472
0
LINE
8
BLACK
6
CONTINUOUS
10
4.7940352362204726
20
-2.3991160236220472
11
4.7925133070866144
21
-2.3797777559055118
0
LINE
8
BLACK
6
CONTINUOUS
10
4.7925133070866144
20
-2.3797777559055118
11
4.7925133070866144
21
-2.3604495669291339
0
LINE
8
BLACK
6
CONTINUOUS
10
4.7925133070866144
20
-2.3604495669291339
11
4.7925133070866144
21
-2.3603797244094489
0
LINE
8
BLACK
6
CONTINUOUS
10
4.7925133070866144
20
-2.3603797244094489
11
4.7940352362204726
21
-2.3410414566929134
0
LINE
8
BLACK
6
CONTINUOUS
10
4.7940352362204726
20
-2.3410414566929134
11
4.7970697637795272
21
-2.3218822047244094
0
LINE
8
BLACK
6
CONTINUOUS
10
4.7970697637795272
20
-2.3218822047244094
11
4.8015981496062992
21
-2.3030201181102363
0
LINE
8
BLACK
6
CONTINUOUS
10
4.8015981496062992
20
-2.3030201181102363
11
4.8075924803149608
21
-2.2845714566929134
0
LINE
8
BLACK
6
CONTINUOUS
10
4.8075924803149608
20
-2.2845714566929134
11
4.8150158267716536
21
-2.2666499999999998
0
LINE
8
BLACK
6
CONTINUOUS
10
4.8150158267716536
20
-2.2666499999999998
11
4.8238223622047247
21
-2.2493662204724409
0
LINE
8
BLACK
6
CONTINUOUS
10
4.8238223622047247
20
-2.2493662204724409
11
4.8339577952755901
21
-2.2328266535433072
0
LINE
8
BLACK
6
CONTINUOUS
10
4.8339577952755901
20
-2.2328266535433072
11
4.8453596850393703
21
-2.2171332677165352
0
LINE
8
BLACK
6
CONTINUOUS
10
4.8453596850393703
20
-2.2171332677165352
11
4.8579577165354326
21
-2.2023828740157478
0
LINE
8
BLACK
6
CONTINUOUS
10
4.8579577165354326
20
-2.2023828740157478
11
4.8716742125984247
21
-2.1886663779527558
0
LINE
8
BLACK
6
CONTINUOUS
10
4.8716742125984247
20
-2.1886663779527558
11
4.8864246062992125
21
-2.176068346456693
0
LINE
8
BLACK
6
CONTINUOUS
10
4.8864246062992125
20
-2.176068346456693
11
4.9021179921259845
21
-2.1646664566929132
0
LINE
8
BLACK
6
CONTINUOUS
10
4.9021179921259845
20
-2.1646664566929132
11
4.9186575590551183
21
-2.1545310236220474
0
LINE
8
BLACK
6
CONTINUOUS
10
4.9186575590551183
20
-2.1545310236220474
11
4.9359413385826771
21
-2.1457244881889763
0
LINE
8
BLACK
6
CONTINUOUS
10
4.9359413385826771
20
-2.1457244881889763
11
4.9538627952755903
21
-2.1383011417322835
0
LINE
8
BLACK
6
CONTINUOUS
10
4.9538627952755903
20
-2.1383011417322835
11
4.9723114566929132
21
-2.1323068110236219
0
LINE
8
BLACK
6
CONTINUOUS
10
4.9723114566929132
20
-2.1323068110236219
11
4.9911735433070863
21
-2.1277784251968503
0
LINE
8
BLACK
6
CONTINUOUS
10
4.9911735433070863
20
-2.1277784251968503
11
5.0103327952755903
21
-2.1247438976377953
0
LINE
8
BLACK
6
CONTINUOUS
10
5.0103327952755903
20
-2.1247438976377953
11
5.0296710629921257
21
-2.1232219685039371
0
LINE
8
BLACK
6
CONTINUOUS
10
5.0296710629921257
20
-2.1232219685039371
11
5.0490690944881891
21
-2.1232219685039371
0
LINE
8
BLACK
6
CONTINUOUS
10
5.0490690944881891
20
-2.1232219685039371
11
5.0684073622047245
21
-2.1247438976377953
0
LINE
8
BLACK
6
CONTINUOUS
10
4.7942913385826769
20
-2.3797079133858268
11
4.7958023228346454
21
-2.3989068897637793
0
LINE
8
BLACK
6
CONTINUOUS
10
4.7958023228346454
20
-2.3989068897637793
11
4.7988150000000003
21
-2.4179281102362205
0
LINE
8
BLACK
6
CONTINUOUS
10
4.7988150000000003
20
-2.4179281102362205
11
4.803310748031496
21
-2.43665437007874
0
LINE
8
BLACK
6
CONTINUOUS
10
4.803310748031496
20
-2.43665437007874
11
4.8092619291338581
21
-2.4549701181102361
0
LINE
8
BLACK
6
CONTINUOUS
10
4.8092619291338581
20
-2.4549701181102361
11
4.8166317716535429
21
-2.4727625196850394
0
LINE
8
BLACK
6
CONTINUOUS
10
4.8166317716535429
20
-2.4727625196850394
11
4.8253748818897639
21
-2.4899218110236219
0
LINE
8
BLACK
6
CONTINUOUS
10
4.8253748818897639
20
-2.4899218110236219
11
4.8354373228346459
21
-2.5063422440944882
0
LINE
8
BLACK
6
CONTINUOUS
10
4.8354373228346459
20
-2.5063422440944882
11
4.8467570866141729
21
-2.5219225590551182
0
LINE
8
BLACK
6
CONTINUOUS
10
4.8467570866141729
20
-2.5219225590551182
11
4.8592643700787397
21
-2.5365667322834646
0
LINE
8
BLACK
6
CONTINUOUS
10
4.8592643700787397
20
-2.5365667322834646
11
4.8728820866141733
21
-2.5501844488188974
0
LINE
8
BLACK
6
CONTINUOUS
10
4.8728820866141733
20
-2.5501844488188974
11
4.8875262598425193
21
-2.5626917322834646
0
LINE
8
BLACK
6
CONTINUOUS
10
4.8875262598425193
20
-2.5626917322834646
11
4.9031065748031493
21
-2.5740114960629921
0
LINE
8
BLACK
6
CONTINUOUS
10
4.9031065748031493
20
-2.5740114960629921
11
4.9195270078740156
21
-2.584073937007874
0
LINE
8
BLACK
6
CONTINUOUS
10
4.9195270078740156
20
-2.584073937007874
11
4.9366862992125986
21
-2.5928170472440946
0
LINE
8
BLACK
6
CONTINUOUS
10
4.9366862992125986
20
-2.5928170472440946
11
4.9544787007874014
21
-2.6001868897637794
0
LINE
8
BLACK
6
CONTINUOUS
10
4.9544787007874014
20
-2.6001868897637794
11
4.9727944488188971
21
-2.6061380708661415
0
LINE
8
BLACK
6
CONTINUOUS
10
4.9727944488188971
20
-2.6061380708661415
11
4.9915207086614171
21
-2.6106338188976377
0
LINE
8
BLACK
6
CONTINUOUS
10
4.9915207086614171
20
-2.6106338188976377
11
5.0105419291338578
21
-2.6136464960629922
0
LINE
8
BLACK
6
CONTINUOUS
10
5.0105419291338578
20
-2.6136464960629922
11
5.0297409055118107
21
-2.6151574803149606
0
LINE
8
BLACK
6
CONTINUOUS
10
5.0297409055118107
20
-2.6151574803149606
11
5.0489992519685041
21
-2.6151574803149606
0
LINE
8
BLACK
6
CONTINUOUS
10
5.0489992519685041
20
-2.6151574803149606
11
5.0681982283464562
21
-2.6136464960629922
0
LINE
8
BLACK
6
CONTINUOUS
10
5.0681982283464562
20
-2.6136464960629922
11
5.0872194488188978
21
-2.6106338188976377
0
LINE
8
BLACK
6
CONTINUOUS
10
5.0872194488188978
20
-2.6106338188976377
11
5.1059457086614168
21
-2.6061380708661415
0
LINE
8
BLACK
6
CONTINUOUS
10
5.1059457086614168
20
-2.6061380708661415
11
5.1242614566929134
21
-2.6001868897637794
0
LINE
8
BLACK
6
CONTINUOUS
10
5.1242614566929134
20
-2.6001868897637794
11
5.1420538582677162
21
-2.5928170472440946
0
LINE
8
BLACK
6
CONTINUOUS
10
5.1420538582677162
20
-2.5928170472440946
11
5.1592131496062992
21
-2.584073937007874
0
LINE
8
BLACK
6
CONTINUOUS
10
5.1592131496062992
20
-2.584073937007874
11
5.1756335826771656
21
-2.5740114960629921
0
LINE
8
BLACK
6
CONTINUOUS
10
5.1756335826771656
20
-2.5740114960629921
11
5.1912138976377955
21
-2.5626917322834646
0
LINE
8
BLACK
6
CONTINUOUS
10
5.1912138976377955
20
-2.5626917322834646
11
5.2058580708661415
21
-2.5501844488188974
0
LINE
8
BLACK
6
CONTINUOUS
10
5.2058580708661415
20
-2.5501844488188974
11
5.2194757874015743
21
-2.5365667322834646
0
LINE
8
BLACK
6
CONTINUOUS
10
5.2194757874015743
20
-2.5365667322834646
11
5.2319830708661419
21
-2.5219225590551182
0
LINE
8
BLACK
6
CONTINUOUS
10
5.2319830708661419
20
-2.5219225590551182
11
5.2433028346456689
21
-2.5063422440944882
0
LINE
8
BLACK
6
CONTINUOUS
10
5.2433028346456689
20
-2.5063422440944882
11
5.2533652755905509
21
-2.4899218110236219
0
LINE
8
BLACK
6
CONTINUOUS
10
5.2533652755905509
20
-2.4899218110236219
11
5.2621083858267719
21
-2.4727625196850394
0
LINE
8
BLACK
6
CONTINUOUS
10
5.2621083858267719
20
-2.4727625196850394
11
5.2694782283464567
21
-2.4549701181102361
0
LINE
8
BLACK
6
CONTINUOUS
10
5.2694782283464567
20
-2.4549701181102361
11
5.2754294094488188
21
-2.43665437007874
0
LINE
8
BLACK
6
CONTINUOUS
10
5.2754294094488188
20
-2.43665437007874
11
5.2799251574803145
21
-2.4179281102362205
0
LINE
8
BLACK
6
CONTINUOUS
10
5.2799251574803145
20
-2.4179281102362205
11
5.2829378346456695
21
-2.3989068897637793
0
LINE
8
BLACK
6
CONTINUOUS
10
5.2829378346456695
20
-2.3989068897637793
11
5.284448818897638
21
-2.3797079133858268
0
LINE
8
BLACK
6
CONTINUOUS
10
5.284448818897638
20
-2.3797079133858268
11
5.284448818897638
21
-2.3604495669291339
0
LINE
8
BLACK
6
CONTINUOUS
10
5.284448818897638
20
-2.3604495669291339
11
5.2829378346456695
21
-2.3412505905511809
0
LINE
8
BLACK
6
CONTINUOUS
10
5.2829378346456695
20
-2.3412505905511809
11
5.2799251574803145
21
-2.3222293700787402
0
LINE
8
BLACK
6
CONTINUOUS
10
5.2799251574803145
20
-2.3222293700787402
11
5.2754294094488188
21
-2.3035031102362202
0
LINE
8
BLACK
6
CONTINUOUS
10
5.2754294094488188
20
-2.3035031102362202
11
5.2694782283464567
21
-2.2851873622047245
0
LINE
8
BLACK
6
CONTINUOUS
10
5.2694782283464567
20
-2.2851873622047245
11
5.2621083858267719
21
-2.2673949606299213
0
LINE
8
BLACK
6
CONTINUOUS
10
5.2621083858267719
20
-2.2673949606299213
11
5.2533652755905509
21
-2.2502356692913383
0
LINE
8
BLACK
6
CONTINUOUS
10
5.2533652755905509
20
-2.2502356692913383
11
5.2433028346456689
21
-2.2338152362204724
0
LINE
8
BLACK
6
CONTINUOUS
10
5.2433028346456689
20
-2.2338152362204724
11
5.2319830708661419
21
-2.2182349212598425
0
LINE
8
BLACK
6
CONTINUOUS
10
5.2319830708661419
20
-2.2182349212598425
11
5.2194757874015743
21
-2.203590748031496
0
LINE
8
BLACK
6
CONTINUOUS
10
5.2194757874015743
20
-2.203590748031496
11
5.2058580708661415
21
-2.1899730314960628
0
LINE
8
BLACK
6
CONTINUOUS
10
5.2058580708661415
20
-2.1899730314960628
11
5.1912138976377955
21
-2.1774657480314961
0
LINE
8
BLACK
6
CONTINUOUS
10
5.1912138976377955
20
-2.1774657480314961
11
5.1756335826771656
21
-2.1661459842519686
0
LINE
8
BLACK
6
CONTINUOUS
10
5.1756335826771656
20
-2.1661459842519686
11
5.1592131496062992
21
-2.1560835433070866
0
LINE
8
BLACK
6
CONTINUOUS
10
5.1592131496062992
20
-2.1560835433070866
11
5.1420538582677162
21
-2.1473404330708661
0
LINE
8
BLACK
6
CONTINUOUS
10
5.1420538582677162
20
-2.1473404330708661
11
5.1242614566929134
21
-2.1399705905511812
0
LINE
8
BLACK
6
CONTINUOUS
10
5.1242614566929134
20
-2.1399705905511812
11
5.1059457086614168
21
-2.1340194094488187
0
LINE
8
BLACK
6
CONTINUOUS
10
5.1059457086614168
20
-2.1340194094488187
11
5.0872194488188978
21
-2.129523661417323
0
LINE
8
BLACK
6
CONTINUOUS
10
5.0872194488188978
20
-2.129523661417323
11
5.0681982283464562
21
-2.1265109842519685
0
LINE
8
BLACK
6
CONTINUOUS
10
5.0681982283464562
20
-2.1265109842519685
11
5.0489992519685041
21
-2.125
0
LINE
8
BLACK
6
CONTINUOUS
10
5.0489992519685041
20
-2.125
11
5.0297409055118107
21
-2.125
0
LINE
8
BLACK
6
CONTINUOUS
10
5.0297409055118107
20
-2.125
11
5.0105419291338578
21
-2.1265109842519685
0
LINE
8
BLACK
6
CONTINUOUS
10
5.0105419291338578
20
-2.1265109842519685
11
4.9915207086614171
21
-2.129523661417323
0
LINE
8
BLACK
6
CONTINUOUS
10
4.9915207086614171
20
-2.129523661417323
11
4.9727944488188971
21
-2.1340194094488187
0
LINE
8
BLACK
6
CONTINUOUS
10
4.9727944488188971
20
-2.1340194094488187
11
4.9544787007874014
21
-2.1399705905511812
0
LINE
8
BLACK
6
CONTINUOUS
10
4.9544787007874014
20
-2.1399705905511812
11
4.9366862992125986
21
-2.1473404330708661
0
LINE
8
BLACK
6
CONTINUOUS
10
4.9366862992125986
20
-2.1473404330708661
11
4.9195270078740156
21
-2.1560835433070866
0
LINE
8
BLACK
6
CONTINUOUS
10
4.9195270078740156
20
-2.1560835433070866
11
4.9031065748031493
21
-2.1661459842519686
0
LINE
8
BLACK
6
CONTINUOUS
10
4.9031065748031493
20
-2.1661459842519686
11
4.8875262598425193
21
-2.1774657480314961
0
LINE
8
BLACK
6
CONTINUOUS
10
4.8875262598425193
20
-2.1774657480314961
11
4.8728820866141733
21
-2.1899730314960628
0
LINE
8
BLACK
6
CONTINUOUS
10
4.8728820866141733
20
-2.1899730314960628
11
4.8592643700787397
21
-2.203590748031496
0
LINE
8
BLACK
6
CONTINUOUS
10
4.8592643700787397
20
-2.203590748031496
11
4.8467570866141729
21
-2.2182349212598425
0
LINE
8
BLACK
6
CONTINUOUS
10
4.8467570866141729
20
-2.2182349212598425
11
4.8354373228346459
21
-2.2338152362204724
0
LINE
8
BLACK
6
CONTINUOUS
10
4.8354373228346459
20
-2.2338152362204724
11
4.8253748818897639
21
-2.2502356692913383
0
LINE
8
BLACK
6
CONTINUOUS
10
4.8253748818897639
20
-2.2502356692913383
11
4.8166317716535429
21
-2.2673949606299213
0
LINE
8
BLACK
6
CONTINUOUS
10
4.8166317716535429
20
-2.2673949606299213
11
4.8092619291338581
21
-2.2851873622047245
0
LINE
8
BLACK
6
CONTINUOUS
10
4.8092619291338581
20
-2.2851873622047245
11
4.803310748031496
21
-2.3035031102362202
0
LINE
8
BLACK
6
CONTINUOUS
10
4.803310748031496
20
-2.3035031102362202
11
4.7988150000000003
21
-2.3222293700787402
0
LINE
8
BLACK
6
CONTINUOUS
10
4.7988150000000003
20
-2.3222293700787402
11
4.7958023228346454
21
-2.3412505905511809
0
LINE
8
BLACK
6
CONTINUOUS
10
4.7958023228346454
20
-2.3412505905511809
11
4.7942913385826769
21
-2.3604495669291339
0
LINE
8
BLACK
6
CONTINUOUS
10
4.7942913385826769
20
-2.3604495669291339
11
4.7942913385826769
21
-2.3797079133858268
0
LINE
8
BLACK
6
CONTINUOUS
10
4.5731495669291338
20
-2.2780146850393699
11
4.5876094094488185
21
-2.2805643700787401
0
LINE
8
BLACK
6
CONTINUOUS
10
4.5876094094488185
20
-2.2805643700787401
11
4.6017920078740158
21
-2.2843645669291339
0
LINE
8
BLACK
6
CONTINUOUS
10
4.6017920078740158
20
-2.2843645669291339
11
4.6155894488188975
21
-2.2893864173228344
0
LINE
8
BLACK
6
CONTINUOUS
10
4.6155894488188975
20
-2.2893864173228344
11
4.6288966535433067
21
-2.2955916929133857
0
LINE
8
BLACK
6
CONTINUOUS
10
4.6288966535433067
20
-2.2955916929133857
11
4.6416124409448818
21
-2.3029331496062992
0
LINE
8
BLACK
6
CONTINUOUS
10
4.6416124409448818
20
-2.3029331496062992
11
4.6536399606299215
21
-2.3113548818897636
0
LINE
8
BLACK
6
CONTINUOUS
10
4.6536399606299215
20
-2.3113548818897636
11
4.664887716535433
21
-2.3207928740157482
0
LINE
8
BLACK
6
CONTINUOUS
10
4.664887716535433
20
-2.3207928740157482
11
4.6752701181102365
21
-2.3311752755905513
0
LINE
8
BLACK
6
CONTINUOUS
10
4.6752701181102365
20
-2.3311752755905513
11
4.6847081102362207
21
-2.3424230314960628
0
LINE
8
BLACK
6
CONTINUOUS
10
4.6847081102362207
20
-2.3424230314960628
11
4.693129842519685
21
-2.3544505511811025
0
LINE
8
BLACK
6
CONTINUOUS
10
4.693129842519685
20
-2.3544505511811025
11
4.7004712992125981
21
-2.3671663385826771
0
LINE
8
BLACK
6
CONTINUOUS
10
4.7004712992125981
20
-2.3671663385826771
11
4.7066765748031498
21
-2.3804735433070867
0
LINE
8
BLACK
6
CONTINUOUS
10
4.7066765748031498
20
-2.3804735433070867
11
4.7116984251968503
21
-2.3942709842519685
0
LINE
8
BLACK
6
CONTINUOUS
10
4.7116984251968503
20
-2.3942709842519685
11
4.7154986220472441
21
-2.4084535826771654
0
LINE
8
BLACK
6
CONTINUOUS
10
4.7154986220472441
20
-2.4084535826771654
11
4.7180483070866144
21
-2.4229134251968505
0
LINE
8
BLACK
6
CONTINUOUS
10
4.7180483070866144
20
-2.4229134251968505
11
4.7193279921259839
21
-2.4375404330708661
0
LINE
8
BLACK
6
CONTINUOUS
10
4.7193279921259839
20
-2.4375404330708661
11
4.7193279921259839
21
-2.4522233464566927
0
LINE
8
BLACK
6
CONTINUOUS
10
4.7193279921259839
20
-2.4522233464566927
11
4.7180483070866144
21
-2.4668503543307088
0
LINE
8
BLACK
6
CONTINUOUS
10
4.7180483070866144
20
-2.4668503543307088
11
4.7154986220472441
21
-2.4813101968503934
0
LINE
8
BLACK
6
CONTINUOUS
10
4.7154986220472441
20
-2.4813101968503934
11
4.7116984251968503
21
-2.4954927952755903
0
LINE
8
BLACK
6
CONTINUOUS
10
4.7116984251968503
20
-2.4954927952755903
11
4.7066765748031498
21
-2.5092902362204725
0
LINE
8
BLACK
6
CONTINUOUS
10
4.7066765748031498
20
-2.5092902362204725
11
4.7004712992125981
21
-2.5225974409448817
0
LINE
8
BLACK
6
CONTINUOUS
10
4.7004712992125981
20
-2.5225974409448817
11
4.693129842519685
21
-2.5353132283464568
0
LINE
8
BLACK
6
CONTINUOUS
10
4.693129842519685
20
-2.5353132283464568
11
4.6847081102362207
21
-2.547340748031496
0
LINE
8
BLACK
6
CONTINUOUS
10
4.6847081102362207
20
-2.547340748031496
11
4.6752701181102365
21
-2.558588503937008
0
LINE
8
BLACK
6
CONTINUOUS
10
4.6752701181102365
20
-2.558588503937008
11
4.664887716535433
21
-2.5689709055118111
0
LINE
8
BLACK
6
CONTINUOUS
10
4.664887716535433
20
-2.5689709055118111
11
4.6536399606299215
21
-2.5784088976377952
0
LINE
8
BLACK
6
CONTINUOUS
10
4.6536399606299215
20
-2.5784088976377952
11
4.6416124409448818
21
-2.58683062992126
0
LINE
8
BLACK
6
CONTINUOUS
10
4.6416124409448818
20
-2.58683062992126
11
4.6288966535433067
21
-2.5941720866141731
0
LINE
8
BLACK
6
CONTINUOUS
10
4.6288966535433067
20
-2.5941720866141731
11
4.6155894488188975
21
-2.6003773622047244
0
LINE
8
BLACK
6
CONTINUOUS
10
4.6155894488188975
20
-2.6003773622047244
11
4.6017920078740158
21
-2.6053992125984253
0
LINE
8
BLACK
6
CONTINUOUS
10
4.6017920078740158
20
-2.6053992125984253
11
4.5876094094488185
21
-2.6091994094488187
0
LINE
8
BLACK
6
CONTINUOUS
10
4.5876094094488185
20
-2.6091994094488187
11
4.5731495669291338
21
-2.6117490944881889
0
LINE
8
BLACK
6
CONTINUOUS
10
4.5731495669291338
20
-2.6117490944881889
11
4.5585225590551177
21
-2.6130287795275589
0
LINE
8
BLACK
6
CONTINUOUS
10
4.5585225590551177
20
-2.6130287795275589
11
4.5438396456692915
21
-2.6130287795275589
0
LINE
8
BLACK
6
CONTINUOUS
10
4.5438396456692915
20
-2.6130287795275589
11
4.5292126377952755
21
-2.6117490944881889
0
LINE
8
BLACK
6
CONTINUOUS
10
4.5292126377952755
20
-2.6117490944881889
11
4.5147527952755908
21
-2.6091994094488187
0
LINE
8
BLACK
6
CONTINUOUS
10
4.5147527952755908
20
-2.6091994094488187
11
4.5005701968503935
21
-2.6053992125984253
0
LINE
8
BLACK
6
CONTINUOUS
10
4.5005701968503935
20
-2.6053992125984253
11
4.4867727559055117
21
-2.6003773622047244
0
LINE
8
BLACK
6
CONTINUOUS
10
4.4867727559055117
20
-2.6003773622047244
11
4.4734655511811026
21
-2.5941720866141731
0
LINE
8
BLACK
6
CONTINUOUS
10
4.4734655511811026
20
-2.5941720866141731
11
4.4607497637795275
21
-2.58683062992126
0
LINE
8
BLACK
6
CONTINUOUS
10
4.4607497637795275
20
-2.58683062992126
11
4.4487222440944878
21
-2.5784088976377952
0
LINE
8
BLACK
6
CONTINUOUS
10
4.4487222440944878
20
-2.5784088976377952
11
4.4374744881889763
21
-2.5689709055118111
0
LINE
8
BLACK
6
CONTINUOUS
10
4.4374744881889763
20
-2.5689709055118111
11
4.4270920866141728
21
-2.558588503937008
0
LINE
8
BLACK
6
CONTINUOUS
10
4.4270920866141728
20
-2.558588503937008
11
4.4176540944881886
21
-2.547340748031496
0
LINE
8
BLACK
6
CONTINUOUS
10
4.4176540944881886
20
-2.547340748031496
11
4.4092323622047243
21
-2.5353132283464568
0
LINE
8
BLACK
6
CONTINUOUS
10
4.4092323622047243
20
-2.5353132283464568
11
4.4018909055118112
21
-2.5225974409448817
0
LINE
8
BLACK
6
CONTINUOUS
10
4.4018909055118112
20
-2.5225974409448817
11
4.3956856299212594
21
-2.5092902362204725
0
LINE
8
BLACK
6
CONTINUOUS
10
4.3956856299212594
20
-2.5092902362204725
11
4.3906637795275589
21
-2.4954927952755903
0
LINE
8
BLACK
6
CONTINUOUS
10
4.3906637795275589
20
-2.4954927952755903
11
4.3868635826771651
21
-2.4813101968503934
0
LINE
8
BLACK
6
CONTINUOUS
10
4.3868635826771651
20
-2.4813101968503934
11
4.3843138976377949
21
-2.4668503543307088
0
LINE
8
BLACK
6
CONTINUOUS
10
4.3843138976377949
20
-2.4668503543307088
11
4.3830342125984254
21
-2.4522233464566927
0
LINE
8
BLACK
6
CONTINUOUS
10
4.3830342125984254
20
-2.4522233464566927
11
4.3830342125984254
21
-2.4376194094488191
0
LINE
8
BLACK
6
CONTINUOUS
10
4.3830342125984254
20
-2.4376194094488191
11
4.3830342125984254
21
-2.4375404330708661
0
LINE
8
BLACK
6
CONTINUOUS
10
4.3830342125984254
20
-2.4375404330708661
11
4.3843138976377949
21
-2.4229134251968505
0
LINE
8
BLACK
6
CONTINUOUS
10
4.3843138976377949
20
-2.4229134251968505
11
4.3868635826771651
21
-2.4084535826771654
0
LINE
8
BLACK
6
CONTINUOUS
10
4.3868635826771651
20
-2.4084535826771654
11
4.3906637795275589
21
-2.3942709842519685
0
LINE
8
BLACK
6
CONTINUOUS
10
4.3906637795275589
20
-2.3942709842519685
11
4.3956856299212594
21
-2.3804735433070867
0
LINE
8
BLACK
6
CONTINUOUS
10
4.3956856299212594
20
-2.3804735433070867
11
4.4018909055118112
21
-2.3671663385826771
0
LINE
8
BLACK
6
CONTINUOUS
10
4.4018909055118112
20
-2.3671663385826771
11
4.4092323622047243
21
-2.3544505511811025
0
LINE
8
BLACK
6
CONTINUOUS
10
4.4092323622047243
20
-2.3544505511811025
11
4.4176540944881886
21
-2.3424230314960628
0
LINE
8
BLACK
6
CONTINUOUS
10
4.4176540944881886
20
-2.3424230314960628
11
4.4270920866141728
21
-2.3311752755905513
0
LINE
8
BLACK
6
CONTINUOUS
10
4.4270920866141728
20
-2.3311752755905513
11
4.4374744881889763
21
-2.3207928740157482
0
LINE
8
BLACK
6
CONTINUOUS
10
4.4374744881889763
20
-2.3207928740157482
11
4.4487222440944878
21
-2.3113548818897636
0
LINE
8
BLACK
6
CONTINUOUS
10
4.4487222440944878
20
-2.3113548818897636
11
4.4607497637795275
21
-2.3029331496062992
0
LINE
8
BLACK
6
CONTINUOUS
10
4.4607497637795275
20
-2.3029331496062992
11
4.4734655511811026
21
-2.2955916929133857
0
LINE
8
BLACK
6
CONTINUOUS
10
4.4734655511811026
20
-2.2955916929133857
11
4.4867727559055117
21
-2.2893864173228344
0
LINE
8
BLACK
6
CONTINUOUS
10
4.4867727559055117
20
-2.2893864173228344
11
4.5005701968503935
21
-2.2843645669291339
0
LINE
8
BLACK
6
CONTINUOUS
10
4.5005701968503935
20
-2.2843645669291339
11
4.5147527952755908
21
-2.2805643700787401
0
LINE
8
BLACK
6
CONTINUOUS
10
4.5147527952755908
20
-2.2805643700787401
11
4.5292126377952755
21
-2.2780146850393699
0
LINE
8
BLACK
6
CONTINUOUS
10
4.5292126377952755
20
-2.2780146850393699
11
4.5438396456692915
21
-2.276735
0
LINE
8
BLACK
6
CONTINUOUS
10
4.5438396456692915
20
-2.276735
11
4.5585225590551177
21
-2.276735
0
LINE
8
BLACK
6
CONTINUOUS
10
4.5585225590551177
20
-2.276735
11
4.5731495669291338
21
-2.2780146850393699
0
LINE
8
BLACK
6
CONTINUOUS
10
4.3848425196850389
20
-2.4521443700787402
11
4.386108464566929
21
-2.4666141338582674
0
LINE
8
BLACK
6
CONTINUOUS
10
4.386108464566929
20
-2.4666141338582674
11
4.3886307086614176
21
-2.4809184645669289
0
LINE
8
BLACK
6
CONTINUOUS
10
4.3886307086614176
20
-2.4809184645669289
11
4.3923900393700785
21
-2.4949485039370076
0
LINE
8
BLACK
6
CONTINUOUS
10
4.3923900393700785
20
-2.4949485039370076
11
4.3973578740157482
21
-2.5085975590551182
0
LINE
8
BLACK
6
CONTINUOUS
10
4.3973578740157482
20
-2.5085975590551182
11
4.4034964173228346
21
-2.5217616535433072
0
LINE
8
BLACK
6
CONTINUOUS
10
4.4034964173228346
20
-2.5217616535433072
11
4.4107588976377956
21
-2.5343406692913386
0
LINE
8
BLACK
6
CONTINUOUS
10
4.4107588976377956
20
-2.5343406692913386
11
4.419090118110236
21
-2.5462388582677167
0
LINE
8
BLACK
6
CONTINUOUS
10
4.419090118110236
20
-2.5462388582677167
11
4.4284266141732278
21
-2.5573656692913387
0
LINE
8
BLACK
6
CONTINUOUS
10
4.4284266141732278
20
-2.5573656692913387
11
4.4386973228346456
21
-2.567636377952756
0
LINE
8
BLACK
6
CONTINUOUS
10
4.4386973228346456
20
-2.567636377952756
11
4.449824133858268
21
-2.5769728740157478
0
LINE
8
BLACK
6
CONTINUOUS
10
4.449824133858268
20
-2.5769728740157478
11
4.4617223228346452
21
-2.5853040944881891
0
LINE
8
BLACK
6
CONTINUOUS
10
4.4617223228346452
20
-2.5853040944881891
11
4.4743013385826771
21
-2.5925665748031497
0
LINE
8
BLACK
6
CONTINUOUS
10
4.4743013385826771
20
-2.5925665748031497
11
4.4874654330708657
21
-2.5987051181102361
0
LINE
8
BLACK
6
CONTINUOUS
10
4.4874654330708657
20
-2.5987051181102361
11
4.5011144881889766
21
-2.6036729527559053
0
LINE
8
BLACK
6
CONTINUOUS
10
4.5011144881889766
20
-2.6036729527559053
11
4.5151445275590554
21
-2.6074322834645667
0
LINE
8
BLACK
6
CONTINUOUS
10
4.5151445275590554
20
-2.6074322834645667
11
4.5294488582677168
21
-2.6099545275590552
0
LINE
8
BLACK
6
CONTINUOUS
10
4.5294488582677168
20
-2.6099545275590552
11
4.5439186220472436
21
-2.6112204724409449
0
LINE
8
BLACK
6
CONTINUOUS
10
4.5439186220472436
20
-2.6112204724409449
11
4.5584435826771657
21
-2.6112204724409449
0
LINE
8
BLACK
6
CONTINUOUS
10
4.5584435826771657
20
-2.6112204724409449
11
4.5729133464566925
21
-2.6099545275590552
0
LINE
8
BLACK
6
CONTINUOUS
10
4.5729133464566925
20
-2.6099545275590552
11
4.5872176771653539
21
-2.6074322834645667
0
LINE
8
BLACK
6
CONTINUOUS
10
4.5872176771653539
20
-2.6074322834645667
11
4.6012477165354326
21
-2.6036729527559053
0
LINE
8
BLACK
6
CONTINUOUS
10
4.6012477165354326
20
-2.6036729527559053
11
4.6148967716535436
21
-2.5987051181102361
0
LINE
8
BLACK
6
CONTINUOUS
10
4.6148967716535436
20
-2.5987051181102361
11
4.6280608661417322
21
-2.5925665748031497
0
LINE
8
BLACK
6
CONTINUOUS
10
4.6280608661417322
20
-2.5925665748031497
11
4.6406398818897641
21
-2.5853040944881891
0
LINE
8
BLACK
6
CONTINUOUS
10
4.6406398818897641
20
-2.5853040944881891
11
4.6525380708661412
21
-2.5769728740157478
0
LINE
8
BLACK
6
CONTINUOUS
10
4.6525380708661412
20
-2.5769728740157478
11
4.6636648818897637
21
-2.567636377952756
0
LINE
8
BLACK
6
CONTINUOUS
10
4.6636648818897637
20
-2.567636377952756
11
4.6739355905511806
21
-2.5573656692913387
0
LINE
8
BLACK
6
CONTINUOUS
10
4.6739355905511806
20
-2.5573656692913387
11
4.6832720866141733
21
-2.5462388582677167
0
LINE
8
BLACK
6
CONTINUOUS
10
4.6832720866141733
20
-2.5462388582677167
11
4.6916033070866137
21
-2.5343406692913386
0
LINE
8
BLACK
6
CONTINUOUS
10
4.6916033070866137
20
-2.5343406692913386
11
4.6988657874015747
21
-2.5217616535433072
0
LINE
8
BLACK
6
CONTINUOUS
10
4.6988657874015747
20
-2.5217616535433072
11
4.7050043307086611
21
-2.5085975590551182
0
LINE
8
BLACK
6
CONTINUOUS
10
4.7050043307086611
20
-2.5085975590551182
11
4.7099721653543307
21
-2.4949485039370076
0
LINE
8
BLACK
6
CONTINUOUS
10
4.7099721653543307
20
-2.4949485039370076
11
4.7137314960629917
21
-2.4809184645669289
0
LINE
8
BLACK
6
CONTINUOUS
10
4.7137314960629917
20
-2.4809184645669289
11
4.7162537401574802
21
-2.4666141338582674
0
LINE
8
BLACK
6
CONTINUOUS
10
4.7162537401574802
20
-2.4666141338582674
11
4.7175196850393704
21
-2.4521443700787402
0
LINE
8
BLACK
6
CONTINUOUS
10
4.7175196850393704
20
-2.4521443700787402
11
4.7175196850393704
21
-2.4376194094488191
0
LINE
8
BLACK
6
CONTINUOUS
10
4.7175196850393704
20
-2.4376194094488191
11
4.7162537401574802
21
-2.4231496456692914
0
LINE
8
BLACK
6
CONTINUOUS
10
4.7162537401574802
20
-2.4231496456692914
11
4.7137314960629917
21
-2.4088453149606299
0
LINE
8
BLACK
6
CONTINUOUS
10
4.7137314960629917
20
-2.4088453149606299
11
4.7099721653543307
21
-2.3948152755905512
0
LINE
8
BLACK
6
CONTINUOUS
10
4.7099721653543307
20
-2.3948152755905512
11
4.7050043307086611
21
-2.3811662204724411
0
LINE
8
BLACK
6
CONTINUOUS
10
4.7050043307086611
20
-2.3811662204724411
11
4.6988657874015747
21
-2.3680021259842521
0
LINE
8
BLACK
6
CONTINUOUS
10
4.6988657874015747
20
-2.3680021259842521
11
4.6916033070866137
21
-2.3554231102362206
0
LINE
8
BLACK
6
CONTINUOUS
10
4.6916033070866137
20
-2.3554231102362206
11
4.6832720866141733
21
-2.3435249212598426
0
LINE
8
BLACK
6
CONTINUOUS
10
4.6832720866141733
20
-2.3435249212598426
11
4.6739355905511806
21
-2.3323981102362206
0
LINE
8
BLACK
6
CONTINUOUS
10
4.6739355905511806
20
-2.3323981102362206
11
4.6636648818897637
21
-2.3221274015748032
0
LINE
8
BLACK
6
CONTINUOUS
10
4.6636648818897637
20
-2.3221274015748032
11
4.6525380708661412
21
-2.312790905511811
0
LINE
8
BLACK
6
CONTINUOUS
10
4.6525380708661412
20
-2.312790905511811
11
4.6406398818897641
21
-2.3044596850393702
0
LINE
8
BLACK
6
CONTINUOUS
10
4.6406398818897641
20
-2.3044596850393702
11
4.6280608661417322
21
-2.2971972047244096
0
LINE
8
BLACK
6
CONTINUOUS
10
4.6280608661417322
20
-2.2971972047244096
11
4.6148967716535436
21
-2.2910586614173227
0
LINE
8
BLACK
6
CONTINUOUS
10
4.6148967716535436
20
-2.2910586614173227
11
4.6012477165354326
21
-2.2860908267716535
0
LINE
8
BLACK
6
CONTINUOUS
10
4.6012477165354326
20
-2.2860908267716535
11
4.5872176771653539
21
-2.2823314960629921
0
LINE
8
BLACK
6
CONTINUOUS
10
4.5872176771653539
20
-2.2823314960629921
11
4.5729133464566925
21
-2.279809251968504
0
LINE
8
BLACK
6
CONTINUOUS
10
4.5729133464566925
20
-2.279809251968504
11
4.5584435826771657
21
-2.2785433070866139
0
LINE
8
BLACK
6
CONTINUOUS
10
4.5584435826771657
20
-2.2785433070866139
11
4.5439186220472436
21
-2.2785433070866139
0
LINE
8
BLACK
6
CONTINUOUS
10
4.5439186220472436
20
-2.2785433070866139
11
4.5294488582677168
21
-2.279809251968504
0
LINE
8
BLACK
6
CONTINUOUS
10
4.5294488582677168
20
-2.279809251968504
11
4.5151445275590554
21
-2.2823314960629921
0
LINE
8
BLACK
6
CONTINUOUS
10
4.5151445275590554
20
-2.2823314960629921
11
4.5011144881889766
21
-2.2860908267716535
0
LINE
8
BLACK
6
CONTINUOUS
10
4.5011144881889766
20
-2.2860908267716535
11
4.4874654330708657
21
-2.2910586614173227
0
LINE
8
BLACK
6
CONTINUOUS
10
4.4874654330708657
20
-2.2910586614173227
11
4.4743013385826771
21
-2.2971972047244096
0
LINE
8
BLACK
6
CONTINUOUS
10
4.4743013385826771
20
-2.2971972047244096
11
4.4617223228346452
21
-2.3044596850393702
0
LINE
8
BLACK
6
CONTINUOUS
10
4.4617223228346452
20
-2.3044596850393702
11
4.449824133858268
21
-2.312790905511811
0
LINE
8
BLACK
6
CONTINUOUS
10
4.449824133858268
20
-2.312790905511811
11
4.4386973228346456
21
-2.3221274015748032
0
LINE
8
BLACK
6
CONTINUOUS
10
4.4386973228346456
20
-2.3221274015748032
11
4.4284266141732278
21
-2.3323981102362206
0
LINE
8
BLACK
6
CONTINUOUS
10
4.4284266141732278
20
-2.3323981102362206
11
4.419090118110236
21
-2.3435249212598426
0
LINE
8
BLACK
6
CONTINUOUS
10
4.419090118110236
20
-2.3435249212598426
11
4.4107588976377956
21
-2.3554231102362206
0
LINE
8
BLACK
6
CONTINUOUS
10
4.4107588976377956
20
-2.3554231102362206
11
4.4034964173228346
21
-2.3680021259842521
0
LINE
8
BLACK
6
CONTINUOUS
10
4.4034964173228346
20
-2.3680021259842521
11
4.3973578740157482
21
-2.3811662204724411
0
LINE
8
BLACK
6
CONTINUOUS
10
4.3973578740157482
20
-2.3811662204724411
11
4.3923900393700785
21
-2.3948152755905512
0
LINE
8
BLACK
6
CONTINUOUS
10
4.3923900393700785
20
-2.3948152755905512
11
4.3886307086614176
21
-2.4088453149606299
0
LINE
8
BLACK
6
CONTINUOUS
10
4.3886307086614176
20
-2.4088453149606299
11
4.386108464566929
21
-2.4231496456692914
0
LINE
8
BLACK
6
CONTINUOUS
10
4.386108464566929
20
-2.4231496456692914
11
4.3848425196850389
21
-2.4376194094488191
0
LINE
8
BLACK
6
CONTINUOUS
10
4.3848425196850389
20
-2.4376194094488191
11
4.3848425196850389
21
-2.4521443700787402
  0
ENDSEC
  0
EOF
