  0
SECTION
  2
HEADER
  9
$ANGBASE
  50
0.0
  9
$ANGDIR
  70
1
  9
$MEASUREMENT
  70
0
  0
ENDSEC
  0
SECTION
  2
TABLES
  0
TABLE
  2
LTYPE
  70
4
  0
LTYPE
  5
40F
  2
CONTINUOUS
  70
0
  3
Solid line
  72
65
  73
0
  40
0.0
  0
LTYPE
  5
410
  2
DASHDOT
 70
0
  3
Dash Dot ____ _ ____ _
 72
65
 73
4
 40
2.0
 49
1.25
 49
-0.25
 49
0.25
 49
-0.25
  0
LTYPE
  5
411
  2
DASHED
 70
0
  3
Dashed __ __ __ __ __
 72
65
 73
2
 40
0.75
 49
0.5
 49
-0.25
  0
LTYPE
  5
43B
  2
DOTTED
 70
0
  3
Dotted .  .  .  .
 72
65
 73
2
 40
0.2
 49
0.0
 49
-0.2
  0
ENDTAB
  0
TABLE
  2
STYLE
  70
4
  0
STYLE
  2
KICAD
  70
0
  40
0
  41
1
  42
1
  50
0
  71
0
  3
isocp.shx
  0
STYLE
  2
KICADB
  70
0
  40
0
  41
1
  42
1
  50
0
  71
0
  3
isocp.shx
  0
STYLE
  2
KICADI
  70
0
  40
0
  41
1
  42
1
  50
15
  71
0
  3
isocp.shx
  0
STYLE
  2
KICADBI
  70
0
  40
0
  41
1
  42
1
  50
15
  71
0
  3
isocp.shx
  0
ENDTAB
  0
TABLE
  2
LAYER
  70
1
  0
LAYER
  2
BLACK
  70
0
  62
7
  6
CONTINUOUS
  0
ENDTAB
  0
ENDSEC
  0
SECTION
  2
ENTITIES
0
LINE
8
BLACK
6
CONTINUOUS
10
7.2652740551181099
20
-2.5989987007874014
11
7.2665524803149601
21
-2.6002771259842521
0
LINE
8
BLACK
6
CONTINUOUS
10
7.2665524803149601
20
-2.6002771259842521
11
7.2667322834645667
21
-2.6011811023622045
0
LINE
8
BLACK
6
CONTINUOUS
10
7.2667322834645667
20
-2.6011811023622045
11
7.2667322834645667
21
-3.8740157480314958
0
LINE
8
BLACK
6
CONTINUOUS
10
7.2667322834645667
20
-3.8740157480314958
11
7.2661036220472441
21
-3.884408464566929
0
LINE
8
BLACK
6
CONTINUOUS
10
7.2661036220472441
20
-3.884408464566929
11
7.2642268897637789
21
-3.8946496456692912
0
LINE
8
BLACK
6
CONTINUOUS
10
7.2642268897637789
20
-3.8946496456692912
11
7.2611293700787396
21
-3.904589960629921
0
LINE
8
BLACK
6
CONTINUOUS
10
7.2611293700787396
20
-3.904589960629921
11
7.2568562598425199
21
-3.9140844094488187
0
LINE
8
BLACK
6
CONTINUOUS
10
7.2568562598425199
20
-3.9140844094488187
11
7.251469881889764
21
-3.922994566929134
0
LINE
8
BLACK
6
CONTINUOUS
10
7.251469881889764
20
-3.922994566929134
11
7.2450487795275587
21
-3.9311905118110237
0
LINE
8
BLACK
6
CONTINUOUS
10
7.2450487795275587
20
-3.9311905118110237
11
7.2376865748031491
21
-3.9385527165354328
0
LINE
8
BLACK
6
CONTINUOUS
10
7.2376865748031491
20
-3.9385527165354328
11
7.2294906299212593
21
-3.9449738188976378
0
LINE
8
BLACK
6
CONTINUOUS
10
7.2294906299212593
20
-3.9449738188976378
11
7.220580472440945
21
-3.9503601968503936
0
LINE
8
BLACK
6
CONTINUOUS
10
7.220580472440945
20
-3.9503601968503936
11
7.2110860236220473
21
-3.9546333070866142
0
LINE
8
BLACK
6
CONTINUOUS
10
7.2110860236220473
20
-3.9546333070866142
11
7.201145708661417
21
-3.9577308267716536
0
LINE
8
BLACK
6
CONTINUOUS
10
7.201145708661417
20
-3.9577308267716536
11
7.1909045275590548
21
-3.9596075590551179
0
LINE
8
BLACK
6
CONTINUOUS
10
7.1909045275590548
20
-3.9596075590551179
11
7.1810775590551179
21
-3.9602019685039371
0
LINE
8
BLACK
6
CONTINUOUS
10
7.1810775590551179
20
-3.9602019685039371
11
7.1809055118110239
21
-3.9602362204724408
0
LINE
8
BLACK
6
CONTINUOUS
10
7.1809055118110239
20
-3.9602362204724408
11
7.1805118110236217
21
-3.9602362204724408
0
LINE
8
BLACK
6
CONTINUOUS
10
7.1805118110236217
20
-3.9602362204724408
11
6.3301181102362207
21
-3.9602362204724408
0
LINE
8
BLACK
6
CONTINUOUS
10
6.3301181102362207
20
-3.9602362204724408
11
6.3197253937007876
21
-3.9596075590551179
0
LINE
8
BLACK
6
CONTINUOUS
10
6.3197253937007876
20
-3.9596075590551179
11
6.3094842125984254
21
-3.9577308267716536
0
LINE
8
BLACK
6
CONTINUOUS
10
6.3094842125984254
20
-3.9577308267716536
11
6.2995438976377951
21
-3.9546333070866142
0
LINE
8
BLACK
6
CONTINUOUS
10
6.2995438976377951
20
-3.9546333070866142
11
6.2900494488188974
21
-3.9503601968503936
0
LINE
8
BLACK
6
CONTINUOUS
10
6.2900494488188974
20
-3.9503601968503936
11
6.2811392913385822
21
-3.9449738188976378
0
LINE
8
BLACK
6
CONTINUOUS
10
6.2811392913385822
20
-3.9449738188976378
11
6.2729433464566924
21
-3.9385527165354328
0
LINE
8
BLACK
6
CONTINUOUS
10
6.2729433464566924
20
-3.9385527165354328
11
6.2655811417322838
21
-3.9311905118110237
0
LINE
8
BLACK
6
CONTINUOUS
10
6.2655811417322838
20
-3.9311905118110237
11
6.2591600393700784
21
-3.922994566929134
0
LINE
8
BLACK
6
CONTINUOUS
10
6.2591600393700784
20
-3.922994566929134
11
6.2537736614173225
21
-3.9140844094488187
0
LINE
8
BLACK
6
CONTINUOUS
10
6.2537736614173225
20
-3.9140844094488187
11
6.2495005511811019
21
-3.904589960629921
0
LINE
8
BLACK
6
CONTINUOUS
10
6.2495005511811019
20
-3.904589960629921
11
6.2464030314960626
21
-3.8946496456692912
0
LINE
8
BLACK
6
CONTINUOUS
10
6.2464030314960626
20
-3.8946496456692912
11
6.2445262992125983
21
-3.884408464566929
0
LINE
8
BLACK
6
CONTINUOUS
10
6.2445262992125983
20
-3.884408464566929
11
6.2438976377952757
21
-3.8740157480314958
0
LINE
8
BLACK
6
CONTINUOUS
10
6.2438976377952757
20
-3.8740157480314958
11
6.2438976377952757
21
-2.8728346456692915
0
LINE
8
BLACK
6
CONTINUOUS
10
6.2438976377952757
20
-2.8728346456692915
11
6.2440774409448814
21
-2.8719306692913387
0
LINE
8
BLACK
6
CONTINUOUS
10
6.2440774409448814
20
-2.8719306692913387
11
6.2453558661417325
21
-2.8706522440944879
0
LINE
8
BLACK
6
CONTINUOUS
10
6.2453558661417325
20
-2.8706522440944879
11
6.2462598425196845
21
-2.8704724409448819
0
LINE
8
BLACK
6
CONTINUOUS
10
6.2462598425196845
20
-2.8704724409448819
11
6.3438976377952754
21
-2.8704724409448819
0
LINE
8
BLACK
6
CONTINUOUS
10
6.3438976377952754
20
-2.8704724409448819
11
6.3438976377952754
21
-2.6011811023622045
0
LINE
8
BLACK
6
CONTINUOUS
10
6.3438976377952754
20
-2.6011811023622045
11
6.3440774409448819
21
-2.6002771259842521
0
LINE
8
BLACK
6
CONTINUOUS
10
6.3440774409448819
20
-2.6002771259842521
11
6.3453558661417322
21
-2.5989987007874014
0
LINE
8
BLACK
6
CONTINUOUS
10
6.3453558661417322
20
-2.5989987007874014
11
6.346259842519685
21
-2.5988188976377953
0
LINE
8
BLACK
6
CONTINUOUS
10
6.346259842519685
20
-2.5988188976377953
11
7.2643700787401571
21
-2.5988188976377953
0
LINE
8
BLACK
6
CONTINUOUS
10
7.2643700787401571
20
-2.5988188976377953
11
7.2652740551181099
21
-2.5989987007874014
0
LINE
8
BLACK
6
CONTINUOUS
10
6.3486220472440946
20
-2.6035433070866141
11
6.3486220472440946
21
-2.8728346456692915
0
LINE
8
BLACK
6
CONTINUOUS
10
6.3486220472440946
20
-2.8728346456692915
11
6.3484422440944881
21
-2.8737386220472438
0
LINE
8
BLACK
6
CONTINUOUS
10
6.3484422440944881
20
-2.8737386220472438
11
6.3471638188976378
21
-2.8750170472440946
0
LINE
8
BLACK
6
CONTINUOUS
10
6.3471638188976378
20
-2.8750170472440946
11
6.346259842519685
21
-2.8751968503937007
0
LINE
8
BLACK
6
CONTINUOUS
10
6.346259842519685
20
-2.8751968503937007
11
6.2486220472440941
21
-2.8751968503937007
0
LINE
8
BLACK
6
CONTINUOUS
10
6.2486220472440941
20
-2.8751968503937007
11
6.2486220472440941
21
-3.8740157480314958
0
LINE
8
BLACK
6
CONTINUOUS
10
6.2486220472440941
20
-3.8740157480314958
11
6.2486220472440941
21
-3.8793572834645667
0
LINE
8
BLACK
6
CONTINUOUS
10
6.2486220472440941
20
-3.8793572834645667
11
6.2500164566929133
21
-3.8899489763779527
0
LINE
8
BLACK
6
CONTINUOUS
10
6.2500164566929133
20
-3.8899489763779527
11
6.2527814173228347
21
-3.9002680314960627
0
LINE
8
BLACK
6
CONTINUOUS
10
6.2527814173228347
20
-3.9002680314960627
11
6.2568696850393701
21
-3.910137874015748
0
LINE
8
BLACK
6
CONTINUOUS
10
6.2568696850393701
20
-3.910137874015748
11
6.2622112204724409
21
-3.9193896850393699
0
LINE
8
BLACK
6
CONTINUOUS
10
6.2622112204724409
20
-3.9193896850393699
11
6.2687146456692915
21
-3.9278651574803147
0
LINE
8
BLACK
6
CONTINUOUS
10
6.2687146456692915
20
-3.9278651574803147
11
6.2762687007874014
21
-3.9354192125984251
0
LINE
8
BLACK
6
CONTINUOUS
10
6.2762687007874014
20
-3.9354192125984251
11
6.2847441732283462
21
-3.9419226377952756
0
LINE
8
BLACK
6
CONTINUOUS
10
6.2847441732283462
20
-3.9419226377952756
11
6.2939959842519686
21
-3.9472641732283464
0
LINE
8
BLACK
6
CONTINUOUS
10
6.2939959842519686
20
-3.9472641732283464
11
6.303865826771653
21
-3.9513524409448819
0
LINE
8
BLACK
6
CONTINUOUS
10
6.303865826771653
20
-3.9513524409448819
11
6.3141848818897639
21
-3.9541174015748028
0
LINE
8
BLACK
6
CONTINUOUS
10
6.3141848818897639
20
-3.9541174015748028
11
6.324776574803149
21
-3.955511811023622
0
LINE
8
BLACK
6
CONTINUOUS
10
6.324776574803149
20
-3.955511811023622
11
6.3301181102362207
21
-3.955511811023622
0
LINE
8
BLACK
6
CONTINUOUS
10
6.3301181102362207
20
-3.955511811023622
11
7.1809055118110239
21
-3.955511811023622
0
LINE
8
BLACK
6
CONTINUOUS
10
7.1809055118110239
20
-3.955511811023622
11
7.1858533464566925
21
-3.955511811023622
0
LINE
8
BLACK
6
CONTINUOUS
10
7.1858533464566925
20
-3.955511811023622
11
7.1964450393700785
21
-3.9541174015748028
0
LINE
8
BLACK
6
CONTINUOUS
10
7.1964450393700785
20
-3.9541174015748028
11
7.2067640944881886
21
-3.9513524409448819
0
LINE
8
BLACK
6
CONTINUOUS
10
7.2067640944881886
20
-3.9513524409448819
11
7.2166339370078738
21
-3.9472641732283464
0
LINE
8
BLACK
6
CONTINUOUS
10
7.2166339370078738
20
-3.9472641732283464
11
7.2258857480314962
21
-3.9419226377952756
0
LINE
8
BLACK
6
CONTINUOUS
10
7.2258857480314962
20
-3.9419226377952756
11
7.234361220472441
21
-3.9354192125984251
0
LINE
8
BLACK
6
CONTINUOUS
10
7.234361220472441
20
-3.9354192125984251
11
7.2419152755905509
21
-3.9278651574803147
0
LINE
8
BLACK
6
CONTINUOUS
10
7.2419152755905509
20
-3.9278651574803147
11
7.2484187007874015
21
-3.9193896850393699
0
LINE
8
BLACK
6
CONTINUOUS
10
7.2484187007874015
20
-3.9193896850393699
11
7.2537602362204723
21
-3.910137874015748
0
LINE
8
BLACK
6
CONTINUOUS
10
7.2537602362204723
20
-3.910137874015748
11
7.2578485039370078
21
-3.9002680314960627
0
LINE
8
BLACK
6
CONTINUOUS
10
7.2578485039370078
20
-3.9002680314960627
11
7.2606134645669291
21
-3.8899489763779527
0
LINE
8
BLACK
6
CONTINUOUS
10
7.2606134645669291
20
-3.8899489763779527
11
7.2620078740157474
21
-3.8793572834645667
0
LINE
8
BLACK
6
CONTINUOUS
10
7.2620078740157474
20
-3.8793572834645667
11
7.2620078740157474
21
-3.8740157480314958
0
LINE
8
BLACK
6
CONTINUOUS
10
7.2620078740157474
20
-3.8740157480314958
11
7.2620078740157474
21
-2.6035433070866141
0
LINE
8
BLACK
6
CONTINUOUS
10
7.2620078740157474
20
-2.6035433070866141
11
6.3486220472440946
21
-2.6035433070866141
0
LINE
8
BLACK
6
CONTINUOUS
10
6.2067913385826774
20
-3.6019703937007872
11
6.2074028740157479
21
-3.6024396456692913
0
LINE
8
BLACK
6
CONTINUOUS
10
6.2074028740157479
20
-3.6024396456692913
11
6.2324028740157482
21
-3.6274396456692912
0
LINE
8
BLACK
6
CONTINUOUS
10
6.2324028740157482
20
-3.6274396456692912
11
6.2332564960629924
21
-3.6292701968503938
0
LINE
8
BLACK
6
CONTINUOUS
10
6.2332564960629924
20
-3.6292701968503938
11
6.2327337007874011
21
-3.631221181102362
0
LINE
8
BLACK
6
CONTINUOUS
10
6.2327337007874011
20
-3.631221181102362
11
6.2324028740157482
21
-3.6316154724409446
0
LINE
8
BLACK
6
CONTINUOUS
10
6.2324028740157482
20
-3.6316154724409446
11
6.2074028740157479
21
-3.656615472440945
0
LINE
8
BLACK
6
CONTINUOUS
10
6.2074028740157479
20
-3.656615472440945
11
6.2055723228346453
21
-3.6574690944881887
0
LINE
8
BLACK
6
CONTINUOUS
10
6.2055723228346453
20
-3.6574690944881887
11
6.2036213385826766
21
-3.6569462992125983
0
LINE
8
BLACK
6
CONTINUOUS
10
6.2036213385826766
20
-3.6569462992125983
11
6.2024628346456687
21
-3.6552917716535434
0
LINE
8
BLACK
6
CONTINUOUS
10
6.2024628346456687
20
-3.6552917716535434
11
6.2023622047244089
21
-3.6545275590551181
0
LINE
8
BLACK
6
CONTINUOUS
10
6.2023622047244089
20
-3.6545275590551181
11
6.2023622047244089
21
-3.6045275590551182
0
LINE
8
BLACK
6
CONTINUOUS
10
6.2023622047244089
20
-3.6045275590551182
11
6.2030530314960632
21
-3.6026295669291337
0
LINE
8
BLACK
6
CONTINUOUS
10
6.2030530314960632
20
-3.6026295669291337
11
6.2048022047244089
21
-3.6016196456692913
0
LINE
8
BLACK
6
CONTINUOUS
10
6.2048022047244089
20
-3.6016196456692913
11
6.2067913385826774
21
-3.6019703937007872
0
LINE
8
BLACK
6
CONTINUOUS
10
2.1324973622047243
20
-3.5861038976377952
11
2.1326771653543308
21
-3.5870078740157481
0
LINE
8
BLACK
6
CONTINUOUS
10
2.1326771653543308
20
-3.5870078740157481
11
2.1326771653543308
21
-3.6362204724409448
0
LINE
8
BLACK
6
CONTINUOUS
10
2.1326771653543308
20
-3.6362204724409448
11
2.1324973622047243
21
-3.6371244488188976
0
LINE
8
BLACK
6
CONTINUOUS
10
2.1324973622047243
20
-3.6371244488188976
11
2.131218937007874
21
-3.6384028740157479
0
LINE
8
BLACK
6
CONTINUOUS
10
2.131218937007874
20
-3.6384028740157479
11
2.1303149606299212
21
-3.6385826771653544
0
LINE
8
BLACK
6
CONTINUOUS
10
2.1303149606299212
20
-3.6385826771653544
11
2.0811023622047244
21
-3.6385826771653544
0
LINE
8
BLACK
6
CONTINUOUS
10
2.0811023622047244
20
-3.6385826771653544
11
2.0801983858267716
21
-3.6384028740157479
0
LINE
8
BLACK
6
CONTINUOUS
10
2.0801983858267716
20
-3.6384028740157479
11
2.0789199606299213
21
-3.6371244488188976
0
LINE
8
BLACK
6
CONTINUOUS
10
2.0789199606299213
20
-3.6371244488188976
11
2.0789199606299213
21
-3.635316496062992
0
LINE
8
BLACK
6
CONTINUOUS
10
2.0789199606299213
20
-3.635316496062992
11
2.0801983858267716
21
-3.6340380708661417
0
LINE
8
BLACK
6
CONTINUOUS
10
2.0801983858267716
20
-3.6340380708661417
11
2.0811023622047244
21
-3.6338582677165352
0
LINE
8
BLACK
6
CONTINUOUS
10
2.0811023622047244
20
-3.6338582677165352
11
2.1279527559055116
21
-3.6338582677165352
0
LINE
8
BLACK
6
CONTINUOUS
10
2.1279527559055116
20
-3.6338582677165352
11
2.1279527559055116
21
-3.5870078740157481
0
LINE
8
BLACK
6
CONTINUOUS
10
2.1279527559055116
20
-3.5870078740157481
11
2.1281325590551181
21
-3.5861038976377952
0
LINE
8
BLACK
6
CONTINUOUS
10
2.1281325590551181
20
-3.5861038976377952
11
2.1294109842519684
21
-3.584825472440945
0
LINE
8
BLACK
6
CONTINUOUS
10
2.1294109842519684
20
-3.584825472440945
11
2.131218937007874
21
-3.584825472440945
0
LINE
8
BLACK
6
CONTINUOUS
10
2.131218937007874
20
-3.584825472440945
11
2.1324973622047243
21
-3.5861038976377952
0
LINE
8
BLACK
6
CONTINUOUS
10
2.1194079133858268
20
-3.3812821653543308
11
2.1206863385826771
21
-3.3825605905511811
0
LINE
8
BLACK
6
CONTINUOUS
10
2.1206863385826771
20
-3.3825605905511811
11
2.1208661417322836
21
-3.3834645669291339
0
LINE
8
BLACK
6
CONTINUOUS
10
2.1208661417322836
20
-3.3834645669291339
11
2.1208661417322836
21
-3.5527559055118108
0
LINE
8
BLACK
6
CONTINUOUS
10
2.1208661417322836
20
-3.5527559055118108
11
2.1263779527559055
21
-3.5527559055118108
0
LINE
8
BLACK
6
CONTINUOUS
10
2.1263779527559055
20
-3.5527559055118108
11
2.1272819291338583
21
-3.5529357086614173
0
LINE
8
BLACK
6
CONTINUOUS
10
2.1272819291338583
20
-3.5529357086614173
11
2.1285603543307086
21
-3.5542141338582676
0
LINE
8
BLACK
6
CONTINUOUS
10
2.1285603543307086
20
-3.5542141338582676
11
2.1287401574803151
21
-3.5551181102362204
0
LINE
8
BLACK
6
CONTINUOUS
10
2.1287401574803151
20
-3.5551181102362204
11
2.1287401574803151
21
-3.5669291338582676
0
LINE
8
BLACK
6
CONTINUOUS
10
2.1287401574803151
20
-3.5669291338582676
11
2.1285603543307086
21
-3.5678331102362204
0
LINE
8
BLACK
6
CONTINUOUS
10
2.1285603543307086
20
-3.5678331102362204
11
2.1272819291338583
21
-3.5691115354330707
0
LINE
8
BLACK
6
CONTINUOUS
10
2.1272819291338583
20
-3.5691115354330707
11
2.1263779527559055
21
-3.5692913385826772
0
LINE
8
BLACK
6
CONTINUOUS
10
2.1263779527559055
20
-3.5692913385826772
11
2.1208661417322836
21
-3.5692913385826772
0
LINE
8
BLACK
6
CONTINUOUS
10
2.1208661417322836
20
-3.5692913385826772
11
2.1208661417322836
21
-3.6244094488188976
0
LINE
8
BLACK
6
CONTINUOUS
10
2.1208661417322836
20
-3.6244094488188976
11
2.1206863385826771
21
-3.6253134251968504
0
LINE
8
BLACK
6
CONTINUOUS
10
2.1206863385826771
20
-3.6253134251968504
11
2.1194079133858268
21
-3.6265918503937007
0
LINE
8
BLACK
6
CONTINUOUS
10
2.1194079133858268
20
-3.6265918503937007
11
2.118503937007874
21
-3.6267716535433072
0
LINE
8
BLACK
6
CONTINUOUS
10
2.118503937007874
20
-3.6267716535433072
11
1.9326771653543307
21
-3.6267716535433072
0
LINE
8
BLACK
6
CONTINUOUS
10
1.9326771653543307
20
-3.6267716535433072
11
1.9317731889763778
21
-3.6265918503937007
0
LINE
8
BLACK
6
CONTINUOUS
10
1.9317731889763778
20
-3.6265918503937007
11
1.9304947637795276
21
-3.6253134251968504
0
LINE
8
BLACK
6
CONTINUOUS
10
1.9304947637795276
20
-3.6253134251968504
11
1.9303149606299213
21
-3.6244094488188976
0
LINE
8
BLACK
6
CONTINUOUS
10
1.9303149606299213
20
-3.6244094488188976
11
1.9303149606299213
21
-3.3834645669291339
0
LINE
8
BLACK
6
CONTINUOUS
10
1.9303149606299213
20
-3.3834645669291339
11
1.9304947637795276
21
-3.3825605905511811
0
LINE
8
BLACK
6
CONTINUOUS
10
1.9304947637795276
20
-3.3825605905511811
11
1.9317731889763778
21
-3.3812821653543308
0
LINE
8
BLACK
6
CONTINUOUS
10
1.9317731889763778
20
-3.3812821653543308
11
1.9326771653543307
21
-3.3811023622047243
0
LINE
8
BLACK
6
CONTINUOUS
10
1.9326771653543307
20
-3.3811023622047243
11
2.118503937007874
21
-3.3811023622047243
0
LINE
8
BLACK
6
CONTINUOUS
10
2.118503937007874
20
-3.3811023622047243
11
2.1194079133858268
21
-3.3812821653543308
0
LINE
8
BLACK
6
CONTINUOUS
10
1.9350393700787401
20
-3.3858267716535431
11
1.9350393700787401
21
-3.622047244094488
0
LINE
8
BLACK
6
CONTINUOUS
10
1.9350393700787401
20
-3.622047244094488
11
2.0133858267716533
21
-3.622047244094488
0
LINE
8
BLACK
6
CONTINUOUS
10
2.0133858267716533
20
-3.622047244094488
11
2.0133858267716533
21
-3.602755905511811
0
LINE
8
BLACK
6
CONTINUOUS
10
2.0133858267716533
20
-3.602755905511811
11
1.9566929133858266
21
-3.602755905511811
0
LINE
8
BLACK
6
CONTINUOUS
10
1.9566929133858266
20
-3.602755905511811
11
1.955788937007874
21
-3.6025761023622045
0
LINE
8
BLACK
6
CONTINUOUS
10
1.955788937007874
20
-3.6025761023622045
11
1.9545105118110235
21
-3.6012976771653542
0
LINE
8
BLACK
6
CONTINUOUS
10
1.9545105118110235
20
-3.6012976771653542
11
1.9543307086614172
21
-3.6003937007874014
0
LINE
8
BLACK
6
CONTINUOUS
10
1.9543307086614172
20
-3.6003937007874014
11
1.9543307086614172
21
-3.4074803149606296
0
LINE
8
BLACK
6
CONTINUOUS
10
1.9543307086614172
20
-3.4074803149606296
11
1.9545105118110235
21
-3.4065763385826773
0
LINE
8
BLACK
6
CONTINUOUS
10
1.9545105118110235
20
-3.4065763385826773
11
1.955788937007874
21
-3.4052979133858265
0
LINE
8
BLACK
6
CONTINUOUS
10
1.955788937007874
20
-3.4052979133858265
11
1.9566929133858266
21
-3.4051181102362205
0
LINE
8
BLACK
6
CONTINUOUS
10
1.9566929133858266
20
-3.4051181102362205
11
2.0133858267716533
21
-3.4051181102362205
0
LINE
8
BLACK
6
CONTINUOUS
10
2.0133858267716533
20
-3.4051181102362205
11
2.0133858267716533
21
-3.3858267716535431
0
LINE
8
BLACK
6
CONTINUOUS
10
2.0133858267716533
20
-3.3858267716535431
11
1.9350393700787401
21
-3.3858267716535431
0
LINE
8
BLACK
6
CONTINUOUS
10
2.0181102362204726
20
-3.602755905511811
11
2.0181102362204726
21
-3.622047244094488
0
LINE
8
BLACK
6
CONTINUOUS
10
2.0181102362204726
20
-3.622047244094488
11
2.0645669291338584
21
-3.622047244094488
0
LINE
8
BLACK
6
CONTINUOUS
10
2.0645669291338584
20
-3.622047244094488
11
2.0645669291338584
21
-3.602755905511811
0
LINE
8
BLACK
6
CONTINUOUS
10
2.0645669291338584
20
-3.602755905511811
11
2.0181102362204726
21
-3.602755905511811
0
LINE
8
BLACK
6
CONTINUOUS
10
2.0968503937007874
20
-3.5259842519685041
11
2.0968503937007874
21
-3.6003937007874014
0
LINE
8
BLACK
6
CONTINUOUS
10
2.0968503937007874
20
-3.6003937007874014
11
2.0966705905511809
21
-3.6012976771653542
0
LINE
8
BLACK
6
CONTINUOUS
10
2.0966705905511809
20
-3.6012976771653542
11
2.0953921653543306
21
-3.6025761023622045
0
LINE
8
BLACK
6
CONTINUOUS
10
2.0953921653543306
20
-3.6025761023622045
11
2.0944881889763778
21
-3.602755905511811
0
LINE
8
BLACK
6
CONTINUOUS
10
2.0944881889763778
20
-3.602755905511811
11
2.0692913385826772
21
-3.602755905511811
0
LINE
8
BLACK
6
CONTINUOUS
10
2.0692913385826772
20
-3.602755905511811
11
2.0692913385826772
21
-3.622047244094488
0
LINE
8
BLACK
6
CONTINUOUS
10
2.0692913385826772
20
-3.622047244094488
11
2.1161417322834644
21
-3.622047244094488
0
LINE
8
BLACK
6
CONTINUOUS
10
2.1161417322834644
20
-3.622047244094488
11
2.1161417322834644
21
-3.5259842519685041
0
LINE
8
BLACK
6
CONTINUOUS
10
2.1161417322834644
20
-3.5259842519685041
11
2.0968503937007874
21
-3.5259842519685041
0
LINE
8
BLACK
6
CONTINUOUS
10
1.9590551181102362
20
-3.4098425196850393
11
1.9590551181102362
21
-3.4976377952755904
0
LINE
8
BLACK
6
CONTINUOUS
10
1.9590551181102362
20
-3.4976377952755904
11
1.9763779527559056
21
-3.4976377952755904
0
LINE
8
BLACK
6
CONTINUOUS
10
1.9763779527559056
20
-3.4976377952755904
11
1.9772819291338581
21
-3.4978175984251969
0
LINE
8
BLACK
6
CONTINUOUS
10
1.9772819291338581
20
-3.4978175984251969
11
1.9785603543307086
21
-3.4990960236220472
0
LINE
8
BLACK
6
CONTINUOUS
10
1.9785603543307086
20
-3.4990960236220472
11
1.978740157480315
21
-3.5
0
LINE
8
BLACK
6
CONTINUOUS
10
1.978740157480315
20
-3.5
11
1.978740157480315
21
-3.5078740157480315
0
LINE
8
BLACK
6
CONTINUOUS
10
1.978740157480315
20
-3.5078740157480315
11
1.9785603543307086
21
-3.5087779921259843
0
LINE
8
BLACK
6
CONTINUOUS
10
1.9785603543307086
20
-3.5087779921259843
11
1.9772819291338581
21
-3.5100564173228346
0
LINE
8
BLACK
6
CONTINUOUS
10
1.9772819291338581
20
-3.5100564173228346
11
1.9763779527559056
21
-3.5102362204724407
0
LINE
8
BLACK
6
CONTINUOUS
10
1.9763779527559056
20
-3.5102362204724407
11
1.9590551181102362
21
-3.5102362204724407
0
LINE
8
BLACK
6
CONTINUOUS
10
1.9590551181102362
20
-3.5102362204724407
11
1.9590551181102362
21
-3.5980314960629922
0
LINE
8
BLACK
6
CONTINUOUS
10
1.9590551181102362
20
-3.5980314960629922
11
2.0921259842519686
21
-3.5980314960629922
0
LINE
8
BLACK
6
CONTINUOUS
10
2.0921259842519686
20
-3.5980314960629922
11
2.0921259842519686
21
-3.5236220472440944
0
LINE
8
BLACK
6
CONTINUOUS
10
2.0921259842519686
20
-3.5236220472440944
11
2.0923057874015747
21
-3.5227180708661416
0
LINE
8
BLACK
6
CONTINUOUS
10
2.0923057874015747
20
-3.5227180708661416
11
2.093584212598425
21
-3.5214396456692914
0
LINE
8
BLACK
6
CONTINUOUS
10
2.093584212598425
20
-3.5214396456692914
11
2.0944881889763778
21
-3.5212598425196848
0
LINE
8
BLACK
6
CONTINUOUS
10
2.0944881889763778
20
-3.5212598425196848
11
2.1161417322834644
21
-3.5212598425196848
0
LINE
8
BLACK
6
CONTINUOUS
10
2.1161417322834644
20
-3.5212598425196848
11
2.1161417322834644
21
-3.4866141732283462
0
LINE
8
BLACK
6
CONTINUOUS
10
2.1161417322834644
20
-3.4866141732283462
11
2.0944881889763778
21
-3.4866141732283462
0
LINE
8
BLACK
6
CONTINUOUS
10
2.0944881889763778
20
-3.4866141732283462
11
2.093584212598425
21
-3.4864343700787401
0
LINE
8
BLACK
6
CONTINUOUS
10
2.093584212598425
20
-3.4864343700787401
11
2.0923057874015747
21
-3.4851559448818898
0
LINE
8
BLACK
6
CONTINUOUS
10
2.0923057874015747
20
-3.4851559448818898
11
2.0921259842519686
21
-3.484251968503937
0
LINE
8
BLACK
6
CONTINUOUS
10
2.0921259842519686
20
-3.484251968503937
11
2.0921259842519686
21
-3.4098425196850393
0
LINE
8
BLACK
6
CONTINUOUS
10
2.0921259842519686
20
-3.4098425196850393
11
1.9590551181102362
21
-3.4098425196850393
0
LINE
8
BLACK
6
CONTINUOUS
10
2.0692913385826772
20
-3.3858267716535431
11
2.0692913385826772
21
-3.4051181102362205
0
LINE
8
BLACK
6
CONTINUOUS
10
2.0692913385826772
20
-3.4051181102362205
11
2.0944881889763778
21
-3.4051181102362205
0
LINE
8
BLACK
6
CONTINUOUS
10
2.0944881889763778
20
-3.4051181102362205
11
2.0953921653543306
21
-3.4052979133858265
0
LINE
8
BLACK
6
CONTINUOUS
10
2.0953921653543306
20
-3.4052979133858265
11
2.0966705905511809
21
-3.4065763385826773
0
LINE
8
BLACK
6
CONTINUOUS
10
2.0966705905511809
20
-3.4065763385826773
11
2.0968503937007874
21
-3.4074803149606296
0
LINE
8
BLACK
6
CONTINUOUS
10
2.0968503937007874
20
-3.4074803149606296
11
2.0968503937007874
21
-3.4818897637795274
0
LINE
8
BLACK
6
CONTINUOUS
10
2.0968503937007874
20
-3.4818897637795274
11
2.1161417322834644
21
-3.4818897637795274
0
LINE
8
BLACK
6
CONTINUOUS
10
2.1161417322834644
20
-3.4818897637795274
11
2.1161417322834644
21
-3.3858267716535431
0
LINE
8
BLACK
6
CONTINUOUS
10
2.1161417322834644
20
-3.3858267716535431
11
2.0692913385826772
21
-3.3858267716535431
0
LINE
8
BLACK
6
CONTINUOUS
10
2.0181102362204726
20
-3.3858267716535431
11
2.0181102362204726
21
-3.4051181102362205
0
LINE
8
BLACK
6
CONTINUOUS
10
2.0181102362204726
20
-3.4051181102362205
11
2.0645669291338584
21
-3.4051181102362205
0
LINE
8
BLACK
6
CONTINUOUS
10
2.0645669291338584
20
-3.4051181102362205
11
2.0645669291338584
21
-3.3858267716535431
0
LINE
8
BLACK
6
CONTINUOUS
10
2.0645669291338584
20
-3.3858267716535431
11
2.0181102362204726
21
-3.3858267716535431
0
LINE
8
BLACK
6
CONTINUOUS
10
2.1519819685039367
20
-3.5048386220472438
11
2.1530124803149606
21
-3.5053538976377951
0
LINE
8
BLACK
6
CONTINUOUS
10
2.1530124803149606
20
-3.5053538976377951
11
2.1537673228346454
21
-3.5062242519685038
0
LINE
8
BLACK
6
CONTINUOUS
10
2.1537673228346454
20
-3.5062242519685038
11
2.154131653543307
21
-3.5073172440944882
0
LINE
8
BLACK
6
CONTINUOUS
10
2.154131653543307
20
-3.5073172440944882
11
2.1540499999999998
21
-3.5084664566929131
0
LINE
8
BLACK
6
CONTINUOUS
10
2.1540499999999998
20
-3.5084664566929131
11
2.1538431102362203
21
-3.5090070472440944
0
LINE
8
BLACK
6
CONTINUOUS
10
2.1538431102362203
20
-3.5090070472440944
11
2.1519683464566928
21
-3.5127565748031495
0
LINE
8
BLACK
6
CONTINUOUS
10
2.1519683464566928
20
-3.5127565748031495
11
2.1518123228346457
21
-3.5130043700787401
0
LINE
8
BLACK
6
CONTINUOUS
10
2.1518123228346457
20
-3.5130043700787401
11
2.1517824803149606
21
-3.5130765354330706
0
LINE
8
BLACK
6
CONTINUOUS
10
2.1517824803149606
20
-3.5130765354330706
11
2.1517158661417324
21
-3.5131576771653541
0
LINE
8
BLACK
6
CONTINUOUS
10
2.1517158661417324
20
-3.5131576771653541
11
2.1516600000000001
21
-3.5132464566929134
0
LINE
8
BLACK
6
CONTINUOUS
10
2.1516600000000001
20
-3.5132464566929134
11
2.1516010629921261
21
-3.5132975590551179
0
LINE
8
BLACK
6
CONTINUOUS
10
2.1516010629921261
20
-3.5132975590551179
11
2.1514152362204726
21
-3.5135239763779529
0
LINE
8
BLACK
6
CONTINUOUS
10
2.1514152362204726
20
-3.5135239763779529
11
2.1489568503937009
21
-3.5159823622047242
0
LINE
8
BLACK
6
CONTINUOUS
10
2.1489568503937009
20
-3.5159823622047242
11
2.1763708267716533
21
-3.5159823622047242
0
LINE
8
BLACK
6
CONTINUOUS
10
2.1763708267716533
20
-3.5159823622047242
11
2.1763708267716533
21
-3.5076865354330709
0
LINE
8
BLACK
6
CONTINUOUS
10
2.1763708267716533
20
-3.5076865354330709
11
2.1764275590551181
21
-3.507110472440945
0
LINE
8
BLACK
6
CONTINUOUS
10
2.1764275590551181
20
-3.507110472440945
11
2.1768684645669292
21
-3.5060460629921257
0
LINE
8
BLACK
6
CONTINUOUS
10
2.1768684645669292
20
-3.5060460629921257
11
2.1776831102362206
21
-3.5052314173228347
0
LINE
8
BLACK
6
CONTINUOUS
10
2.1776831102362206
20
-3.5052314173228347
11
2.1787475196850394
21
-3.5047905118110236
0
LINE
8
BLACK
6
CONTINUOUS
10
2.1787475196850394
20
-3.5047905118110236
11
2.1798996456692912
21
-3.5047905118110236
0
LINE
8
BLACK
6
CONTINUOUS
10
2.1798996456692912
20
-3.5047905118110236
11
2.18096405511811
21
-3.5052314173228347
0
LINE
8
BLACK
6
CONTINUOUS
10
2.18096405511811
20
-3.5052314173228347
11
2.1817787007874014
21
-3.5060460629921257
0
LINE
8
BLACK
6
CONTINUOUS
10
2.1817787007874014
20
-3.5060460629921257
11
2.1822196062992125
21
-3.507110472440945
0
LINE
8
BLACK
6
CONTINUOUS
10
2.1822196062992125
20
-3.507110472440945
11
2.1822763385826773
21
-3.5076865354330709
0
LINE
8
BLACK
6
CONTINUOUS
10
2.1822763385826773
20
-3.5076865354330709
11
2.1822763385826773
21
-3.5301837007874015
0
LINE
8
BLACK
6
CONTINUOUS
10
2.1822763385826773
20
-3.5301837007874015
11
2.1822196062992125
21
-3.5307597637795274
0
LINE
8
BLACK
6
CONTINUOUS
10
2.1822196062992125
20
-3.5307597637795274
11
2.1817787007874014
21
-3.5318241732283462
0
LINE
8
BLACK
6
CONTINUOUS
10
2.1817787007874014
20
-3.5318241732283462
11
2.18096405511811
21
-3.5326388188976376
0
LINE
8
BLACK
6
CONTINUOUS
10
2.18096405511811
20
-3.5326388188976376
11
2.1798996456692912
21
-3.5330797244094487
0
LINE
8
BLACK
6
CONTINUOUS
10
2.1798996456692912
20
-3.5330797244094487
11
2.1787475196850394
21
-3.5330797244094487
0
LINE
8
BLACK
6
CONTINUOUS
10
2.1787475196850394
20
-3.5330797244094487
11
2.1776831102362206
21
-3.5326388188976376
0
LINE
8
BLACK
6
CONTINUOUS
10
2.1776831102362206
20
-3.5326388188976376
11
2.1768684645669292
21
-3.5318241732283462
0
LINE
8
BLACK
6
CONTINUOUS
10
2.1768684645669292
20
-3.5318241732283462
11
2.1764275590551181
21
-3.5307597637795274
0
LINE
8
BLACK
6
CONTINUOUS
10
2.1764275590551181
20
-3.5307597637795274
11
2.1763708267716533
21
-3.5301837007874015
0
LINE
8
BLACK
6
CONTINUOUS
10
2.1763708267716533
20
-3.5301837007874015
11
2.1763708267716533
21
-3.5218878740157478
0
LINE
8
BLACK
6
CONTINUOUS
10
2.1763708267716533
20
-3.5218878740157478
11
2.1399535039370079
21
-3.5218878740157478
0
LINE
8
BLACK
6
CONTINUOUS
10
2.1399535039370079
20
-3.5218878740157478
11
2.1399514173228344
21
-3.5218876377952757
0
LINE
8
BLACK
6
CONTINUOUS
10
2.1399514173228344
20
-3.5218876377952757
11
2.1399503937007873
21
-3.5218878740157478
0
LINE
8
BLACK
6
CONTINUOUS
10
2.1399503937007873
20
-3.5218878740157478
11
2.1399473622047243
21
-3.5218872440944882
0
LINE
8
BLACK
6
CONTINUOUS
10
2.1399473622047243
20
-3.5218872440944882
11
2.139377440944882
21
-3.5218311417322834
0
LINE
8
BLACK
6
CONTINUOUS
10
2.139377440944882
20
-3.5218311417322834
11
2.1391073228346458
21
-3.5217192519685039
0
LINE
8
BLACK
6
CONTINUOUS
10
2.1391073228346458
20
-3.5217192519685039
11
2.1388207086614175
21
-3.5216619291338582
0
LINE
8
BLACK
6
CONTINUOUS
10
2.1388207086614175
20
-3.5216619291338582
11
2.1385803149606297
21
-3.5215009448818897
0
LINE
8
BLACK
6
CONTINUOUS
10
2.1385803149606297
20
-3.5215009448818897
11
2.1383130314960628
21
-3.5213902362204723
0
LINE
8
BLACK
6
CONTINUOUS
10
2.1383130314960628
20
-3.5213902362204723
11
2.1381062992125983
21
-3.5211835039370079
0
LINE
8
BLACK
6
CONTINUOUS
10
2.1381062992125983
20
-3.5211835039370079
11
2.1378634251968505
21
-3.5210208661417322
0
LINE
8
BLACK
6
CONTINUOUS
10
2.1378634251968505
20
-3.5210208661417322
11
2.1377029133858265
21
-3.5207801181102361
0
LINE
8
BLACK
6
CONTINUOUS
10
2.1377029133858265
20
-3.5207801181102361
11
2.1374983858267718
21
-3.5205755905511809
0
LINE
8
BLACK
6
CONTINUOUS
10
2.1374983858267718
20
-3.5205755905511809
11
2.1373864960629922
21
-3.5203054724409446
0
LINE
8
BLACK
6
CONTINUOUS
10
2.1373864960629922
20
-3.5203054724409446
11
2.1372243307086616
21
-3.520062244094488
0
LINE
8
BLACK
6
CONTINUOUS
10
2.1372243307086616
20
-3.520062244094488
11
2.1371681889763781
21
-3.5197784251968502
0
LINE
8
BLACK
6
CONTINUOUS
10
2.1371681889763781
20
-3.5197784251968502
11
2.1370574803149607
21
-3.5195111811023621
0
LINE
8
BLACK
6
CONTINUOUS
10
2.1370574803149607
20
-3.5195111811023621
11
2.1370574803149607
21
-3.5192187795275589
0
LINE
8
BLACK
6
CONTINUOUS
10
2.1370574803149607
20
-3.5192187795275589
11
2.1370007480314959
21
-3.5189320078740156
0
LINE
8
BLACK
6
CONTINUOUS
10
2.1370007480314959
20
-3.5189320078740156
11
2.1370574803149607
21
-3.5186483464566929
0
LINE
8
BLACK
6
CONTINUOUS
10
2.1370574803149607
20
-3.5186483464566929
11
2.1370574803149607
21
-3.5183590551181103
0
LINE
8
BLACK
6
CONTINUOUS
10
2.1370574803149607
20
-3.5183590551181103
11
2.1371693307086614
21
-3.5180889370078741
0
LINE
8
BLACK
6
CONTINUOUS
10
2.1371693307086614
20
-3.5180889370078741
11
2.1372266929133859
21
-3.5178023228346458
0
LINE
8
BLACK
6
CONTINUOUS
10
2.1372266929133859
20
-3.5178023228346458
11
2.1373876377952756
21
-3.517561929133858
0
LINE
8
BLACK
6
CONTINUOUS
10
2.1373876377952756
20
-3.517561929133858
11
2.1374983858267718
21
-3.5172946456692911
0
LINE
8
BLACK
6
CONTINUOUS
10
2.1374983858267718
20
-3.5172946456692911
11
2.1377050787401575
21
-3.5170879133858266
0
LINE
8
BLACK
6
CONTINUOUS
10
2.1377050787401575
20
-3.5170879133858266
11
2.1378677559055119
21
-3.5168450393700788
0
LINE
8
BLACK
6
CONTINUOUS
10
2.1378677559055119
20
-3.5168450393700788
11
2.1383109842519685
21
-3.5164820078740155
0
LINE
8
BLACK
6
CONTINUOUS
10
2.1383109842519685
20
-3.5164820078740155
11
2.1383130314960628
21
-3.5164800000000001
0
LINE
8
BLACK
6
CONTINUOUS
10
2.1383130314960628
20
-3.5164800000000001
11
2.1383138976377953
21
-3.5164796062992125
0
LINE
8
BLACK
6
CONTINUOUS
10
2.1383138976377953
20
-3.5164796062992125
11
2.1383155905511813
21
-3.5164782677165354
0
LINE
8
BLACK
6
CONTINUOUS
10
2.1383155905511813
20
-3.5164782677165354
11
2.1436966141732281
21
-3.5128909055118109
0
LINE
8
BLACK
6
CONTINUOUS
10
2.1436966141732281
20
-3.5128909055118109
11
2.1469005905511809
21
-3.5096869685039369
0
LINE
8
BLACK
6
CONTINUOUS
10
2.1469005905511809
20
-3.5096869685039369
11
2.1485610629921261
21
-3.5063660236220473
0
LINE
8
BLACK
6
CONTINUOUS
10
2.1485610629921261
20
-3.5063660236220473
11
2.1488694094488188
21
-3.5058761417322835
0
LINE
8
BLACK
6
CONTINUOUS
10
2.1488694094488188
20
-3.5058761417322835
11
2.1497398031496062
21
-3.5051212992125982
0
LINE
8
BLACK
6
CONTINUOUS
10
2.1497398031496062
20
-3.5051212992125982
11
2.1508327559055118
21
-3.504756968503937
0
LINE
8
BLACK
6
CONTINUOUS
10
2.1508327559055118
20
-3.504756968503937
11
2.1519819685039367
21
-3.5048386220472438
0
LINE
8
BLACK
6
CONTINUOUS
10
2.18096405511811
20
-3.4733603937007875
11
2.1817787007874014
21
-3.4741750393700785
0
LINE
8
BLACK
6
CONTINUOUS
10
2.1817787007874014
20
-3.4741750393700785
11
2.1822196062992125
21
-3.4752394488188973
0
LINE
8
BLACK
6
CONTINUOUS
10
2.1822196062992125
20
-3.4752394488188973
11
2.1822763385826773
21
-3.4758155118110237
0
LINE
8
BLACK
6
CONTINUOUS
10
2.1822763385826773
20
-3.4758155118110237
11
2.1822763385826773
21
-3.4795650393700788
0
LINE
8
BLACK
6
CONTINUOUS
10
2.1822763385826773
20
-3.4795650393700788
11
2.1822475984251968
21
-3.4798566141732281
0
LINE
8
BLACK
6
CONTINUOUS
10
2.1822475984251968
20
-3.4798566141732281
11
2.1822531496062991
21
-3.4799343700787402
0
LINE
8
BLACK
6
CONTINUOUS
10
2.1822531496062991
20
-3.4799343700787402
11
2.1822298818897639
21
-3.4800366141732284
0
LINE
8
BLACK
6
CONTINUOUS
10
2.1822298818897639
20
-3.4800366141732284
11
2.1822196062992125
21
-3.4801411023622046
0
LINE
8
BLACK
6
CONTINUOUS
10
2.1822196062992125
20
-3.4801411023622046
11
2.1821897244094486
21
-3.4802131496062993
0
LINE
8
BLACK
6
CONTINUOUS
10
2.1821897244094486
20
-3.4802131496062993
11
2.1821248031496063
21
-3.4804988188976376
0
LINE
8
BLACK
6
CONTINUOUS
10
2.1821248031496063
20
-3.4804988188976376
11
2.1802500393700788
21
-3.4861230708661415
0
LINE
8
BLACK
6
CONTINUOUS
10
2.1802500393700788
20
-3.4861230708661415
11
2.18001405511811
21
-3.4866516535433072
0
LINE
8
BLACK
6
CONTINUOUS
10
2.18001405511811
20
-3.4866516535433072
11
2.1799445669291337
21
-3.4867317322834643
0
LINE
8
BLACK
6
CONTINUOUS
10
2.1799445669291337
20
-3.4867317322834643
11
2.1799039763779526
21
-3.4868298031496061
0
LINE
8
BLACK
6
CONTINUOUS
10
2.1799039763779526
20
-3.4868298031496061
11
2.1795367322834647
21
-3.4872772440944879
0
LINE
8
BLACK
6
CONTINUOUS
10
2.1795367322834647
20
-3.4872772440944879
11
2.1757871653543308
21
-3.491026771653543
0
LINE
8
BLACK
6
CONTINUOUS
10
2.1757871653543308
20
-3.491026771653543
11
2.1753396850393698
21
-3.4913940157480314
0
LINE
8
BLACK
6
CONTINUOUS
10
2.1753396850393698
20
-3.4913940157480314
11
2.1752416141732285
21
-3.4914346062992125
0
LINE
8
BLACK
6
CONTINUOUS
10
2.1752416141732285
20
-3.4914346062992125
11
2.1751615354330709
21
-3.4915040944881888
0
LINE
8
BLACK
6
CONTINUOUS
10
2.1751615354330709
20
-3.4915040944881888
11
2.1746329921259844
21
-3.4917400787401576
0
LINE
8
BLACK
6
CONTINUOUS
10
2.1746329921259844
20
-3.4917400787401576
11
2.1690087007874017
21
-3.4936148425196851
0
LINE
8
BLACK
6
CONTINUOUS
10
2.1690087007874017
20
-3.4936148425196851
11
2.1687231102362206
21
-3.4936797637795274
0
LINE
8
BLACK
6
CONTINUOUS
10
2.1687231102362206
20
-3.4936797637795274
11
2.1686510236220471
21
-3.4937096456692913
0
LINE
8
BLACK
6
CONTINUOUS
10
2.1686510236220471
20
-3.4937096456692913
11
2.1685464960629921
21
-3.4937199212598427
0
LINE
8
BLACK
6
CONTINUOUS
10
2.1685464960629921
20
-3.4937199212598427
11
2.1684442519685039
21
-3.4937431889763779
0
LINE
8
BLACK
6
CONTINUOUS
10
2.1684442519685039
20
-3.4937431889763779
11
2.1683664960629923
21
-3.4937376377952756
0
LINE
8
BLACK
6
CONTINUOUS
10
2.1683664960629923
20
-3.4937376377952756
11
2.1680749606299212
21
-3.4937663779527557
0
LINE
8
BLACK
6
CONTINUOUS
10
2.1680749606299212
20
-3.4937663779527557
11
2.1399535039370079
21
-3.4937663779527557
0
LINE
8
BLACK
6
CONTINUOUS
10
2.1399535039370079
20
-3.4937663779527557
11
2.139377440944882
21
-3.4937096456692913
0
LINE
8
BLACK
6
CONTINUOUS
10
2.139377440944882
20
-3.4937096456692913
11
2.1383130314960628
21
-3.4932687401574802
0
LINE
8
BLACK
6
CONTINUOUS
10
2.1383130314960628
20
-3.4932687401574802
11
2.1374983858267718
21
-3.4924540944881888
0
LINE
8
BLACK
6
CONTINUOUS
10
2.1374983858267718
20
-3.4924540944881888
11
2.1370574803149607
21
-3.49138968503937
0
LINE
8
BLACK
6
CONTINUOUS
10
2.1370574803149607
20
-3.49138968503937
11
2.1370574803149607
21
-3.4902375590551182
0
LINE
8
BLACK
6
CONTINUOUS
10
2.1370574803149607
20
-3.4902375590551182
11
2.1374983858267718
21
-3.489173149606299
0
LINE
8
BLACK
6
CONTINUOUS
10
2.1374983858267718
20
-3.489173149606299
11
2.1383130314960628
21
-3.488358503937008
0
LINE
8
BLACK
6
CONTINUOUS
10
2.1383130314960628
20
-3.488358503937008
11
2.139377440944882
21
-3.4879175984251969
0
LINE
8
BLACK
6
CONTINUOUS
10
2.139377440944882
20
-3.4879175984251969
11
2.1399535039370079
21
-3.4878608661417321
0
LINE
8
BLACK
6
CONTINUOUS
10
2.1399535039370079
20
-3.4878608661417321
11
2.1675958267716533
21
-3.4878608661417321
0
LINE
8
BLACK
6
CONTINUOUS
10
2.1675958267716533
20
-3.4878608661417321
11
2.1721042125984251
21
-3.4863580314960627
0
LINE
8
BLACK
6
CONTINUOUS
10
2.1721042125984251
20
-3.4863580314960627
11
2.1748680314960631
21
-3.4835942519685039
0
LINE
8
BLACK
6
CONTINUOUS
10
2.1748680314960631
20
-3.4835942519685039
11
2.1763708267716533
21
-3.4790859055118109
0
LINE
8
BLACK
6
CONTINUOUS
10
2.1763708267716533
20
-3.4790859055118109
11
2.1763708267716533
21
-3.4758155118110237
0
LINE
8
BLACK
6
CONTINUOUS
10
2.1763708267716533
20
-3.4758155118110237
11
2.1764275590551181
21
-3.4752394488188973
0
LINE
8
BLACK
6
CONTINUOUS
10
2.1764275590551181
20
-3.4752394488188973
11
2.1768684645669292
21
-3.4741750393700785
0
LINE
8
BLACK
6
CONTINUOUS
10
2.1768684645669292
20
-3.4741750393700785
11
2.1776831102362206
21
-3.4733603937007875
0
LINE
8
BLACK
6
CONTINUOUS
10
2.1776831102362206
20
-3.4733603937007875
11
2.1787475196850394
21
-3.4729194881889764
0
LINE
8
BLACK
6
CONTINUOUS
10
2.1787475196850394
20
-3.4729194881889764
11
2.1798996456692912
21
-3.4729194881889764
0
LINE
8
BLACK
6
CONTINUOUS
10
2.1798996456692912
20
-3.4729194881889764
11
2.18096405511811
21
-3.4733603937007875
0
LINE
8
BLACK
6
CONTINUOUS
10
5.0535567716535432
20
-2.7172495669291337
11
5.0545872834645671
21
-2.717764842519685
0
LINE
8
BLACK
6
CONTINUOUS
10
5.0545872834645671
20
-2.717764842519685
11
5.0553421259842519
21
-2.7186351968503937
0
LINE
8
BLACK
6
CONTINUOUS
10
5.0553421259842519
20
-2.7186351968503937
11
5.0557064566929135
21
-2.719728188976378
0
LINE
8
BLACK
6
CONTINUOUS
10
5.0557064566929135
20
-2.719728188976378
11
5.0556248031496063
21
-2.720877401574803
0
LINE
8
BLACK
6
CONTINUOUS
10
5.0556248031496063
20
-2.720877401574803
11
5.0554179133858268
21
-2.7214179921259842
0
LINE
8
BLACK
6
CONTINUOUS
10
5.0554179133858268
20
-2.7214179921259842
11
5.0535431496062992
21
-2.7251675196850393
0
LINE
8
BLACK
6
CONTINUOUS
10
5.0535431496062992
20
-2.7251675196850393
11
5.0533871259842522
21
-2.7254153149606299
0
LINE
8
BLACK
6
CONTINUOUS
10
5.0533871259842522
20
-2.7254153149606299
11
5.0533572834645666
21
-2.7254874803149605
0
LINE
8
BLACK
6
CONTINUOUS
10
5.0533572834645666
20
-2.7254874803149605
11
5.0532906692913384
21
-2.7255686220472439
0
LINE
8
BLACK
6
CONTINUOUS
10
5.0532906692913384
20
-2.7255686220472439
11
5.0532348031496062
21
-2.7256574015748032
0
LINE
8
BLACK
6
CONTINUOUS
10
5.0532348031496062
20
-2.7256574015748032
11
5.0531758661417321
21
-2.7257085039370077
0
LINE
8
BLACK
6
CONTINUOUS
10
5.0531758661417321
20
-2.7257085039370077
11
5.0529900393700791
21
-2.7259349212598423
0
LINE
8
BLACK
6
CONTINUOUS
10
5.0529900393700791
20
-2.7259349212598423
11
5.0505316535433069
21
-2.728393307086614
0
LINE
8
BLACK
6
CONTINUOUS
10
5.0505316535433069
20
-2.728393307086614
11
5.0779456299212598
21
-2.728393307086614
0
LINE
8
BLACK
6
CONTINUOUS
10
5.0779456299212598
20
-2.728393307086614
11
5.0779456299212598
21
-2.7200974803149607
0
LINE
8
BLACK
6
CONTINUOUS
10
5.0779456299212598
20
-2.7200974803149607
11
5.0780023622047246
21
-2.7195214173228344
0
LINE
8
BLACK
6
CONTINUOUS
10
5.0780023622047246
20
-2.7195214173228344
11
5.0784432677165352
21
-2.7184570078740156
0
LINE
8
BLACK
6
CONTINUOUS
10
5.0784432677165352
20
-2.7184570078740156
11
5.0792579133858267
21
-2.7176423622047245
0
LINE
8
BLACK
6
CONTINUOUS
10
5.0792579133858267
20
-2.7176423622047245
11
5.0803223228346459
21
-2.7172014566929135
0
LINE
8
BLACK
6
CONTINUOUS
10
5.0803223228346459
20
-2.7172014566929135
11
5.0814744488188976
21
-2.7172014566929135
0
LINE
8
BLACK
6
CONTINUOUS
10
5.0814744488188976
20
-2.7172014566929135
11
5.082538858267716
21
-2.7176423622047245
0
LINE
8
BLACK
6
CONTINUOUS
10
5.082538858267716
20
-2.7176423622047245
11
5.0833535039370075
21
-2.7184570078740156
0
LINE
8
BLACK
6
CONTINUOUS
10
5.0833535039370075
20
-2.7184570078740156
11
5.083794409448819
21
-2.7195214173228344
0
LINE
8
BLACK
6
CONTINUOUS
10
5.083794409448819
20
-2.7195214173228344
11
5.0838511417322829
21
-2.7200974803149607
0
LINE
8
BLACK
6
CONTINUOUS
10
5.0838511417322829
20
-2.7200974803149607
11
5.0838511417322829
21
-2.7425946456692913
0
LINE
8
BLACK
6
CONTINUOUS
10
5.0838511417322829
20
-2.7425946456692913
11
5.083794409448819
21
-2.7431707086614172
0
LINE
8
BLACK
6
CONTINUOUS
10
5.083794409448819
20
-2.7431707086614172
11
5.0833535039370075
21
-2.744235118110236
0
LINE
8
BLACK
6
CONTINUOUS
10
5.0833535039370075
20
-2.744235118110236
11
5.082538858267716
21
-2.7450497637795275
0
LINE
8
BLACK
6
CONTINUOUS
10
5.082538858267716
20
-2.7450497637795275
11
5.0814744488188976
21
-2.7454906692913386
0
LINE
8
BLACK
6
CONTINUOUS
10
5.0814744488188976
20
-2.7454906692913386
11
5.0803223228346459
21
-2.7454906692913386
0
LINE
8
BLACK
6
CONTINUOUS
10
5.0803223228346459
20
-2.7454906692913386
11
5.0792579133858267
21
-2.7450497637795275
0
LINE
8
BLACK
6
CONTINUOUS
10
5.0792579133858267
20
-2.7450497637795275
11
5.0784432677165352
21
-2.744235118110236
0
LINE
8
BLACK
6
CONTINUOUS
10
5.0784432677165352
20
-2.744235118110236
11
5.0780023622047246
21
-2.7431707086614172
0
LINE
8
BLACK
6
CONTINUOUS
10
5.0780023622047246
20
-2.7431707086614172
11
5.0779456299212598
21
-2.7425946456692913
0
LINE
8
BLACK
6
CONTINUOUS
10
5.0779456299212598
20
-2.7425946456692913
11
5.0779456299212598
21
-2.7342988188976376
0
LINE
8
BLACK
6
CONTINUOUS
10
5.0779456299212598
20
-2.7342988188976376
11
5.0415283070866144
21
-2.7342988188976376
0
LINE
8
BLACK
6
CONTINUOUS
10
5.0415283070866144
20
-2.7342988188976376
11
5.0415262204724405
21
-2.7342985826771651
0
LINE
8
BLACK
6
CONTINUOUS
10
5.0415262204724405
20
-2.7342985826771651
11
5.0415251968503938
21
-2.7342988188976376
0
LINE
8
BLACK
6
CONTINUOUS
10
5.0415251968503938
20
-2.7342988188976376
11
5.0415221653543307
21
-2.734298188976378
0
LINE
8
BLACK
6
CONTINUOUS
10
5.0415221653543307
20
-2.734298188976378
11
5.0409522440944885
21
-2.7342420866141732
0
LINE
8
BLACK
6
CONTINUOUS
10
5.0409522440944885
20
-2.7342420866141732
11
5.0406821259842518
21
-2.7341301968503937
0
LINE
8
BLACK
6
CONTINUOUS
10
5.0406821259842518
20
-2.7341301968503937
11
5.0403955118110231
21
-2.7340728740157481
0
LINE
8
BLACK
6
CONTINUOUS
10
5.0403955118110231
20
-2.7340728740157481
11
5.0401551181102358
21
-2.7339118897637795
0
LINE
8
BLACK
6
CONTINUOUS
10
5.0401551181102358
20
-2.7339118897637795
11
5.0398878346456693
21
-2.7338011811023621
0
LINE
8
BLACK
6
CONTINUOUS
10
5.0398878346456693
20
-2.7338011811023621
11
5.0396811023622048
21
-2.7335944488188977
0
LINE
8
BLACK
6
CONTINUOUS
10
5.0396811023622048
20
-2.7335944488188977
11
5.0394382283464569
21
-2.733431811023622
0
LINE
8
BLACK
6
CONTINUOUS
10
5.0394382283464569
20
-2.733431811023622
11
5.039277716535433
21
-2.7331910629921259
0
LINE
8
BLACK
6
CONTINUOUS
10
5.039277716535433
20
-2.7331910629921259
11
5.0390731889763778
21
-2.7329865354330707
0
LINE
8
BLACK
6
CONTINUOUS
10
5.0390731889763778
20
-2.7329865354330707
11
5.0389612992125983
21
-2.7327164173228344
0
LINE
8
BLACK
6
CONTINUOUS
10
5.0389612992125983
20
-2.7327164173228344
11
5.0387991338582676
21
-2.7324731889763778
0
LINE
8
BLACK
6
CONTINUOUS
10
5.0387991338582676
20
-2.7324731889763778
11
5.0387429921259841
21
-2.7321893700787401
0
LINE
8
BLACK
6
CONTINUOUS
10
5.0387429921259841
20
-2.7321893700787401
11
5.0386322834645672
21
-2.7319221259842519
0
LINE
8
BLACK
6
CONTINUOUS
10
5.0386322834645672
20
-2.7319221259842519
11
5.0386322834645672
21
-2.7316297244094487
0
LINE
8
BLACK
6
CONTINUOUS
10
5.0386322834645672
20
-2.7316297244094487
11
5.0385755511811023
21
-2.7313429527559054
0
LINE
8
BLACK
6
CONTINUOUS
10
5.0385755511811023
20
-2.7313429527559054
11
5.0386322834645672
21
-2.7310592913385827
0
LINE
8
BLACK
6
CONTINUOUS
10
5.0386322834645672
20
-2.7310592913385827
11
5.0386322834645672
21
-2.7307700000000001
0
LINE
8
BLACK
6
CONTINUOUS
10
5.0386322834645672
20
-2.7307700000000001
11
5.0387441338582679
21
-2.7304998818897639
0
LINE
8
BLACK
6
CONTINUOUS
10
5.0387441338582679
20
-2.7304998818897639
11
5.0388014960629919
21
-2.7302132677165352
0
LINE
8
BLACK
6
CONTINUOUS
10
5.0388014960629919
20
-2.7302132677165352
11
5.0389624409448821
21
-2.7299728740157478
0
LINE
8
BLACK
6
CONTINUOUS
10
5.0389624409448821
20
-2.7299728740157478
11
5.0390731889763778
21
-2.7297055905511809
0
LINE
8
BLACK
6
CONTINUOUS
10
5.0390731889763778
20
-2.7297055905511809
11
5.0392798818897635
21
-2.7294988582677164
0
LINE
8
BLACK
6
CONTINUOUS
10
5.0392798818897635
20
-2.7294988582677164
11
5.039442559055118
21
-2.7292559842519686
0
LINE
8
BLACK
6
CONTINUOUS
10
5.039442559055118
20
-2.7292559842519686
11
5.039885787401575
21
-2.7288929527559054
0
LINE
8
BLACK
6
CONTINUOUS
10
5.039885787401575
20
-2.7288929527559054
11
5.0398878346456693
21
-2.7288909448818899
0
LINE
8
BLACK
6
CONTINUOUS
10
5.0398878346456693
20
-2.7288909448818899
11
5.0398887007874018
21
-2.7288905511811024
0
LINE
8
BLACK
6
CONTINUOUS
10
5.0398887007874018
20
-2.7288905511811024
11
5.0398903937007873
21
-2.7288892125984252
0
LINE
8
BLACK
6
CONTINUOUS
10
5.0398903937007873
20
-2.7288892125984252
11
5.0452714173228346
21
-2.7253018503937008
0
LINE
8
BLACK
6
CONTINUOUS
10
5.0452714173228346
20
-2.7253018503937008
11
5.0484753937007874
21
-2.7220979133858267
0
LINE
8
BLACK
6
CONTINUOUS
10
5.0484753937007874
20
-2.7220979133858267
11
5.0501358661417326
21
-2.7187769685039371
0
LINE
8
BLACK
6
CONTINUOUS
10
5.0501358661417326
20
-2.7187769685039371
11
5.0504442125984248
21
-2.7182870866141733
0
LINE
8
BLACK
6
CONTINUOUS
10
5.0504442125984248
20
-2.7182870866141733
11
5.0513146062992123
21
-2.717532244094488
0
LINE
8
BLACK
6
CONTINUOUS
10
5.0513146062992123
20
-2.717532244094488
11
5.0524075590551183
21
-2.7171679133858269
0
LINE
8
BLACK
6
CONTINUOUS
10
5.0524075590551183
20
-2.7171679133858269
11
5.0535567716535432
21
-2.7172495669291337
0
LINE
8
BLACK
6
CONTINUOUS
10
5.0811851574803146
20
-2.6778313779527561
11
5.0814744488188976
21
-2.6778313779527561
0
LINE
8
BLACK
6
CONTINUOUS
10
5.0814744488188976
20
-2.6778313779527561
11
5.0817445275590547
21
-2.6779432283464568
0
LINE
8
BLACK
6
CONTINUOUS
10
5.0817445275590547
20
-2.6779432283464568
11
5.0820311811023622
21
-2.6780005905511812
0
LINE
8
BLACK
6
CONTINUOUS
10
5.0820311811023622
20
-2.6780005905511812
11
5.0822715354330708
21
-2.678161535433071
0
LINE
8
BLACK
6
CONTINUOUS
10
5.0822715354330708
20
-2.678161535433071
11
5.082538858267716
21
-2.6782722834645667
0
LINE
8
BLACK
6
CONTINUOUS
10
5.082538858267716
20
-2.6782722834645667
11
5.0827455511811026
21
-2.6784789763779528
0
LINE
8
BLACK
6
CONTINUOUS
10
5.0827455511811026
20
-2.6784789763779528
11
5.0829884645669292
21
-2.6786416535433069
0
LINE
8
BLACK
6
CONTINUOUS
10
5.0829884645669292
20
-2.6786416535433069
11
5.0831489370078735
21
-2.6788823622047242
0
LINE
8
BLACK
6
CONTINUOUS
10
5.0831489370078735
20
-2.6788823622047242
11
5.0833535039370075
21
-2.6790869291338582
0
LINE
8
BLACK
6
CONTINUOUS
10
5.0833535039370075
20
-2.6790869291338582
11
5.0834653543307082
21
-2.6793570078740157
0
LINE
8
BLACK
6
CONTINUOUS
10
5.0834653543307082
20
-2.6793570078740157
11
5.0836275590551177
21
-2.679600275590551
0
LINE
8
BLACK
6
CONTINUOUS
10
5.0836275590551177
20
-2.679600275590551
11
5.0836836614173224
21
-2.67988405511811
0
LINE
8
BLACK
6
CONTINUOUS
10
5.0836836614173224
20
-2.67988405511811
11
5.083794409448819
21
-2.680151338582677
0
LINE
8
BLACK
6
CONTINUOUS
10
5.083794409448819
20
-2.680151338582677
11
5.0838511417322829
21
-2.6807274015748033
0
LINE
8
BLACK
6
CONTINUOUS
10
5.0838511417322829
20
-2.6807274015748033
11
5.0838511417322829
21
-2.706974094488189
0
LINE
8
BLACK
6
CONTINUOUS
10
5.0838511417322829
20
-2.706974094488189
11
5.083794409448819
21
-2.7075501574803149
0
LINE
8
BLACK
6
CONTINUOUS
10
5.083794409448819
20
-2.7075501574803149
11
5.0833535039370075
21
-2.7086145669291337
0
LINE
8
BLACK
6
CONTINUOUS
10
5.0833535039370075
20
-2.7086145669291337
11
5.082538858267716
21
-2.7094292125984252
0
LINE
8
BLACK
6
CONTINUOUS
10
5.082538858267716
20
-2.7094292125984252
11
5.0814744488188976
21
-2.7098701181102363
0
LINE
8
BLACK
6
CONTINUOUS
10
5.0814744488188976
20
-2.7098701181102363
11
5.0803223228346459
21
-2.7098701181102363
0
LINE
8
BLACK
6
CONTINUOUS
10
5.0803223228346459
20
-2.7098701181102363
11
5.0792579133858267
21
-2.7094292125984252
0
LINE
8
BLACK
6
CONTINUOUS
10
5.0792579133858267
20
-2.7094292125984252
11
5.0784432677165352
21
-2.7086145669291337
0
LINE
8
BLACK
6
CONTINUOUS
10
5.0784432677165352
20
-2.7086145669291337
11
5.0780023622047246
21
-2.7075501574803149
0
LINE
8
BLACK
6
CONTINUOUS
10
5.0780023622047246
20
-2.7075501574803149
11
5.0779456299212598
21
-2.706974094488189
0
LINE
8
BLACK
6
CONTINUOUS
10
5.0779456299212598
20
-2.706974094488189
11
5.0779456299212598
21
-2.6862446456692912
0
LINE
8
BLACK
6
CONTINUOUS
10
5.0779456299212598
20
-2.6862446456692912
11
5.0431661811023618
21
-2.7094309448818898
0
LINE
8
BLACK
6
CONTINUOUS
10
5.0431661811023618
20
-2.7094309448818898
11
5.0426554330708662
21
-2.7097032677165354
0
LINE
8
BLACK
6
CONTINUOUS
10
5.0426554330708662
20
-2.7097032677165354
11
5.042371614173228
21
-2.7097593700787401
0
LINE
8
BLACK
6
CONTINUOUS
10
5.042371614173228
20
-2.7097593700787401
11
5.0421043700787402
21
-2.7098701181102363
0
LINE
8
BLACK
6
CONTINUOUS
10
5.0421043700787402
20
-2.7098701181102363
11
5.0418119685039366
21
-2.7098701181102363
0
LINE
8
BLACK
6
CONTINUOUS
10
5.0418119685039366
20
-2.7098701181102363
11
5.0415251968503938
21
-2.7099268503937006
0
LINE
8
BLACK
6
CONTINUOUS
10
5.0415251968503938
20
-2.7099268503937006
11
5.0412415354330706
21
-2.7098701181102363
0
LINE
8
BLACK
6
CONTINUOUS
10
5.0412415354330706
20
-2.7098701181102363
11
5.0409522440944885
21
-2.7098701181102363
0
LINE
8
BLACK
6
CONTINUOUS
10
5.0409522440944885
20
-2.7098701181102363
11
5.0406821259842518
21
-2.7097582283464567
0
LINE
8
BLACK
6
CONTINUOUS
10
5.0406821259842518
20
-2.7097582283464567
11
5.0403955118110231
21
-2.7097009055118111
0
LINE
8
BLACK
6
CONTINUOUS
10
5.0403955118110231
20
-2.7097009055118111
11
5.0401551181102358
21
-2.7095399212598426
0
LINE
8
BLACK
6
CONTINUOUS
10
5.0401551181102358
20
-2.7095399212598426
11
5.0398878346456693
21
-2.7094292125984252
0
LINE
8
BLACK
6
CONTINUOUS
10
5.0398878346456693
20
-2.7094292125984252
11
5.0396811023622048
21
-2.7092224803149607
0
LINE
8
BLACK
6
CONTINUOUS
10
5.0396811023622048
20
-2.7092224803149607
11
5.0394382283464569
21
-2.709059842519685
0
LINE
8
BLACK
6
CONTINUOUS
10
5.0394382283464569
20
-2.709059842519685
11
5.039277716535433
21
-2.7088190944881889
0
LINE
8
BLACK
6
CONTINUOUS
10
5.039277716535433
20
-2.7088190944881889
11
5.0390731889763778
21
-2.7086145669291337
0
LINE
8
BLACK
6
CONTINUOUS
10
5.0390731889763778
20
-2.7086145669291337
11
5.0389612992125983
21
-2.7083444488188975
0
LINE
8
BLACK
6
CONTINUOUS
10
5.0389612992125983
20
-2.7083444488188975
11
5.0387991338582676
21
-2.7081012204724408
0
LINE
8
BLACK
6
CONTINUOUS
10
5.0387991338582676
20
-2.7081012204724408
11
5.0387429921259841
21
-2.7078174015748031
0
LINE
8
BLACK
6
CONTINUOUS
10
5.0387429921259841
20
-2.7078174015748031
11
5.0386322834645672
21
-2.7075501574803149
0
LINE
8
BLACK
6
CONTINUOUS
10
5.0386322834645672
20
-2.7075501574803149
11
5.0385755511811023
21
-2.706974094488189
0
LINE
8
BLACK
6
CONTINUOUS
10
5.0385755511811023
20
-2.706974094488189
11
5.0385755511811023
21
-2.6807274015748033
0
LINE
8
BLACK
6
CONTINUOUS
10
5.0385755511811023
20
-2.6807274015748033
11
5.0386322834645672
21
-2.680151338582677
0
LINE
8
BLACK
6
CONTINUOUS
10
5.0386322834645672
20
-2.680151338582677
11
5.0390731889763778
21
-2.6790869291338582
0
LINE
8
BLACK
6
CONTINUOUS
10
5.0390731889763778
20
-2.6790869291338582
11
5.0398878346456693
21
-2.6782722834645667
0
LINE
8
BLACK
6
CONTINUOUS
10
5.0398878346456693
20
-2.6782722834645667
11
5.0409522440944885
21
-2.6778313779527561
0
LINE
8
BLACK
6
CONTINUOUS
10
5.0409522440944885
20
-2.6778313779527561
11
5.0421043700787402
21
-2.6778313779527561
0
LINE
8
BLACK
6
CONTINUOUS
10
5.0421043700787402
20
-2.6778313779527561
11
5.0431687795275586
21
-2.6782722834645667
0
LINE
8
BLACK
6
CONTINUOUS
10
5.0431687795275586
20
-2.6782722834645667
11
5.0439834251968501
21
-2.6790869291338582
0
LINE
8
BLACK
6
CONTINUOUS
10
5.0439834251968501
20
-2.6790869291338582
11
5.0444243307086616
21
-2.680151338582677
0
LINE
8
BLACK
6
CONTINUOUS
10
5.0444243307086616
20
-2.680151338582677
11
5.0444810629921255
21
-2.6807274015748033
0
LINE
8
BLACK
6
CONTINUOUS
10
5.0444810629921255
20
-2.6807274015748033
11
5.0444810629921255
21
-2.7014568110236219
0
LINE
8
BLACK
6
CONTINUOUS
10
5.0444810629921255
20
-2.7014568110236219
11
5.0792604724409447
21
-2.6782705511811025
0
LINE
8
BLACK
6
CONTINUOUS
10
5.0792604724409447
20
-2.6782705511811025
11
5.07977125984252
21
-2.6779982283464565
0
LINE
8
BLACK
6
CONTINUOUS
10
5.07977125984252
20
-2.6779982283464565
11
5.0800550393700785
21
-2.677942086614173
0
LINE
8
BLACK
6
CONTINUOUS
10
5.0800550393700785
20
-2.677942086614173
11
5.0803223228346459
21
-2.6778313779527561
0
LINE
8
BLACK
6
CONTINUOUS
10
5.0803223228346459
20
-2.6778313779527561
11
5.0806147244094486
21
-2.6778313779527561
0
LINE
8
BLACK
6
CONTINUOUS
10
5.0806147244094486
20
-2.6778313779527561
11
5.0809014960629924
21
-2.6777746456692912
0
LINE
8
BLACK
6
CONTINUOUS
10
5.0809014960629924
20
-2.6777746456692912
11
5.0811851574803146
21
-2.6778313779527561
0
LINE
8
BLACK
6
CONTINUOUS
10
5.0814744488188976
20
-2.6422108267716533
11
5.082538858267716
21
-2.6426517322834644
0
LINE
8
BLACK
6
CONTINUOUS
10
5.082538858267716
20
-2.6426517322834644
11
5.0833535039370075
21
-2.6434663779527559
0
LINE
8
BLACK
6
CONTINUOUS
10
5.0833535039370075
20
-2.6434663779527559
11
5.083794409448819
21
-2.6445307874015747
0
LINE
8
BLACK
6
CONTINUOUS
10
5.083794409448819
20
-2.6445307874015747
11
5.0838511417322829
21
-2.6451068503937005
0
LINE
8
BLACK
6
CONTINUOUS
10
5.0838511417322829
20
-2.6451068503937005
11
5.0838511417322829
21
-2.6601049606299214
0
LINE
8
BLACK
6
CONTINUOUS
10
5.0838511417322829
20
-2.6601049606299214
11
5.083794409448819
21
-2.6606810236220473
0
LINE
8
BLACK
6
CONTINUOUS
10
5.083794409448819
20
-2.6606810236220473
11
5.0837538188976374
21
-2.6607789763779528
0
LINE
8
BLACK
6
CONTINUOUS
10
5.0837538188976374
20
-2.6607789763779528
11
5.0837462992125984
21
-2.6608848818897637
0
LINE
8
BLACK
6
CONTINUOUS
10
5.0837462992125984
20
-2.6608848818897637
11
5.0835394094488189
21
-2.661425472440945
0
LINE
8
BLACK
6
CONTINUOUS
10
5.0835394094488189
20
-2.661425472440945
11
5.0816646456692913
21
-2.6651750000000001
0
LINE
8
BLACK
6
CONTINUOUS
10
5.0816646456692913
20
-2.6651750000000001
11
5.0815085433070868
21
-2.665422992125984
0
LINE
8
BLACK
6
CONTINUOUS
10
5.0815085433070868
20
-2.665422992125984
11
5.0814787401574799
21
-2.6654949606299212
0
LINE
8
BLACK
6
CONTINUOUS
10
5.0814787401574799
20
-2.6654949606299212
11
5.0814122834645667
21
-2.6655759055118109
0
LINE
8
BLACK
6
CONTINUOUS
10
5.0814122834645667
20
-2.6655759055118109
11
5.0813562992125982
21
-2.6656648818897639
0
LINE
8
BLACK
6
CONTINUOUS
10
5.0813562992125982
20
-2.6656648818897639
11
5.0812972440944879
21
-2.6657160629921259
0
LINE
8
BLACK
6
CONTINUOUS
10
5.0812972440944879
20
-2.6657160629921259
11
5.0811114960629924
21
-2.6659424409448818
0
LINE
8
BLACK
6
CONTINUOUS
10
5.0811114960629924
20
-2.6659424409448818
11
5.0792366929133861
21
-2.6678172047244093
0
LINE
8
BLACK
6
CONTINUOUS
10
5.0792366929133861
20
-2.6678172047244093
11
5.0790103543307081
21
-2.6680029133858265
0
LINE
8
BLACK
6
CONTINUOUS
10
5.0790103543307081
20
-2.6680029133858265
11
5.0789592125984253
21
-2.6680619291338581
0
LINE
8
BLACK
6
CONTINUOUS
10
5.0789592125984253
20
-2.6680619291338581
11
5.0788702755905515
21
-2.6681178740157478
0
LINE
8
BLACK
6
CONTINUOUS
10
5.0788702755905515
20
-2.6681178740157478
11
5.0787892519685034
21
-2.668184409448819
0
LINE
8
BLACK
6
CONTINUOUS
10
5.0787892519685034
20
-2.668184409448819
11
5.0787172047244091
21
-2.668214212598425
0
LINE
8
BLACK
6
CONTINUOUS
10
5.0787172047244091
20
-2.668214212598425
11
5.0784693307086615
21
-2.6683702755905512
0
LINE
8
BLACK
6
CONTINUOUS
10
5.0784693307086615
20
-2.6683702755905512
11
5.0747198031496064
21
-2.6702450393700787
0
LINE
8
BLACK
6
CONTINUOUS
10
5.0747198031496064
20
-2.6702450393700787
11
5.0741791732283463
21
-2.6704519291338582
0
LINE
8
BLACK
6
CONTINUOUS
10
5.0741791732283463
20
-2.6704519291338582
11
5.0740733464566929
21
-2.670459409448819
0
LINE
8
BLACK
6
CONTINUOUS
10
5.0740733464566929
20
-2.670459409448819
11
5.0739753543307087
21
-2.6705000393700788
0
LINE
8
BLACK
6
CONTINUOUS
10
5.0739753543307087
20
-2.6705000393700788
11
5.0733992913385828
21
-2.6705567716535432
0
LINE
8
BLACK
6
CONTINUOUS
10
5.0733992913385828
20
-2.6705567716535432
11
5.0677750000000001
21
-2.6705567716535432
0
LINE
8
BLACK
6
CONTINUOUS
10
5.0677750000000001
20
-2.6705567716535432
11
5.0671989370078743
21
-2.6705000393700788
0
LINE
8
BLACK
6
CONTINUOUS
10
5.0671989370078743
20
-2.6705000393700788
11
5.06710094488189
21
-2.6704594488188977
0
LINE
8
BLACK
6
CONTINUOUS
10
5.06710094488189
20
-2.6704594488188977
11
5.066995078740157
21
-2.6704519291338582
0
LINE
8
BLACK
6
CONTINUOUS
10
5.066995078740157
20
-2.6704519291338582
11
5.0664544881889766
21
-2.6702450393700787
0
LINE
8
BLACK
6
CONTINUOUS
10
5.0664544881889766
20
-2.6702450393700787
11
5.0627049606299215
21
-2.6683702755905512
0
LINE
8
BLACK
6
CONTINUOUS
10
5.0627049606299215
20
-2.6683702755905512
11
5.0624569291338579
21
-2.6682141732283462
0
LINE
8
BLACK
6
CONTINUOUS
10
5.0624569291338579
20
-2.6682141732283462
11
5.0623849999999999
21
-2.6681843700787402
0
LINE
8
BLACK
6
CONTINUOUS
10
5.0623849999999999
20
-2.6681843700787402
11
5.0623040157480315
21
-2.6681178740157478
0
LINE
8
BLACK
6
CONTINUOUS
10
5.0623040157480315
20
-2.6681178740157478
11
5.0622150787401576
21
-2.6680619291338581
0
LINE
8
BLACK
6
CONTINUOUS
10
5.0622150787401576
20
-2.6680619291338581
11
5.0621638976377952
21
-2.6680029133858265
0
LINE
8
BLACK
6
CONTINUOUS
10
5.0621638976377952
20
-2.6680029133858265
11
5.0619375590551181
21
-2.6678171653543306
0
LINE
8
BLACK
6
CONTINUOUS
10
5.0619375590551181
20
-2.6678171653543306
11
5.0600627952755906
21
-2.665942401574803
0
LINE
8
BLACK
6
CONTINUOUS
10
5.0600627952755906
20
-2.665942401574803
11
5.0596955905511809
21
-2.6654949606299212
0
LINE
8
BLACK
6
CONTINUOUS
10
5.0596955905511809
20
-2.6654949606299212
11
5.0596549606299215
21
-2.6653968897637794
0
LINE
8
BLACK
6
CONTINUOUS
10
5.0596549606299215
20
-2.6653968897637794
11
5.0595854724409444
21
-2.6653167716535431
0
LINE
8
BLACK
6
CONTINUOUS
10
5.0595854724409444
20
-2.6653167716535431
11
5.0594788188976381
21
-2.6650778740157479
0
LINE
8
BLACK
6
CONTINUOUS
10
5.0594788188976381
20
-2.6650778740157479
11
5.0586143307086617
21
-2.665942401574803
0
LINE
8
BLACK
6
CONTINUOUS
10
5.0586143307086617
20
-2.665942401574803
11
5.058387952755905
21
-2.666128149606299
0
LINE
8
BLACK
6
CONTINUOUS
10
5.058387952755905
20
-2.666128149606299
11
5.0583368110236222
21
-2.6661871653543305
0
LINE
8
BLACK
6
CONTINUOUS
10
5.0583368110236222
20
-2.6661871653543305
11
5.0582478346456687
21
-2.6662431102362203
0
LINE
8
BLACK
6
CONTINUOUS
10
5.0582478346456687
20
-2.6662431102362203
11
5.058166889763779
21
-2.6663096062992127
0
LINE
8
BLACK
6
CONTINUOUS
10
5.058166889763779
20
-2.6663096062992127
11
5.0580949212598423
21
-2.6663394094488186
0
LINE
8
BLACK
6
CONTINUOUS
10
5.0580949212598423
20
-2.6663394094488186
11
5.0578469291338584
21
-2.6664955118110236
0
LINE
8
BLACK
6
CONTINUOUS
10
5.0578469291338584
20
-2.6664955118110236
11
5.0540974015748032
21
-2.6683702755905512
0
LINE
8
BLACK
6
CONTINUOUS
10
5.0540974015748032
20
-2.6683702755905512
11
5.0535567716535432
21
-2.6685771653543306
0
LINE
8
BLACK
6
CONTINUOUS
10
5.0535567716535432
20
-2.6685771653543306
11
5.0534509448818898
21
-2.6685846456692914
0
LINE
8
BLACK
6
CONTINUOUS
10
5.0534509448818898
20
-2.6685846456692914
11
5.0533529527559056
21
-2.6686252755905513
0
LINE
8
BLACK
6
CONTINUOUS
10
5.0533529527559056
20
-2.6686252755905513
11
5.0527768897637797
21
-2.6686820078740157
0
LINE
8
BLACK
6
CONTINUOUS
10
5.0527768897637797
20
-2.6686820078740157
11
5.0490273622047246
21
-2.6686820078740157
0
LINE
8
BLACK
6
CONTINUOUS
10
5.0490273622047246
20
-2.6686820078740157
11
5.0484512992125987
21
-2.6686252755905513
0
LINE
8
BLACK
6
CONTINUOUS
10
5.0484512992125987
20
-2.6686252755905513
11
5.0483533070866144
21
-2.6685846850393702
0
LINE
8
BLACK
6
CONTINUOUS
10
5.0483533070866144
20
-2.6685846850393702
11
5.0482474409448814
21
-2.6685771653543306
0
LINE
8
BLACK
6
CONTINUOUS
10
5.0482474409448814
20
-2.6685771653543306
11
5.047706850393701
21
-2.6683702755905512
0
LINE
8
BLACK
6
CONTINUOUS
10
5.047706850393701
20
-2.6683702755905512
11
5.0439573228346459
21
-2.6664955118110236
0
LINE
8
BLACK
6
CONTINUOUS
10
5.0439573228346459
20
-2.6664955118110236
11
5.0437092913385824
21
-2.6663394094488186
0
LINE
8
BLACK
6
CONTINUOUS
10
5.0437092913385824
20
-2.6663394094488186
11
5.0436373622047244
21
-2.6663096062992127
0
LINE
8
BLACK
6
CONTINUOUS
10
5.0436373622047244
20
-2.6663096062992127
11
5.0435563779527559
21
-2.6662431102362203
0
LINE
8
BLACK
6
CONTINUOUS
10
5.0435563779527559
20
-2.6662431102362203
11
5.0434674409448821
21
-2.6661871653543305
0
LINE
8
BLACK
6
CONTINUOUS
10
5.0434674409448821
20
-2.6661871653543305
11
5.0434162598425196
21
-2.666128149606299
0
LINE
8
BLACK
6
CONTINUOUS
10
5.0434162598425196
20
-2.666128149606299
11
5.0431899212598426
21
-2.665942401574803
0
LINE
8
BLACK
6
CONTINUOUS
10
5.0431899212598426
20
-2.665942401574803
11
5.041315157480315
21
-2.6640676377952754
0
LINE
8
BLACK
6
CONTINUOUS
10
5.041315157480315
20
-2.6640676377952754
11
5.0411293700787398
21
-2.6638412598425196
0
LINE
8
BLACK
6
CONTINUOUS
10
5.0411293700787398
20
-2.6638412598425196
11
5.041070393700787
21
-2.6637901181102364
0
LINE
8
BLACK
6
CONTINUOUS
10
5.041070393700787
20
-2.6637901181102364
11
5.0410144094488185
21
-2.6637011417322833
0
LINE
8
BLACK
6
CONTINUOUS
10
5.0410144094488185
20
-2.6637011417322833
11
5.0409479527559053
21
-2.6636201968503936
0
LINE
8
BLACK
6
CONTINUOUS
10
5.0409479527559053
20
-2.6636201968503936
11
5.0409181102362206
21
-2.6635482283464564
0
LINE
8
BLACK
6
CONTINUOUS
10
5.0409181102362206
20
-2.6635482283464564
11
5.0407620472440939
21
-2.6633002362204725
0
LINE
8
BLACK
6
CONTINUOUS
10
5.0407620472440939
20
-2.6633002362204725
11
5.0388872834645664
21
-2.6595507086614174
0
LINE
8
BLACK
6
CONTINUOUS
10
5.0388872834645664
20
-2.6595507086614174
11
5.0386803937007869
21
-2.6590100787401574
0
LINE
8
BLACK
6
CONTINUOUS
10
5.0386803937007869
20
-2.6590100787401574
11
5.0386728740157478
21
-2.658904251968504
0
LINE
8
BLACK
6
CONTINUOUS
10
5.0386728740157478
20
-2.658904251968504
11
5.0386322834645672
21
-2.6588062598425197
0
LINE
8
BLACK
6
CONTINUOUS
10
5.0386322834645672
20
-2.6588062598425197
11
5.0385755511811023
21
-2.6582301968503939
0
LINE
8
BLACK
6
CONTINUOUS
10
5.0385755511811023
20
-2.6582301968503939
11
5.0385755511811023
21
-2.6451068503937005
0
LINE
8
BLACK
6
CONTINUOUS
10
5.0385755511811023
20
-2.6451068503937005
11
5.0386322834645672
21
-2.6445307874015747
0
LINE
8
BLACK
6
CONTINUOUS
10
5.0386322834645672
20
-2.6445307874015747
11
5.0390731889763778
21
-2.6434663779527559
0
LINE
8
BLACK
6
CONTINUOUS
10
5.0390731889763778
20
-2.6434663779527559
11
5.0398878346456693
21
-2.6426517322834644
0
LINE
8
BLACK
6
CONTINUOUS
10
5.0398878346456693
20
-2.6426517322834644
11
5.0409522440944885
21
-2.6422108267716533
0
LINE
8
BLACK
6
CONTINUOUS
10
5.0409522440944885
20
-2.6422108267716533
11
5.0415283070866144
21
-2.6421540944881889
0
LINE
8
BLACK
6
CONTINUOUS
10
5.0415283070866144
20
-2.6421540944881889
11
5.0808983858267718
21
-2.6421540944881889
0
LINE
8
BLACK
6
CONTINUOUS
10
5.0808983858267718
20
-2.6421540944881889
11
5.0814744488188976
21
-2.6422108267716533
0
LINE
8
BLACK
6
CONTINUOUS
10
5.0632287007874011
20
-2.6577510236220472
11
5.0647314960629917
21
-2.6622594488188978
0
LINE
8
BLACK
6
CONTINUOUS
10
5.0647314960629917
20
-2.6622594488188978
11
5.0657745669291341
21
-2.6633025196850393
0
LINE
8
BLACK
6
CONTINUOUS
10
5.0657745669291341
20
-2.6633025196850393
11
5.0684720472440947
21
-2.6646512598425196
0
LINE
8
BLACK
6
CONTINUOUS
10
5.0684720472440947
20
-2.6646512598425196
11
5.0727022440944882
21
-2.6646512598425196
0
LINE
8
BLACK
6
CONTINUOUS
10
5.0727022440944882
20
-2.6646512598425196
11
5.0753997244094489
21
-2.6633024803149605
0
LINE
8
BLACK
6
CONTINUOUS
10
5.0753997244094489
20
-2.6633024803149605
11
5.0765968897637794
21
-2.6621053543307087
0
LINE
8
BLACK
6
CONTINUOUS
10
5.0765968897637794
20
-2.6621053543307087
11
5.0779456299212598
21
-2.6594079133858268
0
LINE
8
BLACK
6
CONTINUOUS
10
5.0779456299212598
20
-2.6594079133858268
11
5.0779456299212598
21
-2.6480596062992126
0
LINE
8
BLACK
6
CONTINUOUS
10
5.0779456299212598
20
-2.6480596062992126
11
5.0632287007874011
21
-2.6480596062992126
0
LINE
8
BLACK
6
CONTINUOUS
10
5.0632287007874011
20
-2.6480596062992126
11
5.0632287007874011
21
-2.6577510236220472
0
LINE
8
BLACK
6
CONTINUOUS
10
5.0444810629921255
20
-2.6575331496062993
11
5.0458298031496058
21
-2.6602306299212599
0
LINE
8
BLACK
6
CONTINUOUS
10
5.0458298031496058
20
-2.6602306299212599
11
5.0470269291338585
21
-2.6614277559055117
0
LINE
8
BLACK
6
CONTINUOUS
10
5.0470269291338585
20
-2.6614277559055117
11
5.0497244094488192
21
-2.662776496062992
0
LINE
8
BLACK
6
CONTINUOUS
10
5.0497244094488192
20
-2.662776496062992
11
5.0520798425196851
21
-2.662776496062992
0
LINE
8
BLACK
6
CONTINUOUS
10
5.0520798425196851
20
-2.662776496062992
11
5.0547773228346458
21
-2.6614277559055117
0
LINE
8
BLACK
6
CONTINUOUS
10
5.0547773228346458
20
-2.6614277559055117
11
5.0559744488188976
21
-2.6602306299212599
0
LINE
8
BLACK
6
CONTINUOUS
10
5.0559744488188976
20
-2.6602306299212599
11
5.0573231889763779
21
-2.6575331496062993
0
LINE
8
BLACK
6
CONTINUOUS
10
5.0573231889763779
20
-2.6575331496062993
11
5.0573231889763779
21
-2.6480596062992126
0
LINE
8
BLACK
6
CONTINUOUS
10
5.0573231889763779
20
-2.6480596062992126
11
5.0444810629921255
21
-2.6480596062992126
0
LINE
8
BLACK
6
CONTINUOUS
10
5.0444810629921255
20
-2.6480596062992126
11
5.0444810629921255
21
-2.6575331496062993
0
LINE
8
BLACK
6
CONTINUOUS
10
4.6445052362204722
20
-2.5860920078740155
11
4.6446850393700787
21
-2.5869959842519683
0
LINE
8
BLACK
6
CONTINUOUS
10
4.6446850393700787
20
-2.5869959842519683
11
4.6446850393700787
21
-2.6003818110236221
0
LINE
8
BLACK
6
CONTINUOUS
10
4.6446850393700787
20
-2.6003818110236221
11
4.658070866141732
21
-2.6003818110236221
0
LINE
8
BLACK
6
CONTINUOUS
10
4.658070866141732
20
-2.6003818110236221
11
4.6589748425196849
21
-2.6005616141732282
0
LINE
8
BLACK
6
CONTINUOUS
10
4.6589748425196849
20
-2.6005616141732282
11
4.6602532677165351
21
-2.6018400393700785
0
LINE
8
BLACK
6
CONTINUOUS
10
4.6602532677165351
20
-2.6018400393700785
11
4.6602532677165351
21
-2.6036479921259841
0
LINE
8
BLACK
6
CONTINUOUS
10
4.6602532677165351
20
-2.6036479921259841
11
4.6589748425196849
21
-2.6049264173228344
0
LINE
8
BLACK
6
CONTINUOUS
10
4.6589748425196849
20
-2.6049264173228344
11
4.658070866141732
21
-2.6051062204724409
0
LINE
8
BLACK
6
CONTINUOUS
10
4.658070866141732
20
-2.6051062204724409
11
4.6446850393700787
21
-2.6051062204724409
0
LINE
8
BLACK
6
CONTINUOUS
10
4.6446850393700787
20
-2.6051062204724409
11
4.6446850393700787
21
-2.6184920472440942
0
LINE
8
BLACK
6
CONTINUOUS
10
4.6446850393700787
20
-2.6184920472440942
11
4.6445052362204722
21
-2.619396023622047
0
LINE
8
BLACK
6
CONTINUOUS
10
4.6445052362204722
20
-2.619396023622047
11
4.6432268110236219
21
-2.6206744488188978
0
LINE
8
BLACK
6
CONTINUOUS
10
4.6432268110236219
20
-2.6206744488188978
11
4.6414188582677163
21
-2.6206744488188978
0
LINE
8
BLACK
6
CONTINUOUS
10
4.6414188582677163
20
-2.6206744488188978
11
4.640140433070866
21
-2.619396023622047
0
LINE
8
BLACK
6
CONTINUOUS
10
4.640140433070866
20
-2.619396023622047
11
4.6399606299212595
21
-2.6184920472440942
0
LINE
8
BLACK
6
CONTINUOUS
10
4.6399606299212595
20
-2.6184920472440942
11
4.6399606299212595
21
-2.6051062204724409
0
LINE
8
BLACK
6
CONTINUOUS
10
4.6399606299212595
20
-2.6051062204724409
11
4.6265748031496061
21
-2.6051062204724409
0
LINE
8
BLACK
6
CONTINUOUS
10
4.6265748031496061
20
-2.6051062204724409
11
4.6256708267716533
21
-2.6049264173228344
0
LINE
8
BLACK
6
CONTINUOUS
10
4.6256708267716533
20
-2.6049264173228344
11
4.624392401574803
21
-2.6036479921259841
0
LINE
8
BLACK
6
CONTINUOUS
10
4.624392401574803
20
-2.6036479921259841
11
4.624392401574803
21
-2.6018400393700785
0
LINE
8
BLACK
6
CONTINUOUS
10
4.624392401574803
20
-2.6018400393700785
11
4.6256708267716533
21
-2.6005616141732282
0
LINE
8
BLACK
6
CONTINUOUS
10
4.6256708267716533
20
-2.6005616141732282
11
4.6265748031496061
21
-2.6003818110236221
0
LINE
8
BLACK
6
CONTINUOUS
10
4.6265748031496061
20
-2.6003818110236221
11
4.6399606299212595
21
-2.6003818110236221
0
LINE
8
BLACK
6
CONTINUOUS
10
4.6399606299212595
20
-2.6003818110236221
11
4.6399606299212595
21
-2.5869959842519683
0
LINE
8
BLACK
6
CONTINUOUS
10
4.6399606299212595
20
-2.5869959842519683
11
4.640140433070866
21
-2.5860920078740155
0
LINE
8
BLACK
6
CONTINUOUS
10
4.640140433070866
20
-2.5860920078740155
11
4.6414188582677163
21
-2.5848135826771652
0
LINE
8
BLACK
6
CONTINUOUS
10
4.6414188582677163
20
-2.5848135826771652
11
4.6432268110236219
21
-2.5848135826771652
0
LINE
8
BLACK
6
CONTINUOUS
10
4.6432268110236219
20
-2.5848135826771652
11
4.6445052362204722
21
-2.5860920078740155
0
LINE
8
BLACK
6
CONTINUOUS
10
5.1439186614173229
20
-2.5026255118110234
11
5.1447333070866144
21
-2.5034401574803149
0
LINE
8
BLACK
6
CONTINUOUS
10
5.1447333070866144
20
-2.5034401574803149
11
5.145174212598425
21
-2.5045045669291337
0
LINE
8
BLACK
6
CONTINUOUS
10
5.145174212598425
20
-2.5045045669291337
11
5.1452309448818898
21
-2.5050806299212596
0
LINE
8
BLACK
6
CONTINUOUS
10
5.1452309448818898
20
-2.5050806299212596
11
5.1452309448818898
21
-2.5171259842519684
0
LINE
8
BLACK
6
CONTINUOUS
10
5.1452309448818898
20
-2.5171259842519684
11
5.157276338582677
21
-2.5171259842519684
0
LINE
8
BLACK
6
CONTINUOUS
10
5.157276338582677
20
-2.5171259842519684
11
5.1578524015748028
21
-2.5171827165354328
0
LINE
8
BLACK
6
CONTINUOUS
10
5.1578524015748028
20
-2.5171827165354328
11
5.1589168110236221
21
-2.5176236220472439
0
LINE
8
BLACK
6
CONTINUOUS
10
5.1589168110236221
20
-2.5176236220472439
11
5.1597314566929136
21
-2.5184382677165353
0
LINE
8
BLACK
6
CONTINUOUS
10
5.1597314566929136
20
-2.5184382677165353
11
5.1601723622047242
21
-2.5195026771653541
0
LINE
8
BLACK
6
CONTINUOUS
10
5.1601723622047242
20
-2.5195026771653541
11
5.1601723622047242
21
-2.5206548031496063
0
LINE
8
BLACK
6
CONTINUOUS
10
5.1601723622047242
20
-2.5206548031496063
11
5.1597314566929136
21
-2.5217192125984251
0
LINE
8
BLACK
6
CONTINUOUS
10
5.1597314566929136
20
-2.5217192125984251
11
5.1589168110236221
21
-2.5225338582677166
0
LINE
8
BLACK
6
CONTINUOUS
10
5.1589168110236221
20
-2.5225338582677166
11
5.1578524015748028
21
-2.5229747637795277
0
LINE
8
BLACK
6
CONTINUOUS
10
5.1578524015748028
20
-2.5229747637795277
11
5.157276338582677
21
-2.523031496062992
0
LINE
8
BLACK
6
CONTINUOUS
10
5.157276338582677
20
-2.523031496062992
11
5.1452309448818898
21
-2.523031496062992
0
LINE
8
BLACK
6
CONTINUOUS
10
5.1452309448818898
20
-2.523031496062992
11
5.1452309448818898
21
-2.5350768897637797
0
LINE
8
BLACK
6
CONTINUOUS
10
5.1452309448818898
20
-2.5350768897637797
11
5.145174212598425
21
-2.5356529527559055
0
LINE
8
BLACK
6
CONTINUOUS
10
5.145174212598425
20
-2.5356529527559055
11
5.1447333070866144
21
-2.5367173622047243
0
LINE
8
BLACK
6
CONTINUOUS
10
5.1447333070866144
20
-2.5367173622047243
11
5.1439186614173229
21
-2.5375320078740158
0
LINE
8
BLACK
6
CONTINUOUS
10
5.1439186614173229
20
-2.5375320078740158
11
5.1428542519685037
21
-2.5379729133858269
0
LINE
8
BLACK
6
CONTINUOUS
10
5.1428542519685037
20
-2.5379729133858269
11
5.1417021259842519
21
-2.5379729133858269
0
LINE
8
BLACK
6
CONTINUOUS
10
5.1417021259842519
20
-2.5379729133858269
11
5.1406377165354327
21
-2.5375320078740158
0
LINE
8
BLACK
6
CONTINUOUS
10
5.1406377165354327
20
-2.5375320078740158
11
5.1398230708661412
21
-2.5367173622047243
0
LINE
8
BLACK
6
CONTINUOUS
10
5.1398230708661412
20
-2.5367173622047243
11
5.1393821653543306
21
-2.5356529527559055
0
LINE
8
BLACK
6
CONTINUOUS
10
5.1393821653543306
20
-2.5356529527559055
11
5.1393254330708658
21
-2.5350768897637797
0
LINE
8
BLACK
6
CONTINUOUS
10
5.1393254330708658
20
-2.5350768897637797
11
5.1393254330708658
21
-2.523031496062992
0
LINE
8
BLACK
6
CONTINUOUS
10
5.1393254330708658
20
-2.523031496062992
11
5.1272800787401573
21
-2.523031496062992
0
LINE
8
BLACK
6
CONTINUOUS
10
5.1272800787401573
20
-2.523031496062992
11
5.1267040157480315
21
-2.5229747637795277
0
LINE
8
BLACK
6
CONTINUOUS
10
5.1267040157480315
20
-2.5229747637795277
11
5.1256396062992122
21
-2.5225338582677166
0
LINE
8
BLACK
6
CONTINUOUS
10
5.1256396062992122
20
-2.5225338582677166
11
5.1248249606299208
21
-2.5217192125984251
0
LINE
8
BLACK
6
CONTINUOUS
10
5.1248249606299208
20
-2.5217192125984251
11
5.1243840551181101
21
-2.5206548031496063
0
LINE
8
BLACK
6
CONTINUOUS
10
5.1243840551181101
20
-2.5206548031496063
11
5.1243840551181101
21
-2.5195026771653541
0
LINE
8
BLACK
6
CONTINUOUS
10
5.1243840551181101
20
-2.5195026771653541
11
5.1248249606299208
21
-2.5184382677165353
0
LINE
8
BLACK
6
CONTINUOUS
10
5.1248249606299208
20
-2.5184382677165353
11
5.1256396062992122
21
-2.5176236220472439
0
LINE
8
BLACK
6
CONTINUOUS
10
5.1256396062992122
20
-2.5176236220472439
11
5.1267040157480315
21
-2.5171827165354328
0
LINE
8
BLACK
6
CONTINUOUS
10
5.1267040157480315
20
-2.5171827165354328
11
5.1272800787401573
21
-2.5171259842519684
0
LINE
8
BLACK
6
CONTINUOUS
10
5.1272800787401573
20
-2.5171259842519684
11
5.1393254330708658
21
-2.5171259842519684
0
LINE
8
BLACK
6
CONTINUOUS
10
5.1393254330708658
20
-2.5171259842519684
11
5.1393254330708658
21
-2.5050806299212596
0
LINE
8
BLACK
6
CONTINUOUS
10
5.1393254330708658
20
-2.5050806299212596
11
5.1393821653543306
21
-2.5045045669291337
0
LINE
8
BLACK
6
CONTINUOUS
10
5.1393821653543306
20
-2.5045045669291337
11
5.1398230708661412
21
-2.5034401574803149
0
LINE
8
BLACK
6
CONTINUOUS
10
5.1398230708661412
20
-2.5034401574803149
11
5.1406377165354327
21
-2.5026255118110234
0
LINE
8
BLACK
6
CONTINUOUS
10
5.1406377165354327
20
-2.5026255118110234
11
5.1417021259842519
21
-2.5021846062992124
0
LINE
8
BLACK
6
CONTINUOUS
10
5.1417021259842519
20
-2.5021846062992124
11
5.1428542519685037
21
-2.5021846062992124
0
LINE
8
BLACK
6
CONTINUOUS
10
5.1428542519685037
20
-2.5021846062992124
11
5.1439186614173229
21
-2.5026255118110234
0
LINE
8
BLACK
6
CONTINUOUS
10
5.0678751968503937
20
-2.1292400787401573
11
5.0866833070866138
21
-2.1322190157480314
0
LINE
8
BLACK
6
CONTINUOUS
10
5.0866833070866138
20
-2.1322190157480314
11
5.1051997244094487
21
-2.136664409448819
0
LINE
8
BLACK
6
CONTINUOUS
10
5.1051997244094487
20
-2.136664409448819
11
5.1233102755905513
21
-2.1425488582677166
0
LINE
8
BLACK
6
CONTINUOUS
10
5.1233102755905513
20
-2.1425488582677166
11
5.1409033070866137
21
-2.1498361417322833
0
LINE
8
BLACK
6
CONTINUOUS
10
5.1409033070866137
20
-2.1498361417322833
11
5.1578703543307087
21
-2.1584812992125983
0
LINE
8
BLACK
6
CONTINUOUS
10
5.1578703543307087
20
-2.1584812992125983
11
5.1741068110236217
21
-2.1684309842519687
0
LINE
8
BLACK
6
CONTINUOUS
10
5.1741068110236217
20
-2.1684309842519687
11
5.1895125590551183
21
-2.1796239370078738
0
LINE
8
BLACK
6
CONTINUOUS
10
5.1895125590551183
20
-2.1796239370078738
11
5.2039926377952757
21
-2.191991062992126
0
LINE
8
BLACK
6
CONTINUOUS
10
5.2039926377952757
20
-2.191991062992126
11
5.217457755905512
21
-2.2054561811023623
0
LINE
8
BLACK
6
CONTINUOUS
10
5.217457755905512
20
-2.2054561811023623
11
5.2298248818897637
21
-2.2199362598425196
0
LINE
8
BLACK
6
CONTINUOUS
10
5.2298248818897637
20
-2.2199362598425196
11
5.2410178346456693
21
-2.2353420078740158
0
LINE
8
BLACK
6
CONTINUOUS
10
5.2410178346456693
20
-2.2353420078740158
11
5.2509675196850392
21
-2.2515784645669292
0
LINE
8
BLACK
6
CONTINUOUS
10
5.2509675196850392
20
-2.2515784645669292
11
5.2596126771653546
21
-2.2685455118110234
0
LINE
8
BLACK
6
CONTINUOUS
10
5.2596126771653546
20
-2.2685455118110234
11
5.2668999606299209
21
-2.2861385433070867
0
LINE
8
BLACK
6
CONTINUOUS
10
5.2668999606299209
20
-2.2861385433070867
11
5.2727844094488185
21
-2.3042490944881888
0
LINE
8
BLACK
6
CONTINUOUS
10
5.2727844094488185
20
-2.3042490944881888
11
5.2772298031496065
21
-2.3227655118110238
0
LINE
8
BLACK
6
CONTINUOUS
10
5.2772298031496065
20
-2.3227655118110238
11
5.2802087401574802
21
-2.3415736220472438
0
LINE
8
BLACK
6
CONTINUOUS
10
5.2802087401574802
20
-2.3415736220472438
11
5.2817027952755904
21
-2.3605574803149607
0
LINE
8
BLACK
6
CONTINUOUS
10
5.2817027952755904
20
-2.3605574803149607
11
5.2817027952755904
21
-2.3795999999999999
0
LINE
8
BLACK
6
CONTINUOUS
10
5.2817027952755904
20
-2.3795999999999999
11
5.2802087401574802
21
-2.3985838582677164
0
LINE
8
BLACK
6
CONTINUOUS
10
5.2802087401574802
20
-2.3985838582677164
11
5.2772298031496065
21
-2.4173919685039369
0
LINE
8
BLACK
6
CONTINUOUS
10
5.2772298031496065
20
-2.4173919685039369
11
5.2727844094488185
21
-2.4359083858267714
0
LINE
8
BLACK
6
CONTINUOUS
10
5.2727844094488185
20
-2.4359083858267714
11
5.2668999606299209
21
-2.454018937007874
0
LINE
8
BLACK
6
CONTINUOUS
10
5.2668999606299209
20
-2.454018937007874
11
5.2596126771653546
21
-2.4716119685039368
0
LINE
8
BLACK
6
CONTINUOUS
10
5.2596126771653546
20
-2.4716119685039368
11
5.2509675196850392
21
-2.4885790157480314
0
LINE
8
BLACK
6
CONTINUOUS
10
5.2509675196850392
20
-2.4885790157480314
11
5.2410178346456693
21
-2.5048154724409448
0
LINE
8
BLACK
6
CONTINUOUS
10
5.2410178346456693
20
-2.5048154724409448
11
5.2298248818897637
21
-2.520221220472441
0
LINE
8
BLACK
6
CONTINUOUS
10
5.2298248818897637
20
-2.520221220472441
11
5.217457755905512
21
-2.5347012992125983
0
LINE
8
BLACK
6
CONTINUOUS
10
5.217457755905512
20
-2.5347012992125983
11
5.2039926377952757
21
-2.5481664173228347
0
LINE
8
BLACK
6
CONTINUOUS
10
5.2039926377952757
20
-2.5481664173228347
11
5.1895125590551183
21
-2.5605335433070864
0
LINE
8
BLACK
6
CONTINUOUS
10
5.1895125590551183
20
-2.5605335433070864
11
5.1741068110236217
21
-2.571726496062992
0
LINE
8
BLACK
6
CONTINUOUS
10
5.1741068110236217
20
-2.571726496062992
11
5.1578703543307087
21
-2.5816761811023623
0
LINE
8
BLACK
6
CONTINUOUS
10
5.1578703543307087
20
-2.5816761811023623
11
5.1409033070866137
21
-2.5903213385826773
0
LINE
8
BLACK
6
CONTINUOUS
10
5.1409033070866137
20
-2.5903213385826773
11
5.1233102755905513
21
-2.5976086220472441
0
LINE
8
BLACK
6
CONTINUOUS
10
5.1233102755905513
20
-2.5976086220472441
11
5.1051997244094487
21
-2.6034930708661417
0
LINE
8
BLACK
6
CONTINUOUS
10
5.1051997244094487
20
-2.6034930708661417
11
5.0866833070866138
21
-2.6079384645669292
0
LINE
8
BLACK
6
CONTINUOUS
10
5.0866833070866138
20
-2.6079384645669292
11
5.0678751968503937
21
-2.6109174015748029
0
LINE
8
BLACK
6
CONTINUOUS
10
5.0678751968503937
20
-2.6109174015748029
11
5.0488913385826768
21
-2.6124114566929135
0
LINE
8
BLACK
6
CONTINUOUS
10
5.0488913385826768
20
-2.6124114566929135
11
5.029848818897638
21
-2.6124114566929135
0
LINE
8
BLACK
6
CONTINUOUS
10
5.029848818897638
20
-2.6124114566929135
11
5.0108649606299211
21
-2.6109174015748029
0
LINE
8
BLACK
6
CONTINUOUS
10
5.0108649606299211
20
-2.6109174015748029
11
4.9920568503937011
21
-2.6079384645669292
0
LINE
8
BLACK
6
CONTINUOUS
10
4.9920568503937011
20
-2.6079384645669292
11
4.9735404330708661
21
-2.6034930708661417
0
LINE
8
BLACK
6
CONTINUOUS
10
4.9735404330708661
20
-2.6034930708661417
11
4.9554298818897635
21
-2.5976086220472441
0
LINE
8
BLACK
6
CONTINUOUS
10
4.9554298818897635
20
-2.5976086220472441
11
4.9378368503937002
21
-2.5903213385826773
0
LINE
8
BLACK
6
CONTINUOUS
10
4.9378368503937002
20
-2.5903213385826773
11
4.9208698031496061
21
-2.5816761811023623
0
LINE
8
BLACK
6
CONTINUOUS
10
4.9208698031496061
20
-2.5816761811023623
11
4.9046333464566931
21
-2.571726496062992
0
LINE
8
BLACK
6
CONTINUOUS
10
4.9046333464566931
20
-2.571726496062992
11
4.8892275984251965
21
-2.5605335433070864
0
LINE
8
BLACK
6
CONTINUOUS
10
4.8892275984251965
20
-2.5605335433070864
11
4.8747475196850392
21
-2.5481664173228347
0
LINE
8
BLACK
6
CONTINUOUS
10
4.8747475196850392
20
-2.5481664173228347
11
4.8612824015748028
21
-2.5347012992125983
0
LINE
8
BLACK
6
CONTINUOUS
10
4.8612824015748028
20
-2.5347012992125983
11
4.8489152755905511
21
-2.520221220472441
0
LINE
8
BLACK
6
CONTINUOUS
10
4.8489152755905511
20
-2.520221220472441
11
4.8377223228346455
21
-2.5048154724409448
0
LINE
8
BLACK
6
CONTINUOUS
10
4.8377223228346455
20
-2.5048154724409448
11
4.8277726377952757
21
-2.4885790157480314
0
LINE
8
BLACK
6
CONTINUOUS
10
4.8277726377952757
20
-2.4885790157480314
11
4.8191274803149602
21
-2.4716119685039368
0
LINE
8
BLACK
6
CONTINUOUS
10
4.8191274803149602
20
-2.4716119685039368
11
4.8118401968503939
21
-2.454018937007874
0
LINE
8
BLACK
6
CONTINUOUS
10
4.8118401968503939
20
-2.454018937007874
11
4.8059557480314963
21
-2.4359083858267714
0
LINE
8
BLACK
6
CONTINUOUS
10
4.8059557480314963
20
-2.4359083858267714
11
4.8015103543307083
21
-2.4173919685039369
0
LINE
8
BLACK
6
CONTINUOUS
10
4.8015103543307083
20
-2.4173919685039369
11
4.7985314173228346
21
-2.3985838582677164
0
LINE
8
BLACK
6
CONTINUOUS
10
4.7985314173228346
20
-2.3985838582677164
11
4.7970373622047244
21
-2.3795999999999999
0
LINE
8
BLACK
6
CONTINUOUS
10
4.7970373622047244
20
-2.3795999999999999
11
4.7970373622047244
21
-2.3607357480314959
0
LINE
8
BLACK
6
CONTINUOUS
10
4.7970373622047244
20
-2.3607357480314959
11
4.7970373622047244
21
-2.3605574803149607
0
LINE
8
BLACK
6
CONTINUOUS
10
4.7970373622047244
20
-2.3605574803149607
11
4.7985314173228346
21
-2.3415736220472438
0
LINE
8
BLACK
6
CONTINUOUS
10
4.7985314173228346
20
-2.3415736220472438
11
4.8015103543307083
21
-2.3227655118110238
0
LINE
8
BLACK
6
CONTINUOUS
10
4.8015103543307083
20
-2.3227655118110238
11
4.8059557480314963
21
-2.3042490944881888
0
LINE
8
BLACK
6
CONTINUOUS
10
4.8059557480314963
20
-2.3042490944881888
11
4.8118401968503939
21
-2.2861385433070867
0
LINE
8
BLACK
6
CONTINUOUS
10
4.8118401968503939
20
-2.2861385433070867
11
4.8191274803149602
21
-2.2685455118110234
0
LINE
8
BLACK
6
CONTINUOUS
10
4.8191274803149602
20
-2.2685455118110234
11
4.8277726377952757
21
-2.2515784645669292
0
LINE
8
BLACK
6
CONTINUOUS
10
4.8277726377952757
20
-2.2515784645669292
11
4.8377223228346455
21
-2.2353420078740158
0
LINE
8
BLACK
6
CONTINUOUS
10
4.8377223228346455
20
-2.2353420078740158
11
4.8489152755905511
21
-2.2199362598425196
0
LINE
8
BLACK
6
CONTINUOUS
10
4.8489152755905511
20
-2.2199362598425196
11
4.8612824015748028
21
-2.2054561811023623
0
LINE
8
BLACK
6
CONTINUOUS
10
4.8612824015748028
20
-2.2054561811023623
11
4.8747475196850392
21
-2.191991062992126
0
LINE
8
BLACK
6
CONTINUOUS
10
4.8747475196850392
20
-2.191991062992126
11
4.8892275984251965
21
-2.1796239370078738
0
LINE
8
BLACK
6
CONTINUOUS
10
4.8892275984251965
20
-2.1796239370078738
11
4.9046333464566931
21
-2.1684309842519687
0
LINE
8
BLACK
6
CONTINUOUS
10
4.9046333464566931
20
-2.1684309842519687
11
4.9208698031496061
21
-2.1584812992125983
0
LINE
8
BLACK
6
CONTINUOUS
10
4.9208698031496061
20
-2.1584812992125983
11
4.9378368503937002
21
-2.1498361417322833
0
LINE
8
BLACK
6
CONTINUOUS
10
4.9378368503937002
20
-2.1498361417322833
11
4.9554298818897635
21
-2.1425488582677166
0
LINE
8
BLACK
6
CONTINUOUS
10
4.9554298818897635
20
-2.1425488582677166
11
4.9735404330708661
21
-2.136664409448819
0
LINE
8
BLACK
6
CONTINUOUS
10
4.9735404330708661
20
-2.136664409448819
11
4.9920568503937011
21
-2.1322190157480314
0
LINE
8
BLACK
6
CONTINUOUS
10
4.9920568503937011
20
-2.1322190157480314
11
5.0108649606299211
21
-2.1292400787401573
0
LINE
8
BLACK
6
CONTINUOUS
10
5.0108649606299211
20
-2.1292400787401573
11
5.029848818897638
21
-2.1277460236220471
0
LINE
8
BLACK
6
CONTINUOUS
10
5.029848818897638
20
-2.1277460236220471
11
5.0488913385826768
21
-2.1277460236220471
0
LINE
8
BLACK
6
CONTINUOUS
10
5.0488913385826768
20
-2.1277460236220471
11
5.0678751968503937
21
-2.1292400787401573
0
LINE
8
BLACK
6
CONTINUOUS
10
4.8015748031496059
20
-2.3794217322834643
11
4.8030409055118106
21
-2.398050157480315
0
LINE
8
BLACK
6
CONTINUOUS
10
4.8030409055118106
20
-2.398050157480315
11
4.8059640157480317
21
-2.4165061023622045
0
LINE
8
BLACK
6
CONTINUOUS
10
4.8059640157480317
20
-2.4165061023622045
11
4.8103261811023623
21
-2.4346757874015745
0
LINE
8
BLACK
6
CONTINUOUS
10
4.8103261811023623
20
-2.4346757874015745
11
4.8161004724409446
21
-2.452447244094488
0
LINE
8
BLACK
6
CONTINUOUS
10
4.8161004724409446
20
-2.452447244094488
11
4.8232512992125987
21
-2.4697108661417322
0
LINE
8
BLACK
6
CONTINUOUS
10
4.8232512992125987
20
-2.4697108661417322
11
4.8317345669291338
21
-2.4863601968503937
0
LINE
8
BLACK
6
CONTINUOUS
10
4.8317345669291338
20
-2.4863601968503937
11
4.8414979921259844
21
-2.5022926377952754
0
LINE
8
BLACK
6
CONTINUOUS
10
4.8414979921259844
20
-2.5022926377952754
11
4.8524813385826775
21
-2.5174099212598424
0
LINE
8
BLACK
6
CONTINUOUS
10
4.8524813385826775
20
-2.5174099212598424
11
4.8646169291338586
21
-2.5316188976377951
0
LINE
8
BLACK
6
CONTINUOUS
10
4.8646169291338586
20
-2.5316188976377951
11
4.8778299212598428
21
-2.5448318897637794
0
LINE
8
BLACK
6
CONTINUOUS
10
4.8778299212598428
20
-2.5448318897637794
11
4.8920388976377955
21
-2.5569674803149605
0
LINE
8
BLACK
6
CONTINUOUS
10
4.8920388976377955
20
-2.5569674803149605
11
4.9071561811023621
21
-2.5679508267716535
0
LINE
8
BLACK
6
CONTINUOUS
10
4.9071561811023621
20
-2.5679508267716535
11
4.9230886220472438
21
-2.5777142519685037
0
LINE
8
BLACK
6
CONTINUOUS
10
4.9230886220472438
20
-2.5777142519685037
11
4.9397379527559053
21
-2.5861975196850393
0
LINE
8
BLACK
6
CONTINUOUS
10
4.9397379527559053
20
-2.5861975196850393
11
4.9570015748031491
21
-2.5933483464566929
0
LINE
8
BLACK
6
CONTINUOUS
10
4.9570015748031491
20
-2.5933483464566929
11
4.9747730314960625
21
-2.5991226377952756
0
LINE
8
BLACK
6
CONTINUOUS
10
4.9747730314960625
20
-2.5991226377952756
11
4.992942716535433
21
-2.6034848031496063
0
LINE
8
BLACK
6
CONTINUOUS
10
4.992942716535433
20
-2.6034848031496063
11
5.0113986614173225
21
-2.6064079133858269
0
LINE
8
BLACK
6
CONTINUOUS
10
5.0113986614173225
20
-2.6064079133858269
11
5.0300270866141732
21
-2.6078740157480316
0
LINE
8
BLACK
6
CONTINUOUS
10
5.0300270866141732
20
-2.6078740157480316
11
5.0487130708661416
21
-2.6078740157480316
0
LINE
8
BLACK
6
CONTINUOUS
10
5.0487130708661416
20
-2.6078740157480316
11
5.0673414960629923
21
-2.6064079133858269
0
LINE
8
BLACK
6
CONTINUOUS
10
5.0673414960629923
20
-2.6064079133858269
11
5.0857974409448818
21
-2.6034848031496063
0
LINE
8
BLACK
6
CONTINUOUS
10
5.0857974409448818
20
-2.6034848031496063
11
5.1039671259842523
21
-2.5991226377952756
0
LINE
8
BLACK
6
CONTINUOUS
10
5.1039671259842523
20
-2.5991226377952756
11
5.1217385826771649
21
-2.5933483464566929
0
LINE
8
BLACK
6
CONTINUOUS
10
5.1217385826771649
20
-2.5933483464566929
11
5.1390022047244095
21
-2.5861975196850393
0
LINE
8
BLACK
6
CONTINUOUS
10
5.1390022047244095
20
-2.5861975196850393
11
5.155651535433071
21
-2.5777142519685037
0
LINE
8
BLACK
6
CONTINUOUS
10
5.155651535433071
20
-2.5777142519685037
11
5.1715839763779528
21
-2.5679508267716535
0
LINE
8
BLACK
6
CONTINUOUS
10
5.1715839763779528
20
-2.5679508267716535
11
5.1867012598425193
21
-2.5569674803149605
0
LINE
8
BLACK
6
CONTINUOUS
10
5.1867012598425193
20
-2.5569674803149605
11
5.200910236220472
21
-2.5448318897637794
0
LINE
8
BLACK
6
CONTINUOUS
10
5.200910236220472
20
-2.5448318897637794
11
5.2141232283464563
21
-2.5316188976377951
0
LINE
8
BLACK
6
CONTINUOUS
10
5.2141232283464563
20
-2.5316188976377951
11
5.2262588188976373
21
-2.5174099212598424
0
LINE
8
BLACK
6
CONTINUOUS
10
5.2262588188976373
20
-2.5174099212598424
11
5.2372421653543304
21
-2.5022926377952754
0
LINE
8
BLACK
6
CONTINUOUS
10
5.2372421653543304
20
-2.5022926377952754
11
5.247005590551181
21
-2.4863601968503937
0
LINE
8
BLACK
6
CONTINUOUS
10
5.247005590551181
20
-2.4863601968503937
11
5.2554888582677162
21
-2.4697108661417322
0
LINE
8
BLACK
6
CONTINUOUS
10
5.2554888582677162
20
-2.4697108661417322
11
5.2626396850393702
21
-2.452447244094488
0
LINE
8
BLACK
6
CONTINUOUS
10
5.2626396850393702
20
-2.452447244094488
11
5.2684139763779525
21
-2.4346757874015745
0
LINE
8
BLACK
6
CONTINUOUS
10
5.2684139763779525
20
-2.4346757874015745
11
5.2727761417322832
21
-2.4165061023622045
0
LINE
8
BLACK
6
CONTINUOUS
10
5.2727761417322832
20
-2.4165061023622045
11
5.2756992519685042
21
-2.398050157480315
0
LINE
8
BLACK
6
CONTINUOUS
10
5.2756992519685042
20
-2.398050157480315
11
5.2771653543307089
21
-2.3794217322834643
0
LINE
8
BLACK
6
CONTINUOUS
10
5.2771653543307089
20
-2.3794217322834643
11
5.2771653543307089
21
-2.3607357480314959
0
LINE
8
BLACK
6
CONTINUOUS
10
5.2771653543307089
20
-2.3607357480314959
11
5.2756992519685042
21
-2.3421073228346456
0
LINE
8
BLACK
6
CONTINUOUS
10
5.2756992519685042
20
-2.3421073228346456
11
5.2727761417322832
21
-2.3236513779527557
0
LINE
8
BLACK
6
CONTINUOUS
10
5.2727761417322832
20
-2.3236513779527557
11
5.2684139763779525
21
-2.3054816929133857
0
LINE
8
BLACK
6
CONTINUOUS
10
5.2684139763779525
20
-2.3054816929133857
11
5.2626396850393702
21
-2.2877102362204722
0
LINE
8
BLACK
6
CONTINUOUS
10
5.2626396850393702
20
-2.2877102362204722
11
5.2554888582677162
21
-2.2704466141732285
0
LINE
8
BLACK
6
CONTINUOUS
10
5.2554888582677162
20
-2.2704466141732285
11
5.247005590551181
21
-2.253797283464567
0
LINE
8
BLACK
6
CONTINUOUS
10
5.247005590551181
20
-2.253797283464567
11
5.2372421653543304
21
-2.2378648425196852
0
LINE
8
BLACK
6
CONTINUOUS
10
5.2372421653543304
20
-2.2378648425196852
11
5.2262588188976373
21
-2.2227475590551182
0
LINE
8
BLACK
6
CONTINUOUS
10
5.2262588188976373
20
-2.2227475590551182
11
5.2141232283464563
21
-2.2085385826771655
0
LINE
8
BLACK
6
CONTINUOUS
10
5.2141232283464563
20
-2.2085385826771655
11
5.200910236220472
21
-2.1953255905511813
0
LINE
8
BLACK
6
CONTINUOUS
10
5.200910236220472
20
-2.1953255905511813
11
5.1867012598425193
21
-2.1831899999999997
0
LINE
8
BLACK
6
CONTINUOUS
10
5.1867012598425193
20
-2.1831899999999997
11
5.1715839763779528
21
-2.1722066535433071
0
LINE
8
BLACK
6
CONTINUOUS
10
5.1715839763779528
20
-2.1722066535433071
11
5.155651535433071
21
-2.1624432283464565
0
LINE
8
BLACK
6
CONTINUOUS
10
5.155651535433071
20
-2.1624432283464565
11
5.1390022047244095
21
-2.1539599606299213
0
LINE
8
BLACK
6
CONTINUOUS
10
5.1390022047244095
20
-2.1539599606299213
11
5.1217385826771649
21
-2.1468091338582678
0
LINE
8
BLACK
6
CONTINUOUS
10
5.1217385826771649
20
-2.1468091338582678
11
5.1039671259842523
21
-2.141034842519685
0
LINE
8
BLACK
6
CONTINUOUS
10
5.1039671259842523
20
-2.141034842519685
11
5.0857974409448818
21
-2.1366726771653544
0
LINE
8
BLACK
6
CONTINUOUS
10
5.0857974409448818
20
-2.1366726771653544
11
5.0673414960629923
21
-2.1337495669291338
0
LINE
8
BLACK
6
CONTINUOUS
10
5.0673414960629923
20
-2.1337495669291338
11
5.0487130708661416
21
-2.1322834645669291
0
LINE
8
BLACK
6
CONTINUOUS
10
5.0487130708661416
20
-2.1322834645669291
11
5.0300270866141732
21
-2.1322834645669291
0
LINE
8
BLACK
6
CONTINUOUS
10
5.0300270866141732
20
-2.1322834645669291
11
5.0113986614173225
21
-2.1337495669291338
0
LINE
8
BLACK
6
CONTINUOUS
10
5.0113986614173225
20
-2.1337495669291338
11
4.992942716535433
21
-2.1366726771653544
0
LINE
8
BLACK
6
CONTINUOUS
10
4.992942716535433
20
-2.1366726771653544
11
4.9747730314960625
21
-2.141034842519685
0
LINE
8
BLACK
6
CONTINUOUS
10
4.9747730314960625
20
-2.141034842519685
11
4.9570015748031491
21
-2.1468091338582678
0
LINE
8
BLACK
6
CONTINUOUS
10
4.9570015748031491
20
-2.1468091338582678
11
4.9397379527559053
21
-2.1539599606299213
0
LINE
8
BLACK
6
CONTINUOUS
10
4.9397379527559053
20
-2.1539599606299213
11
4.9230886220472438
21
-2.1624432283464565
0
LINE
8
BLACK
6
CONTINUOUS
10
4.9230886220472438
20
-2.1624432283464565
11
4.9071561811023621
21
-2.1722066535433071
0
LINE
8
BLACK
6
CONTINUOUS
10
4.9071561811023621
20
-2.1722066535433071
11
4.8920388976377955
21
-2.1831899999999997
0
LINE
8
BLACK
6
CONTINUOUS
10
4.8920388976377955
20
-2.1831899999999997
11
4.8778299212598428
21
-2.1953255905511813
0
LINE
8
BLACK
6
CONTINUOUS
10
4.8778299212598428
20
-2.1953255905511813
11
4.8646169291338586
21
-2.2085385826771655
0
LINE
8
BLACK
6
CONTINUOUS
10
4.8646169291338586
20
-2.2085385826771655
11
4.8524813385826775
21
-2.2227475590551182
0
LINE
8
BLACK
6
CONTINUOUS
10
4.8524813385826775
20
-2.2227475590551182
11
4.8414979921259844
21
-2.2378648425196852
0
LINE
8
BLACK
6
CONTINUOUS
10
4.8414979921259844
20
-2.2378648425196852
11
4.8317345669291338
21
-2.253797283464567
0
LINE
8
BLACK
6
CONTINUOUS
10
4.8317345669291338
20
-2.253797283464567
11
4.8232512992125987
21
-2.2704466141732285
0
LINE
8
BLACK
6
CONTINUOUS
10
4.8232512992125987
20
-2.2704466141732285
11
4.8161004724409446
21
-2.2877102362204722
0
LINE
8
BLACK
6
CONTINUOUS
10
4.8161004724409446
20
-2.2877102362204722
11
4.8103261811023623
21
-2.3054816929133857
0
LINE
8
BLACK
6
CONTINUOUS
10
4.8103261811023623
20
-2.3054816929133857
11
4.8059640157480317
21
-2.3236513779527557
0
LINE
8
BLACK
6
CONTINUOUS
10
4.8059640157480317
20
-2.3236513779527557
11
4.8030409055118106
21
-2.3421073228346456
0
LINE
8
BLACK
6
CONTINUOUS
10
4.8030409055118106
20
-2.3421073228346456
11
4.8015748031496059
21
-2.3607357480314959
0
LINE
8
BLACK
6
CONTINUOUS
10
4.8015748031496059
20
-2.3607357480314959
11
4.8015748031496059
21
-2.3794217322834643
0
LINE
8
BLACK
6
CONTINUOUS
10
4.5753280708661412
20
-2.2820961417322834
11
4.5911675984251969
21
-2.2852468110236219
0
LINE
8
BLACK
6
CONTINUOUS
10
4.5911675984251969
20
-2.2852468110236219
11
4.6066220472440946
21
-2.2899348818897636
0
LINE
8
BLACK
6
CONTINUOUS
10
4.6066220472440946
20
-2.2899348818897636
11
4.6215425196850397
21
-2.2961151574803149
0
LINE
8
BLACK
6
CONTINUOUS
10
4.6215425196850397
20
-2.2961151574803149
11
4.6357853937007869
21
-2.3037281102362206
0
LINE
8
BLACK
6
CONTINUOUS
10
4.6357853937007869
20
-2.3037281102362206
11
4.6492135039370082
21
-2.3127005118110238
0
LINE
8
BLACK
6
CONTINUOUS
10
4.6492135039370082
20
-2.3127005118110238
11
4.6616974803149605
21
-2.3229458267716536
0
LINE
8
BLACK
6
CONTINUOUS
10
4.6616974803149605
20
-2.3229458267716536
11
4.6731171653543306
21
-2.3343655118110234
0
LINE
8
BLACK
6
CONTINUOUS
10
4.6731171653543306
20
-2.3343655118110234
11
4.6833624803149609
21
-2.3468494881889765
0
LINE
8
BLACK
6
CONTINUOUS
10
4.6833624803149609
20
-2.3468494881889765
11
4.6923348818897637
21
-2.3602775984251969
0
LINE
8
BLACK
6
CONTINUOUS
10
4.6923348818897637
20
-2.3602775984251969
11
4.6999478346456689
21
-2.374520472440945
0
LINE
8
BLACK
6
CONTINUOUS
10
4.6999478346456689
20
-2.374520472440945
11
4.7061281102362207
21
-2.3894409448818896
0
LINE
8
BLACK
6
CONTINUOUS
10
4.7061281102362207
20
-2.3894409448818896
11
4.7108161811023619
21
-2.4048953937007873
0
LINE
8
BLACK
6
CONTINUOUS
10
4.7108161811023619
20
-2.4048953937007873
11
4.7139668503937004
21
-2.4207349212598426
0
LINE
8
BLACK
6
CONTINUOUS
10
4.7139668503937004
20
-2.4207349212598426
11
4.7155498031496066
21
-2.4368069685039369
0
LINE
8
BLACK
6
CONTINUOUS
10
4.7155498031496066
20
-2.4368069685039369
11
4.7155498031496066
21
-2.452956811023622
0
LINE
8
BLACK
6
CONTINUOUS
10
4.7155498031496066
20
-2.452956811023622
11
4.7139668503937004
21
-2.4690288582677167
0
LINE
8
BLACK
6
CONTINUOUS
10
4.7139668503937004
20
-2.4690288582677167
11
4.7108161811023619
21
-2.4848683858267715
0
LINE
8
BLACK
6
CONTINUOUS
10
4.7108161811023619
20
-2.4848683858267715
11
4.7061281102362207
21
-2.5003228346456692
0
LINE
8
BLACK
6
CONTINUOUS
10
4.7061281102362207
20
-2.5003228346456692
11
4.6999478346456689
21
-2.5152433070866143
0
LINE
8
BLACK
6
CONTINUOUS
10
4.6999478346456689
20
-2.5152433070866143
11
4.6923348818897637
21
-2.5294861811023623
0
LINE
8
BLACK
6
CONTINUOUS
10
4.6923348818897637
20
-2.5294861811023623
11
4.6833624803149609
21
-2.5429142913385827
0
LINE
8
BLACK
6
CONTINUOUS
10
4.6833624803149609
20
-2.5429142913385827
11
4.6731171653543306
21
-2.5553982677165354
0
LINE
8
BLACK
6
CONTINUOUS
10
4.6731171653543306
20
-2.5553982677165354
11
4.6616974803149605
21
-2.5668179527559056
0
LINE
8
BLACK
6
CONTINUOUS
10
4.6616974803149605
20
-2.5668179527559056
11
4.6492135039370082
21
-2.5770632677165355
0
LINE
8
BLACK
6
CONTINUOUS
10
4.6492135039370082
20
-2.5770632677165355
11
4.6357853937007869
21
-2.5860356692913387
0
LINE
8
BLACK
6
CONTINUOUS
10
4.6357853937007869
20
-2.5860356692913387
11
4.6215425196850397
21
-2.5936486220472439
0
LINE
8
BLACK
6
CONTINUOUS
10
4.6215425196850397
20
-2.5936486220472439
11
4.6066220472440946
21
-2.5998288976377952
0
LINE
8
BLACK
6
CONTINUOUS
10
4.6066220472440946
20
-2.5998288976377952
11
4.5911675984251969
21
-2.6045169685039369
0
LINE
8
BLACK
6
CONTINUOUS
10
4.5911675984251969
20
-2.6045169685039369
11
4.5753280708661412
21
-2.6076676377952754
0
LINE
8
BLACK
6
CONTINUOUS
10
4.5753280708661412
20
-2.6076676377952754
11
4.559256023622047
21
-2.6092505905511811
0
LINE
8
BLACK
6
CONTINUOUS
10
4.559256023622047
20
-2.6092505905511811
11
4.5431061811023623
21
-2.6092505905511811
0
LINE
8
BLACK
6
CONTINUOUS
10
4.5431061811023623
20
-2.6092505905511811
11
4.527034133858268
21
-2.6076676377952754
0
LINE
8
BLACK
6
CONTINUOUS
10
4.527034133858268
20
-2.6076676377952754
11
4.5111946062992123
21
-2.6045169685039369
0
LINE
8
BLACK
6
CONTINUOUS
10
4.5111946062992123
20
-2.6045169685039369
11
4.4957401574803146
21
-2.5998288976377952
0
LINE
8
BLACK
6
CONTINUOUS
10
4.4957401574803146
20
-2.5998288976377952
11
4.4808196850393696
21
-2.5936486220472439
0
LINE
8
BLACK
6
CONTINUOUS
10
4.4808196850393696
20
-2.5936486220472439
11
4.4665768110236224
21
-2.5860356692913387
0
LINE
8
BLACK
6
CONTINUOUS
10
4.4665768110236224
20
-2.5860356692913387
11
4.4531487007874011
21
-2.5770632677165355
0
LINE
8
BLACK
6
CONTINUOUS
10
4.4531487007874011
20
-2.5770632677165355
11
4.4406647244094488
21
-2.5668179527559056
0
LINE
8
BLACK
6
CONTINUOUS
10
4.4406647244094488
20
-2.5668179527559056
11
4.4292450393700786
21
-2.5553982677165354
0
LINE
8
BLACK
6
CONTINUOUS
10
4.4292450393700786
20
-2.5553982677165354
11
4.4189997244094483
21
-2.5429142913385827
0
LINE
8
BLACK
6
CONTINUOUS
10
4.4189997244094483
20
-2.5429142913385827
11
4.4100273228346456
21
-2.5294861811023623
0
LINE
8
BLACK
6
CONTINUOUS
10
4.4100273228346456
20
-2.5294861811023623
11
4.4024143700787404
21
-2.5152433070866143
0
LINE
8
BLACK
6
CONTINUOUS
10
4.4024143700787404
20
-2.5152433070866143
11
4.3962340944881886
21
-2.5003228346456692
0
LINE
8
BLACK
6
CONTINUOUS
10
4.3962340944881886
20
-2.5003228346456692
11
4.3915460236220474
21
-2.4848683858267715
0
LINE
8
BLACK
6
CONTINUOUS
10
4.3915460236220474
20
-2.4848683858267715
11
4.3883953543307088
21
-2.4690288582677167
0
LINE
8
BLACK
6
CONTINUOUS
10
4.3883953543307088
20
-2.4690288582677167
11
4.3868124015748027
21
-2.452956811023622
0
LINE
8
BLACK
6
CONTINUOUS
10
4.3868124015748027
20
-2.452956811023622
11
4.3868124015748027
21
-2.4370293307086612
0
LINE
8
BLACK
6
CONTINUOUS
10
4.3868124015748027
20
-2.4370293307086612
11
4.3868124015748027
21
-2.4368069685039369
0
LINE
8
BLACK
6
CONTINUOUS
10
4.3868124015748027
20
-2.4368069685039369
11
4.3883953543307088
21
-2.4207349212598426
0
LINE
8
BLACK
6
CONTINUOUS
10
4.3883953543307088
20
-2.4207349212598426
11
4.3915460236220474
21
-2.4048953937007873
0
LINE
8
BLACK
6
CONTINUOUS
10
4.3915460236220474
20
-2.4048953937007873
11
4.3962340944881886
21
-2.3894409448818896
0
LINE
8
BLACK
6
CONTINUOUS
10
4.3962340944881886
20
-2.3894409448818896
11
4.4024143700787404
21
-2.374520472440945
0
LINE
8
BLACK
6
CONTINUOUS
10
4.4024143700787404
20
-2.374520472440945
11
4.4100273228346456
21
-2.3602775984251969
0
LINE
8
BLACK
6
CONTINUOUS
10
4.4100273228346456
20
-2.3602775984251969
11
4.4189997244094483
21
-2.3468494881889765
0
LINE
8
BLACK
6
CONTINUOUS
10
4.4189997244094483
20
-2.3468494881889765
11
4.4292450393700786
21
-2.3343655118110234
0
LINE
8
BLACK
6
CONTINUOUS
10
4.4292450393700786
20
-2.3343655118110234
11
4.4406647244094488
21
-2.3229458267716536
0
LINE
8
BLACK
6
CONTINUOUS
10
4.4406647244094488
20
-2.3229458267716536
11
4.4531487007874011
21
-2.3127005118110238
0
LINE
8
BLACK
6
CONTINUOUS
10
4.4531487007874011
20
-2.3127005118110238
11
4.4665768110236224
21
-2.3037281102362206
0
LINE
8
BLACK
6
CONTINUOUS
10
4.4665768110236224
20
-2.3037281102362206
11
4.4808196850393696
21
-2.2961151574803149
0
LINE
8
BLACK
6
CONTINUOUS
10
4.4808196850393696
20
-2.2961151574803149
11
4.4957401574803146
21
-2.2899348818897636
0
LINE
8
BLACK
6
CONTINUOUS
10
4.4957401574803146
20
-2.2899348818897636
11
4.5111946062992123
21
-2.2852468110236219
0
LINE
8
BLACK
6
CONTINUOUS
10
4.5111946062992123
20
-2.2852468110236219
11
4.527034133858268
21
-2.2820961417322834
0
LINE
8
BLACK
6
CONTINUOUS
10
4.527034133858268
20
-2.2820961417322834
11
4.5431061811023623
21
-2.2805131889763781
0
LINE
8
BLACK
6
CONTINUOUS
10
4.5431061811023623
20
-2.2805131889763781
11
4.559256023622047
21
-2.2805131889763781
0
LINE
8
BLACK
6
CONTINUOUS
10
4.559256023622047
20
-2.2805131889763781
11
4.5753280708661412
21
-2.2820961417322834
0
LINE
8
BLACK
6
CONTINUOUS
10
4.3913385826771654
20
-2.4472440944881888
11
4.3913385826771654
21
-2.4527344488188976
0
LINE
8
BLACK
6
CONTINUOUS
10
4.3913385826771654
20
-2.4527344488188976
11
4.3928779527559056
21
-2.468363937007874
0
LINE
8
BLACK
6
CONTINUOUS
10
4.3928779527559056
20
-2.468363937007874
11
4.3959418897637796
21
-2.4837672834645668
0
LINE
8
BLACK
6
CONTINUOUS
10
4.3959418897637796
20
-2.4837672834645668
11
4.4005008267716539
21
-2.4987961417322833
0
LINE
8
BLACK
6
CONTINUOUS
10
4.4005008267716539
20
-2.4987961417322833
11
4.40651094488189
21
-2.513305787401575
0
LINE
8
BLACK
6
CONTINUOUS
10
4.40651094488189
20
-2.513305787401575
11
4.413914251968504
21
-2.5271564566929134
0
LINE
8
BLACK
6
CONTINUOUS
10
4.413914251968504
20
-2.5271564566929134
11
4.4226395669291341
21
-2.5402148031496061
0
LINE
8
BLACK
6
CONTINUOUS
10
4.4226395669291341
20
-2.5402148031496061
11
4.4326027952755904
21
-2.5523549999999999
0
LINE
8
BLACK
6
CONTINUOUS
10
4.4326027952755904
20
-2.5523549999999999
11
4.4437079921259839
21
-2.5634601968503938
0
LINE
8
BLACK
6
CONTINUOUS
10
4.4437079921259839
20
-2.5634601968503938
11
4.4558481889763781
21
-2.5734234251968502
0
LINE
8
BLACK
6
CONTINUOUS
10
4.4558481889763781
20
-2.5734234251968502
11
4.4689065354330708
21
-2.5821487401574803
0
LINE
8
BLACK
6
CONTINUOUS
10
4.4689065354330708
20
-2.5821487401574803
11
4.4827572047244093
21
-2.5895520472440943
0
LINE
8
BLACK
6
CONTINUOUS
10
4.4827572047244093
20
-2.5895520472440943
11
4.497266850393701
21
-2.5955621653543308
0
LINE
8
BLACK
6
CONTINUOUS
10
4.497266850393701
20
-2.5955621653543308
11
4.5122957086614175
21
-2.6001211023622046
0
LINE
8
BLACK
6
CONTINUOUS
10
4.5122957086614175
20
-2.6001211023622046
11
4.5276990551181102
21
-2.6031850393700786
0
LINE
8
BLACK
6
CONTINUOUS
10
4.5276990551181102
20
-2.6031850393700786
11
4.5433285433070862
21
-2.6047244094488189
0
LINE
8
BLACK
6
CONTINUOUS
10
4.5433285433070862
20
-2.6047244094488189
11
4.559033661417323
21
-2.6047244094488189
0
LINE
8
BLACK
6
CONTINUOUS
10
4.559033661417323
20
-2.6047244094488189
11
4.5746631496062991
21
-2.6031850393700786
0
LINE
8
BLACK
6
CONTINUOUS
10
4.5746631496062991
20
-2.6031850393700786
11
4.5900664960629918
21
-2.6001211023622046
0
LINE
8
BLACK
6
CONTINUOUS
10
4.5900664960629918
20
-2.6001211023622046
11
4.6050953543307083
21
-2.5955621653543308
0
LINE
8
BLACK
6
CONTINUOUS
10
4.6050953543307083
20
-2.5955621653543308
11
4.619605
21
-2.5895520472440943
0
LINE
8
BLACK
6
CONTINUOUS
10
4.619605
20
-2.5895520472440943
11
4.6334556692913385
21
-2.5821487401574803
0
LINE
8
BLACK
6
CONTINUOUS
10
4.6334556692913385
20
-2.5821487401574803
11
4.6465140157480311
21
-2.5734234251968502
0
LINE
8
BLACK
6
CONTINUOUS
10
4.6465140157480311
20
-2.5734234251968502
11
4.6586542125984254
21
-2.5634601968503938
0
LINE
8
BLACK
6
CONTINUOUS
10
4.6586542125984254
20
-2.5634601968503938
11
4.6697594094488188
21
-2.5523549999999999
0
LINE
8
BLACK
6
CONTINUOUS
10
4.6697594094488188
20
-2.5523549999999999
11
4.6797226377952752
21
-2.5402148031496061
0
LINE
8
BLACK
6
CONTINUOUS
10
4.6797226377952752
20
-2.5402148031496061
11
4.6884479527559053
21
-2.5271564566929134
0
LINE
8
BLACK
6
CONTINUOUS
10
4.6884479527559053
20
-2.5271564566929134
11
4.6958512598425193
21
-2.513305787401575
0
LINE
8
BLACK
6
CONTINUOUS
10
4.6958512598425193
20
-2.513305787401575
11
4.7018613779527554
21
-2.4987961417322833
0
LINE
8
BLACK
6
CONTINUOUS
10
4.7018613779527554
20
-2.4987961417322833
11
4.7064203149606296
21
-2.4837672834645668
0
LINE
8
BLACK
6
CONTINUOUS
10
4.7064203149606296
20
-2.4837672834645668
11
4.7094842519685036
21
-2.468363937007874
0
LINE
8
BLACK
6
CONTINUOUS
10
4.7094842519685036
20
-2.468363937007874
11
4.7110236220472439
21
-2.4527344488188976
0
LINE
8
BLACK
6
CONTINUOUS
10
4.7110236220472439
20
-2.4527344488188976
11
4.7110236220472439
21
-2.4472440944881888
0
LINE
8
BLACK
6
CONTINUOUS
10
4.7110236220472439
20
-2.4472440944881888
11
4.3913385826771654
21
-2.4472440944881888
0
LINE
8
BLACK
6
CONTINUOUS
10
4.5124186220472442
20
-2.3070866141732282
11
4.5124186220472442
21
-2.3085448425196851
0
LINE
8
BLACK
6
CONTINUOUS
10
4.5124186220472442
20
-2.3085448425196851
11
4.5124186220472442
21
-2.3101196456692912
0
LINE
8
BLACK
6
CONTINUOUS
10
4.5124186220472442
20
-2.3101196456692912
11
4.5124186220472442
21
-2.3116944488188977
0
LINE
8
BLACK
6
CONTINUOUS
10
4.5124186220472442
20
-2.3116944488188977
11
4.5124186220472442
21
-2.3132692519685039
0
LINE
8
BLACK
6
CONTINUOUS
10
4.5124186220472442
20
-2.3132692519685039
11
4.5124186220472442
21
-2.31484405511811
0
LINE
8
BLACK
6
CONTINUOUS
10
4.5124186220472442
20
-2.31484405511811
11
4.5124186220472442
21
-2.3164188582677165
0
LINE
8
BLACK
6
CONTINUOUS
10
4.5124186220472442
20
-2.3164188582677165
11
4.5124186220472442
21
-2.3179936614173227
0
LINE
8
BLACK
6
CONTINUOUS
10
4.5124186220472442
20
-2.3179936614173227
11
4.5124186220472442
21
-2.3195684645669292
0
LINE
8
BLACK
6
CONTINUOUS
10
4.5124186220472442
20
-2.3195684645669292
11
4.5124186220472442
21
-2.3211432677165353
0
LINE
8
BLACK
6
CONTINUOUS
10
4.5124186220472442
20
-2.3211432677165353
11
4.5124186220472442
21
-2.3227180708661415
0
LINE
8
BLACK
6
CONTINUOUS
10
4.5124186220472442
20
-2.3227180708661415
11
4.5124186220472442
21
-2.324292874015748
0
LINE
8
BLACK
6
CONTINUOUS
10
4.5124186220472442
20
-2.324292874015748
11
4.5124186220472442
21
-2.3258676771653541
0
LINE
8
BLACK
6
CONTINUOUS
10
4.5124186220472442
20
-2.3258676771653541
11
4.5124186220472442
21
-2.3274424803149607
0
LINE
8
BLACK
6
CONTINUOUS
10
4.5124186220472442
20
-2.3274424803149607
11
4.5124186220472442
21
-2.3290172834645668
0
LINE
8
BLACK
6
CONTINUOUS
10
4.5124186220472442
20
-2.3290172834645668
11
4.5124186220472442
21
-2.3305920866141734
0
LINE
8
BLACK
6
CONTINUOUS
10
4.5124186220472442
20
-2.3305920866141734
11
4.5124186220472442
21
-2.3321668897637795
0
LINE
8
BLACK
6
CONTINUOUS
10
4.5124186220472442
20
-2.3321668897637795
11
4.5124186220472442
21
-2.3337416929133856
0
LINE
8
BLACK
6
CONTINUOUS
10
4.5124186220472442
20
-2.3337416929133856
11
4.5124186220472442
21
-2.3353164960629922
0
LINE
8
BLACK
6
CONTINUOUS
10
4.5124186220472442
20
-2.3353164960629922
11
4.5124186220472442
21
-2.3368912992125983
0
LINE
8
BLACK
6
CONTINUOUS
10
4.5124186220472442
20
-2.3368912992125983
11
4.5124186220472442
21
-2.3384661023622049
0
LINE
8
BLACK
6
CONTINUOUS
10
4.5124186220472442
20
-2.3384661023622049
11
4.5124186220472442
21
-2.340040905511811
0
LINE
8
BLACK
6
CONTINUOUS
10
4.5124186220472442
20
-2.340040905511811
11
4.5124186220472442
21
-2.3416157086614171
0
LINE
8
BLACK
6
CONTINUOUS
10
4.5124186220472442
20
-2.3416157086614171
11
4.5124186220472442
21
-2.3431905118110237
0
LINE
8
BLACK
6
CONTINUOUS
10
4.5124186220472442
20
-2.3431905118110237
11
4.5124186220472442
21
-2.3447653149606298
0
LINE
8
BLACK
6
CONTINUOUS
10
4.5124186220472442
20
-2.3447653149606298
11
4.5124186220472442
21
-2.3463401181102364
0
LINE
8
BLACK
6
CONTINUOUS
10
4.5124186220472442
20
-2.3463401181102364
11
4.5124186220472442
21
-2.3479149212598425
0
LINE
8
BLACK
6
CONTINUOUS
10
4.5124186220472442
20
-2.3479149212598425
11
4.5124186220472442
21
-2.3494897244094486
0
LINE
8
BLACK
6
CONTINUOUS
10
4.5124186220472442
20
-2.3494897244094486
11
4.5124186220472442
21
-2.3510645275590552
0
LINE
8
BLACK
6
CONTINUOUS
10
4.5124186220472442
20
-2.3510645275590552
11
4.5124186220472442
21
-2.3526393307086613
0
LINE
8
BLACK
6
CONTINUOUS
10
4.5124186220472442
20
-2.3526393307086613
11
4.5124186220472442
21
-2.3542141338582678
0
LINE
8
BLACK
6
CONTINUOUS
10
4.5124186220472442
20
-2.3542141338582678
11
4.5124186220472442
21
-2.355788937007874
0
LINE
8
BLACK
6
CONTINUOUS
10
4.5124186220472442
20
-2.355788937007874
11
4.5124186220472442
21
-2.3573637401574801
0
LINE
8
BLACK
6
CONTINUOUS
10
4.5124186220472442
20
-2.3573637401574801
11
4.5124186220472442
21
-2.3589385433070866
0
LINE
8
BLACK
6
CONTINUOUS
10
4.5124186220472442
20
-2.3589385433070866
11
4.5124186220472442
21
-2.3605133464566928
0
LINE
8
BLACK
6
CONTINUOUS
10
4.5124186220472442
20
-2.3605133464566928
11
4.5124186220472442
21
-2.3620881496062993
0
LINE
8
BLACK
6
CONTINUOUS
10
4.5124186220472442
20
-2.3620881496062993
11
4.5124186220472442
21
-2.3636629527559054
0
LINE
8
BLACK
6
CONTINUOUS
10
4.5124186220472442
20
-2.3636629527559054
11
4.5124186220472442
21
-2.3652377559055116
0
LINE
8
BLACK
6
CONTINUOUS
10
4.5124186220472442
20
-2.3652377559055116
11
4.5124186220472442
21
-2.3668125590551181
0
LINE
8
BLACK
6
CONTINUOUS
10
4.5124186220472442
20
-2.3668125590551181
11
4.5124186220472442
21
-2.3683873622047242
0
LINE
8
BLACK
6
CONTINUOUS
10
4.5124186220472442
20
-2.3683873622047242
11
4.5124186220472442
21
-2.3699621653543308
0
LINE
8
BLACK
6
CONTINUOUS
10
4.5124186220472442
20
-2.3699621653543308
11
4.5124186220472442
21
-2.3715369685039369
0
LINE
8
BLACK
6
CONTINUOUS
10
4.5124186220472442
20
-2.3715369685039369
11
4.5124186220472442
21
-2.373111771653543
0
LINE
8
BLACK
6
CONTINUOUS
10
4.5124186220472442
20
-2.373111771653543
11
4.5124186220472442
21
-2.3746865748031496
0
LINE
8
BLACK
6
CONTINUOUS
10
4.5124186220472442
20
-2.3746865748031496
11
4.5124186220472442
21
-2.3762613779527557
0
LINE
8
BLACK
6
CONTINUOUS
10
4.5124186220472442
20
-2.3762613779527557
11
4.5124186220472442
21
-2.3778361811023623
0
LINE
8
BLACK
6
CONTINUOUS
10
4.5124186220472442
20
-2.3778361811023623
11
4.5124186220472442
21
-2.3794109842519684
0
LINE
8
BLACK
6
CONTINUOUS
10
4.5124186220472442
20
-2.3794109842519684
11
4.5124186220472442
21
-2.380985787401575
0
LINE
8
BLACK
6
CONTINUOUS
10
4.5124186220472442
20
-2.380985787401575
11
4.5124186220472442
21
-2.3825605905511811
0
LINE
8
BLACK
6
CONTINUOUS
10
4.5124186220472442
20
-2.3825605905511811
11
4.5124186220472442
21
-2.3841353937007872
0
LINE
8
BLACK
6
CONTINUOUS
10
4.5124186220472442
20
-2.3841353937007872
11
4.5124186220472442
21
-2.3857101968503938
0
LINE
8
BLACK
6
CONTINUOUS
10
4.5124186220472442
20
-2.3857101968503938
11
4.5124186220472442
21
-2.3858267716535431
0
LINE
8
BLACK
6
CONTINUOUS
10
4.5124186220472442
20
-2.3858267716535431
11
4.5899435826771651
21
-2.3858267716535431
0
LINE
8
BLACK
6
CONTINUOUS
10
4.5899435826771651
20
-2.3858267716535431
11
4.5899435826771651
21
-2.3857101968503938
0
LINE
8
BLACK
6
CONTINUOUS
10
4.5899435826771651
20
-2.3857101968503938
11
4.5899435826771651
21
-2.3841353937007872
0
LINE
8
BLACK
6
CONTINUOUS
10
4.5899435826771651
20
-2.3841353937007872
11
4.5899435826771651
21
-2.3825605905511811
0
LINE
8
BLACK
6
CONTINUOUS
10
4.5899435826771651
20
-2.3825605905511811
11
4.5899435826771651
21
-2.380985787401575
0
LINE
8
BLACK
6
CONTINUOUS
10
4.5899435826771651
20
-2.380985787401575
11
4.5899435826771651
21
-2.3794109842519684
0
LINE
8
BLACK
6
CONTINUOUS
10
4.5899435826771651
20
-2.3794109842519684
11
4.5899435826771651
21
-2.3778361811023623
0
LINE
8
BLACK
6
CONTINUOUS
10
4.5899435826771651
20
-2.3778361811023623
11
4.5899435826771651
21
-2.3762613779527557
0
LINE
8
BLACK
6
CONTINUOUS
10
4.5899435826771651
20
-2.3762613779527557
11
4.5899435826771651
21
-2.3746865748031496
0
LINE
8
BLACK
6
CONTINUOUS
10
4.5899435826771651
20
-2.3746865748031496
11
4.5899435826771651
21
-2.373111771653543
0
LINE
8
BLACK
6
CONTINUOUS
10
4.5899435826771651
20
-2.373111771653543
11
4.5899435826771651
21
-2.3715369685039369
0
LINE
8
BLACK
6
CONTINUOUS
10
4.5899435826771651
20
-2.3715369685039369
11
4.5899435826771651
21
-2.3699621653543308
0
LINE
8
BLACK
6
CONTINUOUS
10
4.5899435826771651
20
-2.3699621653543308
11
4.5899435826771651
21
-2.3683873622047242
0
LINE
8
BLACK
6
CONTINUOUS
10
4.5899435826771651
20
-2.3683873622047242
11
4.5899435826771651
21
-2.3668125590551181
0
LINE
8
BLACK
6
CONTINUOUS
10
4.5899435826771651
20
-2.3668125590551181
11
4.5899435826771651
21
-2.3652377559055116
0
LINE
8
BLACK
6
CONTINUOUS
10
4.5899435826771651
20
-2.3652377559055116
11
4.5899435826771651
21
-2.3636629527559054
0
LINE
8
BLACK
6
CONTINUOUS
10
4.5899435826771651
20
-2.3636629527559054
11
4.5899435826771651
21
-2.3620881496062993
0
LINE
8
BLACK
6
CONTINUOUS
10
4.5899435826771651
20
-2.3620881496062993
11
4.5899435826771651
21
-2.3605133464566928
0
LINE
8
BLACK
6
CONTINUOUS
10
4.5899435826771651
20
-2.3605133464566928
11
4.5899435826771651
21
-2.3589385433070866
0
LINE
8
BLACK
6
CONTINUOUS
10
4.5899435826771651
20
-2.3589385433070866
11
4.5899435826771651
21
-2.3573637401574801
0
LINE
8
BLACK
6
CONTINUOUS
10
4.5899435826771651
20
-2.3573637401574801
11
4.5899435826771651
21
-2.355788937007874
0
LINE
8
BLACK
6
CONTINUOUS
10
4.5899435826771651
20
-2.355788937007874
11
4.5899435826771651
21
-2.3542141338582678
0
LINE
8
BLACK
6
CONTINUOUS
10
4.5899435826771651
20
-2.3542141338582678
11
4.5899435826771651
21
-2.3526393307086613
0
LINE
8
BLACK
6
CONTINUOUS
10
4.5899435826771651
20
-2.3526393307086613
11
4.5899435826771651
21
-2.3510645275590552
0
LINE
8
BLACK
6
CONTINUOUS
10
4.5899435826771651
20
-2.3510645275590552
11
4.5899435826771651
21
-2.3494897244094486
0
LINE
8
BLACK
6
CONTINUOUS
10
4.5899435826771651
20
-2.3494897244094486
11
4.5899435826771651
21
-2.3479149212598425
0
LINE
8
BLACK
6
CONTINUOUS
10
4.5899435826771651
20
-2.3479149212598425
11
4.5899435826771651
21
-2.3463401181102364
0
LINE
8
BLACK
6
CONTINUOUS
10
4.5899435826771651
20
-2.3463401181102364
11
4.5899435826771651
21
-2.3447653149606298
0
LINE
8
BLACK
6
CONTINUOUS
10
4.5899435826771651
20
-2.3447653149606298
11
4.5899435826771651
21
-2.3431905118110237
0
LINE
8
BLACK
6
CONTINUOUS
10
4.5899435826771651
20
-2.3431905118110237
11
4.5899435826771651
21
-2.3416157086614171
0
LINE
8
BLACK
6
CONTINUOUS
10
4.5899435826771651
20
-2.3416157086614171
11
4.5899435826771651
21
-2.340040905511811
0
LINE
8
BLACK
6
CONTINUOUS
10
4.5899435826771651
20
-2.340040905511811
11
4.5899435826771651
21
-2.3384661023622049
0
LINE
8
BLACK
6
CONTINUOUS
10
4.5899435826771651
20
-2.3384661023622049
11
4.5899435826771651
21
-2.3368912992125983
0
LINE
8
BLACK
6
CONTINUOUS
10
4.5899435826771651
20
-2.3368912992125983
11
4.5899435826771651
21
-2.3353164960629922
0
LINE
8
BLACK
6
CONTINUOUS
10
4.5899435826771651
20
-2.3353164960629922
11
4.5899435826771651
21
-2.3337416929133856
0
LINE
8
BLACK
6
CONTINUOUS
10
4.5899435826771651
20
-2.3337416929133856
11
4.5899435826771651
21
-2.3321668897637795
0
LINE
8
BLACK
6
CONTINUOUS
10
4.5899435826771651
20
-2.3321668897637795
11
4.5899435826771651
21
-2.3305920866141734
0
LINE
8
BLACK
6
CONTINUOUS
10
4.5899435826771651
20
-2.3305920866141734
11
4.5899435826771651
21
-2.3290172834645668
0
LINE
8
BLACK
6
CONTINUOUS
10
4.5899435826771651
20
-2.3290172834645668
11
4.5899435826771651
21
-2.3274424803149607
0
LINE
8
BLACK
6
CONTINUOUS
10
4.5899435826771651
20
-2.3274424803149607
11
4.5899435826771651
21
-2.3258676771653541
0
LINE
8
BLACK
6
CONTINUOUS
10
4.5899435826771651
20
-2.3258676771653541
11
4.5899435826771651
21
-2.324292874015748
0
LINE
8
BLACK
6
CONTINUOUS
10
4.5899435826771651
20
-2.324292874015748
11
4.5899435826771651
21
-2.3227180708661415
0
LINE
8
BLACK
6
CONTINUOUS
10
4.5899435826771651
20
-2.3227180708661415
11
4.5899435826771651
21
-2.3211432677165353
0
LINE
8
BLACK
6
CONTINUOUS
10
4.5899435826771651
20
-2.3211432677165353
11
4.5899435826771651
21
-2.3195684645669292
0
LINE
8
BLACK
6
CONTINUOUS
10
4.5899435826771651
20
-2.3195684645669292
11
4.5899435826771651
21
-2.3179936614173227
0
LINE
8
BLACK
6
CONTINUOUS
10
4.5899435826771651
20
-2.3179936614173227
11
4.5899435826771651
21
-2.3164188582677165
0
LINE
8
BLACK
6
CONTINUOUS
10
4.5899435826771651
20
-2.3164188582677165
11
4.5899435826771651
21
-2.31484405511811
0
LINE
8
BLACK
6
CONTINUOUS
10
4.5899435826771651
20
-2.31484405511811
11
4.5899435826771651
21
-2.3132692519685039
0
LINE
8
BLACK
6
CONTINUOUS
10
4.5899435826771651
20
-2.3132692519685039
11
4.5899435826771651
21
-2.3116944488188977
0
LINE
8
BLACK
6
CONTINUOUS
10
4.5899435826771651
20
-2.3116944488188977
11
4.5899435826771651
21
-2.3101196456692912
0
LINE
8
BLACK
6
CONTINUOUS
10
4.5899435826771651
20
-2.3101196456692912
11
4.5899435826771651
21
-2.3085448425196851
0
LINE
8
BLACK
6
CONTINUOUS
10
4.5899435826771651
20
-2.3085448425196851
11
4.5899435826771651
21
-2.3070866141732282
0
LINE
8
BLACK
6
CONTINUOUS
10
4.5899435826771651
20
-2.3070866141732282
11
4.5124186220472442
21
-2.3070866141732282
0
LINE
8
BLACK
6
CONTINUOUS
10
7.1511210236220473
20
-2.5421755905511811
11
7.1514103149606294
21
-2.5421755905511811
0
LINE
8
BLACK
6
CONTINUOUS
10
7.1514103149606294
20
-2.5421755905511811
11
7.1516803937007873
21
-2.5422874409448819
0
LINE
8
BLACK
6
CONTINUOUS
10
7.1516803937007873
20
-2.5422874409448819
11
7.1519670472440939
21
-2.5423448031496063
0
LINE
8
BLACK
6
CONTINUOUS
10
7.1519670472440939
20
-2.5423448031496063
11
7.1522074015748034
21
-2.5425057480314961
0
LINE
8
BLACK
6
CONTINUOUS
10
7.1522074015748034
20
-2.5425057480314961
11
7.1524747244094486
21
-2.5426164960629922
0
LINE
8
BLACK
6
CONTINUOUS
10
7.1524747244094486
20
-2.5426164960629922
11
7.1526814173228344
21
-2.5428231889763779
0
LINE
8
BLACK
6
CONTINUOUS
10
7.1526814173228344
20
-2.5428231889763779
11
7.152924330708661
21
-2.5429858661417324
0
LINE
8
BLACK
6
CONTINUOUS
10
7.152924330708661
20
-2.5429858661417324
11
7.1532873228346459
21
-2.543429094488189
0
LINE
8
BLACK
6
CONTINUOUS
10
7.1532873228346459
20
-2.543429094488189
11
7.1532893700787401
21
-2.5434311417322832
0
LINE
8
BLACK
6
CONTINUOUS
10
7.1532893700787401
20
-2.5434311417322832
11
7.1532897244094489
21
-2.5434320078740158
0
LINE
8
BLACK
6
CONTINUOUS
10
7.1532897244094489
20
-2.5434320078740158
11
7.1532911023622043
21
-2.5434337007874017
0
LINE
8
BLACK
6
CONTINUOUS
10
7.1532911023622043
20
-2.5434337007874017
11
7.15687842519685
21
-2.5488147244094486
0
LINE
8
BLACK
6
CONTINUOUS
10
7.15687842519685
20
-2.5488147244094486
11
7.1600824015748028
21
-2.5520187007874013
0
LINE
8
BLACK
6
CONTINUOUS
10
7.1600824015748028
20
-2.5520187007874013
11
7.1634033464566924
21
-2.5536791732283466
0
LINE
8
BLACK
6
CONTINUOUS
10
7.1634033464566924
20
-2.5536791732283466
11
7.1638932283464563
21
-2.5539875196850392
0
LINE
8
BLACK
6
CONTINUOUS
10
7.1638932283464563
20
-2.5539875196850392
11
7.164648070866142
21
-2.5548579133858267
0
LINE
8
BLACK
6
CONTINUOUS
10
7.164648070866142
20
-2.5548579133858267
11
7.1650124015748027
21
-2.5559508661417323
0
LINE
8
BLACK
6
CONTINUOUS
10
7.1650124015748027
20
-2.5559508661417323
11
7.1649307480314963
21
-2.5571000787401572
0
LINE
8
BLACK
6
CONTINUOUS
10
7.1649307480314963
20
-2.5571000787401572
11
7.164415472440945
21
-2.5581305905511811
0
LINE
8
BLACK
6
CONTINUOUS
10
7.164415472440945
20
-2.5581305905511811
11
7.1635451181102363
21
-2.5588854330708659
0
LINE
8
BLACK
6
CONTINUOUS
10
7.1635451181102363
20
-2.5588854330708659
11
7.1624521259842515
21
-2.5592497637795275
0
LINE
8
BLACK
6
CONTINUOUS
10
7.1624521259842515
20
-2.5592497637795275
11
7.1613029133858266
21
-2.5591681102362203
0
LINE
8
BLACK
6
CONTINUOUS
10
7.1613029133858266
20
-2.5591681102362203
11
7.1607623228346453
21
-2.5589612204724408
0
LINE
8
BLACK
6
CONTINUOUS
10
7.1607623228346453
20
-2.5589612204724408
11
7.1570127952755902
21
-2.5570864566929132
0
LINE
8
BLACK
6
CONTINUOUS
10
7.1570127952755902
20
-2.5570864566929132
11
7.1567649606299213
21
-2.5569304330708662
0
LINE
8
BLACK
6
CONTINUOUS
10
7.1567649606299213
20
-2.5569304330708662
11
7.1566928346456695
21
-2.556900590551181
0
LINE
8
BLACK
6
CONTINUOUS
10
7.1566928346456695
20
-2.556900590551181
11
7.1566116535433073
21
-2.5568339763779528
0
LINE
8
BLACK
6
CONTINUOUS
10
7.1566116535433073
20
-2.5568339763779528
11
7.1565229133858264
21
-2.5567781102362206
0
LINE
8
BLACK
6
CONTINUOUS
10
7.1565229133858264
20
-2.5567781102362206
11
7.1564717716535435
21
-2.5567191732283465
0
LINE
8
BLACK
6
CONTINUOUS
10
7.1564717716535435
20
-2.5567191732283465
11
7.1562453937007868
21
-2.5565333464566931
0
LINE
8
BLACK
6
CONTINUOUS
10
7.1562453937007868
20
-2.5565333464566931
11
7.1537870078740156
21
-2.5540749606299213
0
LINE
8
BLACK
6
CONTINUOUS
10
7.1537870078740156
20
-2.5540749606299213
11
7.1537870078740156
21
-2.5814889370078737
0
LINE
8
BLACK
6
CONTINUOUS
10
7.1537870078740156
20
-2.5814889370078737
11
7.1620828346456689
21
-2.5814889370078737
0
LINE
8
BLACK
6
CONTINUOUS
10
7.1620828346456689
20
-2.5814889370078737
11
7.1626588976377947
21
-2.5815456692913386
0
LINE
8
BLACK
6
CONTINUOUS
10
7.1626588976377947
20
-2.5815456692913386
11
7.163723307086614
21
-2.5819865748031496
0
LINE
8
BLACK
6
CONTINUOUS
10
7.163723307086614
20
-2.5819865748031496
11
7.1645379527559054
21
-2.5828012204724411
0
LINE
8
BLACK
6
CONTINUOUS
10
7.1645379527559054
20
-2.5828012204724411
11
7.1649788582677161
21
-2.5838656299212599
0
LINE
8
BLACK
6
CONTINUOUS
10
7.1649788582677161
20
-2.5838656299212599
11
7.1649788582677161
21
-2.5850177559055116
0
LINE
8
BLACK
6
CONTINUOUS
10
7.1649788582677161
20
-2.5850177559055116
11
7.1645379527559054
21
-2.5860821653543304
0
LINE
8
BLACK
6
CONTINUOUS
10
7.1645379527559054
20
-2.5860821653543304
11
7.163723307086614
21
-2.5868968110236219
0
LINE
8
BLACK
6
CONTINUOUS
10
7.163723307086614
20
-2.5868968110236219
11
7.1626588976377947
21
-2.587337716535433
0
LINE
8
BLACK
6
CONTINUOUS
10
7.1626588976377947
20
-2.587337716535433
11
7.1620828346456689
21
-2.5873944488188978
0
LINE
8
BLACK
6
CONTINUOUS
10
7.1620828346456689
20
-2.5873944488188978
11
7.1395856692913382
21
-2.5873944488188978
0
LINE
8
BLACK
6
CONTINUOUS
10
7.1395856692913382
20
-2.5873944488188978
11
7.1390096062992123
21
-2.587337716535433
0
LINE
8
BLACK
6
CONTINUOUS
10
7.1390096062992123
20
-2.587337716535433
11
7.137945196850394
21
-2.5868968110236219
0
LINE
8
BLACK
6
CONTINUOUS
10
7.137945196850394
20
-2.5868968110236219
11
7.1371305511811025
21
-2.5860821653543304
0
LINE
8
BLACK
6
CONTINUOUS
10
7.1371305511811025
20
-2.5860821653543304
11
7.136689645669291
21
-2.5850177559055116
0
LINE
8
BLACK
6
CONTINUOUS
10
7.136689645669291
20
-2.5850177559055116
11
7.136689645669291
21
-2.5838656299212599
0
LINE
8
BLACK
6
CONTINUOUS
10
7.136689645669291
20
-2.5838656299212599
11
7.1371305511811025
21
-2.5828012204724411
0
LINE
8
BLACK
6
CONTINUOUS
10
7.1371305511811025
20
-2.5828012204724411
11
7.137945196850394
21
-2.5819865748031496
0
LINE
8
BLACK
6
CONTINUOUS
10
7.137945196850394
20
-2.5819865748031496
11
7.1390096062992123
21
-2.5815456692913386
0
LINE
8
BLACK
6
CONTINUOUS
10
7.1390096062992123
20
-2.5815456692913386
11
7.1395856692913382
21
-2.5814889370078737
0
LINE
8
BLACK
6
CONTINUOUS
10
7.1395856692913382
20
-2.5814889370078737
11
7.1478814960629924
21
-2.5814889370078737
0
LINE
8
BLACK
6
CONTINUOUS
10
7.1478814960629924
20
-2.5814889370078737
11
7.1478814960629924
21
-2.5450716141732284
0
LINE
8
BLACK
6
CONTINUOUS
10
7.1478814960629924
20
-2.5450716141732284
11
7.1478816929133853
21
-2.5450695275590549
0
LINE
8
BLACK
6
CONTINUOUS
10
7.1478816929133853
20
-2.5450695275590549
11
7.1478814960629924
21
-2.5450685039370078
0
LINE
8
BLACK
6
CONTINUOUS
10
7.1478814960629924
20
-2.5450685039370078
11
7.1478820866141728
21
-2.5450654724409447
0
LINE
8
BLACK
6
CONTINUOUS
10
7.1478820866141728
20
-2.5450654724409447
11
7.1479382283464563
21
-2.5444955511811025
0
LINE
8
BLACK
6
CONTINUOUS
10
7.1479382283464563
20
-2.5444955511811025
11
7.1480500787401571
21
-2.5442254330708662
0
LINE
8
BLACK
6
CONTINUOUS
10
7.1480500787401571
20
-2.5442254330708662
11
7.1481074409448819
21
-2.543938818897638
0
LINE
8
BLACK
6
CONTINUOUS
10
7.1481074409448819
20
-2.543938818897638
11
7.1482683858267713
21
-2.5436984251968502
0
LINE
8
BLACK
6
CONTINUOUS
10
7.1482683858267713
20
-2.5436984251968502
11
7.1483791338582678
21
-2.5434311417322832
0
LINE
8
BLACK
6
CONTINUOUS
10
7.1483791338582678
20
-2.5434311417322832
11
7.1485858267716536
21
-2.5432244094488188
0
LINE
8
BLACK
6
CONTINUOUS
10
7.1485858267716536
20
-2.5432244094488188
11
7.148748503937008
21
-2.5429815354330709
0
LINE
8
BLACK
6
CONTINUOUS
10
7.148748503937008
20
-2.5429815354330709
11
7.1489892125984253
21
-2.542821023622047
0
LINE
8
BLACK
6
CONTINUOUS
10
7.1489892125984253
20
-2.542821023622047
11
7.1491937795275593
21
-2.5426164960629922
0
LINE
8
BLACK
6
CONTINUOUS
10
7.1491937795275593
20
-2.5426164960629922
11
7.1494638582677164
21
-2.5425046062992127
0
LINE
8
BLACK
6
CONTINUOUS
10
7.1494638582677164
20
-2.5425046062992127
11
7.1497071259842517
21
-2.542342440944882
0
LINE
8
BLACK
6
CONTINUOUS
10
7.1497071259842517
20
-2.542342440944882
11
7.1499909055118112
21
-2.5422862992125985
0
LINE
8
BLACK
6
CONTINUOUS
10
7.1499909055118112
20
-2.5422862992125985
11
7.1502581889763777
21
-2.5421755905511811
0
LINE
8
BLACK
6
CONTINUOUS
10
7.1502581889763777
20
-2.5421755905511811
11
7.1505505905511813
21
-2.5421755905511811
0
LINE
8
BLACK
6
CONTINUOUS
10
7.1505505905511813
20
-2.5421755905511811
11
7.1508373622047241
21
-2.5421188582677163
0
LINE
8
BLACK
6
CONTINUOUS
10
7.1508373622047241
20
-2.5421188582677163
11
7.1511210236220473
21
-2.5421755905511811
0
LINE
8
BLACK
6
CONTINUOUS
10
7.1805962204724407
20
-2.5426164960629922
11
7.1814108661417322
21
-2.5434311417322832
0
LINE
8
BLACK
6
CONTINUOUS
10
7.1814108661417322
20
-2.5434311417322832
11
7.1818517716535428
21
-2.5444955511811025
0
LINE
8
BLACK
6
CONTINUOUS
10
7.1818517716535428
20
-2.5444955511811025
11
7.1819085039370076
21
-2.5450716141732284
0
LINE
8
BLACK
6
CONTINUOUS
10
7.1819085039370076
20
-2.5450716141732284
11
7.1819085039370076
21
-2.5762455511811022
0
LINE
8
BLACK
6
CONTINUOUS
10
7.1819085039370076
20
-2.5762455511811022
11
7.183257244094488
21
-2.5789430314960629
0
LINE
8
BLACK
6
CONTINUOUS
10
7.183257244094488
20
-2.5789430314960629
11
7.1844543700787398
21
-2.5801401968503939
0
LINE
8
BLACK
6
CONTINUOUS
10
7.1844543700787398
20
-2.5801401968503939
11
7.1871518503937004
21
-2.5814889370078737
0
LINE
8
BLACK
6
CONTINUOUS
10
7.1871518503937004
20
-2.5814889370078737
11
7.1932568110236215
21
-2.5814889370078737
0
LINE
8
BLACK
6
CONTINUOUS
10
7.1932568110236215
20
-2.5814889370078737
11
7.1959542519685034
21
-2.5801401968503939
0
LINE
8
BLACK
6
CONTINUOUS
10
7.1959542519685034
20
-2.5801401968503939
11
7.1971513779527561
21
-2.5789430314960629
0
LINE
8
BLACK
6
CONTINUOUS
10
7.1971513779527561
20
-2.5789430314960629
11
7.1985001574803151
21
-2.5762455511811022
0
LINE
8
BLACK
6
CONTINUOUS
10
7.1985001574803151
20
-2.5762455511811022
11
7.1985001574803151
21
-2.5450716141732284
0
LINE
8
BLACK
6
CONTINUOUS
10
7.1985001574803151
20
-2.5450716141732284
11
7.1985568897637791
21
-2.5444955511811025
0
LINE
8
BLACK
6
CONTINUOUS
10
7.1985568897637791
20
-2.5444955511811025
11
7.1989977952755906
21
-2.5434311417322832
0
LINE
8
BLACK
6
CONTINUOUS
10
7.1989977952755906
20
-2.5434311417322832
11
7.199812440944882
21
-2.5426164960629922
0
LINE
8
BLACK
6
CONTINUOUS
10
7.199812440944882
20
-2.5426164960629922
11
7.2008768503937004
21
-2.5421755905511811
0
LINE
8
BLACK
6
CONTINUOUS
10
7.2008768503937004
20
-2.5421755905511811
11
7.202028976377953
21
-2.5421755905511811
0
LINE
8
BLACK
6
CONTINUOUS
10
7.202028976377953
20
-2.5421755905511811
11
7.2030933858267714
21
-2.5426164960629922
0
LINE
8
BLACK
6
CONTINUOUS
10
7.2030933858267714
20
-2.5426164960629922
11
7.2039080314960628
21
-2.5434311417322832
0
LINE
8
BLACK
6
CONTINUOUS
10
7.2039080314960628
20
-2.5434311417322832
11
7.2043489370078735
21
-2.5444955511811025
0
LINE
8
BLACK
6
CONTINUOUS
10
7.2043489370078735
20
-2.5444955511811025
11
7.2044056692913383
21
-2.5450716141732284
0
LINE
8
BLACK
6
CONTINUOUS
10
7.2044056692913383
20
-2.5450716141732284
11
7.2044056692913383
21
-2.5769425984251968
0
LINE
8
BLACK
6
CONTINUOUS
10
7.2044056692913383
20
-2.5769425984251968
11
7.2043489370078735
21
-2.5775186614173227
0
LINE
8
BLACK
6
CONTINUOUS
10
7.2043489370078735
20
-2.5775186614173227
11
7.2043083464566928
21
-2.5776166141732282
0
LINE
8
BLACK
6
CONTINUOUS
10
7.2043083464566928
20
-2.5776166141732282
11
7.2043008267716537
21
-2.5777225196850395
0
LINE
8
BLACK
6
CONTINUOUS
10
7.2043008267716537
20
-2.5777225196850395
11
7.2040939370078743
21
-2.5782631102362203
0
LINE
8
BLACK
6
CONTINUOUS
10
7.2040939370078743
20
-2.5782631102362203
11
7.2022191732283467
21
-2.5820126377952755
0
LINE
8
BLACK
6
CONTINUOUS
10
7.2022191732283467
20
-2.5820126377952755
11
7.20206311023622
21
-2.5822605118110236
0
LINE
8
BLACK
6
CONTINUOUS
10
7.20206311023622
20
-2.5822605118110236
11
7.202033307086614
21
-2.5823325590551183
0
LINE
8
BLACK
6
CONTINUOUS
10
7.202033307086614
20
-2.5823325590551183
11
7.2019667716535434
21
-2.5824135826771655
0
LINE
8
BLACK
6
CONTINUOUS
10
7.2019667716535434
20
-2.5824135826771655
11
7.2019108267716536
21
-2.5825025196850393
0
LINE
8
BLACK
6
CONTINUOUS
10
7.2019108267716536
20
-2.5825025196850393
11
7.201851811023622
21
-2.5825536614173226
0
LINE
8
BLACK
6
CONTINUOUS
10
7.201851811023622
20
-2.5825536614173226
11
7.2016660629921256
21
-2.5827800393700788
0
LINE
8
BLACK
6
CONTINUOUS
10
7.2016660629921256
20
-2.5827800393700788
11
7.1997913385826768
21
-2.5846548031496064
0
LINE
8
BLACK
6
CONTINUOUS
10
7.1997913385826768
20
-2.5846548031496064
11
7.199564960629921
21
-2.5848405511811023
0
LINE
8
BLACK
6
CONTINUOUS
10
7.199564960629921
20
-2.5848405511811023
11
7.1995137795275586
21
-2.5848996062992127
0
LINE
8
BLACK
6
CONTINUOUS
10
7.1995137795275586
20
-2.5848996062992127
11
7.199424803149606
21
-2.5849555905511812
0
LINE
8
BLACK
6
CONTINUOUS
10
7.199424803149606
20
-2.5849555905511812
11
7.1993438582677163
21
-2.5850220472440943
0
LINE
8
BLACK
6
CONTINUOUS
10
7.1993438582677163
20
-2.5850220472440943
11
7.1992718897637795
21
-2.5850518503937008
0
LINE
8
BLACK
6
CONTINUOUS
10
7.1992718897637795
20
-2.5850518503937008
11
7.1990238976377947
21
-2.5852079527559053
0
LINE
8
BLACK
6
CONTINUOUS
10
7.1990238976377947
20
-2.5852079527559053
11
7.1952743700787396
21
-2.5870827165354329
0
LINE
8
BLACK
6
CONTINUOUS
10
7.1952743700787396
20
-2.5870827165354329
11
7.1947337401574805
21
-2.5872896062992123
0
LINE
8
BLACK
6
CONTINUOUS
10
7.1947337401574805
20
-2.5872896062992123
11
7.1946279133858262
21
-2.5872970866141731
0
LINE
8
BLACK
6
CONTINUOUS
10
7.1946279133858262
20
-2.5872970866141731
11
7.1945299212598419
21
-2.587337716535433
0
LINE
8
BLACK
6
CONTINUOUS
10
7.1945299212598419
20
-2.587337716535433
11
7.1939538582677161
21
-2.5873944488188978
0
LINE
8
BLACK
6
CONTINUOUS
10
7.1939538582677161
20
-2.5873944488188978
11
7.1864548031496058
21
-2.5873944488188978
0
LINE
8
BLACK
6
CONTINUOUS
10
7.1864548031496058
20
-2.5873944488188978
11
7.18587874015748
21
-2.587337716535433
0
LINE
8
BLACK
6
CONTINUOUS
10
7.18587874015748
20
-2.587337716535433
11
7.1857807480314957
21
-2.5872971259842519
0
LINE
8
BLACK
6
CONTINUOUS
10
7.1857807480314957
20
-2.5872971259842519
11
7.1856748818897636
21
-2.5872896062992123
0
LINE
8
BLACK
6
CONTINUOUS
10
7.1856748818897636
20
-2.5872896062992123
11
7.1851342913385823
21
-2.5870827165354329
0
LINE
8
BLACK
6
CONTINUOUS
10
7.1851342913385823
20
-2.5870827165354329
11
7.1813847637795272
21
-2.5852079527559053
0
LINE
8
BLACK
6
CONTINUOUS
10
7.1813847637795272
20
-2.5852079527559053
11
7.1811367322834645
21
-2.5850518503937008
0
LINE
8
BLACK
6
CONTINUOUS
10
7.1811367322834645
20
-2.5850518503937008
11
7.1810648031496065
21
-2.5850220472440943
0
LINE
8
BLACK
6
CONTINUOUS
10
7.1810648031496065
20
-2.5850220472440943
11
7.180983818897638
21
-2.5849555905511812
0
LINE
8
BLACK
6
CONTINUOUS
10
7.180983818897638
20
-2.5849555905511812
11
7.1808948818897633
21
-2.5848996062992127
0
LINE
8
BLACK
6
CONTINUOUS
10
7.1808948818897633
20
-2.5848996062992127
11
7.180843661417323
21
-2.5848405511811023
0
LINE
8
BLACK
6
CONTINUOUS
10
7.180843661417323
20
-2.5848405511811023
11
7.1806173228346459
21
-2.5846548031496064
0
LINE
8
BLACK
6
CONTINUOUS
10
7.1806173228346459
20
-2.5846548031496064
11
7.1787425590551184
21
-2.5827800000000001
0
LINE
8
BLACK
6
CONTINUOUS
10
7.1787425590551184
20
-2.5827800000000001
11
7.178556811023622
21
-2.5825536614173226
0
LINE
8
BLACK
6
CONTINUOUS
10
7.178556811023622
20
-2.5825536614173226
11
7.1784978346456692
21
-2.5825025196850393
0
LINE
8
BLACK
6
CONTINUOUS
10
7.1784978346456692
20
-2.5825025196850393
11
7.1784418503937006
21
-2.5824135826771655
0
LINE
8
BLACK
6
CONTINUOUS
10
7.1784418503937006
20
-2.5824135826771655
11
7.1783753543307087
21
-2.5823325590551183
0
LINE
8
BLACK
6
CONTINUOUS
10
7.1783753543307087
20
-2.5823325590551183
11
7.1783455118110231
21
-2.5822605118110236
0
LINE
8
BLACK
6
CONTINUOUS
10
7.1783455118110231
20
-2.5822605118110236
11
7.1781894881889761
21
-2.5820126377952755
0
LINE
8
BLACK
6
CONTINUOUS
10
7.1781894881889761
20
-2.5820126377952755
11
7.1763147244094485
21
-2.5782631102362203
0
LINE
8
BLACK
6
CONTINUOUS
10
7.1763147244094485
20
-2.5782631102362203
11
7.176107834645669
21
-2.5777224803149608
0
LINE
8
BLACK
6
CONTINUOUS
10
7.176107834645669
20
-2.5777224803149608
11
7.1761003149606299
21
-2.5776166535433069
0
LINE
8
BLACK
6
CONTINUOUS
10
7.1761003149606299
20
-2.5776166535433069
11
7.1760597244094484
21
-2.5775186614173227
0
LINE
8
BLACK
6
CONTINUOUS
10
7.1760597244094484
20
-2.5775186614173227
11
7.1760029921259845
21
-2.5769425984251968
0
LINE
8
BLACK
6
CONTINUOUS
10
7.1760029921259845
20
-2.5769425984251968
11
7.1760029921259845
21
-2.5450716141732284
0
LINE
8
BLACK
6
CONTINUOUS
10
7.1760029921259845
20
-2.5450716141732284
11
7.1760597244094484
21
-2.5444955511811025
0
LINE
8
BLACK
6
CONTINUOUS
10
7.1760597244094484
20
-2.5444955511811025
11
7.1765006299212599
21
-2.5434311417322832
0
LINE
8
BLACK
6
CONTINUOUS
10
7.1765006299212599
20
-2.5434311417322832
11
7.1773152755905514
21
-2.5426164960629922
0
LINE
8
BLACK
6
CONTINUOUS
10
7.1773152755905514
20
-2.5426164960629922
11
7.1783796850393697
21
-2.5421755905511811
0
LINE
8
BLACK
6
CONTINUOUS
10
7.1783796850393697
20
-2.5421755905511811
11
7.1795318110236215
21
-2.5421755905511811
0
LINE
8
BLACK
6
CONTINUOUS
10
7.1795318110236215
20
-2.5421755905511811
11
7.1805962204724407
21
-2.5426164960629922
0
LINE
8
BLACK
6
CONTINUOUS
10
4.7380506692913382
20
-2.4677361023622049
11
4.7388653149606297
21
-2.4685507480314959
0
LINE
8
BLACK
6
CONTINUOUS
10
4.7388653149606297
20
-2.4685507480314959
11
4.7393062204724412
21
-2.4696151574803151
0
LINE
8
BLACK
6
CONTINUOUS
10
4.7393062204724412
20
-2.4696151574803151
11
4.7393629527559051
21
-2.470191220472441
0
LINE
8
BLACK
6
CONTINUOUS
10
4.7393629527559051
20
-2.470191220472441
11
4.7393629527559051
21
-2.4880559448818897
0
LINE
8
BLACK
6
CONTINUOUS
10
4.7393629527559051
20
-2.4880559448818897
11
4.7494638976377948
21
-2.4792176377952755
0
LINE
8
BLACK
6
CONTINUOUS
10
4.7494638976377948
20
-2.4792176377952755
11
4.7497128740157475
21
-2.4790396062992124
0
LINE
8
BLACK
6
CONTINUOUS
10
4.7497128740157475
20
-2.4790396062992124
11
4.7497678346456693
21
-2.4789846850393702
0
LINE
8
BLACK
6
CONTINUOUS
10
4.7497678346456693
20
-2.4789846850393702
11
4.7498199212598422
21
-2.4789630708661416
0
LINE
8
BLACK
6
CONTINUOUS
10
4.7498199212598422
20
-2.4789630708661416
11
4.749934803149606
21
-2.4788809842519686
0
LINE
8
BLACK
6
CONTINUOUS
10
4.749934803149606
20
-2.4788809842519686
11
4.7503890157480315
21
-2.4787273622047246
0
LINE
8
BLACK
6
CONTINUOUS
10
4.7503890157480315
20
-2.4787273622047246
11
4.7508322440944877
21
-2.4785437795275591
0
LINE
8
BLACK
6
CONTINUOUS
10
4.7508322440944877
20
-2.4785437795275591
11
4.7509318897637796
21
-2.4785437795275591
0
LINE
8
BLACK
6
CONTINUOUS
10
4.7509318897637796
20
-2.4785437795275591
11
4.751026181102362
21
-2.4785118897637797
0
LINE
8
BLACK
6
CONTINUOUS
10
4.751026181102362
20
-2.4785118897637797
11
4.7515046456692911
21
-2.4785437795275591
0
LINE
8
BLACK
6
CONTINUOUS
10
4.7515046456692911
20
-2.4785437795275591
11
4.7519843700787403
21
-2.4785437795275591
0
LINE
8
BLACK
6
CONTINUOUS
10
4.7519843700787403
20
-2.4785437795275591
11
4.7520763385826772
21
-2.4785818503937009
0
LINE
8
BLACK
6
CONTINUOUS
10
4.7520763385826772
20
-2.4785818503937009
11
4.7521757086614169
21
-2.4785885039370079
0
LINE
8
BLACK
6
CONTINUOUS
10
4.7521757086614169
20
-2.4785885039370079
11
4.7526058267716538
21
-2.4788011811023622
0
LINE
8
BLACK
6
CONTINUOUS
10
4.7526058267716538
20
-2.4788011811023622
11
4.7530487795275587
21
-2.4789846850393702
0
LINE
8
BLACK
6
CONTINUOUS
10
4.7530487795275587
20
-2.4789846850393702
11
4.7531190944881887
21
-2.4790549999999998
0
LINE
8
BLACK
6
CONTINUOUS
10
4.7531190944881887
20
-2.4790549999999998
11
4.7532084645669288
21
-2.4790992125984253
0
LINE
8
BLACK
6
CONTINUOUS
10
4.7532084645669288
20
-2.4790992125984253
11
4.7535244094488185
21
-2.47946031496063
0
LINE
8
BLACK
6
CONTINUOUS
10
4.7535244094488185
20
-2.47946031496063
11
4.7538634251968501
21
-2.4797993307086612
0
LINE
8
BLACK
6
CONTINUOUS
10
4.7538634251968501
20
-2.4797993307086612
11
4.7539015354330711
21
-2.4798912992125985
0
LINE
8
BLACK
6
CONTINUOUS
10
4.7539015354330711
20
-2.4798912992125985
11
4.7539671259842518
21
-2.4799662992125984
0
LINE
8
BLACK
6
CONTINUOUS
10
4.7539671259842518
20
-2.4799662992125984
11
4.754120708661417
21
-2.4804205118110234
0
LINE
8
BLACK
6
CONTINUOUS
10
4.754120708661417
20
-2.4804205118110234
11
4.7543043307086617
21
-2.4808637401574805
0
LINE
8
BLACK
6
CONTINUOUS
10
4.7543043307086617
20
-2.4808637401574805
11
4.7543181496062994
21
-2.4810042913385826
0
LINE
8
BLACK
6
CONTINUOUS
10
4.7543181496062994
20
-2.4810042913385826
11
4.7543362204724406
21
-2.4810576771653543
0
LINE
8
BLACK
6
CONTINUOUS
10
4.7543362204724406
20
-2.4810576771653543
11
4.7543310236220471
21
-2.4811351181102363
0
LINE
8
BLACK
6
CONTINUOUS
10
4.7543310236220471
20
-2.4811351181102363
11
4.7543610629921256
21
-2.4814398031496063
0
LINE
8
BLACK
6
CONTINUOUS
10
4.7543610629921256
20
-2.4814398031496063
11
4.7543610629921256
21
-2.4863670472440944
0
LINE
8
BLACK
6
CONTINUOUS
10
4.7543610629921256
20
-2.4863670472440944
11
4.7557098031496059
21
-2.4890645275590551
0
LINE
8
BLACK
6
CONTINUOUS
10
4.7557098031496059
20
-2.4890645275590551
11
4.7569069291338586
21
-2.4902616535433069
0
LINE
8
BLACK
6
CONTINUOUS
10
4.7569069291338586
20
-2.4902616535433069
11
4.7596044094488184
21
-2.4916103937007872
0
LINE
8
BLACK
6
CONTINUOUS
10
4.7596044094488184
20
-2.4916103937007872
11
4.7675841338582678
21
-2.4916103937007872
0
LINE
8
BLACK
6
CONTINUOUS
10
4.7675841338582678
20
-2.4916103937007872
11
4.7702816141732285
21
-2.4902616141732281
0
LINE
8
BLACK
6
CONTINUOUS
10
4.7702816141732285
20
-2.4902616141732281
11
4.7714787795275591
21
-2.4890644881889763
0
LINE
8
BLACK
6
CONTINUOUS
10
4.7714787795275591
20
-2.4890644881889763
11
4.7728275196850394
21
-2.4863670472440944
0
LINE
8
BLACK
6
CONTINUOUS
10
4.7728275196850394
20
-2.4863670472440944
11
4.7728275196850394
21
-2.4765125590551182
0
LINE
8
BLACK
6
CONTINUOUS
10
4.7728275196850394
20
-2.4765125590551182
11
4.7714787795275591
21
-2.4738150787401576
0
LINE
8
BLACK
6
CONTINUOUS
10
4.7714787795275591
20
-2.4738150787401576
11
4.7699428346456694
21
-2.4722791732283462
0
LINE
8
BLACK
6
CONTINUOUS
10
4.7699428346456694
20
-2.4722791732283462
11
4.769575590551181
21
-2.4718316929133857
0
LINE
8
BLACK
6
CONTINUOUS
10
4.769575590551181
20
-2.4718316929133857
11
4.7691346850393703
21
-2.4707672834645669
0
LINE
8
BLACK
6
CONTINUOUS
10
4.7691346850393703
20
-2.4707672834645669
11
4.7691346850393703
21
-2.4696151968503934
0
LINE
8
BLACK
6
CONTINUOUS
10
4.7691346850393703
20
-2.4696151968503934
11
4.7695755511811022
21
-2.4685507874015746
0
LINE
8
BLACK
6
CONTINUOUS
10
4.7695755511811022
20
-2.4685507874015746
11
4.7703902362204724
21
-2.4677361023622049
0
LINE
8
BLACK
6
CONTINUOUS
10
4.7703902362204724
20
-2.4677361023622049
11
4.7714546456692917
21
-2.4672951968503938
0
LINE
8
BLACK
6
CONTINUOUS
10
4.7714546456692917
20
-2.4672951968503938
11
4.7726067322834647
21
-2.4672951968503938
0
LINE
8
BLACK
6
CONTINUOUS
10
4.7726067322834647
20
-2.4672951968503938
11
4.773671141732283
21
-2.4677360629921261
0
LINE
8
BLACK
6
CONTINUOUS
10
4.773671141732283
20
-2.4677360629921261
11
4.7741185826771648
21
-2.4681032677165353
0
LINE
8
BLACK
6
CONTINUOUS
10
4.7741185826771648
20
-2.4681032677165353
11
4.7759933858267711
21
-2.4699780314960629
0
LINE
8
BLACK
6
CONTINUOUS
10
4.7759933858267711
20
-2.4699780314960629
11
4.7761791338582675
21
-2.4702043700787399
0
LINE
8
BLACK
6
CONTINUOUS
10
4.7761791338582675
20
-2.4702043700787399
11
4.7762381889763779
21
-2.4702555905511812
0
LINE
8
BLACK
6
CONTINUOUS
10
4.7762381889763779
20
-2.4702555905511812
11
4.7762941732283464
21
-2.470344527559055
0
LINE
8
BLACK
6
CONTINUOUS
10
4.7762941732283464
20
-2.470344527559055
11
4.7763606299212595
21
-2.4704255118110234
0
LINE
8
BLACK
6
CONTINUOUS
10
4.7763606299212595
20
-2.4704255118110234
11
4.7763904330708664
21
-2.4704974409448819
0
LINE
8
BLACK
6
CONTINUOUS
10
4.7763904330708664
20
-2.4704974409448819
11
4.776546535433071
21
-2.470745472440945
0
LINE
8
BLACK
6
CONTINUOUS
10
4.776546535433071
20
-2.470745472440945
11
4.7784212992125985
21
-2.4744950000000001
0
LINE
8
BLACK
6
CONTINUOUS
10
4.7784212992125985
20
-2.4744950000000001
11
4.778628188976378
21
-2.4750355905511809
0
LINE
8
BLACK
6
CONTINUOUS
10
4.778628188976378
20
-2.4750355905511809
11
4.7786357086614171
21
-2.4751414566929135
0
LINE
8
BLACK
6
CONTINUOUS
10
4.7786357086614171
20
-2.4751414566929135
11
4.7786762992125986
21
-2.4752394488188978
0
LINE
8
BLACK
6
CONTINUOUS
10
4.7786762992125986
20
-2.4752394488188978
11
4.7787330314960625
21
-2.4758155118110237
0
LINE
8
BLACK
6
CONTINUOUS
10
4.7787330314960625
20
-2.4758155118110237
11
4.7787330314960625
21
-2.487064094488189
0
LINE
8
BLACK
6
CONTINUOUS
10
4.7787330314960625
20
-2.487064094488189
11
4.7786762992125986
21
-2.4876401574803149
0
LINE
8
BLACK
6
CONTINUOUS
10
4.7786762992125986
20
-2.4876401574803149
11
4.7786357086614171
21
-2.4877381102362204
0
LINE
8
BLACK
6
CONTINUOUS
10
4.7786357086614171
20
-2.4877381102362204
11
4.778628188976378
21
-2.4878440157480313
0
LINE
8
BLACK
6
CONTINUOUS
10
4.778628188976378
20
-2.4878440157480313
11
4.7784212992125985
21
-2.4883846062992125
0
LINE
8
BLACK
6
CONTINUOUS
10
4.7784212992125985
20
-2.4883846062992125
11
4.776546535433071
21
-2.4921341338582677
0
LINE
8
BLACK
6
CONTINUOUS
10
4.776546535433071
20
-2.4921341338582677
11
4.7763904330708664
21
-2.492382125984252
0
LINE
8
BLACK
6
CONTINUOUS
10
4.7763904330708664
20
-2.492382125984252
11
4.7763606299212595
21
-2.4924540944881888
0
LINE
8
BLACK
6
CONTINUOUS
10
4.7763606299212595
20
-2.4924540944881888
11
4.7762941732283464
21
-2.4925350393700785
0
LINE
8
BLACK
6
CONTINUOUS
10
4.7762941732283464
20
-2.4925350393700785
11
4.7762381889763779
21
-2.4926240157480315
0
LINE
8
BLACK
6
CONTINUOUS
10
4.7762381889763779
20
-2.4926240157480315
11
4.7761791338582675
21
-2.4926751968503935
0
LINE
8
BLACK
6
CONTINUOUS
10
4.7761791338582675
20
-2.4926751968503935
11
4.7759933858267711
21
-2.4929015748031493
0
LINE
8
BLACK
6
CONTINUOUS
10
4.7759933858267711
20
-2.4929015748031493
11
4.7741185826771648
21
-2.4947763385826769
0
LINE
8
BLACK
6
CONTINUOUS
10
4.7741185826771648
20
-2.4947763385826769
11
4.7738922440944878
21
-2.4949620472440945
0
LINE
8
BLACK
6
CONTINUOUS
10
4.7738922440944878
20
-2.4949620472440945
11
4.7738411023622049
21
-2.4950210629921261
0
LINE
8
BLACK
6
CONTINUOUS
10
4.7738411023622049
20
-2.4950210629921261
11
4.7737521653543302
21
-2.4950770078740159
0
LINE
8
BLACK
6
CONTINUOUS
10
4.7737521653543302
20
-2.4950770078740159
11
4.773671141732283
21
-2.4951435433070865
0
LINE
8
BLACK
6
CONTINUOUS
10
4.773671141732283
20
-2.4951435433070865
11
4.7735990944881888
21
-2.495173346456693
0
LINE
8
BLACK
6
CONTINUOUS
10
4.7735990944881888
20
-2.495173346456693
11
4.7733512204724411
21
-2.4953294094488188
0
LINE
8
BLACK
6
CONTINUOUS
10
4.7733512204724411
20
-2.4953294094488188
11
4.769601692913386
21
-2.4972041732283463
0
LINE
8
BLACK
6
CONTINUOUS
10
4.769601692913386
20
-2.4972041732283463
11
4.769061062992126
21
-2.4974110629921258
0
LINE
8
BLACK
6
CONTINUOUS
10
4.769061062992126
20
-2.4974110629921258
11
4.7689552362204726
21
-2.4974185433070866
0
LINE
8
BLACK
6
CONTINUOUS
10
4.7689552362204726
20
-2.4974185433070866
11
4.7688572440944883
21
-2.4974591732283464
0
LINE
8
BLACK
6
CONTINUOUS
10
4.7688572440944883
20
-2.4974591732283464
11
4.7682811811023624
21
-2.4975159055118108
0
LINE
8
BLACK
6
CONTINUOUS
10
4.7682811811023624
20
-2.4975159055118108
11
4.7589073622047247
21
-2.4975159055118108
0
LINE
8
BLACK
6
CONTINUOUS
10
4.7589073622047247
20
-2.4975159055118108
11
4.7583312992125979
21
-2.4974591732283464
0
LINE
8
BLACK
6
CONTINUOUS
10
4.7583312992125979
20
-2.4974591732283464
11
4.7582333070866136
21
-2.4974185826771653
0
LINE
8
BLACK
6
CONTINUOUS
10
4.7582333070866136
20
-2.4974185826771653
11
4.7581274409448815
21
-2.4974110629921258
0
LINE
8
BLACK
6
CONTINUOUS
10
4.7581274409448815
20
-2.4974110629921258
11
4.7575868503937011
21
-2.4972041732283463
0
LINE
8
BLACK
6
CONTINUOUS
10
4.7575868503937011
20
-2.4972041732283463
11
4.753837322834646
21
-2.4953294094488188
0
LINE
8
BLACK
6
CONTINUOUS
10
4.753837322834646
20
-2.4953294094488188
11
4.7535892913385824
21
-2.4951733070866142
0
LINE
8
BLACK
6
CONTINUOUS
10
4.7535892913385824
20
-2.4951733070866142
11
4.7535173622047244
21
-2.4951435039370078
0
LINE
8
BLACK
6
CONTINUOUS
10
4.7535173622047244
20
-2.4951435039370078
11
4.753436377952756
21
-2.4950770078740159
0
LINE
8
BLACK
6
CONTINUOUS
10
4.753436377952756
20
-2.4950770078740159
11
4.7533474409448822
21
-2.4950210629921261
0
LINE
8
BLACK
6
CONTINUOUS
10
4.7533474409448822
20
-2.4950210629921261
11
4.7532962598425197
21
-2.4949620472440945
0
LINE
8
BLACK
6
CONTINUOUS
10
4.7532962598425197
20
-2.4949620472440945
11
4.7530699212598426
21
-2.4947762992125986
0
LINE
8
BLACK
6
CONTINUOUS
10
4.7530699212598426
20
-2.4947762992125986
11
4.7511951574803151
21
-2.492901535433071
0
LINE
8
BLACK
6
CONTINUOUS
10
4.7511951574803151
20
-2.492901535433071
11
4.7510093700787399
21
-2.4926751574803148
0
LINE
8
BLACK
6
CONTINUOUS
10
4.7510093700787399
20
-2.4926751574803148
11
4.7509503937007871
21
-2.4926240157480315
0
LINE
8
BLACK
6
CONTINUOUS
10
4.7509503937007871
20
-2.4926240157480315
11
4.7508944094488186
21
-2.4925350393700785
0
LINE
8
BLACK
6
CONTINUOUS
10
4.7508944094488186
20
-2.4925350393700785
11
4.7508279527559054
21
-2.4924540944881888
0
LINE
8
BLACK
6
CONTINUOUS
10
4.7508279527559054
20
-2.4924540944881888
11
4.7507981102362207
21
-2.492382125984252
0
LINE
8
BLACK
6
CONTINUOUS
10
4.7507981102362207
20
-2.492382125984252
11
4.750642047244094
21
-2.4921341338582677
0
LINE
8
BLACK
6
CONTINUOUS
10
4.750642047244094
20
-2.4921341338582677
11
4.7487672834645664
21
-2.4883846062992125
0
LINE
8
BLACK
6
CONTINUOUS
10
4.7487672834645664
20
-2.4883846062992125
11
4.7485636220472438
21
-2.4878524015748029
0
LINE
8
BLACK
6
CONTINUOUS
10
4.7485636220472438
20
-2.4878524015748029
11
4.7383546062992128
21
-2.4967853149606301
0
LINE
8
BLACK
6
CONTINUOUS
10
4.7383546062992128
20
-2.4967853149606301
11
4.7381055905511813
21
-2.496963307086614
0
LINE
8
BLACK
6
CONTINUOUS
10
4.7381055905511813
20
-2.496963307086614
11
4.7380506692913382
21
-2.4970182677165353
0
LINE
8
BLACK
6
CONTINUOUS
10
4.7380506692913382
20
-2.4970182677165353
11
4.7379985433070866
21
-2.4970398425196851
0
LINE
8
BLACK
6
CONTINUOUS
10
4.7379985433070866
20
-2.4970398425196851
11
4.7378837007874015
21
-2.497121968503937
0
LINE
8
BLACK
6
CONTINUOUS
10
4.7378837007874015
20
-2.497121968503937
11
4.7374294488188973
21
-2.4972755511811022
0
LINE
8
BLACK
6
CONTINUOUS
10
4.7374294488188973
20
-2.4972755511811022
11
4.7369862598425199
21
-2.4974591732283464
0
LINE
8
BLACK
6
CONTINUOUS
10
4.7369862598425199
20
-2.4974591732283464
11
4.736886614173228
21
-2.4974591732283464
0
LINE
8
BLACK
6
CONTINUOUS
10
4.736886614173228
20
-2.4974591732283464
11
4.7367923228346456
21
-2.4974910629921259
0
LINE
8
BLACK
6
CONTINUOUS
10
4.7367923228346456
20
-2.4974910629921259
11
4.7363138582677164
21
-2.4974591732283464
0
LINE
8
BLACK
6
CONTINUOUS
10
4.7363138582677164
20
-2.4974591732283464
11
4.7358341338582672
21
-2.4974591732283464
0
LINE
8
BLACK
6
CONTINUOUS
10
4.7358341338582672
20
-2.4974591732283464
11
4.7357421259842516
21
-2.4974210629921259
0
LINE
8
BLACK
6
CONTINUOUS
10
4.7357421259842516
20
-2.4974210629921259
11
4.7356427952755906
21
-2.4974144488188976
0
LINE
8
BLACK
6
CONTINUOUS
10
4.7356427952755906
20
-2.4974144488188976
11
4.7352126377952759
21
-2.4972017322834645
0
LINE
8
BLACK
6
CONTINUOUS
10
4.7352126377952759
20
-2.4972017322834645
11
4.7347697244094489
21
-2.4970182677165353
0
LINE
8
BLACK
6
CONTINUOUS
10
4.7347697244094489
20
-2.4970182677165353
11
4.7346993700787401
21
-2.4969479133858266
0
LINE
8
BLACK
6
CONTINUOUS
10
4.7346993700787401
20
-2.4969479133858266
11
4.7346100393700787
21
-2.4969037401574803
0
LINE
8
BLACK
6
CONTINUOUS
10
4.7346100393700787
20
-2.4969037401574803
11
4.7342940551181103
21
-2.4965425984251968
0
LINE
8
BLACK
6
CONTINUOUS
10
4.7342940551181103
20
-2.4965425984251968
11
4.7339550787401574
21
-2.4962036220472439
0
LINE
8
BLACK
6
CONTINUOUS
10
4.7339550787401574
20
-2.4962036220472439
11
4.7339169291338585
21
-2.4961116141732282
0
LINE
8
BLACK
6
CONTINUOUS
10
4.7339169291338585
20
-2.4961116141732282
11
4.7338513779527558
21
-2.4960366535433072
0
LINE
8
BLACK
6
CONTINUOUS
10
4.7338513779527558
20
-2.4960366535433072
11
4.7336977559055118
21
-2.4955824015748029
0
LINE
8
BLACK
6
CONTINUOUS
10
4.7336977559055118
20
-2.4955824015748029
11
4.7335141732283468
21
-2.4951392125984251
0
LINE
8
BLACK
6
CONTINUOUS
10
4.7335141732283468
20
-2.4951392125984251
11
4.7335003149606294
21
-2.4949986220472442
0
LINE
8
BLACK
6
CONTINUOUS
10
4.7335003149606294
20
-2.4949986220472442
11
4.7334822834645669
21
-2.4949452755905512
0
LINE
8
BLACK
6
CONTINUOUS
10
4.7334822834645669
20
-2.4949452755905512
11
4.7334874409448817
21
-2.4948677952755904
0
LINE
8
BLACK
6
CONTINUOUS
10
4.7334874409448817
20
-2.4948677952755904
11
4.733457440944882
21
-2.4945631496062992
0
LINE
8
BLACK
6
CONTINUOUS
10
4.733457440944882
20
-2.4945631496062992
11
4.733457440944882
21
-2.470191220472441
0
LINE
8
BLACK
6
CONTINUOUS
10
4.733457440944882
20
-2.470191220472441
11
4.7335141732283468
21
-2.4696151574803151
0
LINE
8
BLACK
6
CONTINUOUS
10
4.7335141732283468
20
-2.4696151574803151
11
4.7339550787401574
21
-2.4685507480314959
0
LINE
8
BLACK
6
CONTINUOUS
10
4.7339550787401574
20
-2.4685507480314959
11
4.7347697244094489
21
-2.4677361023622049
0
LINE
8
BLACK
6
CONTINUOUS
10
4.7347697244094489
20
-2.4677361023622049
11
4.7358341338582672
21
-2.4672951968503938
0
LINE
8
BLACK
6
CONTINUOUS
10
4.7358341338582672
20
-2.4672951968503938
11
4.7369862598425199
21
-2.4672951968503938
0
LINE
8
BLACK
6
CONTINUOUS
10
4.7369862598425199
20
-2.4672951968503938
11
4.7380506692913382
21
-2.4677361023622049
0
LINE
8
BLACK
6
CONTINUOUS
10
4.7484386614173228
20
-2.4317227559055117
11
4.7494691732283467
21
-2.432238031496063
0
LINE
8
BLACK
6
CONTINUOUS
10
4.7494691732283467
20
-2.432238031496063
11
4.7502240157480315
21
-2.4331083858267717
0
LINE
8
BLACK
6
CONTINUOUS
10
4.7502240157480315
20
-2.4331083858267717
11
4.7505883464566931
21
-2.434201377952756
0
LINE
8
BLACK
6
CONTINUOUS
10
4.7505883464566931
20
-2.434201377952756
11
4.7505066929133859
21
-2.435350590551181
0
LINE
8
BLACK
6
CONTINUOUS
10
4.7505066929133859
20
-2.435350590551181
11
4.7502998031496064
21
-2.4358911811023622
0
LINE
8
BLACK
6
CONTINUOUS
10
4.7502998031496064
20
-2.4358911811023622
11
4.7484250393700789
21
-2.4396407086614174
0
LINE
8
BLACK
6
CONTINUOUS
10
4.7484250393700789
20
-2.4396407086614174
11
4.748269015748031
21
-2.439888503937008
0
LINE
8
BLACK
6
CONTINUOUS
10
4.748269015748031
20
-2.439888503937008
11
4.7482391732283462
21
-2.4399606692913385
0
LINE
8
BLACK
6
CONTINUOUS
10
4.7482391732283462
20
-2.4399606692913385
11
4.748172559055118
21
-2.4400418110236219
0
LINE
8
BLACK
6
CONTINUOUS
10
4.748172559055118
20
-2.4400418110236219
11
4.7481166929133858
21
-2.4401305905511812
0
LINE
8
BLACK
6
CONTINUOUS
10
4.7481166929133858
20
-2.4401305905511812
11
4.7480577559055117
21
-2.4401816929133857
0
LINE
8
BLACK
6
CONTINUOUS
10
4.7480577559055117
20
-2.4401816929133857
11
4.7478719291338578
21
-2.4404081102362203
0
LINE
8
BLACK
6
CONTINUOUS
10
4.7478719291338578
20
-2.4404081102362203
11
4.7454135433070865
21
-2.442866496062992
0
LINE
8
BLACK
6
CONTINUOUS
10
4.7454135433070865
20
-2.442866496062992
11
4.7728275196850394
21
-2.442866496062992
0
LINE
8
BLACK
6
CONTINUOUS
10
4.7728275196850394
20
-2.442866496062992
11
4.7728275196850394
21
-2.4345706692913387
0
LINE
8
BLACK
6
CONTINUOUS
10
4.7728275196850394
20
-2.4345706692913387
11
4.7728842519685042
21
-2.4339946062992124
0
LINE
8
BLACK
6
CONTINUOUS
10
4.7728842519685042
20
-2.4339946062992124
11
4.7733251574803148
21
-2.4329301968503936
0
LINE
8
BLACK
6
CONTINUOUS
10
4.7733251574803148
20
-2.4329301968503936
11
4.7741398031496063
21
-2.4321155511811021
0
LINE
8
BLACK
6
CONTINUOUS
10
4.7741398031496063
20
-2.4321155511811021
11
4.7752042125984246
21
-2.4316746456692915
0
LINE
8
BLACK
6
CONTINUOUS
10
4.7752042125984246
20
-2.4316746456692915
11
4.7763563385826773
21
-2.4316746456692915
0
LINE
8
BLACK
6
CONTINUOUS
10
4.7763563385826773
20
-2.4316746456692915
11
4.7774207480314956
21
-2.4321155511811021
0
LINE
8
BLACK
6
CONTINUOUS
10
4.7774207480314956
20
-2.4321155511811021
11
4.7782353937007871
21
-2.4329301968503936
0
LINE
8
BLACK
6
CONTINUOUS
10
4.7782353937007871
20
-2.4329301968503936
11
4.7786762992125986
21
-2.4339946062992124
0
LINE
8
BLACK
6
CONTINUOUS
10
4.7786762992125986
20
-2.4339946062992124
11
4.7787330314960625
21
-2.4345706692913387
0
LINE
8
BLACK
6
CONTINUOUS
10
4.7787330314960625
20
-2.4345706692913387
11
4.7787330314960625
21
-2.4570678346456694
0
LINE
8
BLACK
6
CONTINUOUS
10
4.7787330314960625
20
-2.4570678346456694
11
4.7786762992125986
21
-2.4576438976377952
0
LINE
8
BLACK
6
CONTINUOUS
10
4.7786762992125986
20
-2.4576438976377952
11
4.7782353937007871
21
-2.458708307086614
0
LINE
8
BLACK
6
CONTINUOUS
10
4.7782353937007871
20
-2.458708307086614
11
4.7774207480314956
21
-2.4595229527559055
0
LINE
8
BLACK
6
CONTINUOUS
10
4.7774207480314956
20
-2.4595229527559055
11
4.7763563385826773
21
-2.4599638582677166
0
LINE
8
BLACK
6
CONTINUOUS
10
4.7763563385826773
20
-2.4599638582677166
11
4.7752042125984246
21
-2.4599638582677166
0
LINE
8
BLACK
6
CONTINUOUS
10
4.7752042125984246
20
-2.4599638582677166
11
4.7741398031496063
21
-2.4595229527559055
0
LINE
8
BLACK
6
CONTINUOUS
10
4.7741398031496063
20
-2.4595229527559055
11
4.7733251574803148
21
-2.458708307086614
0
LINE
8
BLACK
6
CONTINUOUS
10
4.7733251574803148
20
-2.458708307086614
11
4.7728842519685042
21
-2.4576438976377952
0
LINE
8
BLACK
6
CONTINUOUS
10
4.7728842519685042
20
-2.4576438976377952
11
4.7728275196850394
21
-2.4570678346456694
0
LINE
8
BLACK
6
CONTINUOUS
10
4.7728275196850394
20
-2.4570678346456694
11
4.7728275196850394
21
-2.4487720078740156
0
LINE
8
BLACK
6
CONTINUOUS
10
4.7728275196850394
20
-2.4487720078740156
11
4.736410196850394
21
-2.4487720078740156
0
LINE
8
BLACK
6
CONTINUOUS
10
4.736410196850394
20
-2.4487720078740156
11
4.7364081102362201
21
-2.4487717716535431
0
LINE
8
BLACK
6
CONTINUOUS
10
4.7364081102362201
20
-2.4487717716535431
11
4.7364070866141734
21
-2.4487720078740156
0
LINE
8
BLACK
6
CONTINUOUS
10
4.7364070866141734
20
-2.4487720078740156
11
4.7364040551181104
21
-2.448771377952756
0
LINE
8
BLACK
6
CONTINUOUS
10
4.7364040551181104
20
-2.448771377952756
11
4.7358341338582672
21
-2.4487152755905512
0
LINE
8
BLACK
6
CONTINUOUS
10
4.7358341338582672
20
-2.4487152755905512
11
4.7355640157480314
21
-2.4486033858267717
0
LINE
8
BLACK
6
CONTINUOUS
10
4.7355640157480314
20
-2.4486033858267717
11
4.7352774015748027
21
-2.4485460629921261
0
LINE
8
BLACK
6
CONTINUOUS
10
4.7352774015748027
20
-2.4485460629921261
11
4.7350370078740154
21
-2.4483850787401575
0
LINE
8
BLACK
6
CONTINUOUS
10
4.7350370078740154
20
-2.4483850787401575
11
4.7347697244094489
21
-2.4482743700787402
0
LINE
8
BLACK
6
CONTINUOUS
10
4.7347697244094489
20
-2.4482743700787402
11
4.7345629921259844
21
-2.4480676377952757
0
LINE
8
BLACK
6
CONTINUOUS
10
4.7345629921259844
20
-2.4480676377952757
11
4.7343201181102357
21
-2.447905
0
LINE
8
BLACK
6
CONTINUOUS
10
4.7343201181102357
20
-2.447905
11
4.7341596062992126
21
-2.4476642519685039
0
LINE
8
BLACK
6
CONTINUOUS
10
4.7341596062992126
20
-2.4476642519685039
11
4.7339550787401574
21
-2.4474597244094487
0
LINE
8
BLACK
6
CONTINUOUS
10
4.7339550787401574
20
-2.4474597244094487
11
4.7338431889763779
21
-2.4471896062992124
0
LINE
8
BLACK
6
CONTINUOUS
10
4.7338431889763779
20
-2.4471896062992124
11
4.7336810236220472
21
-2.4469463779527558
0
LINE
8
BLACK
6
CONTINUOUS
10
4.7336810236220472
20
-2.4469463779527558
11
4.7336248818897637
21
-2.4466625590551181
0
LINE
8
BLACK
6
CONTINUOUS
10
4.7336248818897637
20
-2.4466625590551181
11
4.7335141732283468
21
-2.4463953149606299
0
LINE
8
BLACK
6
CONTINUOUS
10
4.7335141732283468
20
-2.4463953149606299
11
4.7335141732283468
21
-2.4461029133858267
0
LINE
8
BLACK
6
CONTINUOUS
10
4.7335141732283468
20
-2.4461029133858267
11
4.733457440944882
21
-2.4458161417322835
0
LINE
8
BLACK
6
CONTINUOUS
10
4.733457440944882
20
-2.4458161417322835
11
4.7335141732283468
21
-2.4455324803149607
0
LINE
8
BLACK
6
CONTINUOUS
10
4.7335141732283468
20
-2.4455324803149607
11
4.7335141732283468
21
-2.4452431889763777
0
LINE
8
BLACK
6
CONTINUOUS
10
4.7335141732283468
20
-2.4452431889763777
11
4.7336260236220475
21
-2.4449730708661415
0
LINE
8
BLACK
6
CONTINUOUS
10
4.7336260236220475
20
-2.4449730708661415
11
4.7336833858267715
21
-2.4446864566929132
0
LINE
8
BLACK
6
CONTINUOUS
10
4.7336833858267715
20
-2.4446864566929132
11
4.7338443307086617
21
-2.4444460629921259
0
LINE
8
BLACK
6
CONTINUOUS
10
4.7338443307086617
20
-2.4444460629921259
11
4.7339550787401574
21
-2.4441787795275589
0
LINE
8
BLACK
6
CONTINUOUS
10
4.7339550787401574
20
-2.4441787795275589
11
4.7341617716535431
21
-2.4439720472440944
0
LINE
8
BLACK
6
CONTINUOUS
10
4.7341617716535431
20
-2.4439720472440944
11
4.7343244488188976
21
-2.4437291732283466
0
LINE
8
BLACK
6
CONTINUOUS
10
4.7343244488188976
20
-2.4437291732283466
11
4.7347676771653546
21
-2.4433661417322834
0
LINE
8
BLACK
6
CONTINUOUS
10
4.7347676771653546
20
-2.4433661417322834
11
4.7347697244094489
21
-2.4433641338582675
0
LINE
8
BLACK
6
CONTINUOUS
10
4.7347697244094489
20
-2.4433641338582675
11
4.7347705905511814
21
-2.4433637401574804
0
LINE
8
BLACK
6
CONTINUOUS
10
4.7347705905511814
20
-2.4433637401574804
11
4.7347722834645669
21
-2.4433624015748032
0
LINE
8
BLACK
6
CONTINUOUS
10
4.7347722834645669
20
-2.4433624015748032
11
4.7401533070866142
21
-2.4397750393700788
0
LINE
8
BLACK
6
CONTINUOUS
10
4.7401533070866142
20
-2.4397750393700788
11
4.743357283464567
21
-2.4365711023622048
0
LINE
8
BLACK
6
CONTINUOUS
10
4.743357283464567
20
-2.4365711023622048
11
4.7450177559055113
21
-2.4332501574803147
0
LINE
8
BLACK
6
CONTINUOUS
10
4.7450177559055113
20
-2.4332501574803147
11
4.7453261023622044
21
-2.4327602755905513
0
LINE
8
BLACK
6
CONTINUOUS
10
4.7453261023622044
20
-2.4327602755905513
11
4.7461964960629919
21
-2.432005433070866
0
LINE
8
BLACK
6
CONTINUOUS
10
4.7461964960629919
20
-2.432005433070866
11
4.7472894488188979
21
-2.4316411023622049
0
LINE
8
BLACK
6
CONTINUOUS
10
4.7472894488188979
20
-2.4316411023622049
11
4.7484386614173228
21
-2.4317227559055117
0
LINE
8
BLACK
6
CONTINUOUS
10
4.7590078740157482
20
-2.3922577165354331
11
4.7590509055118106
21
-2.3922513385826769
0
LINE
8
BLACK
6
CONTINUOUS
10
4.7590509055118106
20
-2.3922513385826769
11
4.7592663779527555
21
-2.392283188976378
0
LINE
8
BLACK
6
CONTINUOUS
10
4.7592663779527555
20
-2.392283188976378
11
4.7594834251968505
21
-2.3923045669291336
0
LINE
8
BLACK
6
CONTINUOUS
10
4.7594834251968505
20
-2.3923045669291336
11
4.7595236220472437
21
-2.3923211811023624
0
LINE
8
BLACK
6
CONTINUOUS
10
4.7595236220472437
20
-2.3923211811023624
11
4.7596235039370081
21
-2.3923359842519685
0
LINE
8
BLACK
6
CONTINUOUS
10
4.7596235039370081
20
-2.3923359842519685
11
4.7671225590551183
21
-2.394210748031496
0
LINE
8
BLACK
6
CONTINUOUS
10
4.7671225590551183
20
-2.394210748031496
11
4.7671650393700791
21
-2.3942259055118109
0
LINE
8
BLACK
6
CONTINUOUS
10
4.7671650393700791
20
-2.3942259055118109
11
4.7671862992125984
21
-2.3942274409448818
0
LINE
8
BLACK
6
CONTINUOUS
10
4.7671862992125984
20
-2.3942274409448818
11
4.7674257086614169
21
-2.3943190551181104
0
LINE
8
BLACK
6
CONTINUOUS
10
4.7674257086614169
20
-2.3943190551181104
11
4.7676676771653543
21
-2.3944055118110237
0
LINE
8
BLACK
6
CONTINUOUS
10
4.7676676771653543
20
-2.3944055118110237
11
4.7676848031496064
21
-2.394418188976378
0
LINE
8
BLACK
6
CONTINUOUS
10
4.7676848031496064
20
-2.394418188976378
11
4.7677269291338584
21
-2.3944343307086613
0
LINE
8
BLACK
6
CONTINUOUS
10
4.7677269291338584
20
-2.3944343307086613
11
4.7714764566929135
21
-2.3963090944881889
0
LINE
8
BLACK
6
CONTINUOUS
10
4.7714764566929135
20
-2.3963090944881889
11
4.7717243307086612
21
-2.3964651181102363
0
LINE
8
BLACK
6
CONTINUOUS
10
4.7717243307086612
20
-2.3964651181102363
11
4.7717963779527555
21
-2.3964949606299211
0
LINE
8
BLACK
6
CONTINUOUS
10
4.7717963779527555
20
-2.3964949606299211
11
4.7718774015748027
21
-2.3965614566929134
0
LINE
8
BLACK
6
CONTINUOUS
10
4.7718774015748027
20
-2.3965614566929134
11
4.7719663385826774
21
-2.3966174409448819
0
LINE
8
BLACK
6
CONTINUOUS
10
4.7719663385826774
20
-2.3966174409448819
11
4.7720174803149602
21
-2.3966764173228348
0
LINE
8
BLACK
6
CONTINUOUS
10
4.7720174803149602
20
-2.3966764173228348
11
4.772243858267716
21
-2.3968622047244095
0
LINE
8
BLACK
6
CONTINUOUS
10
4.772243858267716
20
-2.3968622047244095
11
4.7759934251968499
21
-2.4006117322834646
0
LINE
8
BLACK
6
CONTINUOUS
10
4.7759934251968499
20
-2.4006117322834646
11
4.7763606692913383
21
-2.4010591732283464
0
LINE
8
BLACK
6
CONTINUOUS
10
4.7763606692913383
20
-2.4010591732283464
11
4.7764012598425198
21
-2.4011572047244094
0
LINE
8
BLACK
6
CONTINUOUS
10
4.7764012598425198
20
-2.4011572047244094
11
4.7764707480314961
21
-2.4012373228346457
0
LINE
8
BLACK
6
CONTINUOUS
10
4.7764707480314961
20
-2.4012373228346457
11
4.7767067322834649
21
-2.401765905511811
0
LINE
8
BLACK
6
CONTINUOUS
10
4.7767067322834649
20
-2.401765905511811
11
4.7785814960629924
21
-2.4073901574803149
0
LINE
8
BLACK
6
CONTINUOUS
10
4.7785814960629924
20
-2.4073901574803149
11
4.7786464173228342
21
-2.4076757874015748
0
LINE
8
BLACK
6
CONTINUOUS
10
4.7786464173228342
20
-2.4076757874015748
11
4.7786762992125986
21
-2.4077478740157479
0
LINE
8
BLACK
6
CONTINUOUS
10
4.7786762992125986
20
-2.4077478740157479
11
4.7786865748031495
21
-2.4078523228346458
0
LINE
8
BLACK
6
CONTINUOUS
10
4.7786865748031495
20
-2.4078523228346458
11
4.7787098425196852
21
-2.4079546062992128
0
LINE
8
BLACK
6
CONTINUOUS
10
4.7787098425196852
20
-2.4079546062992128
11
4.7787042913385829
21
-2.4080323228346456
0
LINE
8
BLACK
6
CONTINUOUS
10
4.7787042913385829
20
-2.4080323228346456
11
4.7787330314960625
21
-2.4083239370078742
0
LINE
8
BLACK
6
CONTINUOUS
10
4.7787330314960625
20
-2.4083239370078742
11
4.7787330314960625
21
-2.4120734645669293
0
LINE
8
BLACK
6
CONTINUOUS
10
4.7787330314960625
20
-2.4120734645669293
11
4.7787042913385829
21
-2.4123650393700786
0
LINE
8
BLACK
6
CONTINUOUS
10
4.7787042913385829
20
-2.4123650393700786
11
4.7787098425196852
21
-2.4124427952755907
0
LINE
8
BLACK
6
CONTINUOUS
10
4.7787098425196852
20
-2.4124427952755907
11
4.7786865748031495
21
-2.4125450393700785
0
LINE
8
BLACK
6
CONTINUOUS
10
4.7786865748031495
20
-2.4125450393700785
11
4.7786762992125986
21
-2.4126495275590552
0
LINE
8
BLACK
6
CONTINUOUS
10
4.7786762992125986
20
-2.4126495275590552
11
4.7786464173228342
21
-2.4127215748031494
0
LINE
8
BLACK
6
CONTINUOUS
10
4.7786464173228342
20
-2.4127215748031494
11
4.7785814960629924
21
-2.4130072440944881
0
LINE
8
BLACK
6
CONTINUOUS
10
4.7785814960629924
20
-2.4130072440944881
11
4.7767067322834649
21
-2.418631496062992
0
LINE
8
BLACK
6
CONTINUOUS
10
4.7767067322834649
20
-2.418631496062992
11
4.7764707480314961
21
-2.4191600787401573
0
LINE
8
BLACK
6
CONTINUOUS
10
4.7764707480314961
20
-2.4191600787401573
11
4.7764011811023623
21
-2.4192402362204724
0
LINE
8
BLACK
6
CONTINUOUS
10
4.7764011811023623
20
-2.4192402362204724
11
4.7763606299212595
21
-2.4193382283464566
0
LINE
8
BLACK
6
CONTINUOUS
10
4.7763606299212595
20
-2.4193382283464566
11
4.7759933858267711
21
-2.4197857086614172
0
LINE
8
BLACK
6
CONTINUOUS
10
4.7759933858267711
20
-2.4197857086614172
11
4.7741185826771648
21
-2.4216604724409447
0
LINE
8
BLACK
6
CONTINUOUS
10
4.7741185826771648
20
-2.4216604724409447
11
4.773671141732283
21
-2.4220276771653544
0
LINE
8
BLACK
6
CONTINUOUS
10
4.773671141732283
20
-2.4220276771653544
11
4.7726067322834647
21
-2.4224685433070867
0
LINE
8
BLACK
6
CONTINUOUS
10
4.7726067322834647
20
-2.4224685433070867
11
4.7714546456692917
21
-2.4224685433070867
0
LINE
8
BLACK
6
CONTINUOUS
10
4.7714546456692917
20
-2.4224685433070867
11
4.7703902362204724
21
-2.4220276377952756
0
LINE
8
BLACK
6
CONTINUOUS
10
4.7703902362204724
20
-2.4220276377952756
11
4.7695755511811022
21
-2.4212129527559054
0
LINE
8
BLACK
6
CONTINUOUS
10
4.7695755511811022
20
-2.4212129527559054
11
4.7691346850393703
21
-2.4201485433070866
0
LINE
8
BLACK
6
CONTINUOUS
10
4.7691346850393703
20
-2.4201485433070866
11
4.7691346850393703
21
-2.4189964566929132
0
LINE
8
BLACK
6
CONTINUOUS
10
4.7691346850393703
20
-2.4189964566929132
11
4.769575590551181
21
-2.4179320472440944
0
LINE
8
BLACK
6
CONTINUOUS
10
4.769575590551181
20
-2.4179320472440944
11
4.7699428346456694
21
-2.4174845669291338
0
LINE
8
BLACK
6
CONTINUOUS
10
4.7699428346456694
20
-2.4174845669291338
11
4.7713247244094488
21
-2.4161026771653544
0
LINE
8
BLACK
6
CONTINUOUS
10
4.7713247244094488
20
-2.4161026771653544
11
4.7728275196850394
21
-2.4115943307086614
0
LINE
8
BLACK
6
CONTINUOUS
10
4.7728275196850394
20
-2.4115943307086614
11
4.7728275196850394
21
-2.4088030708661416
0
LINE
8
BLACK
6
CONTINUOUS
10
4.7728275196850394
20
-2.4088030708661416
11
4.7713247244094488
21
-2.4042946850393698
0
LINE
8
BLACK
6
CONTINUOUS
10
4.7713247244094488
20
-2.4042946850393698
11
4.7684068503937009
21
-2.4013768503937007
0
LINE
8
BLACK
6
CONTINUOUS
10
4.7684068503937009
20
-2.4013768503937007
11
4.7653758661417323
21
-2.399861338582677
0
LINE
8
BLACK
6
CONTINUOUS
10
4.7653758661417323
20
-2.399861338582677
11
4.7585438188976381
21
-2.3981533464566929
0
LINE
8
BLACK
6
CONTINUOUS
10
4.7585438188976381
20
-2.3981533464566929
11
4.7536466141732285
21
-2.3981533464566929
0
LINE
8
BLACK
6
CONTINUOUS
10
4.7536466141732285
20
-2.3981533464566929
11
4.7468145669291335
21
-2.399861338582677
0
LINE
8
BLACK
6
CONTINUOUS
10
4.7468145669291335
20
-2.399861338582677
11
4.7437835826771648
21
-2.4013768503937007
0
LINE
8
BLACK
6
CONTINUOUS
10
4.7437835826771648
20
-2.4013768503937007
11
4.7408657480314957
21
-2.4042946456692911
0
LINE
8
BLACK
6
CONTINUOUS
10
4.7408657480314957
20
-2.4042946456692911
11
4.7393629527559051
21
-2.4088030708661416
0
LINE
8
BLACK
6
CONTINUOUS
10
4.7393629527559051
20
-2.4088030708661416
11
4.7393629527559051
21
-2.4115942913385826
0
LINE
8
BLACK
6
CONTINUOUS
10
4.7393629527559051
20
-2.4115942913385826
11
4.7408657480314957
21
-2.4161027165354332
0
LINE
8
BLACK
6
CONTINUOUS
10
4.7408657480314957
20
-2.4161027165354332
11
4.7422476377952751
21
-2.4174846062992126
0
LINE
8
BLACK
6
CONTINUOUS
10
4.7422476377952751
20
-2.4174846062992126
11
4.7426148425196848
21
-2.4179320472440944
0
LINE
8
BLACK
6
CONTINUOUS
10
4.7426148425196848
20
-2.4179320472440944
11
4.7430557480314963
21
-2.4189964566929132
0
LINE
8
BLACK
6
CONTINUOUS
10
4.7430557480314963
20
-2.4189964566929132
11
4.7430557480314963
21
-2.4201485433070866
0
LINE
8
BLACK
6
CONTINUOUS
10
4.7430557480314963
20
-2.4201485433070866
11
4.7426148425196848
21
-2.4212129527559054
0
LINE
8
BLACK
6
CONTINUOUS
10
4.7426148425196848
20
-2.4212129527559054
11
4.7418001574803146
21
-2.4220276377952756
0
LINE
8
BLACK
6
CONTINUOUS
10
4.7418001574803146
20
-2.4220276377952756
11
4.7407357480314962
21
-2.4224685433070867
0
LINE
8
BLACK
6
CONTINUOUS
10
4.7407357480314962
20
-2.4224685433070867
11
4.7395836614173223
21
-2.4224685433070867
0
LINE
8
BLACK
6
CONTINUOUS
10
4.7395836614173223
20
-2.4224685433070867
11
4.738519251968504
21
-2.4220276377952756
0
LINE
8
BLACK
6
CONTINUOUS
10
4.738519251968504
20
-2.4220276377952756
11
4.7380718110236222
21
-2.421660433070866
0
LINE
8
BLACK
6
CONTINUOUS
10
4.7380718110236222
20
-2.421660433070866
11
4.7361970472440946
21
-2.4197856692913384
0
LINE
8
BLACK
6
CONTINUOUS
10
4.7361970472440946
20
-2.4197856692913384
11
4.735829842519685
21
-2.4193382283464566
0
LINE
8
BLACK
6
CONTINUOUS
10
4.735829842519685
20
-2.4193382283464566
11
4.7357892125984247
21
-2.4192401574803148
0
LINE
8
BLACK
6
CONTINUOUS
10
4.7357892125984247
20
-2.4192401574803148
11
4.7357197244094484
21
-2.4191600393700785
0
LINE
8
BLACK
6
CONTINUOUS
10
4.7357197244094484
20
-2.4191600393700785
11
4.7354837401574805
21
-2.418631496062992
0
LINE
8
BLACK
6
CONTINUOUS
10
4.7354837401574805
20
-2.418631496062992
11
4.733608976377953
21
-2.4130072047244093
0
LINE
8
BLACK
6
CONTINUOUS
10
4.733608976377953
20
-2.4130072047244093
11
4.7335440157480315
21
-2.4127216141732282
0
LINE
8
BLACK
6
CONTINUOUS
10
4.7335440157480315
20
-2.4127216141732282
11
4.7335141732283468
21
-2.4126495275590552
0
LINE
8
BLACK
6
CONTINUOUS
10
4.7335141732283468
20
-2.4126495275590552
11
4.7335038582677162
21
-2.4125450000000002
0
LINE
8
BLACK
6
CONTINUOUS
10
4.7335038582677162
20
-2.4125450000000002
11
4.7334806299212602
21
-2.4124427559055119
0
LINE
8
BLACK
6
CONTINUOUS
10
4.7334806299212602
20
-2.4124427559055119
11
4.7334861417322838
21
-2.4123649999999999
0
LINE
8
BLACK
6
CONTINUOUS
10
4.7334861417322838
20
-2.4123649999999999
11
4.733457440944882
21
-2.4120734645669293
0
LINE
8
BLACK
6
CONTINUOUS
10
4.733457440944882
20
-2.4120734645669293
11
4.733457440944882
21
-2.4083239370078742
0
LINE
8
BLACK
6
CONTINUOUS
10
4.733457440944882
20
-2.4083239370078742
11
4.7334861417322838
21
-2.4080323622047244
0
LINE
8
BLACK
6
CONTINUOUS
10
4.7334861417322838
20
-2.4080323622047244
11
4.7334806299212602
21
-2.4079546456692911
0
LINE
8
BLACK
6
CONTINUOUS
10
4.7334806299212602
20
-2.4079546456692911
11
4.7335038582677162
21
-2.4078523622047245
0
LINE
8
BLACK
6
CONTINUOUS
10
4.7335038582677162
20
-2.4078523622047245
11
4.7335141732283468
21
-2.4077478740157479
0
LINE
8
BLACK
6
CONTINUOUS
10
4.7335141732283468
20
-2.4077478740157479
11
4.7335440157480315
21
-2.4076757480314961
0
LINE
8
BLACK
6
CONTINUOUS
10
4.7335440157480315
20
-2.4076757480314961
11
4.733608976377953
21
-2.4073901968503937
0
LINE
8
BLACK
6
CONTINUOUS
10
4.733608976377953
20
-2.4073901968503937
11
4.7354837401574805
21
-2.401765905511811
0
LINE
8
BLACK
6
CONTINUOUS
10
4.7354837401574805
20
-2.401765905511811
11
4.7357197244094484
21
-2.4012373622047245
0
LINE
8
BLACK
6
CONTINUOUS
10
4.7357197244094484
20
-2.4012373622047245
11
4.7357892125984247
21
-2.4011572047244094
0
LINE
8
BLACK
6
CONTINUOUS
10
4.7357892125984247
20
-2.4011572047244094
11
4.735829842519685
21
-2.4010591732283464
0
LINE
8
BLACK
6
CONTINUOUS
10
4.735829842519685
20
-2.4010591732283464
11
4.7361970472440946
21
-2.4006117322834646
0
LINE
8
BLACK
6
CONTINUOUS
10
4.7361970472440946
20
-2.4006117322834646
11
4.7399465748031497
21
-2.3968622047244095
0
LINE
8
BLACK
6
CONTINUOUS
10
4.7399465748031497
20
-2.3968622047244095
11
4.7401729527559056
21
-2.3966763385826773
0
LINE
8
BLACK
6
CONTINUOUS
10
4.7401729527559056
20
-2.3966763385826773
11
4.7402240944881893
21
-2.3966174409448819
0
LINE
8
BLACK
6
CONTINUOUS
10
4.7402240944881893
20
-2.3966174409448819
11
4.7403128346456693
21
-2.3965615354330709
0
LINE
8
BLACK
6
CONTINUOUS
10
4.7403128346456693
20
-2.3965615354330709
11
4.7403940157480315
21
-2.3964949606299211
0
LINE
8
BLACK
6
CONTINUOUS
10
4.7403940157480315
20
-2.3964949606299211
11
4.7404661417322833
21
-2.3964650787401576
0
LINE
8
BLACK
6
CONTINUOUS
10
4.7404661417322833
20
-2.3964650787401576
11
4.7407139763779522
21
-2.3963090944881889
0
LINE
8
BLACK
6
CONTINUOUS
10
4.7407139763779522
20
-2.3963090944881889
11
4.7444635039370073
21
-2.3944343307086613
0
LINE
8
BLACK
6
CONTINUOUS
10
4.7444635039370073
20
-2.3944343307086613
11
4.7445055905511806
21
-2.394418188976378
0
LINE
8
BLACK
6
CONTINUOUS
10
4.7445055905511806
20
-2.394418188976378
11
4.7445227559055114
21
-2.3944055118110237
0
LINE
8
BLACK
6
CONTINUOUS
10
4.7445227559055114
20
-2.3944055118110237
11
4.7447643307086613
21
-2.3943191732283462
0
LINE
8
BLACK
6
CONTINUOUS
10
4.7447643307086613
20
-2.3943191732283462
11
4.7450040944881886
21
-2.3942274409448818
0
LINE
8
BLACK
6
CONTINUOUS
10
4.7450040944881886
20
-2.3942274409448818
11
4.7450253543307088
21
-2.3942259055118109
0
LINE
8
BLACK
6
CONTINUOUS
10
4.7450253543307088
20
-2.3942259055118109
11
4.7450678740157484
21
-2.394210748031496
0
LINE
8
BLACK
6
CONTINUOUS
10
4.7450678740157484
20
-2.394210748031496
11
4.7525669291338586
21
-2.3923359842519685
0
LINE
8
BLACK
6
CONTINUOUS
10
4.7525669291338586
20
-2.3923359842519685
11
4.7526667716535433
21
-2.3923211811023624
0
LINE
8
BLACK
6
CONTINUOUS
10
4.7526667716535433
20
-2.3923211811023624
11
4.7527070078740152
21
-2.3923045669291336
0
LINE
8
BLACK
6
CONTINUOUS
10
4.7527070078740152
20
-2.3923045669291336
11
4.7529240157480315
21
-2.392283188976378
0
LINE
8
BLACK
6
CONTINUOUS
10
4.7529240157480315
20
-2.392283188976378
11
4.7531395275590551
21
-2.3922513385826769
0
LINE
8
BLACK
6
CONTINUOUS
10
4.7531395275590551
20
-2.3922513385826769
11
4.7531825196850397
21
-2.3922577165354331
0
LINE
8
BLACK
6
CONTINUOUS
10
4.7531825196850397
20
-2.3922577165354331
11
4.753283070866142
21
-2.3922478346456693
0
LINE
8
BLACK
6
CONTINUOUS
10
4.753283070866142
20
-2.3922478346456693
11
4.7589073622047247
21
-2.3922478346456693
0
LINE
8
BLACK
6
CONTINUOUS
10
4.7589073622047247
20
-2.3922478346456693
11
4.7590078740157482
21
-2.3922577165354331
  0
ENDSEC
  0
EOF
