  0
SECTION
  2
HEADER
  9
$ANGBASE
  50
0.0
  9
$ANGDIR
  70
1
  9
$MEASUREMENT
  70
1
  0
ENDSEC
  0
SECTION
  2
TABLES
  0
TABLE
  2
LTYPE
  70
4
  0
LTYPE
  5
40F
  2
CONTINUOUS
  70
0
  3
Solid line
  72
65
  73
0
  40
0.0
  0
LTYPE
  5
410
  2
DASHDOT
 70
0
  3
Dash Dot ____ _ ____ _
 72
65
 73
4
 40
2.0
 49
1.25
 49
-0.25
 49
0.25
 49
-0.25
  0
LTYPE
  5
411
  2
DASHED
 70
0
  3
Dashed __ __ __ __ __
 72
65
 73
2
 40
0.75
 49
0.5
 49
-0.25
  0
LTYPE
  5
43B
  2
DOTTED
 70
0
  3
Dotted .  .  .  .
 72
65
 73
2
 40
0.2
 49
0.0
 49
-0.2
  0
ENDTAB
  0
TABLE
  2
STYLE
  70
4
  0
STYLE
  2
KICAD
  70
0
  40
0
  41
1
  42
1
  50
0
  71
0
  3
isocp.shx
  0
STYLE
  2
KICADB
  70
0
  40
0
  41
1
  42
1
  50
0
  71
0
  3
isocp.shx
  0
STYLE
  2
KICADI
  70
0
  40
0
  41
1
  42
1
  50
15
  71
0
  3
isocp.shx
  0
STYLE
  2
KICADBI
  70
0
  40
0
  41
1
  42
1
  50
15
  71
0
  3
isocp.shx
  0
ENDTAB
  0
TABLE
  2
LAYER
  70
1
  0
LAYER
  2
BLACK
  70
0
  62
7
  6
CONTINUOUS
  0
ENDTAB
  0
ENDSEC
  0
SECTION
  2
ENTITIES
0
LINE
8
BLACK
6
CONTINUOUS
10
207.3595669999999984
20
-46.2769029999999972
11
207.3730970000000013
21
-46.2904330000000002
0
LINE
8
BLACK
6
CONTINUOUS
10
207.3730970000000013
20
-46.2904330000000002
11
207.375
21
-46.2999999999999972
0
LINE
8
BLACK
6
CONTINUOUS
10
207.375
20
-46.2999999999999972
11
207.375
21
-151.7999999999999829
0
LINE
8
BLACK
6
CONTINUOUS
10
207.375
20
-151.7999999999999829
11
207.3730970000000013
21
-151.809566999999987
0
LINE
8
BLACK
6
CONTINUOUS
10
207.3730970000000013
20
-151.809566999999987
11
207.3595669999999984
21
-151.82309699999999
0
LINE
8
BLACK
6
CONTINUOUS
10
207.3595669999999984
20
-151.82309699999999
11
207.3499999999999943
21
-151.8249999999999886
0
LINE
8
BLACK
6
CONTINUOUS
10
207.3499999999999943
20
-151.8249999999999886
11
46.6000000000000014
21
-151.8249999999999886
0
LINE
8
BLACK
6
CONTINUOUS
10
46.6000000000000014
20
-151.8249999999999886
11
46.5904329999999973
21
-151.82309699999999
0
LINE
8
BLACK
6
CONTINUOUS
10
46.5904329999999973
20
-151.82309699999999
11
46.5769029999999944
21
-151.809566999999987
0
LINE
8
BLACK
6
CONTINUOUS
10
46.5769029999999944
20
-151.809566999999987
11
46.5749999999999957
21
-151.7999999999999829
0
LINE
8
BLACK
6
CONTINUOUS
10
46.5749999999999957
20
-151.7999999999999829
11
46.5749999999999957
21
-46.2999999999999972
0
LINE
8
BLACK
6
CONTINUOUS
10
46.5749999999999957
20
-46.2999999999999972
11
46.5769029999999944
21
-46.2904330000000002
0
LINE
8
BLACK
6
CONTINUOUS
10
46.5769029999999944
20
-46.2904330000000002
11
46.5904329999999973
21
-46.2769029999999972
0
LINE
8
BLACK
6
CONTINUOUS
10
46.5904329999999973
20
-46.2769029999999972
11
46.6000000000000014
21
-46.2749999999999986
0
LINE
8
BLACK
6
CONTINUOUS
10
46.6000000000000014
20
-46.2749999999999986
11
207.3499999999999943
21
-46.2749999999999986
0
LINE
8
BLACK
6
CONTINUOUS
10
207.3499999999999943
20
-46.2749999999999986
11
207.3595669999999984
21
-46.2769029999999972
0
LINE
8
BLACK
6
CONTINUOUS
10
46.625
20
-46.3249999999999957
11
46.625
21
-151.7750000000000057
0
LINE
8
BLACK
6
CONTINUOUS
10
46.625
20
-151.7750000000000057
11
207.3249999999999886
21
-151.7750000000000057
0
LINE
8
BLACK
6
CONTINUOUS
10
207.3249999999999886
20
-151.7750000000000057
11
207.3249999999999886
21
-46.3249999999999957
0
LINE
8
BLACK
6
CONTINUOUS
10
207.3249999999999886
20
-46.3249999999999957
11
46.625
21
-46.3249999999999957
0
CIRCLE
8
BLACK
10
189.3499999999999943
20
-108.2999999999999972
40
0.5499999999999999
0
CIRCLE
8
BLACK
10
195.8499999999999943
20
-108.2999999999999972
40
0.5499999999999999
0
CIRCLE
8
BLACK
10
189.3499999999999943
20
-112.7999999999999972
40
0.5499999999999999
0
CIRCLE
8
BLACK
10
195.8499999999999943
20
-112.7999999999999972
40
0.5499999999999999
0
CIRCLE
8
BLACK
10
204.
20
-148.
40
1.5999999999999999
0
CIRCLE
8
BLACK
10
58.3499999999999943
20
-125.7999999999999972
40
0.5499999999999999
0
CIRCLE
8
BLACK
10
64.8499999999999943
20
-125.7999999999999972
40
0.5499999999999999
0
CIRCLE
8
BLACK
10
58.3499999999999943
20
-130.2999999999999829
40
0.5499999999999999
0
CIRCLE
8
BLACK
10
64.8499999999999943
20
-130.2999999999999829
40
0.5499999999999999
0
CIRCLE
8
BLACK
10
3.4749999999999996
20
-3.4749999999999996
40
1.5999999999999999
0
CIRCLE
8
BLACK
10
102.3499999999999943
20
-89.5499999999999972
40
0.5499999999999999
0
CIRCLE
8
BLACK
10
108.8499999999999943
20
-89.5499999999999972
40
0.5499999999999999
0
CIRCLE
8
BLACK
10
102.3499999999999943
20
-94.0499999999999972
40
0.5499999999999999
0
CIRCLE
8
BLACK
10
108.8499999999999943
20
-94.0499999999999972
40
0.5499999999999999
0
CIRCLE
8
BLACK
10
102.3499999999999943
20
-108.2999999999999972
40
0.5499999999999999
0
CIRCLE
8
BLACK
10
108.8499999999999943
20
-108.2999999999999972
40
0.5499999999999999
0
CIRCLE
8
BLACK
10
102.3499999999999943
20
-112.7999999999999972
40
0.5499999999999999
0
CIRCLE
8
BLACK
10
108.8499999999999943
20
-112.7999999999999972
40
0.5499999999999999
0
CIRCLE
8
BLACK
10
58.5999999999999943
20
-108.2999999999999972
40
0.5499999999999999
0
CIRCLE
8
BLACK
10
65.0999999999999943
20
-108.2999999999999972
40
0.5499999999999999
0
CIRCLE
8
BLACK
10
58.5999999999999943
20
-112.7999999999999972
40
0.5499999999999999
0
CIRCLE
8
BLACK
10
65.0999999999999943
20
-112.7999999999999972
40
0.5499999999999999
0
CIRCLE
8
BLACK
10
145.5999999999999943
20
-53.5499999999999972
40
0.5499999999999999
0
CIRCLE
8
BLACK
10
152.0999999999999943
20
-53.5499999999999972
40
0.5499999999999999
0
CIRCLE
8
BLACK
10
145.5999999999999943
20
-58.0499999999999972
40
0.5499999999999999
0
CIRCLE
8
BLACK
10
152.0999999999999943
20
-58.0499999999999972
40
0.5499999999999999
0
CIRCLE
8
BLACK
10
189.3499999999999943
20
-88.2999999999999972
40
0.5499999999999999
0
CIRCLE
8
BLACK
10
195.8499999999999943
20
-88.2999999999999972
40
0.5499999999999999
0
CIRCLE
8
BLACK
10
189.3499999999999943
20
-92.7999999999999972
40
0.5499999999999999
0
CIRCLE
8
BLACK
10
195.8499999999999943
20
-92.7999999999999972
40
0.5499999999999999
0
CIRCLE
8
BLACK
10
102.3499999999999943
20
-125.2999999999999972
40
0.5499999999999999
0
CIRCLE
8
BLACK
10
108.8499999999999943
20
-125.2999999999999972
40
0.5499999999999999
0
CIRCLE
8
BLACK
10
102.3499999999999943
20
-129.7999999999999829
40
0.5499999999999999
0
CIRCLE
8
BLACK
10
108.8499999999999943
20
-129.7999999999999829
40
0.5499999999999999
0
CIRCLE
8
BLACK
10
145.8499999999999943
20
-89.7999999999999972
40
0.5499999999999999
0
CIRCLE
8
BLACK
10
152.3499999999999943
20
-89.7999999999999972
40
0.5499999999999999
0
CIRCLE
8
BLACK
10
145.8499999999999943
20
-94.2999999999999972
40
0.5499999999999999
0
CIRCLE
8
BLACK
10
152.3499999999999943
20
-94.2999999999999972
40
0.5499999999999999
0
CIRCLE
8
BLACK
10
50.
20
-50.
40
1.5999999999999999
0
CIRCLE
8
BLACK
10
127.
20
-99.
40
1.5999999999999999
0
CIRCLE
8
BLACK
10
127.
20
-148.1999999999999886
40
1.5999999999999999
0
CIRCLE
8
BLACK
10
127.
20
-50.
40
1.5999999999999999
0
CIRCLE
8
BLACK
10
189.3499999999999943
20
-124.7999999999999972
40
0.5499999999999999
0
CIRCLE
8
BLACK
10
195.8499999999999943
20
-124.7999999999999972
40
0.5499999999999999
0
CIRCLE
8
BLACK
10
189.3499999999999943
20
-129.2999999999999829
40
0.5499999999999999
0
CIRCLE
8
BLACK
10
195.8499999999999943
20
-129.2999999999999829
40
0.5499999999999999
0
CIRCLE
8
BLACK
10
102.3499999999999943
20
-143.7999999999999829
40
0.5499999999999999
0
CIRCLE
8
BLACK
10
108.8499999999999943
20
-143.7999999999999829
40
0.5499999999999999
0
CIRCLE
8
BLACK
10
102.3499999999999943
20
-148.2999999999999829
40
0.5499999999999999
0
CIRCLE
8
BLACK
10
108.8499999999999943
20
-148.2999999999999829
40
0.5499999999999999
0
CIRCLE
8
BLACK
10
145.8499999999999943
20
-143.7999999999999829
40
0.5499999999999999
0
CIRCLE
8
BLACK
10
152.3499999999999943
20
-143.7999999999999829
40
0.5499999999999999
0
CIRCLE
8
BLACK
10
145.8499999999999943
20
-148.2999999999999829
40
0.5499999999999999
0
CIRCLE
8
BLACK
10
152.3499999999999943
20
-148.2999999999999829
40
0.5499999999999999
0
CIRCLE
8
BLACK
10
145.3499999999999943
20
-107.7999999999999972
40
0.5499999999999999
0
CIRCLE
8
BLACK
10
151.8499999999999943
20
-107.7999999999999972
40
0.5499999999999999
0
CIRCLE
8
BLACK
10
145.3499999999999943
20
-112.2999999999999972
40
0.5499999999999999
0
CIRCLE
8
BLACK
10
151.8499999999999943
20
-112.2999999999999972
40
0.5499999999999999
0
CIRCLE
8
BLACK
10
189.0999999999999943
20
-53.0499999999999972
40
0.5499999999999999
0
CIRCLE
8
BLACK
10
195.5999999999999943
20
-53.0499999999999972
40
0.5499999999999999
0
CIRCLE
8
BLACK
10
189.0999999999999943
20
-57.5499999999999972
40
0.5499999999999999
0
CIRCLE
8
BLACK
10
195.5999999999999943
20
-57.5499999999999972
40
0.5499999999999999
0
CIRCLE
8
BLACK
10
58.5999999999999943
20
-89.5499999999999972
40
0.5499999999999999
0
CIRCLE
8
BLACK
10
65.0999999999999943
20
-89.5499999999999972
40
0.5499999999999999
0
CIRCLE
8
BLACK
10
58.5999999999999943
20
-94.0499999999999972
40
0.5499999999999999
0
CIRCLE
8
BLACK
10
65.0999999999999943
20
-94.0499999999999972
40
0.5499999999999999
0
CIRCLE
8
BLACK
10
64.5999999999999943
20
-78.0499999999999972
40
0.5499999999999999
0
CIRCLE
8
BLACK
10
58.0999999999999943
20
-78.0499999999999972
40
0.5499999999999999
0
CIRCLE
8
BLACK
10
64.5999999999999943
20
-73.5499999999999972
40
0.5499999999999999
0
CIRCLE
8
BLACK
10
58.0999999999999943
20
-73.5499999999999972
40
0.5499999999999999
0
CIRCLE
8
BLACK
10
102.3499999999999943
20
-53.7999999999999972
40
0.5499999999999999
0
CIRCLE
8
BLACK
10
108.8499999999999943
20
-53.7999999999999972
40
0.5499999999999999
0
CIRCLE
8
BLACK
10
102.3499999999999943
20
-58.2999999999999972
40
0.5499999999999999
0
CIRCLE
8
BLACK
10
108.8499999999999943
20
-58.2999999999999972
40
0.5499999999999999
0
CIRCLE
8
BLACK
10
189.3499999999999943
20
-143.7999999999999829
40
0.5499999999999999
0
CIRCLE
8
BLACK
10
195.8499999999999943
20
-143.7999999999999829
40
0.5499999999999999
0
CIRCLE
8
BLACK
10
189.3499999999999943
20
-148.2999999999999829
40
0.5499999999999999
0
CIRCLE
8
BLACK
10
195.8499999999999943
20
-148.2999999999999829
40
0.5499999999999999
0
CIRCLE
8
BLACK
10
195.8499999999999943
20
-77.2999999999999972
40
0.5499999999999999
0
CIRCLE
8
BLACK
10
189.3499999999999943
20
-77.2999999999999972
40
0.5499999999999999
0
CIRCLE
8
BLACK
10
195.8499999999999943
20
-72.7999999999999972
40
0.5499999999999999
0
CIRCLE
8
BLACK
10
189.3499999999999943
20
-72.7999999999999972
40
0.5499999999999999
0
CIRCLE
8
BLACK
10
108.8499999999999943
20
-78.2999999999999972
40
0.5499999999999999
0
CIRCLE
8
BLACK
10
102.3499999999999943
20
-78.2999999999999972
40
0.5499999999999999
0
CIRCLE
8
BLACK
10
108.8499999999999943
20
-73.7999999999999972
40
0.5499999999999999
0
CIRCLE
8
BLACK
10
102.3499999999999943
20
-73.7999999999999972
40
0.5499999999999999
0
CIRCLE
8
BLACK
10
204.
20
-50.
40
1.5999999999999999
0
CIRCLE
8
BLACK
10
145.8499999999999943
20
-125.0499999999999972
40
0.5499999999999999
0
CIRCLE
8
BLACK
10
152.3499999999999943
20
-125.0499999999999972
40
0.5499999999999999
0
CIRCLE
8
BLACK
10
145.8499999999999943
20
-129.5499999999999829
40
0.5499999999999999
0
CIRCLE
8
BLACK
10
152.3499999999999943
20
-129.5499999999999829
40
0.5499999999999999
0
CIRCLE
8
BLACK
10
50.
20
-148.
40
1.5999999999999999
0
CIRCLE
8
BLACK
10
152.3499999999999943
20
-77.7999999999999972
40
0.5499999999999999
0
CIRCLE
8
BLACK
10
145.8499999999999943
20
-77.7999999999999972
40
0.5499999999999999
0
CIRCLE
8
BLACK
10
152.3499999999999943
20
-73.2999999999999972
40
0.5499999999999999
0
CIRCLE
8
BLACK
10
145.8499999999999943
20
-73.2999999999999972
40
0.5499999999999999
0
CIRCLE
8
BLACK
10
58.3499999999999943
20
-144.2999999999999829
40
0.5499999999999999
0
CIRCLE
8
BLACK
10
64.8499999999999943
20
-144.2999999999999829
40
0.5499999999999999
0
CIRCLE
8
BLACK
10
58.3499999999999943
20
-148.7999999999999829
40
0.5499999999999999
0
CIRCLE
8
BLACK
10
64.8499999999999943
20
-148.7999999999999829
40
0.5499999999999999
0
CIRCLE
8
BLACK
10
58.8499999999999943
20
-53.7999999999999972
40
0.5499999999999999
0
CIRCLE
8
BLACK
10
65.3499999999999943
20
-53.7999999999999972
40
0.5499999999999999
0
CIRCLE
8
BLACK
10
58.8499999999999943
20
-58.2999999999999972
40
0.5499999999999999
0
CIRCLE
8
BLACK
10
65.3499999999999943
20
-58.2999999999999972
40
0.5499999999999999
0
CIRCLE
8
BLACK
10
160.1550000000000011
20
-92.1899999999999977
40
0.45
0
CIRCLE
8
BLACK
10
160.1550000000000011
20
-89.6499999999999915
40
0.45
0
CIRCLE
8
BLACK
10
160.1550000000000011
20
-87.1099999999999994
40
0.45
0
CIRCLE
8
BLACK
10
160.1550000000000011
20
-84.5699999999999932
40
0.45
0
CIRCLE
8
BLACK
10
160.1550000000000011
20
-82.0300000000000011
40
0.45
0
CIRCLE
8
BLACK
10
160.1550000000000011
20
-79.4899999999999949
40
0.45
0
CIRCLE
8
BLACK
10
160.1550000000000011
20
-76.9500000000000028
40
0.45
0
CIRCLE
8
BLACK
10
160.1550000000000011
20
-74.4099999999999966
40
0.45
0
CIRCLE
8
BLACK
10
183.0149999999999864
20
-74.4099999999999966
40
0.45
0
CIRCLE
8
BLACK
10
183.0149999999999864
20
-76.9500000000000028
40
0.45
0
CIRCLE
8
BLACK
10
183.0149999999999864
20
-79.4899999999999949
40
0.45
0
CIRCLE
8
BLACK
10
183.0149999999999864
20
-82.0300000000000011
40
0.45
0
CIRCLE
8
BLACK
10
183.0149999999999864
20
-84.5699999999999932
40
0.45
0
CIRCLE
8
BLACK
10
183.0149999999999864
20
-87.1099999999999994
40
0.45
0
CIRCLE
8
BLACK
10
183.0149999999999864
20
-89.6499999999999915
40
0.45
0
CIRCLE
8
BLACK
10
183.0149999999999864
20
-92.1899999999999977
40
0.45
0
CIRCLE
8
BLACK
10
128.
20
-64.
40
0.5
0
CIRCLE
8
BLACK
10
128.
20
-56.3999999999999986
40
0.5
0
CIRCLE
8
BLACK
10
52.
20
-90.
40
0.375
0
CIRCLE
8
BLACK
10
52.
20
-88.
40
0.375
0
CIRCLE
8
BLACK
10
115.5999999999999943
20
-64.5999999999999943
40
0.4
0
CIRCLE
8
BLACK
10
115.5999999999999943
20
-59.5999999999999943
40
0.4
0
CIRCLE
8
BLACK
10
189.3499999999999943
20
-108.2999999999999972
40
0.5499999999999999
0
CIRCLE
8
BLACK
10
195.8499999999999943
20
-108.2999999999999972
40
0.5499999999999999
0
CIRCLE
8
BLACK
10
189.3499999999999943
20
-112.7999999999999972
40
0.5499999999999999
0
CIRCLE
8
BLACK
10
195.8499999999999943
20
-112.7999999999999972
40
0.5499999999999999
0
CIRCLE
8
BLACK
10
204.
20
-148.
40
1.5999989999999999
0
CIRCLE
8
BLACK
10
58.3499999999999943
20
-125.7999999999999972
40
0.5499999999999999
0
CIRCLE
8
BLACK
10
64.8499999999999943
20
-125.7999999999999972
40
0.5499999999999999
0
CIRCLE
8
BLACK
10
58.3499999999999943
20
-130.2999999999999829
40
0.5499999999999999
0
CIRCLE
8
BLACK
10
64.8499999999999943
20
-130.2999999999999829
40
0.5499999999999999
0
CIRCLE
8
BLACK
10
3.4749999999999996
20
-3.4749999999999996
40
1.5999989999999999
0
CIRCLE
8
BLACK
10
102.3499999999999943
20
-89.5499999999999972
40
0.5499999999999999
0
CIRCLE
8
BLACK
10
108.8499999999999943
20
-89.5499999999999972
40
0.5499999999999999
0
CIRCLE
8
BLACK
10
102.3499999999999943
20
-94.0499999999999972
40
0.5499999999999999
0
CIRCLE
8
BLACK
10
108.8499999999999943
20
-94.0499999999999972
40
0.5499999999999999
0
CIRCLE
8
BLACK
10
102.3499999999999943
20
-108.2999999999999972
40
0.5499999999999999
0
CIRCLE
8
BLACK
10
108.8499999999999943
20
-108.2999999999999972
40
0.5499999999999999
0
CIRCLE
8
BLACK
10
102.3499999999999943
20
-112.7999999999999972
40
0.5499999999999999
0
CIRCLE
8
BLACK
10
108.8499999999999943
20
-112.7999999999999972
40
0.5499999999999999
0
CIRCLE
8
BLACK
10
58.5999999999999943
20
-108.2999999999999972
40
0.5499999999999999
0
CIRCLE
8
BLACK
10
65.0999999999999943
20
-108.2999999999999972
40
0.5499999999999999
0
CIRCLE
8
BLACK
10
58.5999999999999943
20
-112.7999999999999972
40
0.5499999999999999
0
CIRCLE
8
BLACK
10
65.0999999999999943
20
-112.7999999999999972
40
0.5499999999999999
0
CIRCLE
8
BLACK
10
145.5999999999999943
20
-53.5499999999999972
40
0.5499999999999999
0
CIRCLE
8
BLACK
10
152.0999999999999943
20
-53.5499999999999972
40
0.5499999999999999
0
CIRCLE
8
BLACK
10
145.5999999999999943
20
-58.0499999999999972
40
0.5499999999999999
0
CIRCLE
8
BLACK
10
152.0999999999999943
20
-58.0499999999999972
40
0.5499999999999999
0
CIRCLE
8
BLACK
10
189.3499999999999943
20
-88.2999999999999972
40
0.5499999999999999
0
CIRCLE
8
BLACK
10
195.8499999999999943
20
-88.2999999999999972
40
0.5499999999999999
0
CIRCLE
8
BLACK
10
189.3499999999999943
20
-92.7999999999999972
40
0.5499999999999999
0
CIRCLE
8
BLACK
10
195.8499999999999943
20
-92.7999999999999972
40
0.5499999999999999
0
CIRCLE
8
BLACK
10
102.3499999999999943
20
-125.2999999999999972
40
0.5499999999999999
0
CIRCLE
8
BLACK
10
108.8499999999999943
20
-125.2999999999999972
40
0.5499999999999999
0
CIRCLE
8
BLACK
10
102.3499999999999943
20
-129.7999999999999829
40
0.5499999999999999
0
CIRCLE
8
BLACK
10
108.8499999999999943
20
-129.7999999999999829
40
0.5499999999999999
0
CIRCLE
8
BLACK
10
145.8499999999999943
20
-89.7999999999999972
40
0.5499999999999999
0
CIRCLE
8
BLACK
10
152.3499999999999943
20
-89.7999999999999972
40
0.5499999999999999
0
CIRCLE
8
BLACK
10
145.8499999999999943
20
-94.2999999999999972
40
0.5499999999999999
0
CIRCLE
8
BLACK
10
152.3499999999999943
20
-94.2999999999999972
40
0.5499999999999999
0
CIRCLE
8
BLACK
10
50.
20
-50.
40
1.5999989999999999
0
CIRCLE
8
BLACK
10
127.
20
-99.
40
1.5999989999999999
0
CIRCLE
8
BLACK
10
127.
20
-148.1999999999999886
40
1.5999989999999999
0
CIRCLE
8
BLACK
10
127.
20
-50.
40
1.5999989999999999
0
CIRCLE
8
BLACK
10
189.3499999999999943
20
-124.7999999999999972
40
0.5499999999999999
0
CIRCLE
8
BLACK
10
195.8499999999999943
20
-124.7999999999999972
40
0.5499999999999999
0
CIRCLE
8
BLACK
10
189.3499999999999943
20
-129.2999999999999829
40
0.5499999999999999
0
CIRCLE
8
BLACK
10
195.8499999999999943
20
-129.2999999999999829
40
0.5499999999999999
0
CIRCLE
8
BLACK
10
102.3499999999999943
20
-143.7999999999999829
40
0.5499999999999999
0
CIRCLE
8
BLACK
10
108.8499999999999943
20
-143.7999999999999829
40
0.5499999999999999
0
CIRCLE
8
BLACK
10
102.3499999999999943
20
-148.2999999999999829
40
0.5499999999999999
0
CIRCLE
8
BLACK
10
108.8499999999999943
20
-148.2999999999999829
40
0.5499999999999999
0
CIRCLE
8
BLACK
10
145.8499999999999943
20
-143.7999999999999829
40
0.5499999999999999
0
CIRCLE
8
BLACK
10
152.3499999999999943
20
-143.7999999999999829
40
0.5499999999999999
0
CIRCLE
8
BLACK
10
145.8499999999999943
20
-148.2999999999999829
40
0.5499999999999999
0
CIRCLE
8
BLACK
10
152.3499999999999943
20
-148.2999999999999829
40
0.5499999999999999
0
CIRCLE
8
BLACK
10
145.3499999999999943
20
-107.7999999999999972
40
0.5499999999999999
0
CIRCLE
8
BLACK
10
151.8499999999999943
20
-107.7999999999999972
40
0.5499999999999999
0
CIRCLE
8
BLACK
10
145.3499999999999943
20
-112.2999999999999972
40
0.5499999999999999
0
CIRCLE
8
BLACK
10
151.8499999999999943
20
-112.2999999999999972
40
0.5499999999999999
0
CIRCLE
8
BLACK
10
189.0999999999999943
20
-53.0499999999999972
40
0.5499999999999999
0
CIRCLE
8
BLACK
10
195.5999999999999943
20
-53.0499999999999972
40
0.5499999999999999
0
CIRCLE
8
BLACK
10
189.0999999999999943
20
-57.5499999999999972
40
0.5499999999999999
0
CIRCLE
8
BLACK
10
195.5999999999999943
20
-57.5499999999999972
40
0.5499999999999999
0
CIRCLE
8
BLACK
10
58.5999999999999943
20
-89.5499999999999972
40
0.5499999999999999
0
CIRCLE
8
BLACK
10
65.0999999999999943
20
-89.5499999999999972
40
0.5499999999999999
0
CIRCLE
8
BLACK
10
58.5999999999999943
20
-94.0499999999999972
40
0.5499999999999999
0
CIRCLE
8
BLACK
10
65.0999999999999943
20
-94.0499999999999972
40
0.5499999999999999
0
CIRCLE
8
BLACK
10
64.5999999999999943
20
-78.0499999999999972
40
0.5499999999999999
0
CIRCLE
8
BLACK
10
58.0999999999999943
20
-78.0499999999999972
40
0.5499999999999999
0
CIRCLE
8
BLACK
10
64.5999999999999943
20
-73.5499999999999972
40
0.5499999999999999
0
CIRCLE
8
BLACK
10
58.0999999999999943
20
-73.5499999999999972
40
0.5499999999999999
0
CIRCLE
8
BLACK
10
102.3499999999999943
20
-53.7999999999999972
40
0.5499999999999999
0
CIRCLE
8
BLACK
10
108.8499999999999943
20
-53.7999999999999972
40
0.5499999999999999
0
CIRCLE
8
BLACK
10
102.3499999999999943
20
-58.2999999999999972
40
0.5499999999999999
0
CIRCLE
8
BLACK
10
108.8499999999999943
20
-58.2999999999999972
40
0.5499999999999999
0
CIRCLE
8
BLACK
10
189.3499999999999943
20
-143.7999999999999829
40
0.5499999999999999
0
CIRCLE
8
BLACK
10
195.8499999999999943
20
-143.7999999999999829
40
0.5499999999999999
0
CIRCLE
8
BLACK
10
189.3499999999999943
20
-148.2999999999999829
40
0.5499999999999999
0
CIRCLE
8
BLACK
10
195.8499999999999943
20
-148.2999999999999829
40
0.5499999999999999
0
CIRCLE
8
BLACK
10
195.8499999999999943
20
-77.2999999999999972
40
0.5499999999999999
0
CIRCLE
8
BLACK
10
189.3499999999999943
20
-77.2999999999999972
40
0.5499999999999999
0
CIRCLE
8
BLACK
10
195.8499999999999943
20
-72.7999999999999972
40
0.5499999999999999
0
CIRCLE
8
BLACK
10
189.3499999999999943
20
-72.7999999999999972
40
0.5499999999999999
0
CIRCLE
8
BLACK
10
108.8499999999999943
20
-78.2999999999999972
40
0.5499999999999999
0
CIRCLE
8
BLACK
10
102.3499999999999943
20
-78.2999999999999972
40
0.5499999999999999
0
CIRCLE
8
BLACK
10
108.8499999999999943
20
-73.7999999999999972
40
0.5499999999999999
0
CIRCLE
8
BLACK
10
102.3499999999999943
20
-73.7999999999999972
40
0.5499999999999999
0
CIRCLE
8
BLACK
10
204.
20
-50.
40
1.5999989999999999
0
CIRCLE
8
BLACK
10
145.8499999999999943
20
-125.0499999999999972
40
0.5499999999999999
0
CIRCLE
8
BLACK
10
152.3499999999999943
20
-125.0499999999999972
40
0.5499999999999999
0
CIRCLE
8
BLACK
10
145.8499999999999943
20
-129.5499999999999829
40
0.5499999999999999
0
CIRCLE
8
BLACK
10
152.3499999999999943
20
-129.5499999999999829
40
0.5499999999999999
0
CIRCLE
8
BLACK
10
50.
20
-148.
40
1.5999989999999999
0
CIRCLE
8
BLACK
10
152.3499999999999943
20
-77.7999999999999972
40
0.5499999999999999
0
CIRCLE
8
BLACK
10
145.8499999999999943
20
-77.7999999999999972
40
0.5499999999999999
0
CIRCLE
8
BLACK
10
152.3499999999999943
20
-73.2999999999999972
40
0.5499999999999999
0
CIRCLE
8
BLACK
10
145.8499999999999943
20
-73.2999999999999972
40
0.5499999999999999
0
CIRCLE
8
BLACK
10
58.3499999999999943
20
-144.2999999999999829
40
0.5499999999999999
0
CIRCLE
8
BLACK
10
64.8499999999999943
20
-144.2999999999999829
40
0.5499999999999999
0
CIRCLE
8
BLACK
10
58.3499999999999943
20
-148.7999999999999829
40
0.5499999999999999
0
CIRCLE
8
BLACK
10
64.8499999999999943
20
-148.7999999999999829
40
0.5499999999999999
0
CIRCLE
8
BLACK
10
58.8499999999999943
20
-53.7999999999999972
40
0.5499999999999999
0
CIRCLE
8
BLACK
10
65.3499999999999943
20
-53.7999999999999972
40
0.5499999999999999
0
CIRCLE
8
BLACK
10
58.8499999999999943
20
-58.2999999999999972
40
0.5499999999999999
0
CIRCLE
8
BLACK
10
65.3499999999999943
20
-58.2999999999999972
40
0.5499999999999999
0
CIRCLE
8
BLACK
10
160.1550000000000011
20
-92.1899999999999977
40
0.45
0
CIRCLE
8
BLACK
10
160.1550000000000011
20
-89.6499999999999915
40
0.45
0
CIRCLE
8
BLACK
10
160.1550000000000011
20
-87.1099999999999994
40
0.45
0
CIRCLE
8
BLACK
10
160.1550000000000011
20
-84.5699999999999932
40
0.45
0
CIRCLE
8
BLACK
10
160.1550000000000011
20
-82.0300000000000011
40
0.45
0
CIRCLE
8
BLACK
10
160.1550000000000011
20
-79.4899999999999949
40
0.45
0
CIRCLE
8
BLACK
10
160.1550000000000011
20
-76.9500000000000028
40
0.45
0
CIRCLE
8
BLACK
10
160.1550000000000011
20
-74.4099999999999966
40
0.45
0
CIRCLE
8
BLACK
10
183.0149999999999864
20
-74.4099999999999966
40
0.45
0
CIRCLE
8
BLACK
10
183.0149999999999864
20
-76.9500000000000028
40
0.45
0
CIRCLE
8
BLACK
10
183.0149999999999864
20
-79.4899999999999949
40
0.45
0
CIRCLE
8
BLACK
10
183.0149999999999864
20
-82.0300000000000011
40
0.45
0
CIRCLE
8
BLACK
10
183.0149999999999864
20
-84.5699999999999932
40
0.45
0
CIRCLE
8
BLACK
10
183.0149999999999864
20
-87.1099999999999994
40
0.45
0
CIRCLE
8
BLACK
10
183.0149999999999864
20
-89.6499999999999915
40
0.45
0
CIRCLE
8
BLACK
10
183.0149999999999864
20
-92.1899999999999977
40
0.45
0
CIRCLE
8
BLACK
10
128.
20
-64.
40
0.5
0
CIRCLE
8
BLACK
10
128.
20
-56.3999999999999986
40
0.5
0
CIRCLE
8
BLACK
10
52.
20
-90.
40
0.375
0
CIRCLE
8
BLACK
10
52.
20
-88.
40
0.375
0
CIRCLE
8
BLACK
10
115.5999999999999943
20
-64.5999999999999943
40
0.4
0
CIRCLE
8
BLACK
10
115.5999999999999943
20
-59.5999999999999943
40
0.4
  0
ENDSEC
  0
EOF
