  0
SECTION
  2
HEADER
  9
$ANGBASE
  50
0.0
  9
$ANGDIR
  70
1
  9
$MEASUREMENT
  70
1
  0
ENDSEC
  0
SECTION
  2
TABLES
  0
TABLE
  2
LTYPE
  70
4
  0
LTYPE
  5
40F
  2
CONTINUOUS
  70
0
  3
Solid line
  72
65
  73
0
  40
0.0
  0
LTYPE
  5
410
  2
DASHDOT
 70
0
  3
Dash Dot ____ _ ____ _
 72
65
 73
4
 40
2.0
 49
1.25
 49
-0.25
 49
0.25
 49
-0.25
  0
LTYPE
  5
411
  2
DASHED
 70
0
  3
Dashed __ __ __ __ __
 72
65
 73
2
 40
0.75
 49
0.5
 49
-0.25
  0
LTYPE
  5
43B
  2
DOTTED
 70
0
  3
Dotted .  .  .  .
 72
65
 73
2
 40
0.2
 49
0.0
 49
-0.2
  0
ENDTAB
  0
TABLE
  2
STYLE
  70
4
  0
STYLE
  2
KICAD
  70
0
  40
0
  41
1
  42
1
  50
0
  71
0
  3
isocp.shx
  0
STYLE
  2
KICADB
  70
0
  40
0
  41
1
  42
1
  50
0
  71
0
  3
isocp.shx
  0
STYLE
  2
KICADI
  70
0
  40
0
  41
1
  42
1
  50
15
  71
0
  3
isocp.shx
  0
STYLE
  2
KICADBI
  70
0
  40
0
  41
1
  42
1
  50
15
  71
0
  3
isocp.shx
  0
ENDTAB
  0
TABLE
  2
LAYER
  70
1
  0
LAYER
  2
BLACK
  70
0
  62
7
  6
CONTINUOUS
  0
ENDTAB
  0
ENDSEC
  0
SECTION
  2
ENTITIES
0
LINE
8
BLACK
6
CONTINUOUS
10
184.644566999999995
20
-65.9269029999999958
11
184.6580969999999979
21
-65.9404329999999987
0
LINE
8
BLACK
6
CONTINUOUS
10
184.6580969999999979
20
-65.9404329999999987
11
184.6599999999999966
21
-65.9500000000000028
0
LINE
8
BLACK
6
CONTINUOUS
10
184.6599999999999966
20
-65.9500000000000028
11
184.6599999999999966
21
-100.6499999999999915
0
LINE
8
BLACK
6
CONTINUOUS
10
184.6599999999999966
20
-100.6499999999999915
11
184.6580969999999979
21
-100.6595669999999956
0
LINE
8
BLACK
6
CONTINUOUS
10
184.6580969999999979
20
-100.6595669999999956
11
184.644566999999995
21
-100.6730969999999985
0
LINE
8
BLACK
6
CONTINUOUS
10
184.644566999999995
20
-100.6730969999999985
11
184.6349999999999909
21
-100.6749999999999972
0
LINE
8
BLACK
6
CONTINUOUS
10
184.6349999999999909
20
-100.6749999999999972
11
158.5349999999999966
21
-100.6749999999999972
0
LINE
8
BLACK
6
CONTINUOUS
10
158.5349999999999966
20
-100.6749999999999972
11
158.5254329999999925
21
-100.6730969999999985
0
LINE
8
BLACK
6
CONTINUOUS
10
158.5254329999999925
20
-100.6730969999999985
11
158.5119029999999896
21
-100.6595669999999956
0
LINE
8
BLACK
6
CONTINUOUS
10
158.5119029999999896
20
-100.6595669999999956
11
158.5099999999999909
21
-100.6499999999999915
0
LINE
8
BLACK
6
CONTINUOUS
10
158.5099999999999909
20
-100.6499999999999915
11
158.5099999999999909
21
-65.9500000000000028
0
LINE
8
BLACK
6
CONTINUOUS
10
158.5099999999999909
20
-65.9500000000000028
11
158.5119029999999896
21
-65.9404329999999987
0
LINE
8
BLACK
6
CONTINUOUS
10
158.5119029999999896
20
-65.9404329999999987
11
158.5254329999999925
21
-65.9269029999999958
0
LINE
8
BLACK
6
CONTINUOUS
10
158.5254329999999925
20
-65.9269029999999958
11
158.5349999999999966
21
-65.9249999999999972
0
LINE
8
BLACK
6
CONTINUOUS
10
158.5349999999999966
20
-65.9249999999999972
11
184.6349999999999909
21
-65.9249999999999972
0
LINE
8
BLACK
6
CONTINUOUS
10
184.6349999999999909
20
-65.9249999999999972
11
184.644566999999995
21
-65.9269029999999958
0
LINE
8
BLACK
6
CONTINUOUS
10
158.5600000000000023
20
-65.9749999999999943
11
158.5600000000000023
21
-100.625
0
LINE
8
BLACK
6
CONTINUOUS
10
158.5600000000000023
20
-100.625
11
184.6099999999999852
21
-100.625
0
LINE
8
BLACK
6
CONTINUOUS
10
184.6099999999999852
20
-100.625
11
184.6099999999999852
21
-65.9749999999999943
0
LINE
8
BLACK
6
CONTINUOUS
10
184.6099999999999852
20
-65.9749999999999943
11
158.5600000000000023
21
-65.9749999999999943
0
LINE
8
BLACK
6
CONTINUOUS
10
54.2095669999999998
20
-85.5269029999999901
11
54.2230969999999957
21
-85.5404329999999931
0
LINE
8
BLACK
6
CONTINUOUS
10
54.2230969999999957
20
-85.5404329999999931
11
54.2249999999999943
21
-85.5499999999999972
0
LINE
8
BLACK
6
CONTINUOUS
10
54.2249999999999943
20
-85.5499999999999972
11
54.2249999999999943
21
-92.4500000000000028
0
LINE
8
BLACK
6
CONTINUOUS
10
54.2249999999999943
20
-92.4500000000000028
11
54.2230969999999957
21
-92.4595669999999927
0
LINE
8
BLACK
6
CONTINUOUS
10
54.2230969999999957
20
-92.4595669999999927
11
54.2095669999999998
21
-92.4730969999999957
0
LINE
8
BLACK
6
CONTINUOUS
10
54.2095669999999998
20
-92.4730969999999957
11
54.1999999999999957
21
-92.4749999999999943
0
LINE
8
BLACK
6
CONTINUOUS
10
54.1999999999999957
20
-92.4749999999999943
11
48.6999999999999957
21
-92.4749999999999943
0
LINE
8
BLACK
6
CONTINUOUS
10
48.6999999999999957
20
-92.4749999999999943
11
48.6904329999999987
21
-92.4730969999999957
0
LINE
8
BLACK
6
CONTINUOUS
10
48.6904329999999987
20
-92.4730969999999957
11
48.6769029999999958
21
-92.4595669999999927
0
LINE
8
BLACK
6
CONTINUOUS
10
48.6769029999999958
20
-92.4595669999999927
11
48.6749999999999972
21
-92.4500000000000028
0
LINE
8
BLACK
6
CONTINUOUS
10
48.6749999999999972
20
-92.4500000000000028
11
48.6749999999999972
21
-85.5499999999999972
0
LINE
8
BLACK
6
CONTINUOUS
10
48.6749999999999972
20
-85.5499999999999972
11
48.6769029999999958
21
-85.5404329999999931
0
LINE
8
BLACK
6
CONTINUOUS
10
48.6769029999999958
20
-85.5404329999999931
11
48.6904329999999987
21
-85.5269029999999901
0
LINE
8
BLACK
6
CONTINUOUS
10
48.6904329999999987
20
-85.5269029999999901
11
48.6999999999999957
21
-85.5249999999999915
0
LINE
8
BLACK
6
CONTINUOUS
10
48.6999999999999957
20
-85.5249999999999915
11
54.1999999999999957
21
-85.5249999999999915
0
LINE
8
BLACK
6
CONTINUOUS
10
54.1999999999999957
20
-85.5249999999999915
11
54.2095669999999998
21
-85.5269029999999901
0
LINE
8
BLACK
6
CONTINUOUS
10
48.7249999999999943
20
-85.5750000000000028
11
48.7249999999999943
21
-92.4249999999999972
0
LINE
8
BLACK
6
CONTINUOUS
10
48.7249999999999943
20
-92.4249999999999972
11
54.1749999999999972
21
-92.4249999999999972
0
LINE
8
BLACK
6
CONTINUOUS
10
54.1749999999999972
20
-92.4249999999999972
11
54.1749999999999972
21
-85.5750000000000028
0
LINE
8
BLACK
6
CONTINUOUS
10
54.1749999999999972
20
-85.5750000000000028
11
48.7249999999999943
21
-85.5750000000000028
0
LINE
8
BLACK
6
CONTINUOUS
10
128.7375470000000064
20
-53.9684949999999972
11
129.224191999999988
21
-54.0455719999999999
0
LINE
8
BLACK
6
CONTINUOUS
10
129.224191999999988
20
-54.0455719999999999
11
129.7032889999999838
21
-54.1605929999999987
0
LINE
8
BLACK
6
CONTINUOUS
10
129.7032889999999838
20
-54.1605929999999987
11
130.1718850000000032
21
-54.3128489999999999
0
LINE
8
BLACK
6
CONTINUOUS
10
130.1718850000000032
20
-54.3128489999999999
11
130.6270899999999813
21
-54.5014019999999988
0
LINE
8
BLACK
6
CONTINUOUS
10
130.6270899999999813
20
-54.5014019999999988
11
131.0660979999999824
21
-54.7250879999999995
0
LINE
8
BLACK
6
CONTINUOUS
10
131.0660979999999824
20
-54.7250879999999995
11
131.4862029999999891
21
-54.982527999999995
0
LINE
8
BLACK
6
CONTINUOUS
10
131.4862029999999891
20
-54.982527999999995
11
131.8848150000000032
21
-55.2721359999999962
0
LINE
8
BLACK
6
CONTINUOUS
10
131.8848150000000032
20
-55.2721359999999962
11
132.2594749999999806
21
-55.5921260000000004
0
LINE
8
BLACK
6
CONTINUOUS
10
132.2594749999999806
20
-55.5921260000000004
11
132.6078739999999812
21
-55.9405250000000009
0
LINE
8
BLACK
6
CONTINUOUS
10
132.6078739999999812
20
-55.9405250000000009
11
132.9278639999999996
21
-56.3151849999999996
0
LINE
8
BLACK
6
CONTINUOUS
10
132.9278639999999996
20
-56.3151849999999996
11
133.2174719999999866
21
-56.7137969999999996
0
LINE
8
BLACK
6
CONTINUOUS
10
133.2174719999999866
20
-56.7137969999999996
11
133.4749119999999891
21
-57.1339019999999991
0
LINE
8
BLACK
6
CONTINUOUS
10
133.4749119999999891
20
-57.1339019999999991
11
133.698598000000004
21
-57.5729100000000003
0
LINE
8
BLACK
6
CONTINUOUS
10
133.698598000000004
20
-57.5729100000000003
11
133.8871509999999887
21
-58.0281149999999997
0
LINE
8
BLACK
6
CONTINUOUS
10
133.8871509999999887
20
-58.0281149999999997
11
134.0394069999999829
21
-58.4967109999999977
0
LINE
8
BLACK
6
CONTINUOUS
10
134.0394069999999829
20
-58.4967109999999977
11
134.1544279999999958
21
-58.9758080000000007
0
LINE
8
BLACK
6
CONTINUOUS
10
134.1544279999999958
20
-58.9758080000000007
11
134.2315049999999985
21
-59.4624529999999965
0
LINE
8
BLACK
6
CONTINUOUS
10
134.2315049999999985
20
-59.4624529999999965
11
134.2701619999999991
21
-59.9536449999999945
0
LINE
8
BLACK
6
CONTINUOUS
10
134.2701619999999991
20
-59.9536449999999945
11
134.2701619999999991
21
-60.4463549999999969
0
LINE
8
BLACK
6
CONTINUOUS
10
134.2701619999999991
20
-60.4463549999999969
11
134.2315049999999985
21
-60.937546999999995
0
LINE
8
BLACK
6
CONTINUOUS
10
134.2315049999999985
20
-60.937546999999995
11
134.1544279999999958
21
-61.4241919999999979
0
LINE
8
BLACK
6
CONTINUOUS
10
134.1544279999999958
20
-61.4241919999999979
11
134.0394069999999829
21
-61.9032889999999938
0
LINE
8
BLACK
6
CONTINUOUS
10
134.0394069999999829
20
-61.9032889999999938
11
133.8871509999999887
21
-62.3718849999999989
0
LINE
8
BLACK
6
CONTINUOUS
10
133.8871509999999887
20
-62.3718849999999989
11
133.698598000000004
21
-62.8270899999999983
0
LINE
8
BLACK
6
CONTINUOUS
10
133.698598000000004
20
-62.8270899999999983
11
133.4749119999999891
21
-63.2660979999999995
0
LINE
8
BLACK
6
CONTINUOUS
10
133.4749119999999891
20
-63.2660979999999995
11
133.2174719999999866
21
-63.686202999999999
0
LINE
8
BLACK
6
CONTINUOUS
10
133.2174719999999866
20
-63.686202999999999
11
132.9278639999999996
21
-64.0848149999999919
0
LINE
8
BLACK
6
CONTINUOUS
10
132.9278639999999996
20
-64.0848149999999919
11
132.6078739999999812
21
-64.4594749999999976
0
LINE
8
BLACK
6
CONTINUOUS
10
132.6078739999999812
20
-64.4594749999999976
11
132.2594749999999806
21
-64.8078739999999982
0
LINE
8
BLACK
6
CONTINUOUS
10
132.2594749999999806
20
-64.8078739999999982
11
131.8848150000000032
21
-65.1278640000000024
0
LINE
8
BLACK
6
CONTINUOUS
10
131.8848150000000032
20
-65.1278640000000024
11
131.4862029999999891
21
-65.4174720000000036
0
LINE
8
BLACK
6
CONTINUOUS
10
131.4862029999999891
20
-65.4174720000000036
11
131.0660979999999824
21
-65.674911999999992
0
LINE
8
BLACK
6
CONTINUOUS
10
131.0660979999999824
20
-65.674911999999992
11
130.6270899999999813
21
-65.8985979999999927
0
LINE
8
BLACK
6
CONTINUOUS
10
130.6270899999999813
20
-65.8985979999999927
11
130.1718850000000032
21
-66.0871509999999915
0
LINE
8
BLACK
6
CONTINUOUS
10
130.1718850000000032
20
-66.0871509999999915
11
129.7032889999999838
21
-66.2394069999999999
0
LINE
8
BLACK
6
CONTINUOUS
10
129.7032889999999838
20
-66.2394069999999999
11
129.224191999999988
21
-66.3544279999999986
0
LINE
8
BLACK
6
CONTINUOUS
10
129.224191999999988
20
-66.3544279999999986
11
128.7375470000000064
21
-66.4315050000000014
0
LINE
8
BLACK
6
CONTINUOUS
10
128.7375470000000064
20
-66.4315050000000014
11
128.2463549999999941
21
-66.470162000000002
0
LINE
8
BLACK
6
CONTINUOUS
10
128.2463549999999941
20
-66.470162000000002
11
127.7536449999999917
21
-66.470162000000002
0
LINE
8
BLACK
6
CONTINUOUS
10
127.7536449999999917
20
-66.470162000000002
11
127.2624529999999936
21
-66.4315050000000014
0
LINE
8
BLACK
6
CONTINUOUS
10
127.2624529999999936
20
-66.4315050000000014
11
126.7758079999999978
21
-66.3544279999999986
0
LINE
8
BLACK
6
CONTINUOUS
10
126.7758079999999978
20
-66.3544279999999986
11
126.2967109999999877
21
-66.2394069999999999
0
LINE
8
BLACK
6
CONTINUOUS
10
126.2967109999999877
20
-66.2394069999999999
11
125.8281149999999968
21
-66.0871509999999915
0
LINE
8
BLACK
6
CONTINUOUS
10
125.8281149999999968
20
-66.0871509999999915
11
125.3729099999999903
21
-65.8985979999999927
0
LINE
8
BLACK
6
CONTINUOUS
10
125.3729099999999903
20
-65.8985979999999927
11
124.9339019999999891
21
-65.674911999999992
0
LINE
8
BLACK
6
CONTINUOUS
10
124.9339019999999891
20
-65.674911999999992
11
124.5137969999999967
21
-65.4174720000000036
0
LINE
8
BLACK
6
CONTINUOUS
10
124.5137969999999967
20
-65.4174720000000036
11
124.1151849999999968
21
-65.1278640000000024
0
LINE
8
BLACK
6
CONTINUOUS
10
124.1151849999999968
20
-65.1278640000000024
11
123.740524999999991
21
-64.8078739999999982
0
LINE
8
BLACK
6
CONTINUOUS
10
123.740524999999991
20
-64.8078739999999982
11
123.3921259999999904
21
-64.4594749999999976
0
LINE
8
BLACK
6
CONTINUOUS
10
123.3921259999999904
20
-64.4594749999999976
11
123.0721360000000004
21
-64.0848149999999919
0
LINE
8
BLACK
6
CONTINUOUS
10
123.0721360000000004
20
-64.0848149999999919
11
122.7825279999999992
21
-63.686202999999999
0
LINE
8
BLACK
6
CONTINUOUS
10
122.7825279999999992
20
-63.686202999999999
11
122.5250879999999967
21
-63.2660979999999995
0
LINE
8
BLACK
6
CONTINUOUS
10
122.5250879999999967
20
-63.2660979999999995
11
122.301401999999996
21
-62.8270899999999983
0
LINE
8
BLACK
6
CONTINUOUS
10
122.301401999999996
20
-62.8270899999999983
11
122.1128489999999971
21
-62.3718849999999989
0
LINE
8
BLACK
6
CONTINUOUS
10
122.1128489999999971
20
-62.3718849999999989
11
121.9605929999999887
21
-61.9032889999999938
0
LINE
8
BLACK
6
CONTINUOUS
10
121.9605929999999887
20
-61.9032889999999938
11
121.84557199999999
21
-61.4241919999999979
0
LINE
8
BLACK
6
CONTINUOUS
10
121.84557199999999
20
-61.4241919999999979
11
121.7684950000000015
21
-60.937546999999995
0
LINE
8
BLACK
6
CONTINUOUS
10
121.7684950000000015
20
-60.937546999999995
11
121.7298380000000009
21
-60.4463549999999969
0
LINE
8
BLACK
6
CONTINUOUS
10
121.7298380000000009
20
-60.4463549999999969
11
121.7298380000000009
21
-59.9554189999999991
0
LINE
8
BLACK
6
CONTINUOUS
10
121.7298380000000009
20
-59.9554189999999991
11
121.7298380000000009
21
-59.9536449999999945
0
LINE
8
BLACK
6
CONTINUOUS
10
121.7298380000000009
20
-59.9536449999999945
11
121.7684950000000015
21
-59.4624529999999965
0
LINE
8
BLACK
6
CONTINUOUS
10
121.7684950000000015
20
-59.4624529999999965
11
121.84557199999999
21
-58.9758080000000007
0
LINE
8
BLACK
6
CONTINUOUS
10
121.84557199999999
20
-58.9758080000000007
11
121.9605929999999887
21
-58.4967109999999977
0
LINE
8
BLACK
6
CONTINUOUS
10
121.9605929999999887
20
-58.4967109999999977
11
122.1128489999999971
21
-58.0281149999999997
0
LINE
8
BLACK
6
CONTINUOUS
10
122.1128489999999971
20
-58.0281149999999997
11
122.301401999999996
21
-57.5729100000000003
0
LINE
8
BLACK
6
CONTINUOUS
10
122.301401999999996
20
-57.5729100000000003
11
122.5250879999999967
21
-57.1339019999999991
0
LINE
8
BLACK
6
CONTINUOUS
10
122.5250879999999967
20
-57.1339019999999991
11
122.7825279999999992
21
-56.7137969999999996
0
LINE
8
BLACK
6
CONTINUOUS
10
122.7825279999999992
20
-56.7137969999999996
11
123.0721360000000004
21
-56.3151849999999996
0
LINE
8
BLACK
6
CONTINUOUS
10
123.0721360000000004
20
-56.3151849999999996
11
123.3921259999999904
21
-55.9405250000000009
0
LINE
8
BLACK
6
CONTINUOUS
10
123.3921259999999904
20
-55.9405250000000009
11
123.740524999999991
21
-55.5921260000000004
0
LINE
8
BLACK
6
CONTINUOUS
10
123.740524999999991
20
-55.5921260000000004
11
124.1151849999999968
21
-55.2721359999999962
0
LINE
8
BLACK
6
CONTINUOUS
10
124.1151849999999968
20
-55.2721359999999962
11
124.5137969999999967
21
-54.982527999999995
0
LINE
8
BLACK
6
CONTINUOUS
10
124.5137969999999967
20
-54.982527999999995
11
124.9339019999999891
21
-54.7250879999999995
0
LINE
8
BLACK
6
CONTINUOUS
10
124.9339019999999891
20
-54.7250879999999995
11
125.3729099999999903
21
-54.5014019999999988
0
LINE
8
BLACK
6
CONTINUOUS
10
125.3729099999999903
20
-54.5014019999999988
11
125.8281149999999968
21
-54.3128489999999999
0
LINE
8
BLACK
6
CONTINUOUS
10
125.8281149999999968
20
-54.3128489999999999
11
126.2967109999999877
21
-54.1605929999999987
0
LINE
8
BLACK
6
CONTINUOUS
10
126.2967109999999877
20
-54.1605929999999987
11
126.7758079999999978
21
-54.0455719999999999
0
LINE
8
BLACK
6
CONTINUOUS
10
126.7758079999999978
20
-54.0455719999999999
11
127.2624529999999936
21
-53.9684949999999972
0
LINE
8
BLACK
6
CONTINUOUS
10
127.2624529999999936
20
-53.9684949999999972
11
127.7536449999999917
21
-53.9298379999999966
0
LINE
8
BLACK
6
CONTINUOUS
10
127.7536449999999917
20
-53.9298379999999966
11
128.2463549999999941
21
-53.9298379999999966
0
LINE
8
BLACK
6
CONTINUOUS
10
128.2463549999999941
20
-53.9298379999999966
11
128.7375470000000064
21
-53.9684949999999972
0
LINE
8
BLACK
6
CONTINUOUS
10
121.7749999999999915
20
-60.4445809999999994
11
121.8133789999999976
21
-60.9322349999999986
0
LINE
8
BLACK
6
CONTINUOUS
10
121.8133789999999976
20
-60.9322349999999986
11
121.8899009999999947
21
-61.4153739999999999
0
LINE
8
BLACK
6
CONTINUOUS
10
121.8899009999999947
20
-61.4153739999999999
11
122.0040929999999975
21
-61.891020999999995
0
LINE
8
BLACK
6
CONTINUOUS
10
122.0040929999999975
20
-61.891020999999995
11
122.1552529999999877
21
-62.3562409999999971
0
LINE
8
BLACK
6
CONTINUOUS
10
122.1552529999999877
20
-62.3562409999999971
11
122.3424469999999928
21
-62.8081679999999949
0
LINE
8
BLACK
6
CONTINUOUS
10
122.3424469999999928
20
-62.8081679999999949
11
122.5645219999999966
21
-63.244014
0
LINE
8
BLACK
6
CONTINUOUS
10
122.5645219999999966
20
-63.244014
11
122.8201079999999905
21
-63.6610929999999939
0
LINE
8
BLACK
6
CONTINUOUS
10
122.8201079999999905
20
-63.6610929999999939
11
123.1076300000000003
21
-64.0568329999999975
0
LINE
8
BLACK
6
CONTINUOUS
10
123.1076300000000003
20
-64.0568329999999975
11
123.4253149999999977
21
-64.4287949999999938
0
LINE
8
BLACK
6
CONTINUOUS
10
123.4253149999999977
20
-64.4287949999999938
11
123.7712049999999948
21
-64.774684999999991
0
LINE
8
BLACK
6
CONTINUOUS
10
123.7712049999999948
20
-64.774684999999991
11
124.1431669999999912
21
-65.0923700000000025
0
LINE
8
BLACK
6
CONTINUOUS
10
124.1431669999999912
20
-65.0923700000000025
11
124.5389069999999947
21
-65.3798919999999981
0
LINE
8
BLACK
6
CONTINUOUS
10
124.5389069999999947
20
-65.3798919999999981
11
124.9559859999999958
21
-65.635477999999992
0
LINE
8
BLACK
6
CONTINUOUS
10
124.9559859999999958
20
-65.635477999999992
11
125.3918319999999937
21
-65.8575529999999958
0
LINE
8
BLACK
6
CONTINUOUS
10
125.3918319999999937
20
-65.8575529999999958
11
125.8437589999999915
21
-66.044747000000001
0
LINE
8
BLACK
6
CONTINUOUS
10
125.8437589999999915
20
-66.044747000000001
11
126.3089789999999937
21
-66.1959069999999912
0
LINE
8
BLACK
6
CONTINUOUS
10
126.3089789999999937
20
-66.1959069999999912
11
126.7846259999999887
21
-66.3100989999999939
0
LINE
8
BLACK
6
CONTINUOUS
10
126.7846259999999887
20
-66.3100989999999939
11
127.2677649999999971
21
-66.386620999999991
0
LINE
8
BLACK
6
CONTINUOUS
10
127.2677649999999971
20
-66.386620999999991
11
127.7554189999999892
21
-66.4249999999999972
0
LINE
8
BLACK
6
CONTINUOUS
10
127.7554189999999892
20
-66.4249999999999972
11
128.2445809999999824
21
-66.4249999999999972
0
LINE
8
BLACK
6
CONTINUOUS
10
128.2445809999999824
20
-66.4249999999999972
11
128.7322350000000029
21
-66.386620999999991
0
LINE
8
BLACK
6
CONTINUOUS
10
128.7322350000000029
20
-66.386620999999991
11
129.2153739999999971
21
-66.3100989999999939
0
LINE
8
BLACK
6
CONTINUOUS
10
129.2153739999999971
20
-66.3100989999999939
11
129.6910210000000063
21
-66.1959069999999912
0
LINE
8
BLACK
6
CONTINUOUS
10
129.6910210000000063
20
-66.1959069999999912
11
130.1562409999999943
21
-66.044747000000001
0
LINE
8
BLACK
6
CONTINUOUS
10
130.1562409999999943
20
-66.044747000000001
11
130.6081680000000063
21
-65.8575529999999958
0
LINE
8
BLACK
6
CONTINUOUS
10
130.6081680000000063
20
-65.8575529999999958
11
131.0440140000000042
21
-65.635477999999992
0
LINE
8
BLACK
6
CONTINUOUS
10
131.0440140000000042
20
-65.635477999999992
11
131.4610930000000053
21
-65.3798919999999981
0
LINE
8
BLACK
6
CONTINUOUS
10
131.4610930000000053
20
-65.3798919999999981
11
131.8568329999999946
21
-65.0923700000000025
0
LINE
8
BLACK
6
CONTINUOUS
10
131.8568329999999946
20
-65.0923700000000025
11
132.228794999999991
21
-64.774684999999991
0
LINE
8
BLACK
6
CONTINUOUS
10
132.228794999999991
20
-64.774684999999991
11
132.5746849999999881
21
-64.4287949999999938
0
LINE
8
BLACK
6
CONTINUOUS
10
132.5746849999999881
20
-64.4287949999999938
11
132.8923699999999997
21
-64.0568329999999975
0
LINE
8
BLACK
6
CONTINUOUS
10
132.8923699999999997
20
-64.0568329999999975
11
133.1798919999999953
21
-63.6610929999999939
0
LINE
8
BLACK
6
CONTINUOUS
10
133.1798919999999953
20
-63.6610929999999939
11
133.4354779999999892
21
-63.244014
0
LINE
8
BLACK
6
CONTINUOUS
10
133.4354779999999892
20
-63.244014
11
133.6575530000000072
21
-62.8081679999999949
0
LINE
8
BLACK
6
CONTINUOUS
10
133.6575530000000072
20
-62.8081679999999949
11
133.8447469999999839
21
-62.3562409999999971
0
LINE
8
BLACK
6
CONTINUOUS
10
133.8447469999999839
20
-62.3562409999999971
11
133.9959069999999883
21
-61.891020999999995
0
LINE
8
BLACK
6
CONTINUOUS
10
133.9959069999999883
20
-61.891020999999995
11
134.1100989999999911
21
-61.4153739999999999
0
LINE
8
BLACK
6
CONTINUOUS
10
134.1100989999999911
20
-61.4153739999999999
11
134.1866210000000024
21
-60.9322349999999986
0
LINE
8
BLACK
6
CONTINUOUS
10
134.1866210000000024
20
-60.9322349999999986
11
134.2249999999999943
21
-60.4445809999999994
0
LINE
8
BLACK
6
CONTINUOUS
10
134.2249999999999943
20
-60.4445809999999994
11
134.2249999999999943
21
-59.9554189999999991
0
LINE
8
BLACK
6
CONTINUOUS
10
134.2249999999999943
20
-59.9554189999999991
11
134.1866210000000024
21
-59.467765
0
LINE
8
BLACK
6
CONTINUOUS
10
134.1866210000000024
20
-59.467765
11
134.1100989999999911
21
-58.9846259999999987
0
LINE
8
BLACK
6
CONTINUOUS
10
134.1100989999999911
20
-58.9846259999999987
11
133.9959069999999883
21
-58.5089789999999965
0
LINE
8
BLACK
6
CONTINUOUS
10
133.9959069999999883
20
-58.5089789999999965
11
133.8447469999999839
21
-58.0437589999999943
0
LINE
8
BLACK
6
CONTINUOUS
10
133.8447469999999839
20
-58.0437589999999943
11
133.6575530000000072
21
-57.5918319999999966
0
LINE
8
BLACK
6
CONTINUOUS
10
133.6575530000000072
20
-57.5918319999999966
11
133.4354779999999892
21
-57.1559859999999986
0
LINE
8
BLACK
6
CONTINUOUS
10
133.4354779999999892
20
-57.1559859999999986
11
133.1798919999999953
21
-56.7389069999999975
0
LINE
8
BLACK
6
CONTINUOUS
10
133.1798919999999953
20
-56.7389069999999975
11
132.8923699999999997
21
-56.343166999999994
0
LINE
8
BLACK
6
CONTINUOUS
10
132.8923699999999997
20
-56.343166999999994
11
132.5746849999999881
21
-55.9712049999999977
0
LINE
8
BLACK
6
CONTINUOUS
10
132.5746849999999881
20
-55.9712049999999977
11
132.228794999999991
21
-55.6253150000000005
0
LINE
8
BLACK
6
CONTINUOUS
10
132.228794999999991
20
-55.6253150000000005
11
131.8568329999999946
21
-55.3076299999999961
0
LINE
8
BLACK
6
CONTINUOUS
10
131.8568329999999946
20
-55.3076299999999961
11
131.4610930000000053
21
-55.0201080000000005
0
LINE
8
BLACK
6
CONTINUOUS
10
131.4610930000000053
20
-55.0201080000000005
11
131.0440140000000042
21
-54.7645219999999995
0
LINE
8
BLACK
6
CONTINUOUS
10
131.0440140000000042
20
-54.7645219999999995
11
130.6081680000000063
21
-54.5424469999999957
0
LINE
8
BLACK
6
CONTINUOUS
10
130.6081680000000063
20
-54.5424469999999957
11
130.1562409999999943
21
-54.3552529999999976
0
LINE
8
BLACK
6
CONTINUOUS
10
130.1562409999999943
20
-54.3552529999999976
11
129.6910210000000063
21
-54.2040930000000003
0
LINE
8
BLACK
6
CONTINUOUS
10
129.6910210000000063
20
-54.2040930000000003
11
129.2153739999999971
21
-54.0899009999999976
0
LINE
8
BLACK
6
CONTINUOUS
10
129.2153739999999971
20
-54.0899009999999976
11
128.7322350000000029
21
-54.0133790000000005
0
LINE
8
BLACK
6
CONTINUOUS
10
128.7322350000000029
20
-54.0133790000000005
11
128.2445809999999824
21
-53.9749999999999943
0
LINE
8
BLACK
6
CONTINUOUS
10
128.2445809999999824
20
-53.9749999999999943
11
127.7554189999999892
21
-53.9749999999999943
0
LINE
8
BLACK
6
CONTINUOUS
10
127.7554189999999892
20
-53.9749999999999943
11
127.2677649999999971
21
-54.0133790000000005
0
LINE
8
BLACK
6
CONTINUOUS
10
127.2677649999999971
20
-54.0133790000000005
11
126.7846259999999887
21
-54.0899009999999976
0
LINE
8
BLACK
6
CONTINUOUS
10
126.7846259999999887
20
-54.0899009999999976
11
126.3089789999999937
21
-54.2040930000000003
0
LINE
8
BLACK
6
CONTINUOUS
10
126.3089789999999937
20
-54.2040930000000003
11
125.8437589999999915
21
-54.3552529999999976
0
LINE
8
BLACK
6
CONTINUOUS
10
125.8437589999999915
20
-54.3552529999999976
11
125.3918319999999937
21
-54.5424469999999957
0
LINE
8
BLACK
6
CONTINUOUS
10
125.3918319999999937
20
-54.5424469999999957
11
124.9559859999999958
21
-54.7645219999999995
0
LINE
8
BLACK
6
CONTINUOUS
10
124.9559859999999958
20
-54.7645219999999995
11
124.5389069999999947
21
-55.0201080000000005
0
LINE
8
BLACK
6
CONTINUOUS
10
124.5389069999999947
20
-55.0201080000000005
11
124.1431669999999912
21
-55.3076299999999961
0
LINE
8
BLACK
6
CONTINUOUS
10
124.1431669999999912
20
-55.3076299999999961
11
123.7712049999999948
21
-55.6253150000000005
0
LINE
8
BLACK
6
CONTINUOUS
10
123.7712049999999948
20
-55.6253150000000005
11
123.4253149999999977
21
-55.9712049999999977
0
LINE
8
BLACK
6
CONTINUOUS
10
123.4253149999999977
20
-55.9712049999999977
11
123.1076300000000003
21
-56.343166999999994
0
LINE
8
BLACK
6
CONTINUOUS
10
123.1076300000000003
20
-56.343166999999994
11
122.8201079999999905
21
-56.7389069999999975
0
LINE
8
BLACK
6
CONTINUOUS
10
122.8201079999999905
20
-56.7389069999999975
11
122.5645219999999966
21
-57.1559859999999986
0
LINE
8
BLACK
6
CONTINUOUS
10
122.5645219999999966
20
-57.1559859999999986
11
122.3424469999999928
21
-57.5918319999999966
0
LINE
8
BLACK
6
CONTINUOUS
10
122.3424469999999928
20
-57.5918319999999966
11
122.1552529999999877
21
-58.0437589999999943
0
LINE
8
BLACK
6
CONTINUOUS
10
122.1552529999999877
20
-58.0437589999999943
11
122.0040929999999975
21
-58.5089789999999965
0
LINE
8
BLACK
6
CONTINUOUS
10
122.0040929999999975
20
-58.5089789999999965
11
121.8899009999999947
21
-58.9846259999999987
0
LINE
8
BLACK
6
CONTINUOUS
10
121.8899009999999947
20
-58.9846259999999987
11
121.8133789999999976
21
-59.467765
0
LINE
8
BLACK
6
CONTINUOUS
10
121.8133789999999976
20
-59.467765
11
121.7749999999999915
21
-59.9554189999999991
0
LINE
8
BLACK
6
CONTINUOUS
10
121.7749999999999915
20
-59.9554189999999991
11
121.7749999999999915
21
-60.4445809999999994
0
LINE
8
BLACK
6
CONTINUOUS
10
116.1579989999999896
20
-57.8615729999999999
11
116.5252789999999976
21
-57.9263349999999946
0
LINE
8
BLACK
6
CONTINUOUS
10
116.5252789999999976
20
-57.9263349999999946
11
116.885516999999993
21
-58.0228599999999943
0
LINE
8
BLACK
6
CONTINUOUS
10
116.885516999999993
20
-58.0228599999999943
11
117.2359719999999896
21
-58.1504149999999953
0
LINE
8
BLACK
6
CONTINUOUS
10
117.2359719999999896
20
-58.1504149999999953
11
117.5739749999999901
21
-58.3080289999999977
0
LINE
8
BLACK
6
CONTINUOUS
10
117.5739749999999901
20
-58.3080289999999977
11
117.8969559999999888
21
-58.4945019999999971
0
LINE
8
BLACK
6
CONTINUOUS
10
117.8969559999999888
20
-58.4945019999999971
11
118.2024550000000005
21
-58.7084139999999977
0
LINE
8
BLACK
6
CONTINUOUS
10
118.2024550000000005
20
-58.7084139999999977
11
118.4881479999999954
21
-58.9481389999999976
0
LINE
8
BLACK
6
CONTINUOUS
10
118.4881479999999954
20
-58.9481389999999976
11
118.751860999999991
21
-59.2118520000000004
0
LINE
8
BLACK
6
CONTINUOUS
10
118.751860999999991
20
-59.2118520000000004
11
118.9915859999999981
21
-59.4975449999999952
0
LINE
8
BLACK
6
CONTINUOUS
10
118.9915859999999981
20
-59.4975449999999952
11
119.2054979999999915
21
-59.8030439999999999
0
LINE
8
BLACK
6
CONTINUOUS
10
119.2054979999999915
20
-59.8030439999999999
11
119.3919709999999981
21
-60.1260249999999985
0
LINE
8
BLACK
6
CONTINUOUS
10
119.3919709999999981
20
-60.1260249999999985
11
119.5495849999999933
21
-60.464027999999999
0
LINE
8
BLACK
6
CONTINUOUS
10
119.5495849999999933
20
-60.464027999999999
11
119.6771399999999943
21
-60.8144829999999956
0
LINE
8
BLACK
6
CONTINUOUS
10
119.6771399999999943
20
-60.8144829999999956
11
119.7736649999999941
21
-61.1747209999999981
0
LINE
8
BLACK
6
CONTINUOUS
10
119.7736649999999941
20
-61.1747209999999981
11
119.8384269999999958
21
-61.5420009999999991
0
LINE
8
BLACK
6
CONTINUOUS
10
119.8384269999999958
20
-61.5420009999999991
11
119.8709309999999988
21
-61.9135269999999949
0
LINE
8
BLACK
6
CONTINUOUS
10
119.8709309999999988
20
-61.9135269999999949
11
119.8709309999999988
21
-62.2864729999999938
0
LINE
8
BLACK
6
CONTINUOUS
10
119.8709309999999988
20
-62.2864729999999938
11
119.8384269999999958
21
-62.6579989999999967
0
LINE
8
BLACK
6
CONTINUOUS
10
119.8384269999999958
20
-62.6579989999999967
11
119.7736649999999941
21
-63.0252789999999976
0
LINE
8
BLACK
6
CONTINUOUS
10
119.7736649999999941
20
-63.0252789999999976
11
119.6771399999999943
21
-63.3855170000000001
0
LINE
8
BLACK
6
CONTINUOUS
10
119.6771399999999943
20
-63.3855170000000001
11
119.5495849999999933
21
-63.7359719999999967
0
LINE
8
BLACK
6
CONTINUOUS
10
119.5495849999999933
20
-63.7359719999999967
11
119.3919709999999981
21
-64.0739749999999901
0
LINE
8
BLACK
6
CONTINUOUS
10
119.3919709999999981
20
-64.0739749999999901
11
119.2054979999999915
21
-64.396956000000003
0
LINE
8
BLACK
6
CONTINUOUS
10
119.2054979999999915
20
-64.396956000000003
11
118.9915859999999981
21
-64.7024550000000005
0
LINE
8
BLACK
6
CONTINUOUS
10
118.9915859999999981
20
-64.7024550000000005
11
118.751860999999991
21
-64.9881479999999954
0
LINE
8
BLACK
6
CONTINUOUS
10
118.751860999999991
20
-64.9881479999999954
11
118.4881479999999954
21
-65.251860999999991
0
LINE
8
BLACK
6
CONTINUOUS
10
118.4881479999999954
20
-65.251860999999991
11
118.2024550000000005
21
-65.4915859999999981
0
LINE
8
BLACK
6
CONTINUOUS
10
118.2024550000000005
20
-65.4915859999999981
11
117.8969559999999888
21
-65.7054979999999915
0
LINE
8
BLACK
6
CONTINUOUS
10
117.8969559999999888
20
-65.7054979999999915
11
117.5739749999999901
21
-65.8919709999999981
0
LINE
8
BLACK
6
CONTINUOUS
10
117.5739749999999901
20
-65.8919709999999981
11
117.2359719999999896
21
-66.0495849999999933
0
LINE
8
BLACK
6
CONTINUOUS
10
117.2359719999999896
20
-66.0495849999999933
11
116.885516999999993
21
-66.1771399999999943
0
LINE
8
BLACK
6
CONTINUOUS
10
116.885516999999993
20
-66.1771399999999943
11
116.5252789999999976
21
-66.2736649999999941
0
LINE
8
BLACK
6
CONTINUOUS
10
116.5252789999999976
20
-66.2736649999999941
11
116.1579989999999896
21
-66.3384269999999958
0
LINE
8
BLACK
6
CONTINUOUS
10
116.1579989999999896
20
-66.3384269999999958
11
115.7864730000000009
21
-66.3709309999999988
0
LINE
8
BLACK
6
CONTINUOUS
10
115.7864730000000009
20
-66.3709309999999988
11
115.4135269999999878
21
-66.3709309999999988
0
LINE
8
BLACK
6
CONTINUOUS
10
115.4135269999999878
20
-66.3709309999999988
11
115.0420009999999991
21
-66.3384269999999958
0
LINE
8
BLACK
6
CONTINUOUS
10
115.0420009999999991
20
-66.3384269999999958
11
114.674720999999991
21
-66.2736649999999941
0
LINE
8
BLACK
6
CONTINUOUS
10
114.674720999999991
20
-66.2736649999999941
11
114.3144829999999956
21
-66.1771399999999943
0
LINE
8
BLACK
6
CONTINUOUS
10
114.3144829999999956
20
-66.1771399999999943
11
113.964027999999999
21
-66.0495849999999933
0
LINE
8
BLACK
6
CONTINUOUS
10
113.964027999999999
20
-66.0495849999999933
11
113.6260249999999985
21
-65.8919709999999981
0
LINE
8
BLACK
6
CONTINUOUS
10
113.6260249999999985
20
-65.8919709999999981
11
113.3030439999999999
21
-65.7054979999999915
0
LINE
8
BLACK
6
CONTINUOUS
10
113.3030439999999999
20
-65.7054979999999915
11
112.9975449999999881
21
-65.4915859999999981
0
LINE
8
BLACK
6
CONTINUOUS
10
112.9975449999999881
20
-65.4915859999999981
11
112.7118519999999933
21
-65.251860999999991
0
LINE
8
BLACK
6
CONTINUOUS
10
112.7118519999999933
20
-65.251860999999991
11
112.4481389999999976
21
-64.9881479999999954
0
LINE
8
BLACK
6
CONTINUOUS
10
112.4481389999999976
20
-64.9881479999999954
11
112.2084139999999906
21
-64.7024550000000005
0
LINE
8
BLACK
6
CONTINUOUS
10
112.2084139999999906
20
-64.7024550000000005
11
111.9945019999999971
21
-64.396956000000003
0
LINE
8
BLACK
6
CONTINUOUS
10
111.9945019999999971
20
-64.396956000000003
11
111.8080289999999906
21
-64.0739749999999901
0
LINE
8
BLACK
6
CONTINUOUS
10
111.8080289999999906
20
-64.0739749999999901
11
111.6504149999999953
21
-63.7359719999999967
0
LINE
8
BLACK
6
CONTINUOUS
10
111.6504149999999953
20
-63.7359719999999967
11
111.5228599999999943
21
-63.3855170000000001
0
LINE
8
BLACK
6
CONTINUOUS
10
111.5228599999999943
20
-63.3855170000000001
11
111.4263349999999946
21
-63.0252789999999976
0
LINE
8
BLACK
6
CONTINUOUS
10
111.4263349999999946
20
-63.0252789999999976
11
111.3615729999999928
21
-62.6579989999999967
0
LINE
8
BLACK
6
CONTINUOUS
10
111.3615729999999928
20
-62.6579989999999967
11
111.3290689999999898
21
-62.2864729999999938
0
LINE
8
BLACK
6
CONTINUOUS
10
111.3290689999999898
20
-62.2864729999999938
11
111.3290689999999898
21
-61.9155329999999964
0
LINE
8
BLACK
6
CONTINUOUS
10
111.3290689999999898
20
-61.9155329999999964
11
111.3290689999999898
21
-61.9135269999999949
0
LINE
8
BLACK
6
CONTINUOUS
10
111.3290689999999898
20
-61.9135269999999949
11
111.3615729999999928
21
-61.5420009999999991
0
LINE
8
BLACK
6
CONTINUOUS
10
111.3615729999999928
20
-61.5420009999999991
11
111.4263349999999946
21
-61.1747209999999981
0
LINE
8
BLACK
6
CONTINUOUS
10
111.4263349999999946
20
-61.1747209999999981
11
111.5228599999999943
21
-60.8144829999999956
0
LINE
8
BLACK
6
CONTINUOUS
10
111.5228599999999943
20
-60.8144829999999956
11
111.6504149999999953
21
-60.464027999999999
0
LINE
8
BLACK
6
CONTINUOUS
10
111.6504149999999953
20
-60.464027999999999
11
111.8080289999999906
21
-60.1260249999999985
0
LINE
8
BLACK
6
CONTINUOUS
10
111.8080289999999906
20
-60.1260249999999985
11
111.9945019999999971
21
-59.8030439999999999
0
LINE
8
BLACK
6
CONTINUOUS
10
111.9945019999999971
20
-59.8030439999999999
11
112.2084139999999906
21
-59.4975449999999952
0
LINE
8
BLACK
6
CONTINUOUS
10
112.2084139999999906
20
-59.4975449999999952
11
112.4481389999999976
21
-59.2118520000000004
0
LINE
8
BLACK
6
CONTINUOUS
10
112.4481389999999976
20
-59.2118520000000004
11
112.7118519999999933
21
-58.9481389999999976
0
LINE
8
BLACK
6
CONTINUOUS
10
112.7118519999999933
20
-58.9481389999999976
11
112.9975449999999881
21
-58.7084139999999977
0
LINE
8
BLACK
6
CONTINUOUS
10
112.9975449999999881
20
-58.7084139999999977
11
113.3030439999999999
21
-58.4945019999999971
0
LINE
8
BLACK
6
CONTINUOUS
10
113.3030439999999999
20
-58.4945019999999971
11
113.6260249999999985
21
-58.3080289999999977
0
LINE
8
BLACK
6
CONTINUOUS
10
113.6260249999999985
20
-58.3080289999999977
11
113.964027999999999
21
-58.1504149999999953
0
LINE
8
BLACK
6
CONTINUOUS
10
113.964027999999999
20
-58.1504149999999953
11
114.3144829999999956
21
-58.0228599999999943
0
LINE
8
BLACK
6
CONTINUOUS
10
114.3144829999999956
20
-58.0228599999999943
11
114.674720999999991
21
-57.9263349999999946
0
LINE
8
BLACK
6
CONTINUOUS
10
114.674720999999991
20
-57.9263349999999946
11
115.0420009999999991
21
-57.8615729999999999
0
LINE
8
BLACK
6
CONTINUOUS
10
115.0420009999999991
20
-57.8615729999999999
11
115.4135269999999878
21
-57.8290689999999969
0
LINE
8
BLACK
6
CONTINUOUS
10
115.4135269999999878
20
-57.8290689999999969
11
115.7864730000000009
21
-57.8290689999999969
0
LINE
8
BLACK
6
CONTINUOUS
10
115.7864730000000009
20
-57.8290689999999969
11
116.1579989999999896
21
-57.8615729999999999
0
LINE
8
BLACK
6
CONTINUOUS
10
111.375
20
-62.2844669999999994
11
111.4071549999999888
21
-62.6519989999999964
0
LINE
8
BLACK
6
CONTINUOUS
10
111.4071549999999888
20
-62.6519989999999964
11
111.4712199999999882
21
-63.0153289999999942
0
LINE
8
BLACK
6
CONTINUOUS
10
111.4712199999999882
20
-63.0153289999999942
11
111.5667069999999939
21
-63.3716919999999959
0
LINE
8
BLACK
6
CONTINUOUS
10
111.5667069999999939
20
-63.3716919999999959
11
111.6928899999999913
21
-63.7183779999999942
0
LINE
8
BLACK
6
CONTINUOUS
10
111.6928899999999913
20
-63.7183779999999942
11
111.8488089999999886
21
-64.0527459999999991
0
LINE
8
BLACK
6
CONTINUOUS
10
111.8488089999999886
20
-64.0527459999999991
11
112.0332760000000007
21
-64.3722530000000006
0
LINE
8
BLACK
6
CONTINUOUS
10
112.0332760000000007
20
-64.3722530000000006
11
112.2448890000000006
21
-64.6744669999999928
0
LINE
8
BLACK
6
CONTINUOUS
10
112.2448890000000006
20
-64.6744669999999928
11
112.4820359999999937
21
-64.9570879999999988
0
LINE
8
BLACK
6
CONTINUOUS
10
112.4820359999999937
20
-64.9570879999999988
11
112.7429119999999898
21
-65.2179639999999949
0
LINE
8
BLACK
6
CONTINUOUS
10
112.7429119999999898
20
-65.2179639999999949
11
113.0255329999999958
21
-65.4551110000000023
0
LINE
8
BLACK
6
CONTINUOUS
10
113.0255329999999958
20
-65.4551110000000023
11
113.327746999999988
21
-65.6667240000000021
0
LINE
8
BLACK
6
CONTINUOUS
10
113.327746999999988
20
-65.6667240000000021
11
113.6472539999999896
21
-65.851191
0
LINE
8
BLACK
6
CONTINUOUS
10
113.6472539999999896
20
-65.851191
11
113.9816220000000015
21
-66.0071099999999973
0
LINE
8
BLACK
6
CONTINUOUS
10
113.9816220000000015
20
-66.0071099999999973
11
114.3283079999999927
21
-66.1332929999999948
0
LINE
8
BLACK
6
CONTINUOUS
10
114.3283079999999927
20
-66.1332929999999948
11
114.6846709999999945
21
-66.2287800000000004
0
LINE
8
BLACK
6
CONTINUOUS
10
114.6846709999999945
20
-66.2287800000000004
11
115.0480009999999993
21
-66.2928449999999998
0
LINE
8
BLACK
6
CONTINUOUS
10
115.0480009999999993
20
-66.2928449999999998
11
115.4155329999999964
21
-66.3250000000000028
0
LINE
8
BLACK
6
CONTINUOUS
10
115.4155329999999964
20
-66.3250000000000028
11
115.7844669999999923
21
-66.3250000000000028
0
LINE
8
BLACK
6
CONTINUOUS
10
115.7844669999999923
20
-66.3250000000000028
11
116.1519989999999893
21
-66.2928449999999998
0
LINE
8
BLACK
6
CONTINUOUS
10
116.1519989999999893
20
-66.2928449999999998
11
116.5153289999999942
21
-66.2287800000000004
0
LINE
8
BLACK
6
CONTINUOUS
10
116.5153289999999942
20
-66.2287800000000004
11
116.8716919999999959
21
-66.1332929999999948
0
LINE
8
BLACK
6
CONTINUOUS
10
116.8716919999999959
20
-66.1332929999999948
11
117.2183780000000013
21
-66.0071099999999973
0
LINE
8
BLACK
6
CONTINUOUS
10
117.2183780000000013
20
-66.0071099999999973
11
117.5527459999999991
21
-65.851191
0
LINE
8
BLACK
6
CONTINUOUS
10
117.5527459999999991
20
-65.851191
11
117.8722530000000006
21
-65.6667240000000021
0
LINE
8
BLACK
6
CONTINUOUS
10
117.8722530000000006
20
-65.6667240000000021
11
118.1744669999999928
21
-65.4551110000000023
0
LINE
8
BLACK
6
CONTINUOUS
10
118.1744669999999928
20
-65.4551110000000023
11
118.4570879999999988
21
-65.2179639999999949
0
LINE
8
BLACK
6
CONTINUOUS
10
118.4570879999999988
20
-65.2179639999999949
11
118.7179639999999949
21
-64.9570879999999988
0
LINE
8
BLACK
6
CONTINUOUS
10
118.7179639999999949
20
-64.9570879999999988
11
118.9551109999999881
21
-64.6744669999999928
0
LINE
8
BLACK
6
CONTINUOUS
10
118.9551109999999881
20
-64.6744669999999928
11
119.1667239999999879
21
-64.3722530000000006
0
LINE
8
BLACK
6
CONTINUOUS
10
119.1667239999999879
20
-64.3722530000000006
11
119.351191
21
-64.0527459999999991
0
LINE
8
BLACK
6
CONTINUOUS
10
119.351191
20
-64.0527459999999991
11
119.5071099999999973
21
-63.7183779999999942
0
LINE
8
BLACK
6
CONTINUOUS
10
119.5071099999999973
20
-63.7183779999999942
11
119.6332929999999948
21
-63.3716919999999959
0
LINE
8
BLACK
6
CONTINUOUS
10
119.6332929999999948
20
-63.3716919999999959
11
119.7287800000000004
21
-63.0153289999999942
0
LINE
8
BLACK
6
CONTINUOUS
10
119.7287800000000004
20
-63.0153289999999942
11
119.7928449999999998
21
-62.6519989999999964
0
LINE
8
BLACK
6
CONTINUOUS
10
119.7928449999999998
20
-62.6519989999999964
11
119.8249999999999886
21
-62.2844669999999994
0
LINE
8
BLACK
6
CONTINUOUS
10
119.8249999999999886
20
-62.2844669999999994
11
119.8249999999999886
21
-61.9155329999999964
0
LINE
8
BLACK
6
CONTINUOUS
10
119.8249999999999886
20
-61.9155329999999964
11
119.7928449999999998
21
-61.5480009999999993
0
LINE
8
BLACK
6
CONTINUOUS
10
119.7928449999999998
20
-61.5480009999999993
11
119.7287800000000004
21
-61.1846709999999945
0
LINE
8
BLACK
6
CONTINUOUS
10
119.7287800000000004
20
-61.1846709999999945
11
119.6332929999999948
21
-60.8283079999999998
0
LINE
8
BLACK
6
CONTINUOUS
10
119.6332929999999948
20
-60.8283079999999998
11
119.5071099999999973
21
-60.4816219999999944
0
LINE
8
BLACK
6
CONTINUOUS
10
119.5071099999999973
20
-60.4816219999999944
11
119.351191
21
-60.1472539999999967
0
LINE
8
BLACK
6
CONTINUOUS
10
119.351191
20
-60.1472539999999967
11
119.1667239999999879
21
-59.8277469999999951
0
LINE
8
BLACK
6
CONTINUOUS
10
119.1667239999999879
20
-59.8277469999999951
11
118.9551109999999881
21
-59.5255329999999958
0
LINE
8
BLACK
6
CONTINUOUS
10
118.9551109999999881
20
-59.5255329999999958
11
118.7179639999999949
21
-59.2429119999999969
0
LINE
8
BLACK
6
CONTINUOUS
10
118.7179639999999949
20
-59.2429119999999969
11
118.4570879999999988
21
-58.9820360000000008
0
LINE
8
BLACK
6
CONTINUOUS
10
118.4570879999999988
20
-58.9820360000000008
11
118.1744669999999928
21
-58.7448890000000006
0
LINE
8
BLACK
6
CONTINUOUS
10
118.1744669999999928
20
-58.7448890000000006
11
117.8722530000000006
21
-58.5332760000000007
0
LINE
8
BLACK
6
CONTINUOUS
10
117.8722530000000006
20
-58.5332760000000007
11
117.5527459999999991
21
-58.3488089999999957
0
LINE
8
BLACK
6
CONTINUOUS
10
117.5527459999999991
20
-58.3488089999999957
11
117.2183780000000013
21
-58.1928899999999985
0
LINE
8
BLACK
6
CONTINUOUS
10
117.2183780000000013
20
-58.1928899999999985
11
116.8716919999999959
21
-58.0667069999999939
0
LINE
8
BLACK
6
CONTINUOUS
10
116.8716919999999959
20
-58.0667069999999939
11
116.5153289999999942
21
-57.9712199999999953
0
LINE
8
BLACK
6
CONTINUOUS
10
116.5153289999999942
20
-57.9712199999999953
11
116.1519989999999893
21
-57.9071549999999959
0
LINE
8
BLACK
6
CONTINUOUS
10
116.1519989999999893
20
-57.9071549999999959
11
115.7844669999999923
21
-57.875
0
LINE
8
BLACK
6
CONTINUOUS
10
115.7844669999999923
20
-57.875
11
115.4155329999999964
21
-57.875
0
LINE
8
BLACK
6
CONTINUOUS
10
115.4155329999999964
20
-57.875
11
115.0480009999999993
21
-57.9071549999999959
0
LINE
8
BLACK
6
CONTINUOUS
10
115.0480009999999993
20
-57.9071549999999959
11
114.6846709999999945
21
-57.9712199999999953
0
LINE
8
BLACK
6
CONTINUOUS
10
114.6846709999999945
20
-57.9712199999999953
11
114.3283079999999927
21
-58.0667069999999939
0
LINE
8
BLACK
6
CONTINUOUS
10
114.3283079999999927
20
-58.0667069999999939
11
113.9816220000000015
21
-58.1928899999999985
0
LINE
8
BLACK
6
CONTINUOUS
10
113.9816220000000015
20
-58.1928899999999985
11
113.6472539999999896
21
-58.3488089999999957
0
LINE
8
BLACK
6
CONTINUOUS
10
113.6472539999999896
20
-58.3488089999999957
11
113.327746999999988
21
-58.5332760000000007
0
LINE
8
BLACK
6
CONTINUOUS
10
113.327746999999988
20
-58.5332760000000007
11
113.0255329999999958
21
-58.7448890000000006
0
LINE
8
BLACK
6
CONTINUOUS
10
113.0255329999999958
20
-58.7448890000000006
11
112.7429119999999898
21
-58.9820360000000008
0
LINE
8
BLACK
6
CONTINUOUS
10
112.7429119999999898
20
-58.9820360000000008
11
112.4820359999999937
21
-59.2429119999999969
0
LINE
8
BLACK
6
CONTINUOUS
10
112.4820359999999937
20
-59.2429119999999969
11
112.2448890000000006
21
-59.5255329999999958
0
LINE
8
BLACK
6
CONTINUOUS
10
112.2448890000000006
20
-59.5255329999999958
11
112.0332760000000007
21
-59.8277469999999951
0
LINE
8
BLACK
6
CONTINUOUS
10
112.0332760000000007
20
-59.8277469999999951
11
111.8488089999999886
21
-60.1472539999999967
0
LINE
8
BLACK
6
CONTINUOUS
10
111.8488089999999886
20
-60.1472539999999967
11
111.6928899999999913
21
-60.4816219999999944
0
LINE
8
BLACK
6
CONTINUOUS
10
111.6928899999999913
20
-60.4816219999999944
11
111.5667069999999939
21
-60.8283079999999998
0
LINE
8
BLACK
6
CONTINUOUS
10
111.5667069999999939
20
-60.8283079999999998
11
111.4712199999999882
21
-61.1846709999999945
0
LINE
8
BLACK
6
CONTINUOUS
10
111.4712199999999882
20
-61.1846709999999945
11
111.4071549999999888
21
-61.5480009999999993
0
LINE
8
BLACK
6
CONTINUOUS
10
111.4071549999999888
20
-61.5480009999999993
11
111.375
21
-61.9155329999999964
0
LINE
8
BLACK
6
CONTINUOUS
10
111.375
20
-61.9155329999999964
11
111.375
21
-62.2844669999999994
  0
ENDSEC
  0
EOF
